<svg width="764" height="650" viewBox="0 0 764 650" fill="none" xmlns="http://www.w3.org/2000/svg">
<path d="M107.8 297.904C57.7891 306.213 13.4379 354.349 1.16755 412.994C-6.96825 451.888 30.8433 482.828 9.43672 542.417C-7.43504 589.468 23.441 650 23.441 650L764 650L764 180.571C764 180.571 713.445 150.715 651.966 163.087C605.285 172.482 526.728 237.236 435.9 180.571C374.681 142.378 273.991 140.659 234.505 180.571C175.245 240.472 205.163 281.726 107.8 297.904Z" fill="url(#paint0_linear)"/>
<path opacity="0.5" fill-rule="evenodd" clip-rule="evenodd" d="M510.002 454.022L509.488 454.022C507.946 454.022 506.404 454.022 505.377 453.497L505.377 456.122L505.891 456.122C507.432 456.122 508.974 456.122 510.516 456.648L510.002 454.022ZM500.237 453.497C498.695 453.497 497.153 453.497 495.097 452.971L495.097 455.597C496.639 455.597 498.181 455.597 500.237 456.122L500.237 453.497ZM487.901 452.446C486.36 452.446 484.818 451.921 482.762 451.921L482.762 454.547C484.304 454.547 485.846 455.072 487.901 455.072L487.901 452.446ZM475.566 451.396C474.024 451.396 472.482 450.871 470.426 450.871L470.426 453.497C471.968 453.497 473.51 454.022 475.566 454.022L475.566 451.396ZM463.231 450.346L458.091 449.82L458.091 452.446L463.231 452.971L463.231 450.346ZM450.382 449.295C448.84 449.295 447.298 448.77 445.242 448.77L445.242 451.396C446.784 451.396 448.326 451.921 450.382 451.921L450.382 449.295ZM438.046 448.245C436.504 448.245 434.962 448.245 432.906 447.72L432.906 450.346C434.448 450.346 435.99 450.346 438.046 450.871L438.046 448.245ZM425.711 447.195C424.169 447.195 422.113 447.195 420.571 447.195L420.571 449.82C422.113 449.82 423.655 449.82 425.711 449.82L425.711 447.195ZM412.862 446.669C411.32 446.669 409.264 446.669 407.722 446.669L407.722 449.295C409.264 449.295 410.806 449.295 412.862 449.295L412.862 446.669ZM400.526 447.72C398.984 447.72 396.928 448.245 395.387 448.77L395.901 451.396C397.442 450.871 398.984 450.871 400.526 450.346L400.526 447.72ZM388.191 451.396C386.649 452.446 385.107 452.971 384.079 454.547L385.621 456.648C387.163 455.597 388.191 454.547 389.733 454.022L388.191 451.396ZM377.912 459.273C376.37 460.324 375.342 461.374 373.8 462.424L375.342 464.525C376.37 463.475 377.911 462.424 378.939 461.374L377.912 459.273ZM368.146 467.676C367.118 468.727 365.576 469.777 364.548 471.352L366.09 473.453C367.118 472.403 368.66 471.352 369.688 469.777L368.146 467.676ZM358.895 476.604C357.353 478.18 356.325 479.23 355.297 480.28L357.353 481.856L358.381 480.805C359.408 479.755 359.922 479.23 360.95 478.18L361.464 477.654L358.895 476.604ZM350.157 485.532C349.129 486.582 347.587 488.158 346.559 489.208L348.615 490.784C349.643 489.733 350.671 488.158 352.213 487.108L350.157 485.532ZM341.42 494.985C340.392 496.035 339.364 497.611 337.822 498.661L339.878 500.237C340.905 499.186 341.933 497.611 343.475 496.561L341.42 494.985ZM333.196 503.913C332.168 504.963 331.14 506.539 329.598 507.589L331.654 509.165C332.682 508.114 333.71 506.539 335.252 505.488L333.196 503.913ZM324.458 513.366C323.43 514.416 322.403 515.992 320.861 517.042L322.916 518.618C323.944 517.567 324.972 515.992 326.514 514.942L324.458 513.366ZM315.721 522.819C314.693 523.869 313.151 525.445 312.123 526.495L314.179 528.071C315.207 527.02 316.749 525.445 317.777 524.395L315.721 522.819ZM306.983 531.747C305.955 532.797 304.413 533.848 303.386 535.423L304.927 537.524C305.955 536.474 307.497 535.423 308.525 533.848L306.983 531.747ZM297.732 540.15C296.19 541.2 295.162 542.25 294.134 543.301L295.676 545.401C296.704 544.351 298.246 543.301 299.274 542.25L297.732 540.15ZM288.48 548.552C286.938 549.603 285.91 550.653 284.369 551.703L285.91 553.804C287.452 552.754 288.48 551.703 290.022 550.653L288.48 548.552ZM278.201 555.905C276.659 556.955 275.631 558.005 274.089 558.531L275.117 560.631C276.659 559.581 277.687 559.056 279.229 558.005L278.201 555.905ZM267.408 562.732C265.866 563.782 264.324 564.308 262.782 565.358L263.81 567.459C265.352 566.933 266.894 565.883 268.435 564.833L267.408 562.732ZM256.614 567.984C255.072 568.509 253.53 569.559 251.988 570.084L253.016 572.71C254.558 571.66 256.1 571.135 257.642 570.61L256.614 567.984ZM244.793 572.71C243.251 573.235 241.709 573.761 240.167 574.286L240.681 576.386C242.223 575.861 243.765 575.336 245.307 574.811L244.793 572.71ZM232.971 575.861C231.429 576.386 229.888 576.386 228.346 576.912L228.86 579.537C230.402 579.012 231.943 579.012 233.485 578.487L233.999 578.487L232.971 575.861ZM220.636 577.962C219.094 577.962 217.552 578.487 216.01 578.487L216.01 581.113L216.524 581.113C218.066 581.113 219.608 580.588 221.15 580.588L220.636 577.962ZM208.301 579.012C206.759 579.012 205.217 579.012 203.161 579.012L203.161 581.638C204.703 581.638 206.759 581.638 208.301 581.638L208.301 579.012ZM195.965 579.012C194.423 579.012 192.882 579.012 190.826 578.487L190.826 581.113C192.368 581.113 194.423 581.113 195.965 581.638L195.965 579.012ZM183.63 577.962L182.602 577.962C181.574 577.962 180.032 577.437 179.004 577.437L178.49 580.063C180.032 580.588 181.574 580.588 183.116 580.588L183.63 577.962ZM171.295 575.336C169.753 574.811 168.211 574.286 166.669 574.286L166.155 576.912C167.697 577.437 169.239 577.962 170.781 577.962L171.295 575.336ZM159.473 571.66C157.931 571.135 156.39 570.61 154.848 570.084L153.82 572.185C155.362 572.71 156.904 573.235 158.445 574.286L159.473 571.66ZM148.166 566.933C146.624 566.408 145.082 565.358 143.54 564.833L142.512 566.933C144.054 567.984 145.596 568.509 147.138 569.559L148.166 566.933ZM137.373 560.631C135.831 559.581 134.803 558.531 133.261 558.005L131.719 560.106C133.261 561.156 134.289 562.207 135.831 563.257L137.373 560.631ZM127.607 553.279C126.579 552.229 125.037 551.178 124.009 550.128L122.467 552.229C123.495 553.279 125.037 554.329 126.065 555.38L127.607 553.279ZM118.87 544.351C117.842 543.301 116.814 541.725 115.786 540.675L113.73 542.25C114.758 543.301 115.786 544.876 117.328 545.927L118.87 544.351ZM110.646 534.373C109.618 533.322 109.104 531.747 108.076 530.697L107.562 530.171L105.506 531.747C106.534 533.322 107.562 534.373 108.59 535.948L110.646 534.373ZM103.964 523.869C102.936 522.294 102.422 520.718 101.395 519.668L99.3386 520.718C99.8526 522.294 100.881 523.869 101.395 524.92L103.964 523.869ZM98.3107 512.841C97.7968 511.265 96.7688 509.69 96.2548 508.114L93.6849 509.165C94.1989 510.74 94.7129 512.316 95.7409 513.891L98.3107 512.841ZM94.1989 500.762C93.6849 499.186 93.171 497.611 92.6571 496.035L90.0872 496.561C90.6011 498.136 91.1151 499.712 91.6291 501.287L94.1989 500.762ZM91.1151 488.683C90.6011 487.107 90.6011 485.532 90.0872 483.956L87.5173 484.482C88.0313 486.057 88.0313 487.633 88.5452 489.208L91.1151 488.683ZM89.0592 476.079C89.0592 474.503 88.5452 472.928 88.5452 470.827L85.9754 470.827C85.9754 472.403 86.4893 474.503 86.4893 476.079L89.0592 476.079ZM88.5452 463.475C88.5452 461.899 88.5452 460.324 88.5452 458.223L85.9754 458.223C85.9754 459.799 85.9754 461.899 85.9754 463.475L88.5452 463.475ZM88.5452 450.871C88.5452 449.295 89.0592 447.72 89.0592 445.619L86.4893 445.094C86.4893 446.669 85.9754 448.245 85.9754 450.346L88.5452 450.871ZM90.6011 438.267C91.1151 436.691 91.1151 435.116 91.6291 433.54L89.0592 433.015C88.5452 434.59 88.5452 436.166 88.0313 438.267L90.6011 438.267ZM93.171 426.188C93.6849 424.612 94.199 423.037 94.713 421.461L92.1431 420.411C91.6291 421.986 91.1151 423.562 90.6011 425.137L93.171 426.188ZM97.2828 414.109C97.7968 412.533 98.3107 410.958 99.3386 409.382L97.2828 408.332C96.7688 409.907 95.7409 411.483 95.2269 413.058L97.2828 414.109ZM102.936 402.555C103.964 400.98 104.478 399.404 105.506 398.354L103.45 396.778L103.45 397.303C102.423 398.879 101.909 399.929 100.881 401.505L102.936 402.555ZM109.104 392.052C110.132 390.476 111.16 389.426 112.188 387.85L110.132 386.275C109.104 387.325 108.076 388.901 107.048 390.476L109.104 392.052ZM117.328 382.073C118.356 381.023 119.384 379.448 120.925 378.397L118.87 376.822C117.842 377.872 116.3 379.448 115.272 380.498L117.328 382.073ZM126.065 373.146C127.093 372.095 128.635 370.52 129.663 369.469L127.607 367.894C126.579 368.944 125.551 370.52 124.009 371.57L126.065 373.146ZM134.289 363.692C135.831 362.117 136.859 361.067 137.373 360.016L135.317 358.441C134.289 359.491 133.261 361.067 132.233 362.117L134.289 363.692ZM142.512 353.714C143.54 352.139 144.568 351.088 145.596 349.513L143.54 347.937C142.512 349.513 141.484 350.563 140.456 351.614L142.512 353.714ZM149.708 343.211C150.736 341.635 151.25 340.585 152.278 339.009L152.278 338.484L150.222 337.434C149.194 339.009 148.68 340.06 147.652 341.635L149.708 343.211ZM155.876 332.182C156.39 330.607 156.904 329.556 157.931 327.981L157.931 327.456L155.362 326.405C154.848 327.981 154.334 329.556 153.306 331.132L155.876 332.182ZM160.501 320.103C161.015 318.528 161.529 316.427 161.529 314.852L158.959 314.326L158.959 314.852C158.959 316.427 158.445 317.477 157.931 319.053L160.501 320.103ZM162.043 306.974C162.043 304.873 162.043 303.298 161.529 301.722L158.959 302.248C158.959 303.823 159.473 305.399 159.473 306.974L162.043 306.974ZM159.987 293.845C159.473 292.269 158.959 290.694 158.445 289.118L158.445 288.593L155.876 289.643C156.39 291.219 156.904 292.794 157.418 294.37L159.987 293.845ZM155.362 281.766C154.334 280.19 153.82 278.615 152.792 277.039L150.736 278.615C151.764 280.19 152.278 281.241 153.306 282.816L155.362 281.766ZM148.68 270.737C147.652 269.162 146.624 268.111 145.596 266.536L143.54 268.111C144.568 269.687 145.596 270.737 146.624 272.313L148.68 270.737ZM141.484 260.759C140.456 259.184 139.428 258.133 138.401 256.558L136.345 258.133C137.373 259.709 138.401 260.759 139.428 262.335L141.484 260.759ZM133.775 250.256C132.747 248.68 131.719 247.63 130.691 246.054L128.635 247.63C129.663 249.205 130.691 250.256 131.719 251.831L133.775 250.256ZM127.093 239.752C126.065 238.177 125.551 236.601 124.523 235.551L122.467 236.601C123.495 238.177 124.009 239.752 125.037 240.803L127.093 239.752ZM120.926 228.724C120.412 227.148 119.384 225.573 118.87 223.997L116.3 225.047C116.814 226.623 117.328 228.199 118.356 229.774L120.926 228.724ZM116.814 216.645C116.3 215.069 115.786 213.494 115.272 211.918L112.702 212.443C113.216 214.019 113.73 215.594 114.244 217.17L116.814 216.645ZM113.216 204.566C112.702 202.99 112.702 201.415 112.188 199.839L109.618 200.365C110.132 201.94 110.132 203.516 110.646 205.616L113.216 204.566ZM110.646 192.487C110.646 190.911 110.132 189.336 110.132 187.76L107.562 187.76C107.562 189.336 108.076 190.911 108.076 192.487L108.076 193.012L110.646 192.487ZM109.618 179.883C109.618 178.307 109.618 176.732 109.618 174.631L107.048 174.631C107.048 176.207 107.048 177.782 107.048 179.883L109.618 179.883ZM110.132 167.279C110.132 165.703 110.646 164.128 110.646 162.027L108.076 161.502C108.076 163.077 107.562 165.178 107.562 166.754L110.132 167.279ZM112.188 154.675C112.702 153.099 112.702 151.524 113.216 150.473L113.216 149.948L110.646 149.423C110.132 150.998 109.618 152.574 109.618 154.675L112.188 154.675ZM115.786 142.596C116.3 141.02 116.814 139.445 117.842 137.869L115.786 136.819C115.272 138.394 114.244 139.97 113.73 141.545L115.786 142.596ZM120.926 131.042C121.953 129.466 122.467 127.891 123.495 126.841L121.439 125.265C120.412 126.841 119.898 128.416 118.87 129.467L120.926 131.042ZM127.607 120.539C128.635 118.963 129.663 117.913 130.691 116.337L128.635 114.762C127.607 116.337 126.579 117.388 125.551 118.963L127.607 120.539ZM135.317 111.086C136.345 110.035 137.373 108.46 138.915 107.409L137.373 105.309C136.345 106.359 134.803 107.935 133.775 108.985L135.317 111.086ZM144.568 102.158C145.596 101.107 147.138 100.057 148.166 99.0066L146.624 96.906C145.082 97.9563 144.054 99.0067 142.512 100.057L144.568 102.158ZM154.334 94.2801C155.876 93.2297 156.904 92.1794 158.445 91.6542L156.904 89.5536C155.362 90.604 154.334 91.6543 152.792 92.1795L154.334 94.2801ZM164.613 87.9781C166.155 87.4529 167.183 86.4025 168.725 85.8774L169.239 85.8774L168.211 83.7767C166.669 84.827 165.127 85.3522 163.585 86.4025L164.613 87.9781ZM175.921 82.2012C177.462 81.676 179.004 80.6257 180.546 80.1005L179.518 77.9998C177.976 78.525 176.434 79.5754 174.893 80.1005L175.921 82.2012ZM187.228 76.9495C188.77 76.4243 190.312 75.8992 191.854 75.374L190.826 72.7481C189.284 73.2733 187.742 73.7985 186.2 74.3237L187.228 76.9495ZM199.049 72.7481C200.591 72.2229 202.133 71.6978 203.675 71.1727L203.161 68.5468C201.619 69.072 200.077 69.5971 198.535 70.1223L199.049 72.7481ZM210.871 69.072C212.413 68.5468 213.954 68.0216 215.496 68.0216L214.982 65.3958C213.44 65.9209 211.899 66.4461 209.843 66.4461L210.871 69.072ZM223.206 66.4461C224.748 65.9209 226.29 65.9209 227.832 65.3958L227.318 62.7699C225.776 63.2951 224.234 63.2951 222.692 63.8203L223.206 66.4461ZM235.027 63.8203C236.569 63.8203 238.111 63.2951 240.167 63.2951L239.653 60.6693C238.111 60.6693 236.569 61.1944 234.513 61.1944L235.027 63.8203ZM247.363 62.7699C248.905 62.7699 250.446 62.2447 252.502 62.2447L252.502 59.6189C250.96 59.6189 248.905 59.6189 247.363 60.1441L247.363 62.7699ZM260.212 61.7196C262.268 61.7196 263.81 61.7196 265.352 61.7196L265.352 59.0937C263.81 59.0937 261.754 59.0937 260.212 59.0937L260.212 61.7196ZM272.547 61.7196L273.061 61.7196C274.603 61.7196 276.145 61.7196 277.173 61.7196L277.173 59.0937L276.659 59.0937C275.117 59.0937 273.575 59.0937 272.547 59.0937L272.547 61.7196ZM284.883 62.2447L285.397 62.2447C286.938 62.2447 288.48 62.7699 289.508 62.7699L290.022 60.1441L289.508 60.1441C287.966 60.1441 286.425 59.6189 284.883 59.6189L284.883 62.2447ZM297.218 63.8203C298.76 64.3454 300.302 64.3454 302.358 64.8706L302.872 62.2447C301.33 61.7196 299.788 61.7196 297.732 61.1944L297.218 63.8203ZM309.553 66.4461C311.095 66.9713 312.637 67.4964 314.179 67.4964L314.693 64.8706C313.151 64.3454 311.609 63.8203 310.067 63.8203L309.553 66.4461ZM321.375 70.1223C322.917 70.6475 324.458 71.1726 326 71.6978L327.028 69.072C325.486 68.5468 323.944 68.0216 322.403 67.4964L321.375 70.1223ZM333.196 74.3237C334.738 74.8488 336.28 75.374 337.822 76.4243L338.85 73.7985C337.308 73.2733 335.766 72.7482 334.224 71.6978L333.196 74.3237ZM344.503 79.0502C346.045 79.5754 347.587 80.6257 349.129 81.1508L350.157 79.0502C348.615 78.5251 347.073 77.4747 345.531 76.9495L344.503 79.0502ZM355.811 84.8271C357.353 85.3522 358.895 86.4026 360.436 86.9278L361.464 84.8271C359.922 84.3019 358.381 83.2516 356.839 82.7264L355.811 84.8271ZM367.118 90.0788C368.66 90.6039 370.202 91.6543 371.744 92.1795L372.772 90.0788C371.23 89.5536 369.688 88.5033 368.146 87.9781L367.118 90.0788ZM378.425 95.3305C379.967 95.8557 381.509 96.906 383.051 97.4312L384.079 95.3305C382.537 94.8053 380.995 93.755 379.453 93.2298L378.425 95.3305ZM389.733 100.582C391.275 101.107 392.817 102.158 394.359 102.683L395.387 100.057C393.845 99.5319 392.303 99.0067 390.761 97.9563L389.733 100.582ZM401.554 105.309C403.096 105.834 404.638 106.359 405.666 106.884L406.18 106.884L407.208 104.258C405.666 103.733 404.124 103.208 402.582 102.683L402.068 102.683L401.554 105.309ZM413.376 109.51C414.917 110.035 416.459 110.56 418.001 111.086L418.515 108.46C416.973 107.935 415.431 107.409 413.89 107.409L413.376 109.51ZM425.711 112.661C427.253 113.186 429.309 113.186 430.851 113.186L430.851 110.56C429.309 110.56 427.767 110.035 426.225 110.035L425.711 112.661ZM438.56 113.711C440.102 113.711 442.158 113.711 443.7 113.711L443.7 111.086C442.158 111.086 440.616 111.086 439.074 111.086L438.56 113.711ZM450.896 112.661C452.437 112.136 453.979 112.136 455.521 111.611L455.007 108.985C453.465 109.51 451.923 109.51 450.382 110.035L450.896 112.661ZM463.231 108.985C464.773 108.46 466.315 107.935 467.857 107.409L466.829 104.784C465.287 105.309 463.745 105.834 462.203 106.359L463.231 108.985ZM475.052 104.784C476.594 104.258 478.136 103.208 479.678 102.683L478.65 100.582C477.108 101.107 475.566 102.158 474.024 102.683L475.052 104.784ZM486.874 99.5318C488.415 99.0067 489.957 97.9563 491.499 97.4312L490.471 95.3305C488.929 95.8557 487.388 96.906 485.846 97.4312L486.874 99.5318ZM498.181 94.2801C499.723 93.755 501.265 92.7047 502.807 92.1795L501.779 90.0788C500.237 90.604 498.695 91.6543 497.153 92.1795L498.181 94.2801ZM509.488 88.5033C511.03 87.9781 512.572 86.9277 514.114 86.4026L513.086 84.3019C511.544 84.8271 510.002 85.8774 508.46 86.4026L509.488 88.5033ZM520.796 82.7264C522.338 82.2012 523.88 81.1509 525.421 80.6257L524.394 78.525C522.852 79.0502 521.31 80.1005 519.768 80.6257L520.796 82.7264ZM532.103 77.9999C533.645 77.4747 535.187 76.9495 536.729 75.8992L535.701 73.2733C534.159 73.7985 532.617 74.3237 531.075 75.374L532.103 77.9999ZM543.41 72.7482C544.952 72.223 546.494 71.6978 548.036 71.1727L547.008 68.5468C545.466 69.072 543.924 69.5972 542.383 70.1223L543.41 72.7482ZM555.232 68.5468C556.774 68.0217 558.316 67.4964 559.858 66.9713L559.344 64.3454C557.802 64.8706 556.26 65.3958 554.718 65.9209L555.232 68.5468ZM567.053 64.8706C568.595 64.3454 570.137 63.8203 571.679 63.2951L571.165 60.6693C569.623 61.1944 568.081 61.7196 566.539 62.2447L567.053 64.8706ZM579.389 61.7196C580.93 61.1944 582.472 61.1944 584.014 60.6693L583.5 58.0434C581.958 58.5686 580.416 58.5686 578.361 59.0937L579.389 61.7196ZM591.21 59.0937C592.752 58.5686 594.294 58.5686 595.836 58.0434L596.35 58.0434L595.836 55.4176C594.294 55.9427 592.752 55.9427 590.696 56.4679L591.21 59.0937ZM603.545 56.993C605.087 56.993 607.143 56.4679 608.685 56.4679L608.685 53.842C607.143 53.842 605.601 54.3672 604.059 54.3672L603.545 56.993ZM615.881 55.9427C617.936 55.9427 619.478 55.9427 621.02 55.9427L621.02 53.3169C619.478 53.3169 617.422 53.3169 615.881 53.3169L615.881 55.9427ZM628.216 55.4176C629.758 55.4176 631.3 55.4176 633.356 55.4176L633.356 52.7917L632.842 52.7917C631.3 52.7917 629.758 52.7917 628.216 52.7917L628.216 55.4176ZM640.551 56.4679C642.093 56.4679 643.635 56.993 645.691 56.993L646.205 54.3672L645.691 54.3672C644.149 54.3672 642.607 53.842 641.065 53.842L640.551 56.4679ZM652.887 58.5686C654.428 59.0937 655.97 59.0937 657.512 59.6189L658.54 56.993C656.998 56.4679 655.456 55.9427 653.401 55.9427L652.887 58.5686ZM664.708 61.7196C666.25 62.2447 667.792 62.77 669.334 63.2951L670.362 60.6693C668.82 60.1441 667.278 59.6189 665.736 59.0937L664.708 61.7196ZM676.015 66.4462C677.557 66.9713 679.099 68.0217 680.127 68.5468L681.669 66.9713C680.127 65.921 678.585 65.3958 677.557 64.8706L676.015 66.4462ZM686.809 72.7482C688.351 73.7985 689.379 74.8488 690.92 75.8992L692.462 73.7985C690.92 72.7482 689.893 71.6978 688.351 70.6475L686.809 72.7482ZM696.574 80.6257C697.602 81.6761 699.144 82.7264 700.172 84.3019L701.714 82.7264C700.686 81.6761 699.144 80.1006 698.116 79.0502L696.574 80.6257ZM705.312 89.5536C706.34 91.1291 707.368 92.1795 708.396 93.2298L710.451 91.6543C709.423 90.0788 708.396 89.0285 707.368 87.453L705.312 89.5536ZM713.021 99.5319C714.049 101.107 715.077 102.158 715.591 103.733L717.647 102.158C716.619 101.107 716.105 99.5319 715.077 98.4815L713.021 99.5319ZM719.189 110.56C719.703 112.136 720.731 113.711 721.245 114.762L723.301 113.711C722.787 112.136 721.759 110.56 721.245 109.51L719.189 110.56ZM724.843 122.114C725.357 123.69 725.871 124.74 726.385 126.316L728.954 125.265C728.44 123.69 727.926 122.114 726.899 120.539L724.843 122.114ZM728.954 133.668C729.468 135.243 729.982 136.819 730.496 138.394L733.066 137.869C732.552 136.294 732.038 134.718 732.038 133.143L732.038 132.618L728.954 133.668ZM731.524 146.272C732.038 147.848 732.038 149.423 732.038 150.999L735.122 150.999C735.122 149.423 734.608 147.848 734.608 146.272L731.524 146.272ZM733.066 158.876C733.066 160.452 733.066 162.027 733.066 164.128L735.636 164.128C735.636 162.552 735.636 160.452 735.636 158.876L733.066 158.876ZM732.552 170.955C732.552 172.531 732.038 174.106 732.038 175.682L734.608 176.207C735.122 174.631 735.122 173.056 735.122 171.48L732.552 170.955ZM730.496 183.559C729.982 185.135 729.468 186.71 728.954 188.286L731.524 189.336C732.038 187.76 732.552 186.185 733.066 184.609L730.496 183.559ZM726.385 195.638C725.871 197.214 724.843 198.789 724.329 200.365L726.385 201.415C726.898 199.839 727.926 198.264 728.44 197.214L726.385 195.638ZM720.731 206.667C719.703 208.242 719.189 209.292 718.161 210.868L720.217 212.443C721.245 210.868 722.273 209.292 722.787 208.242L720.731 206.667ZM713.535 217.17C712.507 218.746 711.479 219.796 710.451 220.846L712.507 222.422C713.535 220.846 714.563 219.796 715.591 218.22L713.535 217.17ZM705.312 226.623C704.284 227.673 702.742 229.249 701.714 230.299L703.256 232.4C704.798 230.824 706.34 229.774 707.368 228.199L705.312 226.623ZM696.574 235.551C695.546 236.601 694.004 237.652 692.976 238.702L694.518 240.803C696.06 239.752 697.088 238.702 698.63 237.652L696.574 235.551ZM686.809 243.429C685.267 244.479 684.239 245.529 682.697 246.58L684.239 248.155C685.781 247.105 686.809 246.054 688.351 245.004L686.809 243.429ZM676.529 250.256C674.987 251.306 673.959 251.831 672.417 252.882L673.959 254.982C675.501 253.932 677.043 253.407 678.071 252.356L676.529 250.256ZM665.736 257.083C664.194 258.133 662.652 258.658 661.11 259.709L662.138 261.809C663.68 260.759 665.222 260.234 666.25 259.184L665.736 257.083ZM654.942 263.91C653.4 264.961 652.373 266.011 650.831 267.061L652.373 269.162C653.4 268.112 654.942 267.061 655.97 266.011L654.942 263.91ZM645.691 272.838C644.663 274.414 643.635 275.464 642.607 277.039L644.663 278.09C645.691 276.514 646.205 275.464 647.233 274.414L645.691 272.838ZM640.037 284.392C639.523 285.967 639.009 288.068 639.009 289.644L641.579 290.169C641.579 288.593 642.093 287.018 642.607 285.442L640.037 284.392ZM639.009 297.521C639.009 299.097 639.523 301.197 639.523 302.773L642.093 302.248C642.093 300.672 641.579 299.097 641.579 297.521L639.009 297.521ZM641.065 310.65C641.579 312.226 642.093 313.801 642.607 315.902L645.177 315.377C644.663 313.801 644.149 312.226 644.149 310.65L641.065 310.65ZM644.149 322.729C644.663 324.305 645.177 325.88 645.691 327.456L648.261 326.931C647.747 325.355 647.233 323.78 646.719 322.204L644.149 322.729ZM648.261 335.333C648.775 336.909 649.289 338.484 649.803 340.06L652.373 339.535C651.859 337.959 651.345 336.384 650.831 334.808L648.261 335.333ZM651.859 347.412C652.373 348.988 652.887 350.563 652.887 352.139L655.456 351.614C654.942 350.038 654.942 348.463 654.428 346.362L651.859 347.412ZM653.914 359.491C654.428 361.067 654.428 362.642 654.428 364.743L656.998 364.743C656.998 363.167 656.484 361.592 656.484 360.016L653.914 359.491ZM654.942 372.095C654.942 373.671 654.942 375.246 654.942 377.347L657.512 377.347L657.512 376.822C657.512 375.246 657.512 373.671 657.512 372.095L654.942 372.095ZM653.914 384.699C653.4 386.275 653.4 387.85 652.887 389.426L655.456 389.951C655.97 388.376 655.97 386.8 656.484 385.224L653.914 384.699ZM650.831 396.778C650.317 398.354 649.803 399.929 649.289 401.505L651.345 402.555C651.859 400.98 652.373 399.404 653.4 397.829L653.4 397.303L650.831 396.778ZM645.691 408.332C644.663 409.907 644.149 410.958 643.121 412.008L643.121 412.533L645.177 413.584L645.177 413.059C646.205 412.008 646.719 410.958 647.747 409.382L648.261 408.857L645.691 408.332ZM638.495 418.31C637.467 419.886 635.925 420.936 634.897 421.986L636.439 424.087C637.467 423.037 639.009 421.461 640.037 420.411L638.495 418.31ZM629.244 426.713C627.702 427.763 626.674 428.814 625.132 429.864L626.674 431.965C628.216 430.914 629.244 429.864 630.786 428.814L629.244 426.713ZM618.964 433.54C617.422 434.59 615.881 435.116 614.853 436.166L615.881 438.267C617.422 437.216 618.964 436.691 620.506 435.641L618.964 433.54ZM607.657 439.317C606.115 439.842 604.573 440.893 603.031 441.418L604.059 444.044C605.601 443.518 607.143 442.993 608.685 441.943L607.657 439.317ZM596.35 443.518C594.808 444.044 593.266 444.569 591.724 445.094L592.238 447.72C593.78 447.195 595.322 446.669 596.864 446.144L596.35 443.518ZM584.528 447.195C582.986 447.72 581.444 448.245 579.902 448.245L580.416 450.871C581.958 450.346 583.5 450.346 585.556 449.82L584.528 447.195ZM572.193 449.82C570.651 450.346 569.109 450.346 567.053 450.871L567.567 453.497C569.109 452.971 570.651 452.971 572.707 452.446L572.193 449.82ZM559.858 451.921C558.316 451.921 556.774 452.446 554.718 452.446L555.232 455.072C556.774 455.072 558.316 454.547 560.372 454.547L559.858 451.921ZM547.522 453.497C545.98 453.497 544.438 454.022 542.383 454.022L542.383 456.648C543.924 456.648 545.98 456.648 547.522 456.122L547.522 453.497ZM535.187 454.022C533.131 454.022 531.589 454.022 530.047 454.022L530.047 456.648C531.589 456.648 533.645 456.648 535.187 456.648L535.187 454.022ZM522.852 454.547C521.31 454.547 519.768 454.547 517.712 454.547L517.712 457.173C519.254 457.173 521.31 457.173 522.852 457.173L522.852 454.547Z" fill="url(#paint1_linear)"/>
<path fill-rule="evenodd" clip-rule="evenodd" d="M659.731 174.937C661.829 175.654 663.927 178.521 663.927 180.671C663.927 183.537 662.528 184.971 660.43 184.254C658.332 183.537 656.234 180.671 656.234 178.521C656.234 176.371 657.633 174.221 659.731 174.937Z" fill="#9CE1C8"/>
<path fill-rule="evenodd" clip-rule="evenodd" d="M631.755 135.52C635.252 136.237 638.749 141.253 639.448 145.553C640.148 149.854 637.35 152.72 633.154 152.004C629.657 151.287 626.16 146.27 625.461 141.97C625.461 136.953 628.258 134.087 631.755 135.52Z" fill="#9CE1C8"/>
<path fill-rule="evenodd" clip-rule="evenodd" d="M655.534 116.17C656.933 116.887 658.332 118.32 658.332 119.754C658.332 121.187 657.633 122.62 656.234 121.904C654.835 121.187 653.436 119.754 653.436 118.32C652.737 116.887 653.436 116.17 655.534 116.17Z" fill="#9CE1C8"/>
<path fill-rule="evenodd" clip-rule="evenodd" d="M639.449 0.0694656C640.847 0.786137 642.246 2.21948 642.246 3.65282C642.246 5.08616 641.547 6.51951 640.148 5.80284C638.749 5.08616 637.35 3.65282 637.35 2.21948C636.651 0.786137 638.05 0.0694656 639.449 0.0694656Z" fill="#9CE1C8"/>
<path fill-rule="evenodd" clip-rule="evenodd" d="M627.559 59.553C628.958 60.2697 630.356 61.7031 630.356 63.1364C630.356 64.5697 629.657 66.0031 628.258 65.2864C626.859 64.5697 625.461 63.1364 625.461 61.7031C625.461 60.2697 626.16 59.553 627.559 59.553Z" fill="#9CE1C8"/>
<path fill-rule="evenodd" clip-rule="evenodd" d="M607.976 90.37C609.375 91.0867 610.774 92.52 610.774 93.9534C610.774 95.3867 610.074 96.82 608.676 96.1034C607.277 95.3867 605.878 93.9534 605.878 92.52C605.179 91.0867 606.578 89.6533 607.976 90.37Z" fill="#9CE1C8"/>
<path fill-rule="evenodd" clip-rule="evenodd" d="M316.77 134.743C319.568 135.459 322.365 139.043 322.365 142.626C322.365 146.209 320.967 148.359 318.169 147.643C315.371 146.926 312.574 143.343 312.574 139.759C311.875 136.176 313.973 134.026 316.77 134.743Z" fill="#E9F6EE"/>
<path fill-rule="evenodd" clip-rule="evenodd" d="M271.311 129.726C276.206 131.159 280.403 136.893 281.102 142.626C281.801 148.359 278.305 151.943 273.409 151.226C268.513 149.793 264.317 144.059 263.618 138.326C262.918 132.592 266.415 129.009 271.311 129.726Z" fill="#E9F6EE"/>
<path fill-rule="evenodd" clip-rule="evenodd" d="M326.562 187.776C328.66 188.493 330.059 190.643 330.059 192.793C330.059 194.943 328.66 196.376 327.261 195.66C325.163 194.943 323.764 192.793 323.764 190.643C323.764 189.21 325.163 187.776 326.562 187.776Z" fill="#E9F6EE"/>
<path fill-rule="evenodd" clip-rule="evenodd" d="M370.623 122.559C372.721 123.276 374.12 125.426 374.12 127.576C374.12 129.726 372.721 131.159 371.322 130.443C369.224 129.726 367.825 127.576 367.825 125.426C367.126 123.276 368.524 121.843 370.623 122.559Z" fill="#E9F6EE"/>
<path fill-rule="evenodd" clip-rule="evenodd" d="M300.685 86.7255C302.783 87.4422 304.181 89.5922 304.181 91.7422C304.181 93.8922 302.783 95.3256 301.384 94.6089C299.286 93.8922 297.887 91.7422 297.887 89.5922C297.887 87.4422 299.286 86.0089 300.685 86.7255Z" fill="#E9F6EE"/>
<path fill-rule="evenodd" clip-rule="evenodd" d="M237.041 134.743C239.139 135.459 240.538 137.609 241.237 139.759C241.237 141.909 239.839 143.343 238.44 142.626C236.342 142.626 234.244 140.476 234.244 138.326C234.244 136.176 235.642 134.743 237.041 134.743Z" fill="#E9F6EE"/>
<path fill-rule="evenodd" clip-rule="evenodd" d="M595.694 122.767C595.694 113.74 602.039 110.129 609.441 114.823L687.34 160.317C694.742 164.65 701.087 175.482 701.087 184.509V236.502C701.087 245.528 694.742 249.139 687.34 244.445L609.441 198.951C601.687 194.257 595.694 183.425 595.694 174.76V122.767Z" fill="white"/>
<path fill-rule="evenodd" clip-rule="evenodd" d="M595.694 122.767C595.694 113.74 602.039 110.129 609.441 114.823L687.34 160.317C694.742 164.65 701.087 175.482 701.087 184.509V192.813L595.694 131.071V122.767Z" fill="url(#paint2_linear)"/>
<path fill-rule="evenodd" clip-rule="evenodd" d="M607.326 123.489C609.089 123.85 610.499 126.016 610.499 127.822C610.851 129.988 609.794 131.071 608.031 130.71C606.269 130.349 604.859 128.183 604.859 126.377C604.506 124.211 605.916 122.767 607.326 123.489Z" fill="white"/>
<path fill-rule="evenodd" clip-rule="evenodd" d="M616.491 129.266C618.253 129.627 619.663 131.794 619.663 133.599C619.663 135.404 618.958 136.848 617.196 136.487C615.433 136.126 614.024 133.96 614.024 131.794C613.671 129.988 615.081 128.544 616.491 129.266Z" fill="white"/>
<path fill-rule="evenodd" clip-rule="evenodd" d="M626.008 134.682C627.418 135.404 628.828 137.209 629.18 139.376C629.18 141.542 628.123 142.625 626.36 142.264C624.95 141.542 623.188 139.737 623.188 137.57C622.836 135.765 624.245 134.321 626.008 134.682Z" fill="white"/>
<path opacity="0.2" fill-rule="evenodd" clip-rule="evenodd" d="M614.024 152.374C621.778 154.541 628.475 163.567 629.18 172.955C629.885 182.343 624.598 188.12 616.843 185.953C609.089 183.787 602.392 174.76 601.687 165.373C600.629 155.985 606.269 150.208 614.024 152.374Z" fill="url(#paint3_linear)"/>
<path fill-rule="evenodd" clip-rule="evenodd" d="M614.729 159.957C618.958 161.04 622.483 166.095 622.836 171.15C623.188 176.204 620.368 179.454 616.138 178.371C611.909 177.288 608.384 172.233 608.031 167.178C607.326 162.123 610.499 158.873 614.729 159.957Z" fill="#FF89DB"/>
<path opacity="0.2" fill-rule="evenodd" clip-rule="evenodd" d="M633.41 171.15C633.41 169.344 634.82 168.261 636.583 169.344L687.34 198.951C689.103 200.035 690.513 202.562 690.513 204.367V208.339C690.513 210.144 689.103 211.228 687.34 210.144L636.23 180.537C634.468 179.454 633.058 176.927 633.058 175.121L633.41 171.15Z" fill="#955CF1"/>
<path opacity="0.2" fill-rule="evenodd" clip-rule="evenodd" d="M633.41 185.592C633.41 184.509 634.115 183.787 635.173 184.509L665.134 201.84C666.191 202.562 666.896 204.006 666.896 205.089V207.256C666.896 208.339 666.191 209.061 665.134 208.339L635.173 191.008C634.115 190.286 633.41 188.842 633.41 187.758V185.592Z" fill="#955CF1"/>
<path fill-rule="evenodd" clip-rule="evenodd" d="M645.522 539.307L426.703 408.931C423.296 407.374 417.996 405.818 414.589 408.153L405.882 413.601C403.989 414.769 398.31 418.271 402.096 420.607C413.453 426.833 611.072 545.923 622.808 552.15C625.079 553.318 628.108 553.707 631.515 553.318C634.922 552.929 638.329 552.15 640.98 550.204L644.387 547.869C647.037 546.312 648.173 544.756 648.173 542.81C648.551 541.642 647.794 540.086 645.522 539.307Z" fill="#4A917E"/>
<path d="M429.301 430.845C427.907 430.369 427.443 416.07 426.513 413.211C425.584 410.351 425.119 407.968 425.119 404.632V356.494L375.869 327.421C374.476 326.945 373.546 325.038 373.082 322.655C372.152 319.795 371.688 316.936 371.688 314.076V285.48C371.688 281.667 372.152 278.807 372.617 276.424C373.082 274.041 374.011 271.658 374.94 268.798L421.867 149.17L412.11 144.403C413.968 141.067 427.907 137.254 429.766 138.684L441.846 145.833C443.24 146.31 444.169 148.216 445.098 150.599C446.027 153.459 446.492 155.842 446.492 159.178V319.319L459.966 327.421C461.36 327.898 462.289 329.804 463.219 332.187C464.148 335.047 464.612 337.43 464.612 340.766V369.363C464.612 372.222 464.148 374.605 463.219 376.035C462.289 377.465 461.36 377.942 459.966 377.465L446.957 382.708L446.492 381.755V417.977C446.492 420.837 446.027 423.22 445.098 424.649C444.634 425.603 444.169 426.079 443.704 426.079L429.301 430.845ZM425.119 306.45V220.661L398.171 290.246L425.119 306.45ZM554.749 316.459C554.749 321.702 554.749 327.421 554.749 333.141C554.749 339.336 554.749 345.532 554.749 351.728C554.749 357.924 554.749 364.597 554.749 370.316C554.749 376.512 554.749 382.231 554.749 386.997C554.285 402.249 553.355 416.07 551.962 428.462C550.568 440.854 547.78 450.863 544.528 458.489C541.275 466.114 536.629 471.357 531.518 473.74C530.124 474.217 518.044 479.459 512.469 479.459C507.822 479.459 517.579 473.74 512.004 470.404C504.105 465.638 497.601 458.965 492.49 450.386C487.379 441.807 482.733 431.798 479.48 419.883C476.228 407.968 473.905 395.1 472.046 381.278C470.653 366.98 469.723 352.205 469.259 336.477C469.259 325.991 468.794 314.553 468.794 301.684C468.794 288.816 468.794 277.377 469.259 267.369C469.723 252.117 470.653 238.295 472.046 225.427C473.44 213.035 476.228 202.55 479.48 194.924C481.339 190.158 474.834 187.298 477.622 184.439C479.48 182.532 495.278 178.243 496.671 177.766C501.318 177.289 506.428 178.719 512.004 182.056C519.903 186.822 526.407 193.018 531.518 201.597C537.094 210.175 541.275 220.184 544.528 232.099C547.78 244.015 550.103 256.883 551.962 270.705C553.355 285.48 554.285 300.731 554.749 316.459ZM490.631 347.915C491.096 367.456 492.954 383.184 496.207 395.576C499.459 407.968 504.57 416.547 512.004 420.836C519.438 425.126 524.549 423.22 527.801 414.164C531.053 405.585 532.912 391.763 533.377 372.699C533.377 362.69 533.841 351.728 533.841 339.336C533.841 326.945 533.841 315.983 533.377 305.497C532.912 285.956 531.053 270.228 527.801 257.836C524.549 245.445 519.438 236.866 512.004 232.576C504.57 228.287 499.459 230.193 496.207 239.249C492.954 247.828 491.096 261.649 490.631 280.714C490.631 290.722 490.167 301.684 490.167 314.076C490.631 325.991 490.631 337.43 490.631 347.915ZM617.009 540.942C615.615 540.465 614.686 526.167 613.756 523.307C612.827 520.448 612.363 518.065 612.363 514.728V466.591L563.112 437.518C561.719 437.041 560.789 435.135 560.325 432.752C559.395 429.892 558.931 427.509 558.931 424.173V395.576C558.931 391.763 559.396 388.904 559.86 386.521C560.325 384.138 561.254 381.755 562.183 378.895L610.504 257.36L600.747 254.023C601.676 252.117 616.08 247.351 617.938 248.781L630.018 255.93C631.412 256.407 632.341 258.313 633.271 260.696C634.2 263.556 634.664 265.939 634.664 269.275V429.415L648.138 437.518C649.532 437.994 650.462 439.901 651.391 442.284C652.32 445.144 652.785 447.527 652.785 450.863V479.459C652.785 482.319 652.32 484.702 651.391 486.132C650.926 487.085 650.462 487.562 649.997 487.562C649.532 488.038 636.058 492.328 636.058 492.328L634.664 491.375V528.073C634.664 530.933 634.2 533.316 633.271 534.746C632.806 535.699 632.341 536.176 631.877 536.176C630.947 536.652 617.009 540.942 617.009 540.942ZM612.827 416.547V330.757L585.414 400.819L612.827 416.547Z" fill="#2D7B6F"/>
<path d="M415.827 422.743C414.433 422.266 413.504 420.36 412.575 417.977C411.645 415.117 411.181 412.734 411.181 409.398V361.26L361.931 332.187C360.537 331.711 359.608 329.804 359.143 327.421C358.214 324.561 357.749 321.702 357.749 318.842V290.246C357.749 286.433 358.214 283.573 358.678 281.19C359.143 278.807 360.072 276.424 361.001 273.564L409.787 149.17C412.11 143.927 413.968 141.544 416.292 142.974L428.372 150.123C429.766 150.599 430.695 152.506 431.624 154.889C432.553 157.748 433.018 160.132 433.018 163.468V323.608L446.492 331.711C447.886 332.187 448.815 334.094 449.744 336.477C450.674 339.336 451.138 341.719 451.138 345.056V373.652C451.138 376.512 450.674 378.895 449.744 380.325C448.815 381.755 447.886 382.231 446.492 381.755L433.018 373.652V422.266C433.018 425.126 432.553 427.509 431.624 428.939C430.695 430.369 429.766 430.845 428.372 430.369L415.827 422.743ZM411.181 311.216V225.427L384.233 295.012L411.181 311.216ZM540.81 321.225C540.81 326.468 540.81 332.187 540.81 337.907C540.81 344.102 540.81 350.298 540.81 356.494C540.81 362.69 540.81 369.363 540.81 375.082C540.81 381.278 540.81 386.997 540.81 391.763C540.346 407.015 539.417 420.836 538.023 433.228C536.629 445.62 533.841 455.629 530.589 463.255C527.336 470.88 522.69 476.123 517.579 478.506C512.004 480.889 505.499 479.459 498.065 475.17C490.167 470.404 483.662 463.731 478.551 455.152C473.44 446.573 468.794 436.564 465.542 424.649C462.289 412.734 459.966 399.866 458.108 386.044C456.714 371.746 455.784 356.971 455.32 341.243C455.32 330.757 454.855 319.319 454.855 306.45C454.855 293.582 454.855 282.143 455.32 272.135C455.784 256.883 456.714 243.061 458.108 230.193C459.501 217.801 462.289 207.316 465.542 199.69C468.794 191.588 472.976 186.345 478.551 183.962C483.662 181.579 490.631 182.532 498.065 186.822C505.964 191.588 512.468 197.784 517.579 206.363C523.155 214.942 527.336 224.95 530.589 236.866C533.841 248.781 536.164 261.649 538.023 275.471C539.417 290.246 540.346 305.497 540.81 321.225ZM476.693 352.681C477.157 372.222 479.016 387.95 482.268 400.342C485.52 412.734 490.631 421.313 498.065 425.603C505.499 429.892 510.61 427.986 513.862 418.93C517.115 410.351 518.973 396.529 519.438 377.465C519.438 367.456 519.902 356.494 519.902 344.102C519.902 331.711 519.902 320.749 519.438 310.263C518.973 290.722 517.115 274.994 513.862 262.602C510.61 250.211 505.499 241.632 498.065 237.342C490.631 233.053 485.52 234.959 482.268 244.015C479.016 252.594 477.157 266.415 476.693 285.48C476.693 295.488 476.228 306.45 476.228 318.842C476.693 330.757 476.693 342.196 476.693 352.681ZM603.07 533.316C601.676 532.839 600.747 530.933 599.818 528.55C598.888 525.69 598.424 523.307 598.424 519.971V471.357L549.174 442.284C547.78 441.807 546.851 439.901 546.386 437.518C545.457 434.658 544.992 432.275 544.992 428.939V400.342C544.992 396.529 545.457 393.67 545.921 391.287C546.386 388.904 547.315 386.521 548.244 383.661L597.03 259.266C599.353 254.023 601.211 251.64 603.535 253.07L615.615 260.219C617.009 260.696 617.938 262.602 618.867 264.985C619.796 267.845 620.261 270.228 620.261 273.564V433.705L633.735 441.807C635.129 442.284 636.058 444.19 636.987 446.573C637.917 449.433 638.381 451.816 638.381 455.152V483.749C638.381 486.608 637.917 488.991 636.987 490.421C636.058 491.851 635.129 492.328 633.735 491.851L620.261 483.749V532.363C620.261 535.222 619.796 537.606 618.867 539.035C617.938 540.465 617.009 540.942 615.615 540.465L603.07 533.316ZM598.888 421.313V335.523L571.476 405.585L598.888 421.313Z" fill="url(#paint4_linear)"/>
<path fill-rule="evenodd" clip-rule="evenodd" d="M183.19 335.55C180.02 334.514 173.725 330.889 167.062 323.308C163.111 318.788 162.973 315.492 165.96 311.867C167.522 309.983 170.279 310.784 171.244 311.255C173.036 312.055 175.609 314.598 178.182 318.27C179.56 320.248 182.133 322.319 184.569 324.438C184.936 322.979 185.258 321.425 185.442 320.766C186.361 317.658 187.601 314.315 189.026 310.737C190.312 307.629 195.918 309.324 195.045 311.914C194.953 312.29 195.137 312.997 195.183 313.373C195.688 317.328 194.172 326.274 191.369 333.478C189.531 338.281 186.912 336.774 183.19 335.55Z" fill="url(#paint5_linear)"/>
<path opacity="0.35" fill-rule="evenodd" clip-rule="evenodd" d="M184.569 335.927C180.571 335.079 174.69 331.501 168.303 324.485C166.695 322.743 165.087 321.284 163.432 318.976C165.178 314.974 170.141 313.279 174.23 319.447C177.171 323.685 181.123 329.005 184.569 335.927Z" fill="#3469C0"/>
<path fill-rule="evenodd" clip-rule="evenodd" d="M197.618 304.428C197.388 304.522 197.159 304.616 196.929 304.663C197.113 304.475 197.296 304.333 197.434 304.239C198.032 303.109 198.399 302.544 198.951 301.038C197.251 299.955 196.377 302.733 196.01 302.968C195.872 303.062 194.815 303.486 193.85 304.051C192.472 304.804 191.415 305.605 191.139 307.206C190.45 308.759 189.899 310.407 191.461 311.584C192.839 312.62 194.31 311.443 195.504 310.784C196.24 310.36 197.296 310.125 198.997 309.748C201.57 309.136 201.937 308.854 203.775 304.381C205.108 301.085 205.843 299.295 204.648 298.212C201.799 295.811 200.329 302.12 197.618 304.428Z" fill="#FFA698"/>
<path fill-rule="evenodd" clip-rule="evenodd" d="M199.275 307.773C197.023 308.715 194.542 307.867 193.485 309.939C193.21 310.457 193.072 311.352 191.923 311.775C192.796 312.434 193.807 311.964 194.542 311.399C195.415 310.692 196.472 310.363 198.999 309.751C201.572 309.139 201.94 308.856 203.778 304.383C204.697 302.17 205.294 300.616 205.248 299.533C205.202 299.015 204.329 298.921 204.054 299.628C202.491 303.3 201.986 305.466 199.275 307.773Z" fill="url(#paint6_linear)"/>
<path fill-rule="evenodd" clip-rule="evenodd" d="M203.867 298.73C203.408 300.001 200.007 305.181 198.767 305.652C198.445 305.793 198.124 305.181 197.664 304.427C197.71 305.04 198.675 305.981 198.078 306.028C194.769 306.311 193.529 306.735 192.61 308.618C193.483 307.77 194.494 307.3 195.642 307.017C196.699 306.782 197.848 306.782 198.951 306.452C200.926 304.192 202.259 303.015 203.867 298.73Z" fill="url(#paint7_linear)"/>
<path opacity="0.15" fill-rule="evenodd" clip-rule="evenodd" d="M130.35 457.639L167.935 435.698C172.025 433.768 177.906 432.261 182.087 434.474C185.901 436.499 192.15 440.642 194.907 442.29C197.021 443.514 204.326 447.987 199.777 450.53C186.407 457.969 173.173 466.35 159.573 473.931C157 475.343 153.232 475.861 149.28 475.531C145.329 475.202 141.331 474.025 138.161 472.141C135.909 470.776 133.704 469.458 131.498 468.186C128.558 466.444 126.995 464.325 126.812 462.442C126.628 460.559 127.822 458.817 130.35 457.639Z" fill="#2F393F"/>
<path fill-rule="evenodd" clip-rule="evenodd" d="M144.915 443.467C144.731 444.126 144.823 444.691 144.502 445.586C144.18 446.48 143.812 447.469 143.445 448.976C142.893 451.33 143.629 454.485 142.939 457.828C142.572 459.146 142.572 460.229 143.445 461.406C144.272 462.583 145.88 464.42 147.994 464.325C148.453 464.325 149.464 464.137 150.199 463.242C150.98 462.301 151.624 460.982 151.532 459.287C151.486 458.628 151.118 456.604 151.164 454.72C151.21 453.072 151.532 452.178 151.486 450.388C151.44 448.505 151.302 445.868 151.256 444.644L144.915 443.467Z" fill="#0F2F64"/>
<path fill-rule="evenodd" clip-rule="evenodd" d="M163.34 433.721C162.743 435.416 162.329 436.122 162.329 438.476C162.697 439.7 163.57 440.218 164.489 441.066L165.178 441.207C166.832 442.149 167.43 445.35 168.992 446.81C170.095 447.846 172.254 448.411 174.368 448.835C176.665 449.305 178.825 448.599 178.228 446.763C176.757 442.196 170.324 436.969 170.187 431.884L163.34 433.721Z" fill="#0F2F64"/>
<path fill-rule="evenodd" clip-rule="evenodd" d="M172.944 401.044C172.76 409.849 170.922 426.281 171.198 434.945C168.992 437.205 164.627 436.499 163.203 434.192C162.33 426.234 161.273 414.887 161.181 410.508C161.089 406.883 161.411 403.54 162.33 400.244C161.043 390.639 155.621 377.502 156.908 368.462C157.459 364.507 160.032 360.222 160.767 356.926C167.154 364.978 172.025 361.117 174.69 360.411C174.69 363.189 174.873 362.812 174.782 365.778C174.506 375.713 174.046 386.26 173.495 396.571C173.495 398.078 173.403 399.773 172.944 401.044Z" fill="url(#paint8_linear)"/>
<path opacity="0.3" fill-rule="evenodd" clip-rule="evenodd" d="M161.732 418.842C161.411 415.358 161.227 412.344 161.181 410.508C161.089 406.883 161.411 403.54 162.33 400.244C161.043 390.639 155.621 377.502 156.908 368.462C157.459 364.507 160.032 360.222 160.767 356.926C167.154 364.978 172.025 361.117 174.69 360.411C174.69 360.74 174.69 360.976 174.69 361.211L166.327 367.567L168.395 367.097C168.303 378.538 166.924 388.944 166.741 400.197C164.581 406.6 163.294 412.062 161.824 418.607L161.732 418.842Z" fill="#1E2353"/>
<path fill-rule="evenodd" clip-rule="evenodd" d="M158.7 407.401C157.137 416.205 152.68 437.535 151.578 446.198C148.821 447.752 145.283 446.951 144.318 444.644C144.272 436.687 144.318 422.326 144.915 417.948C145.421 414.322 146.661 408.672 148.086 405.423C147.534 384.894 145.283 379.385 147.994 370.345C149.188 366.39 152.313 362.529 153.554 359.233C155.254 361.917 157.919 365.778 163.57 365.307C164.122 365.26 168.854 361.776 170.417 361.399C168.441 373.641 162.743 389.603 159.94 402.928C159.711 404.481 159.343 406.176 158.7 407.401Z" fill="url(#paint9_linear)"/>
<path fill-rule="evenodd" clip-rule="evenodd" d="M173.265 320.012C174.644 323.59 175.379 328.628 175.746 332.254C176.344 337.527 175.884 341.859 175.7 346.709C175.563 350.57 175.93 352.547 175.746 356.173C175.7 357.256 175.287 358.433 175.195 359.563C175.195 360.363 174.919 361.211 174.919 361.823C174.23 369.921 155.253 370.157 150.291 365.025C150.475 364.224 150.705 363.424 150.796 362.576C148.958 360.881 150.199 356.785 149.877 353.866C149.648 351.653 149.464 350.993 148.867 349.393C146.202 342.66 143.766 332.96 143.031 327.828C142.526 324.297 146.707 320.53 151.532 320.812C154.978 318.694 159.205 317.187 162.651 316.528C165.5 312.008 171.197 314.644 173.265 320.012Z" fill="url(#paint10_linear)"/>
<path fill-rule="evenodd" clip-rule="evenodd" d="M175.792 332.492C173.725 334.658 160.905 347.183 146.753 343.981L146.891 342.992C161.824 346.382 175.287 331.504 175.333 331.456L175.701 331.833C175.701 331.974 175.747 332.163 175.747 332.304C175.792 332.351 175.792 332.398 175.792 332.492Z" fill="#70B4F5"/>
<path fill-rule="evenodd" clip-rule="evenodd" d="M176.022 340.259C172.53 343.649 161.64 352.924 149.464 351.135C149.372 350.758 149.28 350.429 149.188 350.099C162.146 352.265 173.817 341.153 176.068 338.799C176.068 339.27 176.022 339.741 176.022 340.259Z" fill="#70B4F5"/>
<path fill-rule="evenodd" clip-rule="evenodd" d="M148.821 349.157L151.348 343.79L154.702 349.628L157.643 342.519L161.64 347.98L163.708 340.353L167.935 345.014L169.865 336.351L173.035 341.2L175.655 331.03C175.7 331.454 175.746 331.83 175.792 332.254C175.792 332.395 175.838 332.537 175.838 332.678L173.265 342.66L170.141 337.857L168.257 346.285L163.984 341.577L161.87 349.346L157.781 343.743L154.84 350.994L151.44 345.108L149.142 350.005C149.096 349.77 149.005 349.581 148.913 349.393C148.913 349.299 148.867 349.252 148.821 349.157Z" fill="#70B4F5"/>
<path fill-rule="evenodd" clip-rule="evenodd" d="M151.578 348.216C151.855 348.216 152.085 348.499 152.085 348.782C152.085 349.065 151.855 349.301 151.578 349.253C151.302 349.253 151.072 348.97 151.072 348.687C151.072 348.451 151.302 348.216 151.578 348.216Z" fill="#70B4F5"/>
<path fill-rule="evenodd" clip-rule="evenodd" d="M154.611 345.108C154.887 345.108 155.117 345.391 155.117 345.674C155.117 345.957 154.887 346.193 154.611 346.146C154.335 346.146 154.105 345.863 154.105 345.58C154.105 345.297 154.335 345.108 154.611 345.108Z" fill="#70B4F5"/>
<path fill-rule="evenodd" clip-rule="evenodd" d="M158.103 347.415C158.379 347.415 158.61 347.698 158.61 347.982C158.61 348.265 158.379 348.5 158.103 348.453C157.827 348.453 157.597 348.17 157.597 347.887C157.597 347.651 157.827 347.415 158.103 347.415Z" fill="#70B4F5"/>
<path fill-rule="evenodd" clip-rule="evenodd" d="M161.044 343.413C161.32 343.413 161.55 343.696 161.55 343.979C161.55 344.262 161.32 344.498 161.044 344.451C160.768 344.451 160.537 344.168 160.537 343.885C160.583 343.602 160.814 343.366 161.044 343.413Z" fill="#70B4F5"/>
<path fill-rule="evenodd" clip-rule="evenodd" d="M164.766 344.92C165.042 344.92 165.272 345.203 165.272 345.486C165.272 345.769 165.042 346.005 164.766 345.957C164.489 345.957 164.259 345.674 164.259 345.391C164.305 345.108 164.489 344.872 164.766 344.92Z" fill="#70B4F5"/>
<path fill-rule="evenodd" clip-rule="evenodd" d="M167.017 340.447C167.293 340.447 167.524 340.73 167.524 341.013C167.524 341.296 167.293 341.532 167.017 341.485C166.741 341.485 166.511 341.202 166.511 340.918C166.511 340.683 166.741 340.447 167.017 340.447Z" fill="#70B4F5"/>
<path fill-rule="evenodd" clip-rule="evenodd" d="M170.739 341.388C171.015 341.388 171.246 341.671 171.246 341.955C171.246 342.238 171.015 342.473 170.739 342.426C170.463 342.426 170.233 342.143 170.233 341.86C170.233 341.624 170.463 341.388 170.739 341.388Z" fill="#70B4F5"/>
<path fill-rule="evenodd" clip-rule="evenodd" d="M172.761 336.586C173.037 336.586 173.267 336.869 173.267 337.152C173.267 337.435 173.037 337.671 172.761 337.624C172.485 337.624 172.254 337.341 172.254 337.058C172.254 336.774 172.485 336.539 172.761 336.586Z" fill="#70B4F5"/>
<path fill-rule="evenodd" clip-rule="evenodd" d="M175.931 337.104C175.977 337.104 176.023 337.104 176.069 337.151C176.069 337.481 176.069 337.859 176.069 338.189C176.023 338.189 175.977 338.189 175.931 338.189C175.655 338.189 175.425 337.906 175.425 337.623C175.425 337.293 175.655 337.057 175.931 337.104Z" fill="#70B4F5"/>
<path fill-rule="evenodd" clip-rule="evenodd" d="M148.27 345.202C148.546 345.202 148.777 345.485 148.777 345.768C148.777 346.051 148.546 346.287 148.27 346.24C147.994 346.24 147.764 345.957 147.764 345.674C147.764 345.438 147.994 345.202 148.27 345.202Z" fill="#70B4F5"/>
<path opacity="0.35" fill-rule="evenodd" clip-rule="evenodd" d="M151.67 329.664C152.543 333.761 151.118 346.285 149.143 350.005C148.178 347.462 147.351 345.579 146.018 343.178C146.11 342.895 150.659 333.337 151.67 329.664Z" fill="#3469C0"/>
<path fill-rule="evenodd" clip-rule="evenodd" d="M147.764 320.813C154.289 316.01 160.997 313.515 166.419 313.797L168.946 316.151L162.881 324.768L149.464 328.629L146.248 324.909L147.764 320.813Z" fill="#6D6AFD"/>
<path fill-rule="evenodd" clip-rule="evenodd" d="M165.224 319.212C165.27 318.882 165.362 318.553 165.408 318.223C165.592 317.234 165.086 316.387 165.362 314.127L156.999 310.501C156.862 315.304 156.356 315.257 155.483 319.165C155.575 323.026 164.948 324.768 165.132 320.2C165.132 319.871 165.178 319.541 165.224 319.212Z" fill="#FFA698"/>
<path fill-rule="evenodd" clip-rule="evenodd" d="M164.994 320.295C165.04 319.965 165.132 319.635 165.178 319.306C165.362 318.317 165.132 316.387 165.362 314.127L156.999 310.501C156.954 311.584 156.908 312.479 156.816 313.279C156.54 316.481 159.481 322.037 164.857 321.283C164.903 320.954 164.903 320.624 164.994 320.295Z" fill="url(#paint11_linear)"/>
<path fill-rule="evenodd" clip-rule="evenodd" d="M166.327 318.929C165.179 318.458 162.1 317.234 161.089 316.763C158.838 315.633 158.746 313.703 157.597 310.831C155.484 309.842 154.702 308.853 154.289 307.676C153.37 304.851 154.381 301.461 156.219 299.342C157.827 297.506 159.895 296.658 162.422 296.753C167.338 296.894 169.957 300.19 170.968 304.333C171.06 304.71 171.06 305.039 171.014 305.416C170.922 306.311 170.876 306.452 170.876 307.064C170.876 308.335 171.749 308.665 171.703 310.266C171.657 312.432 170.692 316.858 170.141 317.705C169.728 318.27 167.384 318.929 166.327 318.929Z" fill="#FFA698"/>
<path fill-rule="evenodd" clip-rule="evenodd" d="M170.463 302.591C170.692 303.156 170.876 303.768 171.014 304.38C171.106 304.757 171.106 305.086 171.06 305.463C170.968 306.358 170.922 306.499 170.922 307.111C170.922 308.382 171.795 308.712 171.749 310.313C171.703 311.396 171.473 312.95 171.198 314.409C168.579 317.375 165.408 314.974 164.903 314.503C162.514 312.337 161.686 308.618 162.514 304.804C164.811 305.086 168.349 304.286 170.463 302.591Z" fill="url(#paint12_linear)"/>
<path fill-rule="evenodd" clip-rule="evenodd" d="M152.726 306.593C153.14 308.147 155.116 312.055 156.31 313.373C157.551 314.786 156.77 312.903 157.092 311.725C157.321 310.831 158.562 310.501 158.792 309.56C159.113 310.266 159.481 310.925 159.986 311.066C160.308 311.16 160.951 311.302 160.813 310.407C160.354 307.441 161.686 306.97 160.905 305.275C160.354 304.004 160.308 303.439 160.538 302.874C161.503 302.827 162.284 303.721 163.478 303.957C164.305 304.145 167.797 303.862 169.957 302.026C172.071 300.284 171.749 297.318 169.452 295.811C168.165 294.963 166.879 294.963 164.949 294.116C161.273 292.515 157.321 294.069 155.575 296.988C151.486 298.777 151.762 303.062 152.726 306.593Z" fill="#562E65"/>
<path fill-rule="evenodd" clip-rule="evenodd" d="M157.735 308.241C155.805 307.77 155.989 309.983 156.402 311.301C156.678 312.196 157.413 312.055 157.735 312.761C158.149 313.609 158.838 313.938 159.389 313.891C160.538 313.75 159.665 312.102 159.481 311.396C159.527 310.266 158.976 308.523 157.735 308.241Z" fill="#FFA698"/>
<path fill-rule="evenodd" clip-rule="evenodd" d="M161.503 301.226C161.549 302.497 163.387 303.674 165.592 303.344C167.66 303.062 170.325 302.026 170.876 299.342C171.06 298.401 170.371 296.894 169.222 296.423C168.441 296.093 167.614 296.329 166.787 296.894C165.408 297.836 164.489 299.813 163.479 300.425C162.56 301.084 161.503 301.084 161.503 301.226Z" fill="url(#paint13_linear)"/>
<path fill-rule="evenodd" clip-rule="evenodd" d="M144.915 353.301C148.086 349.864 152.726 333.996 153.737 319.871C150.842 321.095 146.569 317.988 143.491 323.073C141.837 325.804 141.515 329.618 141.377 332.348C141.239 335.362 139.999 341.247 139.034 345.108C138.528 346.992 136.69 352.783 139.861 354.054C142.48 355.137 143.95 354.572 144.915 353.301Z" fill="url(#paint14_linear)"/>
<path fill-rule="evenodd" clip-rule="evenodd" d="M138.666 327.169C137.793 323.308 130.855 327.451 133.244 329.664C133.336 330.041 133.198 330.747 133.152 331.124C132.739 335.079 134.301 344.967 137.242 352.029C138.85 355.843 143.537 356.597 144.961 353.254C147.213 347.98 142.48 335.879 139.861 329.806C139.447 328.958 139.034 328.063 138.666 327.169Z" fill="url(#paint15_linear)"/>
<path fill-rule="evenodd" clip-rule="evenodd" d="M128.282 326.369C128.512 326.274 128.741 326.18 128.971 326.086C128.695 326.086 128.466 326.086 128.328 326.086C127.179 325.615 126.536 325.38 125.157 324.579C125.801 322.649 128.19 324.203 128.604 324.203C128.787 324.203 129.89 323.826 130.947 323.638C132.509 323.355 133.796 323.261 135.036 324.344C136.507 325.144 137.977 326.039 137.472 327.97C137.058 329.665 135.174 329.712 133.842 329.947C133.015 330.088 132.05 330.606 130.487 331.407C128.144 332.584 127.685 332.631 123.503 330.324C120.425 328.629 118.771 327.687 119.046 326.133C119.735 322.414 124.744 326.322 128.282 326.369Z" fill="#FFA698"/>
<path fill-rule="evenodd" clip-rule="evenodd" d="M129.063 329.994C131.406 329.288 132.785 327.028 134.899 327.922C135.45 328.158 136.093 328.723 137.288 328.346C137.012 329.429 135.955 329.712 135.036 329.759C133.934 329.806 132.877 330.182 130.579 331.359C128.236 332.537 127.777 332.584 123.595 330.277C121.528 329.147 120.103 328.346 119.46 327.499C119.138 327.075 119.827 326.463 120.471 326.792C123.825 328.629 125.571 329.994 129.063 329.994Z" fill="url(#paint16_linear)"/>
<path fill-rule="evenodd" clip-rule="evenodd" d="M119.919 325.992C121.068 326.651 126.903 328.487 128.144 328.063C128.465 327.922 128.328 327.263 128.236 326.415C128.557 326.933 128.419 328.252 128.925 327.875C131.682 325.945 132.876 325.474 134.76 326.321C133.566 326.227 132.463 326.51 131.452 327.027C130.487 327.545 129.614 328.299 128.557 328.722C125.571 328.299 123.779 328.252 119.919 325.992Z" fill="url(#paint17_linear)"/>
<path fill-rule="evenodd" clip-rule="evenodd" d="M546.061 594.27L499.624 567.434C494.558 565.27 486.959 562.673 482.315 566.136L469.65 573.927C467.117 575.658 458.674 580.852 464.162 583.882C480.626 592.972 496.246 603.793 513.133 612.882C516.088 614.614 520.732 615.48 525.797 615.047C530.441 614.614 535.507 613.315 539.307 610.718L544.372 607.688C547.75 605.524 549.861 602.927 550.283 600.763C550.705 598.166 549.438 596.002 546.061 594.27Z" fill="#4A917E"/>
<path fill-rule="evenodd" clip-rule="evenodd" d="M446.432 544.061L303.32 459.658C299.52 457.926 294.032 456.195 290.233 458.359L280.945 464.419C278.834 465.717 272.924 469.613 277.146 471.777C288.966 478.703 409.282 550.987 421.946 557.912C424.479 559.21 427.857 559.643 431.234 559.21C435.033 558.778 438.411 557.912 441.366 556.181L445.165 553.584C447.698 551.852 449.387 550.121 449.387 548.39C449.809 546.658 448.542 544.927 446.432 544.061Z" fill="#4A917E"/>
<path fill-rule="evenodd" clip-rule="evenodd" d="M427.012 406.852C439.255 414.21 448.964 431.523 448.964 445.807L448.542 530.643C448.542 537.569 446.009 542.763 442.21 544.927L436.722 548.39C389.862 555.315 248.439 353.18 280.945 335C282.634 334.135 284.322 332.836 286.433 331.538C291.499 328.508 297.409 330.239 302.053 333.269L427.012 406.852Z" fill="url(#paint18_linear)"/>
<path fill-rule="evenodd" clip-rule="evenodd" d="M274.191 349.717C274.191 335.433 283.9 329.806 296.143 336.732L421.102 410.314C433.345 417.673 443.054 434.986 443.054 449.27L442.632 533.673C442.632 547.957 432.922 553.584 420.68 546.658L295.721 473.076C283.478 465.718 273.768 448.404 273.768 434.121L274.191 349.717Z" fill="url(#paint19_linear)"/>
<path fill-rule="evenodd" clip-rule="evenodd" d="M507.223 551.419C511.444 560.509 517.354 567.434 520.309 576.956C520.732 578.688 522.42 583.882 522.842 585.613C523.265 586.912 523.265 587.345 523.265 587.777L523.687 588.21C523.687 586.046 524.953 573.927 524.531 573.061C522.842 568.3 520.732 557.912 519.043 553.15C516.932 548.389 514.399 545.792 512.288 541.464C508.489 533.673 510.178 527.18 505.112 518.956C505.956 513.329 503.845 507.702 498.779 504.672C496.669 503.374 494.136 502.941 492.025 500.777L485.27 504.24C484.426 510.299 484.848 514.628 488.648 519.822C491.18 525.882 492.869 529.777 496.246 534.538C497.091 535.837 500.89 541.897 501.734 542.762C503.001 544.494 505.534 548.822 507.223 551.419Z" fill="url(#paint20_linear)"/>
<path fill-rule="evenodd" clip-rule="evenodd" d="M489.07 575.225C489.07 576.524 489.07 577.822 488.648 579.121C488.648 579.986 488.648 581.285 488.225 582.151H489.492L492.869 576.957C494.98 579.121 494.98 571.763 494.98 570.897C491.603 566.568 490.758 556.18 486.537 549.688C484.848 547.524 483.582 545.792 482.315 544.494C485.692 540.165 491.603 535.404 493.291 528.912C494.136 527.18 496.246 526.315 497.513 524.583C499.624 521.553 500.046 517.658 499.202 514.628C497.513 509.434 491.603 506.404 486.959 504.24C485.27 503.807 481.049 509.867 479.36 511.165C479.782 514.628 480.627 515.061 480.204 518.956C477.249 525.016 475.983 529.344 474.294 534.538C473.45 537.135 471.761 541.031 471.761 544.494C471.339 546.658 474.294 550.121 475.561 551.852C478.938 557.912 488.648 568.3 489.07 575.225Z" fill="url(#paint21_linear)"/>
<path fill-rule="evenodd" clip-rule="evenodd" d="M479.782 481.732C482.315 485.628 480.204 491.687 479.36 491.687C477.249 490.389 475.138 487.792 474.294 486.926C477.249 486.493 477.249 482.165 479.782 481.732Z" fill="#D5DFE7"/>
<path fill-rule="evenodd" clip-rule="evenodd" d="M450.653 458.792C450.653 458.792 450.653 458.359 450.231 458.359C449.386 457.06 448.964 456.628 448.964 455.762C448.964 455.329 448.964 454.896 448.542 454.03V453.598C448.12 452.299 447.276 448.404 448.964 447.538H449.386C449.809 447.538 449.809 447.538 451.075 448.836C452.342 450.135 453.186 451.001 453.608 452.299C453.608 453.165 453.186 456.628 454.452 458.359L451.919 458.792C451.919 459.225 452.342 459.225 452.342 459.225L451.075 460.523C451.075 460.09 450.653 459.225 450.653 458.792Z" fill="#FFA698"/>
<path fill-rule="evenodd" clip-rule="evenodd" d="M462.051 474.374L454.452 457.493C453.186 456.195 450.231 457.493 450.231 458.792L454.452 471.777C454.875 473.508 456.141 476.971 456.985 477.837C457.408 478.703 457.83 478.703 458.252 478.703C458.674 479.135 459.096 479.568 460.363 480.001C464.584 481.732 473.872 486.926 476.827 487.359C478.093 487.359 480.204 486.926 480.626 484.762C481.049 482.165 479.782 480.434 478.516 479.568C475.138 476.538 467.962 476.538 462.051 474.374Z" fill="url(#paint22_linear)"/>
<path fill-rule="evenodd" clip-rule="evenodd" d="M443.054 466.583C443.054 466.583 443.054 465.285 442.632 464.852V464.419C441.788 463.12 441.788 462.255 441.788 461.822C441.788 461.389 441.788 460.523 441.788 459.658C441.788 458.359 441.366 454.464 443.054 453.598H443.476C443.899 453.598 443.899 453.598 444.743 455.329C445.587 456.628 446.432 457.926 446.432 458.792C446.432 459.658 445.165 463.12 446.009 464.852L443.476 465.285C443.476 465.717 443.476 465.717 443.476 465.717L443.054 466.583Z" fill="#FFA698"/>
<path fill-rule="evenodd" clip-rule="evenodd" d="M494.558 570.897C492.869 570.897 491.603 573.061 490.758 575.225C489.914 577.389 489.07 579.554 488.647 581.718C488.225 582.151 487.803 582.151 487.381 582.151C486.959 582.151 485.692 582.151 485.692 582.583C485.27 583.016 485.692 583.882 486.115 584.315C486.537 584.748 486.959 585.613 487.381 586.046C487.803 586.479 488.647 586.479 489.492 586.479C490.336 586.479 491.18 586.046 492.025 586.046C492.869 585.613 494.136 585.613 494.136 584.748C494.558 582.583 494.558 581.718 495.402 579.986C495.824 579.554 495.824 580.852 495.824 581.285V587.777H496.246L497.091 587.345C497.091 582.151 497.513 580.852 497.935 576.524C497.935 575.658 497.935 574.792 497.513 574.36C496.669 572.628 495.402 571.762 494.558 570.897Z" fill="url(#paint23_linear)"/>
<path fill-rule="evenodd" clip-rule="evenodd" d="M486.959 585.613C487.381 586.046 488.225 586.046 489.07 586.046C489.914 586.046 490.758 585.613 491.603 585.613C492.447 585.18 493.713 585.18 493.713 584.315C494.136 583.016 494.558 580.419 495.402 579.121C493.713 578.688 492.447 580.852 492.447 581.718C491.18 584.748 490.758 587.345 486.959 585.613Z" fill="#5534EA"/>
<path fill-rule="evenodd" clip-rule="evenodd" d="M520.732 577.39C521.154 579.987 522.842 583.882 522.842 586.047C522.842 586.047 521.154 587.345 522.842 588.644C523.687 589.076 524.531 589.509 524.953 589.076L530.019 585.614L530.441 586.479L531.285 585.614C530.441 584.315 528.33 580.42 527.908 578.688C527.486 576.957 527.064 574.793 527.064 574.36C526.642 573.927 526.22 573.061 524.531 572.196C521.998 570.464 520.309 574.36 520.732 577.39Z" fill="url(#paint24_linear)"/>
<path fill-rule="evenodd" clip-rule="evenodd" d="M524.531 589.509C525.375 589.509 528.33 587.345 529.597 586.046C528.33 583.016 522.842 577.389 524.109 579.554C524.531 580.419 524.953 583.882 525.375 584.315C525.375 586.046 525.797 588.21 524.531 589.509Z" fill="#5534EA"/>
<path fill-rule="evenodd" clip-rule="evenodd" d="M476.827 477.837C478.938 479.135 479.782 479.568 481.893 482.165C484.848 486.061 487.381 493.852 490.758 498.18C491.603 499.479 492.869 500.777 493.291 501.643C495.402 503.374 497.513 503.807 499.201 505.106C501.312 506.404 503.001 508.568 504.267 510.733C505.112 512.464 511.022 522.852 517.776 525.449C513.133 543.628 499.201 535.404 490.758 543.195C486.115 547.524 476.827 542.763 471.339 536.703C475.138 529.777 479.782 522.419 479.36 511.598C478.516 510.733 478.094 509.434 476.827 508.568C473.872 505.971 470.072 502.076 467.962 500.344C463.318 496.882 459.941 494.718 461.207 488.225C462.051 484.762 466.273 483.031 470.495 480.434C472.605 478.703 475.561 477.404 476.827 477.837Z" fill="url(#paint25_linear)"/>
<path opacity="0.5" fill-rule="evenodd" clip-rule="evenodd" d="M476.827 477.837C478.938 479.135 479.782 479.568 481.893 482.165C484.848 486.061 487.381 493.852 490.758 498.18C491.603 499.479 492.869 500.777 493.291 501.643C495.402 503.374 497.513 503.807 499.202 505.106C501.312 506.404 503.001 508.568 504.268 510.733C505.112 512.464 511.022 522.852 517.777 525.449C516.932 528.912 515.666 531.509 514.399 533.24C508.067 528.479 505.956 523.718 502.157 514.195C499.624 507.27 494.136 507.27 490.758 503.374C489.492 502.076 488.648 500.777 486.537 497.747C482.315 497.315 479.782 497.315 478.516 496.449C476.405 495.15 475.983 492.12 472.183 490.822C469.65 489.956 467.54 490.822 465.429 489.523C464.162 488.658 463.318 487.359 462.474 486.061C464.162 483.897 467.54 482.598 470.917 480.434C472.606 478.703 475.561 477.404 476.827 477.837Z" fill="#FF8FD5"/>
<path fill-rule="evenodd" clip-rule="evenodd" d="M473.027 480.434C473.872 481.299 469.228 484.762 467.539 485.195C465.429 483.031 464.162 483.897 461.629 482.165C460.785 483.464 459.94 485.195 459.518 485.628C459.096 486.061 456.141 483.464 454.875 481.732C454.03 480.434 454.03 479.568 454.03 479.135C453.186 477.837 452.342 477.837 451.497 476.105C449.386 471.344 453.608 463.986 459.94 463.986C463.74 463.986 466.273 467.016 467.117 470.046C467.961 472.21 467.539 474.374 467.539 475.673C468.384 478.27 470.917 479.568 473.027 480.434Z" fill="#FFA698"/>
<path fill-rule="evenodd" clip-rule="evenodd" d="M459.519 485.628C459.941 485.628 461.629 483.896 462.474 483.031C463.74 484.329 465.007 484.329 467.117 486.061C465.851 483.464 465.429 482.598 468.806 477.837C468.384 477.404 467.962 476.538 467.962 476.105C467.962 474.374 468.384 472.21 467.54 470.478C465.007 468.747 461.629 476.971 459.519 485.628Z" fill="url(#paint26_linear)"/>
<path fill-rule="evenodd" clip-rule="evenodd" d="M459.518 479.135C459.096 478.702 459.096 478.27 459.096 478.27C459.518 478.27 459.941 478.27 460.785 478.702C461.629 479.568 462.051 480.867 460.785 481.299C461.629 480.867 460.785 480.001 460.363 479.568C459.518 479.135 459.096 478.702 459.518 479.135Z" fill="#FFB79D"/>
<path fill-rule="evenodd" clip-rule="evenodd" d="M459.94 479.135C459.94 479.569 459.941 480.002 460.363 480.002C460.363 480.002 460.786 480.002 460.786 479.569C460.363 479.569 459.94 479.135 459.94 479.135Z" fill="#FF8978"/>
<path fill-rule="evenodd" clip-rule="evenodd" d="M451.497 481.299L447.276 464.419C446.431 463.12 443.054 463.986 442.632 465.717L444.321 478.702C444.743 480.434 445.165 483.896 445.587 484.762C446.009 485.628 446.431 485.628 446.854 486.061C447.276 486.493 447.698 486.926 448.542 487.359C452.342 489.523 460.785 496.016 463.318 496.016C464.584 496.016 466.695 495.583 467.539 493.419C468.384 490.822 468.806 490.389 467.962 489.09C465.429 486.061 456.563 483.464 451.497 481.299Z" fill="url(#paint27_linear)"/>
<path fill-rule="evenodd" clip-rule="evenodd" d="M461.629 481.299C461.629 479.568 459.518 477.837 459.096 479.135C458.674 479.568 456.985 479.568 455.297 479.568C452.342 478.702 448.964 476.538 448.964 473.076C449.387 470.046 451.497 468.314 452.764 465.717C456.141 457.926 463.318 458.792 467.117 460.956C470.072 462.687 471.761 464.419 474.716 465.284C478.516 466.15 482.315 463.553 486.959 467.449C494.135 473.076 497.513 467.449 500.046 470.478C503.001 474.374 501.312 480.867 498.357 485.628C494.558 491.688 482.737 497.747 477.671 492.12C474.294 488.225 470.495 487.792 465.429 486.926C462.051 486.494 461.629 483.031 461.629 481.299Z" fill="url(#paint28_linear)"/>
<path opacity="0.3" fill-rule="evenodd" clip-rule="evenodd" d="M356.934 387.806C331.182 372.657 310.496 384.776 310.496 415.075C310.496 445.374 331.182 481.732 356.512 496.882C382.263 512.031 402.949 499.911 402.949 469.613C402.949 439.747 382.263 402.956 356.934 387.806Z" fill="white"/>
<path d="M359.467 411.18L378.464 474.807C378.886 476.538 378.886 478.27 378.464 479.568C378.042 480.001 377.62 480.434 377.197 480.434C376.775 480.434 376.353 480.434 375.509 480.001L337.092 457.926C336.67 457.493 335.826 457.061 335.404 456.195C334.981 455.329 334.559 454.896 334.137 453.598C333.715 451.866 333.715 450.135 334.137 448.837L353.134 407.284C353.556 406.851 353.979 406.418 354.401 405.986C354.823 405.986 355.245 405.986 356.089 406.418C356.512 406.851 357.356 407.284 357.778 408.15C358.622 409.448 359.045 410.314 359.467 411.18ZM359.889 446.24L360.311 429.359C360.311 428.926 360.311 428.926 359.889 428.493C359.467 428.06 359.467 427.628 359.467 427.628L353.979 424.598H353.556L353.134 425.03L353.556 442.344C353.556 442.777 353.556 442.777 353.979 443.21C353.979 443.643 354.401 443.643 354.401 443.643L359.045 446.24C359.467 446.24 359.467 446.24 359.467 446.24C359.889 446.672 359.889 446.24 359.889 446.24ZM359.889 460.09V453.165C359.889 452.732 359.889 452.299 359.467 452.299C359.467 451.866 359.045 451.866 359.045 451.434L354.401 448.837C353.979 448.837 353.979 448.837 353.979 448.837C353.979 448.837 353.556 449.269 353.556 449.702V456.628C353.556 457.061 353.556 457.493 353.979 457.493C353.979 457.926 354.401 457.926 354.401 458.359L359.045 460.956C359.467 460.956 359.467 460.956 359.467 460.956C359.889 460.956 359.889 460.523 359.889 460.09Z" fill="#E9F6EE"/>
<path fill-rule="evenodd" clip-rule="evenodd" d="M214.121 264.543C205.697 259.71 198.958 247.625 198.958 237.958L199.632 179.952C199.632 175.119 196.937 168.921 199.632 167.195C199.632 167.195 206.917 161.391 214.875 165.868C222.833 170.345 297.111 213.618 302.417 217.597C307.722 221.576 314.865 232.188 314.865 244.125L314.865 277.664L314.865 294.528C314.865 302.69 314.865 309.01 310.375 311.771C307.006 313.843 300.144 314.824 297.111 313.097L232.118 274.632C225.486 282.59 214.121 286.569 204.264 282.59C213.024 274.649 218.838 273.175 218.501 267.306L214.121 264.543Z" fill="url(#paint29_linear)"/>
<path fill-rule="evenodd" clip-rule="evenodd" d="M229.454 273.175C225.074 280.771 215.976 285.26 202.836 282.843C212.944 273.866 213.618 271.449 213.281 263.508L209.574 261.436C201.151 256.602 194.412 244.518 194.412 234.85L194.749 176.845C194.749 167.177 201.488 163.034 209.911 167.868L295.157 217.932C303.58 222.766 310.319 234.85 310.319 244.518L309.982 302.868C309.982 312.536 303.244 316.679 294.82 311.845L229.454 273.175Z" fill="url(#paint30_linear)"/>
<path opacity="0.3" fill-rule="evenodd" clip-rule="evenodd" d="M200.14 181.334L200.14 187.549L237.54 209.991L237.54 203.776L200.14 181.334ZM199.466 236.577L303.917 298.035L303.917 291.82L199.466 230.017L199.466 236.577ZM240.91 251.078L199.466 226.564L199.466 220.349L240.91 244.863L240.91 251.078ZM199.803 208.61L304.254 270.413L304.254 278.7L199.803 216.896L199.803 208.61ZM199.803 195.49L304.254 257.293L304.254 265.234L199.803 203.431L199.803 195.49Z" fill="white"/>
<defs>
<linearGradient id="paint0_linear" x1="753.256" y1="517.72" x2="680.979" y2="-233.752" gradientUnits="userSpaceOnUse">
<stop stop-color="#4C9988"/>
<stop offset="0.9967" stop-color="#65DF94"/>
</linearGradient>
<linearGradient id="paint1_linear" x1="410.806" y1="581.638" x2="410.806" y2="52.7917" gradientUnits="userSpaceOnUse">
<stop stop-color="#F2C94C"/>
<stop offset="1" stop-color="#56CCF2"/>
</linearGradient>
<linearGradient id="paint2_linear" x1="646.842" y1="158.987" x2="657.034" y2="140.565" gradientUnits="userSpaceOnUse">
<stop stop-color="#965CF2"/>
<stop offset="1" stop-color="#FF8ADC"/>
</linearGradient>
<linearGradient id="paint3_linear" x1="616.564" y1="181.141" x2="614.706" y2="163.977" gradientUnits="userSpaceOnUse">
<stop stop-color="#965CF2"/>
<stop offset="1" stop-color="#FF8ADC"/>
</linearGradient>
<linearGradient id="paint4_linear" x1="527.908" y1="531.447" x2="478.559" y2="248.246" gradientUnits="userSpaceOnUse">
<stop stop-color="#20B197"/>
<stop offset="1" stop-color="#DBFDFF"/>
</linearGradient>
<linearGradient id="paint5_linear" x1="177.328" y1="311.712" x2="190.174" y2="329.473" gradientUnits="userSpaceOnUse">
<stop stop-color="#6D6AFE"/>
<stop offset="1" stop-color="#3FB0F7"/>
</linearGradient>
<linearGradient id="paint6_linear" x1="198.577" y1="305.699" x2="200.14" y2="307.87" gradientUnits="userSpaceOnUse">
<stop stop-color="#FF8A78"/>
<stop offset="1" stop-color="#FFA799"/>
</linearGradient>
<linearGradient id="paint7_linear" x1="198.704" y1="304.295" x2="199.725" y2="305.624" gradientUnits="userSpaceOnUse">
<stop stop-color="#FF8A78"/>
<stop offset="1" stop-color="#FFA799"/>
</linearGradient>
<linearGradient id="paint8_linear" x1="172" y1="375.114" x2="158.416" y2="417.942" gradientUnits="userSpaceOnUse">
<stop stop-color="#235DA3"/>
<stop offset="1" stop-color="#123A76"/>
</linearGradient>
<linearGradient id="paint9_linear" x1="164.479" y1="377.729" x2="139.425" y2="426.992" gradientUnits="userSpaceOnUse">
<stop stop-color="#235DA3"/>
<stop offset="1" stop-color="#123A76"/>
</linearGradient>
<linearGradient id="paint10_linear" x1="158.518" y1="324.506" x2="166.027" y2="363.611" gradientUnits="userSpaceOnUse">
<stop stop-color="#6D6AFE"/>
<stop offset="1" stop-color="#3FB0F7"/>
</linearGradient>
<linearGradient id="paint11_linear" x1="161.589" y1="315.138" x2="159.357" y2="317.582" gradientUnits="userSpaceOnUse">
<stop stop-color="#FF8A78"/>
<stop offset="1" stop-color="#FFA799"/>
</linearGradient>
<linearGradient id="paint12_linear" x1="167.427" y1="306.515" x2="165.893" y2="313.926" gradientUnits="userSpaceOnUse">
<stop stop-color="#FFB89E"/>
<stop offset="1" stop-color="#FFA799"/>
</linearGradient>
<linearGradient id="paint13_linear" x1="167.862" y1="300.9" x2="165.588" y2="299.45" gradientUnits="userSpaceOnUse">
<stop stop-color="#8A4791"/>
<stop offset="1" stop-color="#562E65"/>
</linearGradient>
<linearGradient id="paint14_linear" x1="147.1" y1="329.174" x2="140.876" y2="358.665" gradientUnits="userSpaceOnUse">
<stop stop-color="#6D6AFE"/>
<stop offset="1" stop-color="#3FB0F7"/>
</linearGradient>
<linearGradient id="paint15_linear" x1="153.502" y1="341.037" x2="135.478" y2="340.404" gradientUnits="userSpaceOnUse">
<stop stop-color="#6D6AFE"/>
<stop offset="1" stop-color="#3FB0F7"/>
</linearGradient>
<linearGradient id="paint16_linear" x1="128.077" y1="324.604" x2="128.62" y2="331.92" gradientUnits="userSpaceOnUse">
<stop stop-color="#FF8A78"/>
<stop offset="1" stop-color="#FFA799"/>
</linearGradient>
<linearGradient id="paint17_linear" x1="127.265" y1="324.906" x2="127.572" y2="332.139" gradientUnits="userSpaceOnUse">
<stop stop-color="#FF8A78"/>
<stop offset="1" stop-color="#FFA799"/>
</linearGradient>
<linearGradient id="paint18_linear" x1="375.868" y1="367.839" x2="352.02" y2="484.192" gradientUnits="userSpaceOnUse">
<stop stop-color="#FD70CB"/>
<stop offset="1" stop-color="#6E4DFD"/>
</linearGradient>
<linearGradient id="paint19_linear" x1="360.396" y1="338.306" x2="357.619" y2="479.18" gradientUnits="userSpaceOnUse">
<stop stop-color="#FD90DA"/>
<stop offset="1" stop-color="#8E6DFD"/>
</linearGradient>
<linearGradient id="paint20_linear" x1="505.185" y1="543.847" x2="507.975" y2="555.195" gradientUnits="userSpaceOnUse">
<stop stop-color="#FF8A78"/>
<stop offset="1" stop-color="#FFA799"/>
</linearGradient>
<linearGradient id="paint21_linear" x1="485.298" y1="545.109" x2="483.24" y2="557.07" gradientUnits="userSpaceOnUse">
<stop stop-color="#FF8A78"/>
<stop offset="1" stop-color="#FFA799"/>
</linearGradient>
<linearGradient id="paint22_linear" x1="478.416" y1="476.073" x2="450.61" y2="468.998" gradientUnits="userSpaceOnUse">
<stop stop-color="#FF66BC"/>
<stop offset="0.56" stop-color="#FF8ADC"/>
<stop offset="1" stop-color="#FFBBA8"/>
</linearGradient>
<linearGradient id="paint23_linear" x1="494.921" y1="570.704" x2="491.048" y2="583.745" gradientUnits="userSpaceOnUse">
<stop stop-color="#FD70CB"/>
<stop offset="1" stop-color="#6E4DFD"/>
</linearGradient>
<linearGradient id="paint24_linear" x1="527.859" y1="572.502" x2="524.399" y2="586.675" gradientUnits="userSpaceOnUse">
<stop stop-color="#FD70CB"/>
<stop offset="1" stop-color="#6E4DFD"/>
</linearGradient>
<linearGradient id="paint25_linear" x1="464.879" y1="496.852" x2="508.67" y2="541.44" gradientUnits="userSpaceOnUse">
<stop stop-color="#FF66BC"/>
<stop offset="0.56" stop-color="#FF8ADC"/>
<stop offset="1" stop-color="#FFBBA8"/>
</linearGradient>
<linearGradient id="paint26_linear" x1="466.458" y1="480.258" x2="469.098" y2="482.172" gradientUnits="userSpaceOnUse">
<stop stop-color="#FF8A78"/>
<stop offset="1" stop-color="#FFA799"/>
</linearGradient>
<linearGradient id="paint27_linear" x1="466.619" y1="482.395" x2="442.534" y2="477.384" gradientUnits="userSpaceOnUse">
<stop stop-color="#FF66BC"/>
<stop offset="0.56" stop-color="#FF8ADC"/>
<stop offset="1" stop-color="#FFBBA8"/>
</linearGradient>
<linearGradient id="paint28_linear" x1="468.112" y1="463.766" x2="483.74" y2="484.64" gradientUnits="userSpaceOnUse">
<stop stop-color="#5A2D68"/>
<stop offset="1" stop-color="#22043D"/>
</linearGradient>
<linearGradient id="paint29_linear" x1="261.727" y1="202.92" x2="254.218" y2="285.573" gradientUnits="userSpaceOnUse">
<stop stop-color="#0F6EEF"/>
<stop offset="1" stop-color="#00B9D0"/>
</linearGradient>
<linearGradient id="paint30_linear" x1="255.393" y1="212.045" x2="247.655" y2="275.392" gradientUnits="userSpaceOnUse">
<stop stop-color="#1C8EF4"/>
<stop offset="1" stop-color="#00CFDD"/>
</linearGradient>
</defs>
</svg>
