<svg width="217" height="208" viewBox="0 0 217 208" fill="none" xmlns="http://www.w3.org/2000/svg">
<path d="M216.439 136.878L28.0834 161.273V165.749L216.439 141.354V136.878Z" fill="#3C3C3B"/>
<path d="M215.935 142.173L102.468 207.669C101.711 208.11 100.513 208.11 99.757 207.669L28.5878 166.569C27.8313 166.127 27.8313 165.434 28.5878 164.993L141.992 99.497C142.748 99.0557 143.946 99.0557 144.703 99.497L215.872 140.597C216.628 141.039 216.628 141.732 215.935 142.173Z" fill="#3C3C3B"/>
<path d="M215.935 137.699L102.468 203.195C101.711 203.636 100.513 203.636 99.757 203.195L28.5878 162.094C27.8313 161.653 27.8313 160.959 28.5878 160.518L141.992 95.0224C142.748 94.5811 143.946 94.5811 144.703 95.0224L215.935 136.123C216.628 136.564 216.628 137.257 215.935 137.699Z" fill="#878787"/>
<path opacity="0.5" d="M126.233 109.142L124.215 110.277L118.29 113.681L116.273 114.879L110.41 118.283L108.393 119.417L102.468 122.821L100.45 124.019L94.5879 127.423L92.5707 128.558L86.7082 131.962L84.691 133.097L78.7655 136.501L76.7483 137.698L70.8858 141.102L68.8686 142.237L62.9431 145.641L60.9259 146.839L55.0634 150.243L53.0462 151.377L47.1207 154.781L45.1035 155.979L37.2239 160.518L44.8514 164.93L46.8686 166.128L52.5419 169.343L54.5591 170.541L60.1695 173.756L62.1866 174.953L67.86 178.231L69.8772 179.366L75.4875 182.644L77.5047 183.779L85.1953 188.191L93.075 183.653L95.0922 182.455L108.897 174.512L110.915 173.314L156.365 147.091L158.382 145.956L164.244 142.552L166.261 141.354L172.124 138.013L174.204 136.816L180.067 133.412L182.084 132.277L189.963 127.675L182.336 123.263L180.319 122.128L174.708 118.85L172.628 117.652L159.39 110.025L157.373 108.827L151.7 105.612L149.683 104.415L142.055 100.002L126.233 109.142Z" fill="black"/>
<path d="M47.1208 156.546L40.2497 160.517L46.8686 164.363L53.8027 160.391L47.1208 156.546Z" fill="#706F6F"/>
<path d="M55.0635 151.944L48.1294 155.979L54.8113 159.761L61.6824 155.79L55.0635 151.944Z" fill="#DADADA"/>
<path d="M62.691 155.223L69.6251 151.252L62.9431 147.406L56.0721 151.378L62.691 155.223Z" fill="#DADADA"/>
<path d="M70.8858 142.867L63.9517 146.839L70.6337 150.684L77.5048 146.649L70.8858 142.867Z" fill="#DADADA"/>
<path d="M78.7655 138.266L71.8944 142.237L78.5134 146.082L85.4475 142.111L78.7655 138.266Z" fill="#DADADA"/>
<path d="M86.7082 133.726L79.7741 137.697L86.456 141.542L93.3271 137.571L86.7082 133.726Z" fill="#DADADA"/>
<path d="M94.5879 129.125L87.7169 133.096L94.3358 136.942L101.207 132.97L94.5879 129.125Z" fill="#DADADA"/>
<path d="M102.468 124.587L95.5966 128.558L102.215 132.404L109.15 128.432L102.468 124.587Z" fill="#DADADA"/>
<path d="M110.158 127.801L117.029 123.83L110.41 119.984L103.476 124.019L110.158 127.801Z" fill="#DADADA"/>
<path d="M118.038 123.263L124.972 119.292L118.29 115.446L111.419 119.418L118.038 123.263Z" fill="#DADADA"/>
<path d="M125.981 118.723L132.852 114.688L126.233 110.906L119.299 114.878L125.981 118.723Z" fill="#DADADA"/>
<path d="M127.241 110.277L133.86 114.122L148.674 105.612L142.055 101.767L127.241 110.277Z" fill="#706F6F"/>
<path d="M54.8113 160.959L47.8772 164.93L54.5592 168.776L61.4302 164.804L54.8113 160.959Z" fill="#DADADA"/>
<path d="M62.691 156.42L55.8199 160.391L62.4388 164.237L69.3729 160.202L62.691 156.42Z" fill="#DADADA"/>
<path d="M70.3815 159.636L77.2526 155.665L70.6337 151.819L63.6996 155.791L70.3815 159.636Z" fill="#DADADA"/>
<path d="M78.5134 147.279L71.6423 151.251L78.2613 155.096L85.1954 151.125L78.5134 147.279Z" fill="#DADADA"/>
<path d="M86.4561 142.678L79.522 146.649L86.204 150.494L93.0751 146.523L86.4561 142.678Z" fill="#DADADA"/>
<path d="M94.3358 138.139L87.4647 142.11L94.0836 145.955L100.955 141.984L94.3358 138.139Z" fill="#DADADA"/>
<path d="M102.215 133.537L95.3444 137.571L101.963 141.354L108.897 137.382L102.215 133.537Z" fill="#DADADA"/>
<path d="M110.158 128.999L103.224 132.97L109.906 136.816L116.777 132.844L110.158 128.999Z" fill="#DADADA"/>
<path d="M117.786 132.277L124.72 128.242L118.038 124.46L111.167 128.431L117.786 132.277Z" fill="#DADADA"/>
<path d="M125.728 127.675L132.599 123.704L125.981 119.858L119.046 123.83L125.728 127.675Z" fill="#DADADA"/>
<path d="M133.608 123.136L140.542 119.165L133.86 115.319L126.989 119.291L133.608 123.136Z" fill="#DADADA"/>
<path d="M141.803 110.718L134.869 114.689L141.551 118.534L148.422 114.563L141.803 110.718Z" fill="#DADADA"/>
<path d="M149.43 113.995L156.365 110.024L149.683 106.179L142.811 110.15L149.43 113.995Z" fill="#DADADA"/>
<path d="M62.4389 165.371L55.5678 169.342L62.1867 173.188L69.1208 169.216L62.4389 165.371Z" fill="#DADADA"/>
<path d="M70.3816 160.832L63.4475 164.803L70.1294 168.649L77.0005 164.677L70.3816 160.832Z" fill="#DADADA"/>
<path d="M78.0091 164.048L84.9432 160.077L78.2612 156.231L71.3902 160.203L78.0091 164.048Z" fill="#DADADA"/>
<path d="M86.2039 151.691L79.2698 155.663L85.9518 159.508L92.8229 155.537L86.2039 151.691Z" fill="#DADADA"/>
<path d="M94.0836 147.091L87.2125 151.125L93.8315 154.907L100.703 150.936L94.0836 147.091Z" fill="#DADADA"/>
<path d="M101.963 142.552L95.0922 146.523L101.711 150.368L108.645 146.397L101.963 142.552Z" fill="#DADADA"/>
<path d="M109.906 138.013L102.972 141.984L109.654 145.829L116.525 141.795L109.906 138.013Z" fill="#DADADA"/>
<path d="M117.786 133.411L110.915 137.382L117.534 141.228L124.468 137.256L117.786 133.411Z" fill="#DADADA"/>
<path d="M125.476 136.69L132.347 132.718L125.728 128.873L118.794 132.844L125.476 136.69Z" fill="#DADADA"/>
<path d="M133.356 132.088L140.29 128.117L133.608 124.271L126.737 128.243L133.356 132.088Z" fill="#DADADA"/>
<path d="M141.299 127.548L148.17 123.577L141.551 119.731L134.617 123.703L141.299 127.548Z" fill="#DADADA"/>
<path d="M149.43 115.13L142.559 119.164L149.178 122.947L156.112 118.975L149.43 115.13Z" fill="#DADADA"/>
<path d="M158.13 118.976L150.25 123.515L156.869 127.36C164.055 123.2 171.683 118.787 171.683 118.787C171.683 118.787 170.926 118.346 157.373 110.529L150.502 114.501L158.13 118.976Z" fill="#706F6F"/>
<path d="M78.0091 165.245L63.1953 173.755L69.8773 177.6L84.6911 169.09L78.0091 165.245Z" fill="#706F6F"/>
<path d="M85.6996 168.46L92.5707 164.489L85.9518 160.644L79.0177 164.678L85.6996 168.46Z" fill="#DADADA"/>
<path d="M93.8314 156.105L86.9604 160.077L93.5793 163.922L100.45 159.951L93.8314 156.105Z" fill="#DADADA"/>
<path d="M101.711 151.566L94.8401 155.538L101.459 159.383L108.393 155.349L101.711 151.566Z" fill="#DADADA"/>
<path d="M109.654 146.964L102.72 150.935L109.402 154.78L116.273 150.809L109.654 146.964Z" fill="#DADADA"/>
<path d="M117.533 142.426L110.662 146.397L117.281 150.242L124.215 146.271L117.533 142.426Z" fill="#DADADA"/>
<path d="M125.476 137.823L118.542 141.795L125.224 145.64L132.095 141.669L125.476 137.823Z" fill="#DADADA"/>
<path d="M133.104 141.102L140.038 137.13L133.356 133.285L126.485 137.257L133.104 141.102Z" fill="#DADADA"/>
<path d="M141.047 136.5L147.918 132.529L141.299 128.684L134.365 132.718L141.047 136.5Z" fill="#DADADA"/>
<path d="M148.926 131.961L155.86 127.99L149.178 124.145L142.307 128.116L148.926 131.961Z" fill="#DADADA"/>
<path d="M88.095 175.898L92.3186 173.502L85.6996 169.657L70.8858 178.23L77.5048 182.013L85.4475 177.474L88.095 175.898Z" fill="#706F6F"/>
<path d="M93.3271 172.935L100.198 168.901L93.5793 165.056L86.7082 169.09L93.3271 172.935Z" fill="#DADADA"/>
<path d="M101.459 160.518L94.5879 164.489L101.207 168.334L108.141 164.363L101.459 160.518Z" fill="#DADADA"/>
<path d="M109.402 155.979L102.468 159.95L109.15 163.795L116.021 159.761L109.402 155.979Z" fill="#DADADA"/>
<path d="M117.281 151.376L110.41 155.347L117.029 159.193L123.963 155.221L117.281 151.376Z" fill="#DADADA"/>
<path d="M125.224 146.839L118.29 150.81L124.972 154.655L131.843 150.684L125.224 146.839Z" fill="#DADADA"/>
<path d="M133.104 142.236L126.233 146.271L132.852 150.053L139.786 146.082L133.104 142.236Z" fill="#DADADA"/>
<path d="M140.794 145.515L147.665 141.544L141.046 137.698L134.112 141.67L140.794 145.515Z" fill="#DADADA"/>
<path d="M148.674 140.975L155.608 136.941L148.926 133.096L142.055 137.13L148.674 140.975Z" fill="#DADADA"/>
<path d="M156.617 136.375L163.488 132.404L156.869 128.559L149.935 132.53L156.617 136.375Z" fill="#DADADA"/>
<path d="M164.496 131.835L179.31 123.262L172.628 119.417L157.877 127.99L164.496 131.835Z" fill="#706F6F"/>
<path d="M85.1953 186.489L92.0664 182.455L85.4475 178.609L78.5134 182.644L85.1953 186.489Z" fill="#DADADA"/>
<path d="M94.3358 173.503L86.4561 178.041L93.075 181.887L100.955 177.348L103.476 175.898L107.889 173.313L101.207 169.531L96.8573 172.053L94.3358 173.503Z" fill="#DADADA"/>
<path d="M108.897 172.747C118.668 167.074 133.608 158.438 155.356 145.957L148.737 142.111C126.863 154.782 112.112 163.292 102.279 168.902L108.897 172.747Z" fill="#706F6F"/>
<path d="M156.365 145.388L163.236 141.354L156.617 137.571L149.683 141.543L156.365 145.388Z" fill="#DADADA"/>
<path d="M164.244 140.787L171.115 136.816L164.496 132.971L157.625 136.942L164.244 140.787Z" fill="#DADADA"/>
<path d="M172.124 136.246L179.058 132.275L172.376 128.43L165.505 132.401L172.124 136.246Z" fill="#DADADA"/>
<path d="M180.067 131.646L186.938 127.674L180.319 123.829L173.448 127.8L180.067 131.646Z" fill="#DADADA"/>
<path d="M161.534 157.491L153.528 152.89C152.771 152.448 151.574 152.448 150.817 152.89L128.754 165.623C127.998 166.064 127.998 166.758 128.754 167.199L136.76 171.801L161.534 157.491Z" fill="#706F6F"/>
<path d="M137.453 172.18L140.542 173.945C141.299 174.386 142.496 174.386 143.253 173.945L153.906 167.767L149.43 165.183L137.453 172.18Z" fill="#DADADA"/>
<path d="M150.187 164.805L154.663 167.39L165.316 161.212C166.072 160.771 166.072 160.077 165.316 159.636L162.227 157.871L150.187 164.805Z" fill="#DADADA"/>
<path d="M118.164 0.527932L116.651 0.0236402C116.273 -0.0393972 115.895 0.0236325 115.642 0.212745L0.977403 66.465C0.347029 66.8433 0.0318269 67.9149 0.410051 69.1756L23.4187 157.365C23.986 159.445 26.8227 161.336 28.5878 160.706L29.2812 160.328L11.6307 85.6914L120.748 22.591L119.362 14.9005L139.092 90.5453C139.534 92.3734 141.046 94.0124 142.37 94.2015L143.001 93.0668L118.164 0.527932Z" fill="#3C3C3B"/>
<path d="M119.173 1.66316L143.001 93.0674C143.19 93.8238 142.875 94.6433 142.181 95.0846L28.5248 160.706C28.0835 160.959 27.4531 160.706 27.3271 160.202L3.24677 67.9154C2.99462 67.0329 3.37284 66.1504 4.19233 65.7091L116.777 0.654568C117.66 0.0872312 118.857 0.591524 119.173 1.66316Z" fill="#3C3C3B"/>
<path d="M137.327 91.8069L30.668 153.52L30.3528 152.386L8.54188 68.6091L114.256 7.46284L115.201 6.89551L137.327 91.8069Z" fill="#9FD4CD"/>
<path d="M136.697 91.4919L121.757 100.128L78.8917 124.902L30.2898 153.016L14.0262 90.7985L11.0634 79.3887L8.28978 68.7354L9.73966 67.9159L55.1266 41.6294L114.697 7.21094L136.697 91.4919Z" fill="#55B2A8"/>
<path d="M83.8716 43.394C83.9977 43.331 84.1868 43.2049 84.3128 43.1419C85.9518 42.3224 87.6538 42.0072 89.3558 42.1333C89.7971 42.1963 90.3014 42.1963 90.7427 42.3224C91.6252 42.5115 92.4447 42.7637 93.2641 43.0788C94.2097 43.394 95.0922 43.8353 96.0378 44.2765C96.9203 44.6548 97.7398 45.2221 98.5593 45.7264C99.3788 46.2307 100.135 46.798 100.892 47.4284C102.215 48.5001 103.413 49.7608 104.485 51.1476C105.619 52.5975 106.628 54.2365 107.511 56.0015C108.645 58.3969 109.528 60.9815 110.032 63.8181C110.599 67.0961 110.725 70.5631 110.41 74.0932C110.095 77.6864 109.276 81.2795 108.078 84.7466C107.448 86.5746 106.754 88.3397 105.935 90.0417C105.493 90.9242 105.052 91.8067 104.611 92.6262C104.17 93.5088 103.665 94.3913 103.098 95.2108C101.963 96.8497 100.513 98.1735 98.9375 99.1191C98.8114 99.1821 98.7484 99.2452 98.6223 99.3082C97.2985 100.002 95.9748 100.443 94.5879 100.695C91.31 101.262 88.032 100.821 84.9432 100.065C83.2412 99.6864 81.6022 99.1191 79.9633 98.5517C79.7741 98.4887 79.522 98.4257 79.3329 98.2996C79.2068 98.5517 79.0807 98.8039 78.9547 98.993C78.7025 99.4973 77.1896 102.46 76.6223 103.406C74.6051 107.062 72.3357 110.592 69.6251 113.555C68.4274 114.815 67.1667 116.013 65.7798 116.896C65.5277 117.085 65.2125 117.211 64.9604 117.4C64.4561 117.652 63.8887 117.904 63.3214 118.093C62.4389 118.345 61.6194 118.472 60.7369 118.472C59.7283 118.472 57.3328 117.904 56.4503 117.589C54.7483 117.022 53.1093 116.202 51.5964 115.257C48.6337 113.366 45.9231 110.844 43.8428 107.566C41.8887 104.477 40.3758 100.821 39.6824 96.7867C39.115 93.5088 38.989 90.0417 39.3041 86.5116C39.6193 82.9185 40.4388 79.3253 41.6365 75.8583C42.8973 72.2652 44.5362 68.7981 46.4274 65.5832C46.9317 64.7007 47.6251 63.9442 48.2555 63.2508C48.9489 62.5574 49.6423 61.927 50.3987 61.3597C50.84 61.0445 51.2182 60.7924 51.6595 60.5402C52.7311 59.9729 53.8027 59.5946 54.9374 59.2795C58.2153 58.46 61.5563 58.8382 64.6452 59.5946C66.3472 59.9729 67.9862 60.5402 69.5621 61.1075C69.6882 61.1706 69.9403 61.2967 70.0034 61.2336C70.0034 61.1706 70.3185 60.6032 70.4446 60.3511C70.6968 59.8468 70.9489 59.3425 71.2011 58.8382C71.7054 57.8296 72.2097 56.884 72.777 55.9385C74.7942 52.3453 77.1266 48.8153 79.9633 46.1046C81.287 45.033 82.5478 44.0874 83.8716 43.394ZM86.3931 68.9242C86.3931 68.8611 86.3931 68.8611 86.3931 68.9242C86.5822 68.7351 87.2125 67.5373 87.4017 67.0961C87.969 65.8984 88.5363 64.6376 89.0406 63.3769C90.1123 60.6663 90.9318 57.8296 91.373 54.9299C91.4361 54.6777 91.5621 53.417 91.5621 52.9757C91.5621 52.7236 91.6252 51.6519 91.6252 51.3367C91.6252 49.2565 91.247 47.2393 90.4275 45.6003C90.2384 45.2221 89.9862 44.8439 89.7341 44.4657C89.608 44.2766 89.2298 43.7723 89.1037 43.7723C88.9776 43.7723 88.9146 43.7723 88.7885 43.7723C87.969 43.7723 87.0865 43.8353 86.204 44.0874C85.5105 44.2766 84.8171 44.5917 84.1237 44.9069C81.7913 46.1677 79.7111 48.3109 77.9461 50.6433C75.3615 53.9843 73.2813 57.8926 71.3902 61.801C73.9747 62.8726 76.4962 64.1333 79.0177 65.3941C80.4676 66.1505 81.9805 66.97 83.4303 67.7265C84.0607 68.0416 84.6911 68.3568 85.3214 68.609C85.6366 68.7981 86.267 68.9872 86.3931 68.9242ZM64.7082 115.761C67.3558 114.374 69.6251 111.79 71.5163 109.079C74.0377 105.612 76.118 101.704 78.0721 97.7953C78.0091 97.8583 78.0091 97.9214 78.0721 97.8583C78.0721 97.8583 78.1352 97.7953 78.0721 97.7953C77.5678 97.6062 77.0635 97.354 76.5592 97.1019C74.3529 96.1563 72.0836 95.2108 69.8773 94.1391C68.4274 93.4457 66.9776 92.7523 65.5277 92.1219C65.0234 91.9328 64.5191 91.6807 63.9518 91.6176C63.8887 91.6176 63.7627 91.6176 63.6996 91.6176H63.6366C63.6366 91.6176 63.5735 91.6176 63.5735 91.6807C63.5105 91.8067 63.4475 91.8698 63.3844 91.9959C62.8801 92.8153 62.4389 93.6979 61.9976 94.5804C61.3672 95.9042 60.7369 97.291 60.2326 98.6778C58.9718 102.082 58.0263 105.738 58.0263 109.331C58.0263 111.411 58.4675 113.429 59.35 115.068C59.5391 115.446 59.7913 115.824 60.1065 116.202C60.1695 116.328 60.4847 116.707 60.5477 116.707C60.7369 116.707 60.926 116.707 61.1781 116.707C61.9976 116.707 62.8801 116.517 63.6996 116.202C64.0778 116.076 64.393 115.887 64.7082 115.761ZM83.6825 42.7006C82.4217 43.394 81.0979 44.3396 79.8372 45.6003C77.3157 47.9958 74.9833 51.2107 72.5249 55.6233C72.0206 56.5688 71.4532 57.5774 70.9489 58.586C70.6968 59.0903 70.4446 59.5946 70.1925 60.0989C70.1294 60.162 70.0664 60.3511 70.0034 60.4772C68.2383 59.8468 66.5993 59.3425 65.0234 58.9643C61.1781 58.0187 58.0262 57.9557 55.0635 58.6491C53.8658 58.9643 52.7311 59.3425 51.6595 59.9098C51.2182 60.162 50.7139 60.4141 50.3357 60.7293C49.5162 61.2966 48.7597 61.927 48.0663 62.6835C47.2468 63.566 46.6165 64.3855 46.1122 65.205C44.095 68.4829 42.456 72.013 41.1953 75.6692C39.9345 79.2623 39.1781 82.9815 38.7999 86.5746C38.4847 90.2308 38.6107 93.7609 39.1781 97.1019C39.8715 101.073 41.3844 104.855 43.4646 108.133C45.5448 111.348 48.1924 113.996 51.3443 115.95C52.9202 116.959 54.6222 117.715 56.3242 118.345C57.1437 118.598 59.6022 119.228 60.7369 119.228C61.6824 119.228 62.5649 119.102 63.5105 118.85C64.0778 118.661 64.6452 118.409 65.2125 118.093C65.4647 117.967 65.7798 117.778 66.095 117.589C67.4188 116.77 68.7426 115.635 70.1294 114.122C72.4618 111.537 74.7312 108.323 77.2527 103.784C77.82 102.775 79.3329 99.8125 79.585 99.3082C79.585 99.2452 79.6481 99.1821 79.6481 99.1821C79.7111 99.1821 79.7741 99.2452 79.8372 99.2452C81.6022 99.8755 83.2412 100.38 84.8171 100.758C88.6624 101.704 91.8143 101.893 94.714 101.388C96.2269 101.136 97.6768 100.632 98.9375 99.9386C99.0636 99.8755 99.1266 99.8125 99.2527 99.7494C100.955 98.8039 102.468 97.354 103.665 95.652C104.233 94.8325 104.737 93.887 105.178 93.0045V92.9414C105.619 92.0589 106.124 91.1764 106.502 90.2938C107.321 88.5288 108.078 86.7007 108.708 84.8726C109.969 81.2165 110.726 77.5603 111.104 73.9672C111.419 70.311 111.293 66.7809 110.725 63.4399C110.221 60.7293 109.339 58.0187 108.141 55.4342C107.321 53.6691 106.25 51.9671 105.052 50.4542C103.854 48.9413 102.657 47.6806 101.396 46.672C100.64 46.0416 99.8831 45.4743 99.0636 44.97L98.8745 44.8439C98.118 44.3396 97.2985 43.8983 96.4791 43.4571C95.5335 43.0158 94.651 42.5746 93.7054 42.2594C92.8229 41.9442 91.9404 41.692 91.1209 41.5029C90.6166 41.3768 90.1123 41.3138 89.671 41.3138C87.906 41.1877 86.0779 41.5659 84.3759 42.3854C83.9977 42.5115 83.8716 42.5745 83.6825 42.7006ZM72.3357 61.4227C74.416 57.1362 76.3701 53.8582 78.3873 51.2107C80.4045 48.5631 82.4217 46.735 84.3759 45.6634C85.0062 45.2852 85.6997 45.033 86.33 44.9069C87.1495 44.7178 87.906 44.5917 88.7885 44.6548C88.8515 44.6548 88.9146 44.6548 88.9146 44.6548C89.0406 44.7809 89.1667 44.97 89.2928 45.1591C89.5449 45.4743 89.734 45.8525 89.9232 46.1677C90.6796 47.6175 91.0578 49.4456 91.0578 51.5258C91.0578 51.778 90.9948 52.7866 90.9948 53.0388C90.9948 53.48 90.8057 54.6777 90.8057 54.9299C90.4275 57.5144 89.671 60.162 88.5363 63.1878C88.032 64.5115 87.5277 65.7093 86.9604 66.8439C86.8343 67.1591 86.4561 67.7895 86.204 68.1677C86.0148 68.1047 85.8257 68.0416 85.6997 68.0416C85.0693 67.7895 84.502 67.5374 83.8085 67.1591C82.863 66.6548 81.8544 66.1505 80.9088 65.6462C80.4045 65.3941 79.9002 65.0789 79.3959 64.8267C76.6223 63.3138 74.416 62.3052 72.3357 61.4227ZM60.8629 115.95C60.7999 115.887 60.7368 115.824 60.6738 115.698V115.635C60.4217 115.32 60.1695 114.941 59.9804 114.563C59.1609 113.113 58.7196 111.222 58.7196 109.205C58.7196 106.179 59.4131 102.838 60.8629 98.93C61.3672 97.5431 61.9346 96.2194 62.5649 94.8956C62.8801 94.2022 63.3844 93.2566 63.8887 92.4371C64.33 92.5632 64.7712 92.6893 65.2125 92.8784H65.2756C66.3472 93.3196 67.4818 93.8239 68.5535 94.3282C68.9317 94.5174 69.3099 94.7065 69.6251 94.8325C71.6423 95.7781 73.7225 96.6606 75.7397 97.5431L76.2441 97.7953C76.4332 97.8583 76.6223 97.9214 76.7483 98.0474C76.8744 98.1105 77.0005 98.1735 77.1266 98.2366C74.9203 102.586 73.0291 105.801 71.0119 108.575C68.6796 111.79 66.5363 113.87 64.4561 115.005C64.1409 115.194 63.8257 115.32 63.5735 115.446C62.8171 115.761 62.0606 115.887 61.1781 115.95C61.1781 115.95 60.989 115.95 60.8629 115.95Z" fill="white"/>
<path opacity="0.15" d="M136.886 136.248C127.998 141.354 127.998 149.675 136.886 154.844C145.774 159.95 160.21 159.95 169.098 154.844C177.986 149.738 177.986 141.417 169.098 136.248C160.21 131.079 145.774 131.142 136.886 136.248Z" fill="#1D1D1B"/>
<path opacity="0.15" d="M84.3128 161.21C75.4245 166.316 75.4245 174.637 84.3128 179.806C93.201 184.912 107.637 184.912 116.525 179.806C125.413 174.7 125.413 166.379 116.525 161.21C107.637 156.104 93.201 156.104 84.3128 161.21Z" fill="#1D1D1B"/>
<path d="M152.267 45.6016C151.195 49.7621 151.448 54.8681 149.998 60.9197C148.044 66.9713 146.216 77.3094 139.66 84.6848C139.218 85.3782 136.003 79.1375 136.129 78.4441C139.029 65.2062 139.092 65.6475 140.92 59.9111C141.74 55.4985 142.685 51.275 143.19 45.9168C143.505 42.4497 144.829 40.4956 146.657 39.7391C150.754 38.4153 154.536 41.6933 152.267 45.6016Z" fill="#1D1D1B"/>
<path d="M154.978 133.224C154.978 133.224 155.545 136.376 155.293 137.7C154.978 139.023 151.448 139.906 151.448 139.906C151.448 139.906 146.468 144.634 142.244 144.255C139.723 144.066 138.903 143.373 138.525 142.679C138.147 141.923 138.525 140.977 138.966 140.347C139.471 139.654 144.64 137.447 145.963 135.367C146.594 134.359 147.665 132.215 147.665 132.215L148.107 128.244L154.978 127.929L154.663 132.593L154.978 133.224Z" fill="black"/>
<path d="M161.029 83.8658L156.68 105.866C158.319 114.628 157.94 123.768 155.734 133.287C154.41 136.88 149.62 135.872 146.594 133.287C147.476 126.164 147.602 117.843 147.476 109.144L146.594 103.407C146.594 103.407 145.9 100.445 145.9 89.3501C145.9 83.6137 149.178 71.1953 149.178 71.1953L161.029 83.8658Z" fill="#1D1D1B"/>
<path d="M170.17 140.913C170.674 141.922 170.674 143.561 170.737 146.019C170.107 147.343 169.098 148.477 167.837 148.856C167.837 148.856 165.757 153.962 159.958 154.088C154.473 154.214 154.537 152.008 154.6 152.008C154.6 152.008 154.6 150.747 155.86 149.675C156.617 149.045 160.651 145.767 161.408 144.884C162.101 143.939 162.731 142.489 162.731 142.489L162.984 138.518H170.359L170.17 140.913Z" fill="black"/>
<path d="M157.373 88.5934C157.373 99.751 156.995 106.307 159.895 111.98C159.895 111.98 160.525 116.645 161.344 119.482C162.227 122.444 162.038 135.367 161.723 143.058C163.236 145.579 166.829 145.957 169.224 144.381C170.107 143.751 170.863 142.869 171.178 141.671C173.133 129.631 174.456 120.112 169.665 111.224C171.178 103.47 170.989 95.7796 170.548 87.3326C171.115 82.2896 170.485 78.1292 168.972 74.6621C168.594 73.7796 168.153 72.9601 167.711 72.1406L147.918 76.8684C149.872 83.8656 153.465 87.7109 157.373 88.5934Z" fill="#3C3C3B"/>
<path d="M145.711 52.6612C145.837 60.6669 147.791 76.7415 147.791 76.7415C167.522 88.7186 170.107 78.2544 170.107 78.2544L170.926 59.7844L171.494 47.6182C169.35 45.0337 167.081 43.6468 164.938 42.5122C159.769 39.0451 155.041 37.5953 148.737 39.4233C148.737 39.4233 146.846 44.4033 145.963 49.0681C145.837 49.5724 145.837 50.3918 145.774 51.3374C145.711 51.7787 145.711 52.2199 145.711 52.6612Z" fill="#EDEDED"/>
<path d="M163.488 41.6928L160.525 35.5781L152.33 39.6756L154.095 44.2773C155.545 49.8246 164.37 46.4206 163.488 41.6928Z" fill="#FFAA6D"/>
<path opacity="0.3" d="M153.654 41.3768C153.654 44.7178 154.284 46.5458 156.238 46.735C158.76 46.735 161.471 42.8897 160.525 40.5573L160.588 37.8467L153.654 41.3768Z" fill="#CEA55F"/>
<path d="M154.915 50.0133V47.5548L156.175 46.7354L156.869 48.3113L156.175 50.4546C155.797 54.9932 155.86 61.1079 156.175 65.8987L154.158 67.8529L152.771 64.701C152.961 60.0362 153.906 54.4889 154.915 50.0133Z" fill="black"/>
<path d="M156.112 46.7356L153.717 48.3746C153.717 48.3746 151.952 42.1339 153.654 40.5579C155.293 38.919 156.112 46.7356 156.112 46.7356Z" fill="#C6C6C6"/>
<path d="M154.536 37.8467C152.834 44.5286 152.771 51.841 153.969 59.6576L153.528 86.7637C153.528 88.97 151.132 90.4199 149.178 89.4113C147.224 88.3396 145.522 86.8898 144.072 85.0617L144.514 54.6777C144.577 51.5258 145.018 47.1132 146.216 44.2135L148.674 39.5487L154.536 37.8467Z" fill="#3C3C3B"/>
<path d="M154.789 37.3438C154.789 37.3438 153.024 38.2893 152.961 38.2893C152.898 38.2893 150.817 42.1346 150.817 42.1346L152.267 43.2693C152.267 43.2693 151.448 43.3953 150.502 43.7105C150.376 45.9799 152.645 56.5702 153.843 58.9656C152.961 50.8338 152.898 43.2693 154.789 37.3438Z" fill="black"/>
<path d="M162.731 40.2422L164.307 42.1333C164.307 42.1333 161.786 49.3196 157.184 49.3196C156.806 47.9327 156.175 46.7351 156.175 46.7351C159.453 46.2308 162.731 42.7637 162.731 40.2422Z" fill="#C6C6C6"/>
<path d="M156.617 26.1221C160.588 26.1851 162.92 28.0762 163.046 32.4258C162.92 36.9645 161.407 40.6207 157.877 43.0791C156.175 44.529 154.284 45.0963 152.267 44.7811C149.809 44.9072 149.43 38.8556 149.052 34.506C149.367 29.9043 152.141 27.3198 156.617 26.1221Z" fill="#FFAA6D"/>
<path d="M149.115 32.7413C149.998 34.9476 153.969 36.5236 157.94 35.515L158.382 39.1081L160.084 38.2256L161.66 39.9906L162.227 39.1081C165.19 33.0565 164.307 28.5809 159.769 26.1224C153.906 23.79 147.918 29.5264 149.115 32.7413Z" fill="black"/>
<path d="M160.651 39.7387C161.029 39.4235 161.408 39.0453 161.597 38.541C161.786 38.0997 161.849 37.5324 161.597 37.0911C161.344 36.6498 160.777 36.3347 160.336 36.5238C160.021 36.6498 159.769 36.965 159.643 37.2802C159.516 37.5954 159.516 37.9736 159.453 38.3518C159.453 38.667 159.39 38.9822 159.39 39.2974C159.39 39.5496 159.39 39.7387 159.516 39.9278C159.642 40.0539 159.895 40.1169 160.084 40.0539C160.336 39.9908 160.525 39.8647 160.651 39.7387Z" fill="#FFAA6D"/>
<path d="M153.465 59.7849V86.5758C153.465 90.0428 156.806 93.1947 160.21 94.0142C160.399 94.0772 160.525 94.0772 160.714 94.1403C165.064 94.8967 168.783 94.1403 171.494 90.9884L171.998 61.8651L172.25 48.3751C170.044 45.6645 166.892 43.143 163.047 40.6846C163.488 44.3407 157.94 51.7791 153.465 59.7849Z" fill="#3C3C3B"/>
<path d="M164.433 41.5671V48.3751H162.227L163.551 50.8966L153.465 59.6588C157.94 52.1574 162.479 44.6559 163.047 40.6846L164.433 41.5671Z" fill="black"/>
<path d="M153.843 64.4493C153.843 64.8275 154.032 65.1427 154.284 65.1427C154.536 65.1427 154.726 64.8275 154.726 64.4493C154.726 64.071 154.536 63.7559 154.284 63.7559C154.032 63.7559 153.843 64.071 153.843 64.4493Z" fill="black"/>
<path d="M153.843 73.212C153.843 73.5902 154.032 73.9054 154.284 73.9054C154.536 73.9054 154.726 73.5902 154.726 73.212C154.726 72.8337 154.536 72.5186 154.284 72.5186C154.032 72.5186 153.843 72.8337 153.843 73.212Z" fill="black"/>
<path opacity="0.25" d="M166.451 111.917C172.502 118.157 170.8 130.261 169.224 144.318C170.107 143.688 170.863 142.805 171.178 141.607C173.133 129.567 174.456 120.049 169.665 111.16C171.178 103.407 170.989 95.7162 170.548 87.2692C171.115 82.2262 170.485 78.0657 168.972 74.5986L157.247 92.6273C164.055 96.9139 170.17 101.516 166.451 111.917Z" fill="black"/>
<path opacity="0.25" d="M160.21 94.0145C160.399 94.0775 160.525 94.0775 160.714 94.1405C165.064 94.897 168.783 94.1405 171.494 90.9887L171.998 61.8654L164.559 56.0029C168.153 71.258 167.585 84.3698 160.21 94.0145Z" fill="black"/>
<path d="M179.436 88.34L179.688 92.1222L179.562 95.5262L178.554 98.0477C178.365 98.615 177.734 98.8042 177.923 98.1108L177.041 100.821C176.852 101.641 176.032 101.641 176.095 100.884L176.726 97.2913L174.456 102.271C174.078 103.028 173.196 103.091 173.385 102.082L174.961 96.7239L173.259 99.6867L171.62 101.641C170.926 102.334 170.044 101.956 170.485 101.137L172.25 98.3629C172.25 98.3629 173.006 96.2196 173.259 95.211C173.322 95.0219 172.88 93.1308 172.88 93.1308L168.972 95.148C167.9 95.4632 167.459 94.5806 168.405 93.8872L172.376 90.4202C172.376 90.4202 174.708 89.0334 174.898 88.9073C175.087 88.7812 175.087 88.7812 175.087 88.7812L175.654 86.9531L179.373 87.2053L179.436 88.34Z" fill="#FFAA6D"/>
<path d="M172.061 47.9335C176.284 52.4722 178.428 57.7674 181.516 65.584C182.273 72.0138 181.769 80.3348 180.13 88.9078C178.932 89.5382 176.032 89.223 174.393 88.4035C174.519 82.0367 173.889 75.2287 174.519 68.925C171.178 66.8447 167.837 60.7301 164.244 55.435C163.173 48.0596 167.522 44.0252 172.061 47.9335Z" fill="#3C3C3B"/>
<path d="M153.843 82.0364C153.843 82.4146 154.032 82.7298 154.284 82.7298C154.536 82.7298 154.726 82.4146 154.726 82.0364C154.726 81.6582 154.536 81.343 154.284 81.343C154.032 81.28 153.843 81.5951 153.843 82.0364Z" fill="black"/>
<path d="M130.582 87.3961L131.969 90.8001L132.032 91.0522L132.473 90.9262C132.789 90.7371 137.705 87.9634 137.832 87.9004C138.903 86.7657 139.471 85.1898 140.101 83.5508L140.29 81.9118L140.227 81.6597L139.597 78.9491L138.21 78.5078C137.327 78.5708 137.39 79.0121 137.769 79.3273L138.273 79.8946L135.94 81.5966L134.301 82.0379L135.373 80.462C136.003 80.2098 136.319 79.8946 136.697 79.6425C137.201 79.3273 137.453 78.5708 136.823 78.5078L133.797 79.7686L131.717 82.7943L130.582 87.3961Z" fill="#F09C60"/>
<path d="M140.29 81.8488L140.227 81.5967L137.579 85.8832C135.625 87.7113 133.734 88.5308 132.032 87.9635V90.8001L132.095 91.0523L132.536 90.9262C132.852 90.7371 137.769 87.9635 137.895 87.9004L140.29 81.8488Z" fill="#F09C60"/>
<path d="M82.0435 104.732L82.2956 107.757L82.863 109.523L84.1868 111.918C84.565 112.611 85.2584 112.485 85.2584 111.855L85.8888 112.99C86.4561 113.872 87.3386 113.116 86.8343 112.233L85.8888 109.838L87.5277 112.8C88.1581 113.683 88.9776 113.116 88.6624 111.918L87.3386 108.64L88.7885 111.225C89.2297 111.792 90.1753 111.414 89.9231 110.342L88.4733 106.055C88.4733 106.055 88.2842 105.173 88.5994 104.416C88.9146 103.849 91.0578 105.047 91.0578 105.047C91.8143 105.488 92.5077 105.866 93.075 106.182C93.8315 106.308 94.1467 106.118 94.0206 105.614L92.5077 104.038L90.8057 102.525L90.0492 101.895C88.7885 101.076 87.6538 100.508 86.7083 100.382L86.6452 100.067L86.4561 99.4365L84.8171 99.6887L82.3587 100.067L82.4847 101.958L82.3587 102.841L82.0435 104.732Z" fill="#FFAA6D"/>
<path d="M88.8515 104.164L85.5105 103.407L83.7455 106.433L85.3214 111.854C85.2584 110.404 85.1953 108.702 86.1409 108.324L87.7798 108.072L86.393 107.126L86.5821 105.803L89.4819 105.361L88.8515 104.164Z" fill="#FFAA6D"/>
<path d="M89.608 64.1343L88.5994 76.0483L87.7799 85.9452C87.0234 91.6816 86.2039 96.2833 86.7713 99.3091C86.8343 99.6243 86.7713 99.8765 86.7082 100.129C86.5191 100.885 85.8257 101.452 84.8801 101.957C84.1237 102.335 83.3042 102.65 82.3587 102.902C80.9088 97.0398 79.8372 91.3664 80.2784 86.7647L81.224 75.1028C81.5392 68.3578 83.1151 63.3148 89.608 64.1343Z" fill="#C3EA7E"/>
<path d="M90.8687 102.588L84.9432 101.895C85.8257 101.39 86.5191 100.823 86.7713 100.066L86.8973 100.382C87.7799 100.508 88.9776 101.138 90.2383 101.895L90.8687 102.588Z" fill="#FFAA6D"/>
<path d="M117.47 172.242C117.47 170.099 115.831 169.279 113.373 169.027C111.23 169.027 108.393 169.973 104.611 170.855L100.324 173.188C99.5048 175.394 99.5048 177.348 100.009 179.176C101.207 180.248 102.72 180.878 104.17 180.5L109.023 178.483L109.402 177.79C113.184 177.285 117.47 175.52 117.47 172.242Z" fill="#1D1D1B"/>
<path d="M101.774 163.671C101.774 161.906 100.198 161.654 97.8658 161.465C93.6423 161.465 93.4532 163.545 89.6079 163.482L85.8257 165.814C85.0692 168.021 85.1953 170.416 85.6366 172.244C86.7713 173.253 88.5363 173.442 89.8601 173.253L93.7684 170.983L94.0836 170.29C97.8028 169.66 101.774 166.886 101.774 163.671Z" fill="#1D1D1B"/>
<path d="M88.0321 104.164L102.026 110.027C102.026 112.485 101.963 114.88 101.774 116.582C100.892 123.012 98.3072 132.783 98.3072 132.783C96.416 141.104 95.6596 151.379 95.2183 162.221C95.1553 166.13 89.3558 169.534 85.5736 165.878C84.502 152.64 84.502 139.78 87.6538 131.207C86.141 124.462 87.5908 116.961 87.969 109.207C87.5908 109.144 88.4103 104.353 88.0321 104.164Z" fill="#2E869C"/>
<path d="M98.4962 118.095C98.4962 125.849 98.4332 132.09 100.261 138.835C97.6137 147.345 98.3071 160.015 100.135 173.253C102.405 175.775 105.682 175.775 107.7 174.262C109.023 173.316 109.78 171.74 109.528 169.786L110.978 140.348C110.978 140.348 113.058 130.577 113.562 124.147C114.066 117.717 111.797 102.967 111.797 102.967C110.536 103.282 109.276 103.534 108.015 103.723C99.6939 104.795 92.0034 101.769 89.6079 97.041C89.4819 97.4192 89.3558 97.7344 89.2297 98.1127C88.3472 101.012 87.7799 103.975 87.6538 107.064C87.5277 113.872 94.2097 116.33 98.4962 118.095Z" fill="#32A5BA"/>
<path d="M113.688 78.3172C112.995 82.6037 112.995 86.7642 112.932 90.7356C112.932 92.2485 112.869 93.6983 112.869 95.1482C112.743 97.9218 112.49 100.506 111.86 102.965C110.662 103.469 109.465 103.973 108.33 104.289C101.144 106.558 94.5879 105.423 89.3558 98.0479C88.1581 94.9591 84.628 84.5579 83.7455 73.7785C83.7455 68.8616 85.3844 65.3315 89.6079 64.1338C97.1094 65.9619 104.737 70.5636 112.49 77.2456C112.869 77.6238 113.247 78.002 113.688 78.3172Z" fill="#C3EA7E"/>
<path d="M105.682 64.7026L104.989 71.4476C100.639 71.4476 93.7684 68.3587 94.6509 66.0894L96.9202 61.6768L105.682 64.7026Z" fill="#FFAA6D"/>
<path d="M107.763 65.5215C105.998 67.4756 103.413 67.2235 100.766 66.5301C96.8573 64.702 94.0836 62.0544 94.4618 57.0114C94.1467 53.3553 95.8487 49.51 102.089 49.6991C106.061 49.8252 109.465 51.275 109.717 55.5616C109.654 55.5616 109.906 63.5673 107.763 65.5215Z" fill="#FFAA6D"/>
<path d="M109.654 54.49C109.339 55.9399 108.393 57.0746 107.132 58.0201C107.132 58.0201 107.448 61.2981 107.258 61.3611C107.069 61.4241 105.367 62.937 105.367 62.937L104.485 65.4585C101.522 67.6018 97.0464 65.9628 95.7226 64.0087C94.9031 63.0001 94.0837 58.9657 94.2728 55.0574C94.7771 51.7794 97.1095 48.6276 102.089 48.4384C107.006 48.2493 110.032 51.1491 109.654 54.49Z" fill="#1D1D1B"/>
<path d="M106.691 61.8659C107.195 61.3616 106.439 60.1008 105.872 59.9117C105.115 59.6596 104.737 60.7312 104.611 61.3616C104.485 62.1811 104.611 62.7484 105.052 63.4418C105.556 64.1983 106.376 63.4418 106.628 62.8745C106.817 62.4332 106.376 62.2441 106.691 61.8659Z" fill="#FFAA6D"/>
<path d="M108.078 88.5308C108.267 89.3502 108.456 90.2958 108.771 91.1783C110.032 92.6912 111.356 94.015 112.869 95.1497C115.453 97.1669 118.353 98.5537 121.631 99.2471C126.737 97.2299 128.376 95.7801 132.726 90.7371C133.419 89.4133 133.041 87.9634 130.96 86.4505C126.611 88.0265 125.098 87.8374 122.135 89.2242C118.92 83.9921 115.705 78.5078 112.427 77.2471C108.33 79.3273 107.069 83.1726 108.078 88.5308Z" fill="#C3EA7E"/>
<path opacity="0.5" d="M132.726 90.7362C128.754 95.0227 127.052 96.9769 121.631 99.2462C118.353 98.4898 115.453 97.1029 112.869 95.1488C112.743 97.9224 112.49 100.507 111.86 102.965C110.662 103.47 109.465 103.974 108.33 104.289C108.267 104.1 108.204 103.848 108.141 103.659C107.448 101.894 106.061 100.57 103.287 99.6875C106.313 97.9224 107.321 93.825 108.141 88.4038C108.33 87.2061 108.456 85.9453 108.645 84.6846C110.095 87.3321 111.419 89.1602 112.995 90.6731C115.327 92.8794 118.101 94.3293 122.324 96.5356C123.9 97.4181 127.619 92.4382 132.726 90.7362Z" fill="#97B561"/>
<path opacity="0.5" d="M87.7799 85.9461C87.0234 91.6825 86.2039 96.2842 86.7712 99.31C86.8343 99.6252 86.7713 99.8774 86.7082 100.13C86.5191 100.886 85.8257 101.453 84.8801 101.958C84.8801 101.201 84.8801 100.508 84.8171 99.7513C84.4389 88.7197 81.0979 79.3902 84.8801 74.2842L88.5363 76.0492L87.7799 85.9461Z" fill="#97B561"/>
<path opacity="0.5" d="M113.625 124.209C113.121 130.639 111.041 140.41 111.041 140.41L109.591 169.848C109.843 171.802 109.087 173.378 107.763 174.324C109.024 161.968 109.591 150.307 107.763 141.355C110.536 131.143 111.797 120.49 108.582 112.61C108.645 109.458 108.96 106.622 108.267 104.352C109.465 103.974 110.599 103.533 111.797 103.029C111.86 102.965 114.13 117.716 113.625 124.209Z" fill="#317E8C"/>
<path d="M135.436 79.1369L134.301 82.0366V85.1254C134.301 86.134 135.436 86.0079 135.436 85.2515L135.94 81.5953C137.138 81.2801 138.336 80.2715 139.534 78.9477C138.84 78.2543 138.21 77.4979 136.634 78.0652C135.373 78.5065 134.554 78.8217 133.797 79.8303L135.436 79.1369Z" fill="#FFAA6D"/>
<path d="M135.436 88.907V87.8984C135.436 87.6462 135.562 87.331 135.751 87.1419C137.138 85.629 138.525 84.3683 139.66 84.6835L139.723 86.0703L137.012 88.907L134.806 89.6634L135.436 88.907Z" fill="#FFAA6D"/>
<path d="M156.932 139.652C156.869 138.58 157.562 137.256 158.445 136.689L182.903 120.804C183.786 120.236 184.542 120.614 184.605 121.686L184.921 128.179L185.614 140.976C185.677 142.047 184.984 143.371 184.101 143.938L159.643 159.824C158.76 160.391 158.004 160.013 157.941 158.941L157.247 146.145L156.932 139.652Z" fill="#575756"/>
<path d="M184.101 120.679L185.929 122.129L160.21 161.275L158.382 159.888L184.101 120.679Z" fill="#575756"/>
<path d="M158.949 141.165L159.958 160.455C160.021 161.527 160.777 161.905 161.66 161.337L186.118 145.452C187.001 144.885 187.694 143.561 187.631 142.489L186.623 123.2C186.56 122.128 185.803 121.75 184.921 122.317L160.462 138.203C159.516 138.77 158.886 140.094 158.949 141.165Z" fill="#1D1D1B"/>
<path d="M158.949 141.165L159.264 147.658C159.39 149.738 160.84 150.495 162.605 149.36L183.975 135.492C185.74 134.357 187.001 131.773 186.938 129.693L186.623 123.2C186.56 122.128 185.803 121.75 184.921 122.317L160.462 138.203C159.516 138.77 158.886 140.094 158.949 141.165Z" fill="#444443"/>
<path d="M172.879 146.145L174.014 145.389C174.392 145.137 174.707 144.506 174.707 144.065L174.455 138.707L171.808 140.409L172.06 145.767C172.123 146.208 172.501 146.398 172.879 146.145Z" fill="white"/>
<path d="M172.502 145.83C172.502 145.83 172.502 145.767 172.502 145.704L172.25 140.598L174.078 139.4L174.33 144.065C174.33 144.38 174.141 144.885 173.826 145.074L172.691 145.83C172.565 145.83 172.565 145.83 172.502 145.83Z" fill="#B2B2B2"/>
<path d="M171.367 143.056L175.15 140.597C175.402 140.408 175.654 139.967 175.654 139.652L175.591 138.58C175.591 138.265 175.339 138.139 175.024 138.328L171.241 140.787C170.989 140.976 170.737 141.417 170.737 141.732L170.8 142.804C170.8 143.119 171.052 143.245 171.367 143.056Z" fill="white"/>
<path d="M176.726 126.54L176.6 123.136C176.6 122.821 176.41 122.379 176.158 122.127C176.032 121.938 175.843 121.812 175.654 121.749C175.402 121.623 175.213 121.623 175.087 121.686L175.024 121.749L172.943 123.136L166.64 127.296C166.514 127.422 166.388 127.611 166.388 127.864L166.577 132.276C166.577 132.402 166.64 132.528 166.829 132.591C167.144 132.781 167.648 132.717 167.963 132.528C168.09 132.465 168.153 132.339 168.153 132.213L168.09 129.187L173.826 125.405C173.889 125.405 175.15 124.523 175.15 124.523L175.213 126.54C175.213 126.666 175.339 126.792 175.465 126.855C175.78 127.044 176.284 126.981 176.6 126.792C176.6 126.792 176.663 126.666 176.726 126.54Z" fill="#1D1D1B"/>
</svg>
