<svg width="305" height="577" viewBox="0 0 305 577" fill="none" xmlns="http://www.w3.org/2000/svg">
<path d="M149.733 531.58C122.191 604.33 0 567.858 0 567.858V18.3218C0 18.3218 89.6715 -31.2127 139.065 32.6131C188.459 96.3096 246.839 102.906 265.652 141.576C297.784 207.536 273.928 264.895 244.705 296.194C205.074 338.615 292.547 391.771 253.757 448.936C223.629 493.362 163.891 494.073 149.733 531.58Z" fill="url(#paint0_linear)"/>
<path opacity="0.35" d="M299.365 103.082C303.122 101.719 305.084 97.5299 303.687 93.7729C302.324 90.0159 298.135 88.0543 294.378 89.4507C290.621 90.8138 288.659 95.003 290.056 98.76C291.419 102.517 295.575 104.445 299.365 103.082ZM293.646 97.5964C292.982 95.7345 293.912 93.7064 295.774 93.0082C297.636 92.3432 299.664 93.2742 300.363 95.136C301.027 96.9979 300.097 99.026 298.235 99.7242C296.373 100.422 294.311 99.4582 293.646 97.5964Z" fill="url(#paint1_linear)"/>
<path opacity="0.2" d="M32.0206 162.363C38.2047 160.102 41.3965 153.253 39.1356 147.069C36.8748 140.885 30.0258 137.693 23.8417 139.954C17.6576 142.215 14.4658 149.064 16.7267 155.248C18.9875 161.432 25.8365 164.624 32.0206 162.363ZM22.6448 153.386C21.5476 150.327 23.1102 146.969 26.1358 145.872C29.1946 144.775 32.5526 146.338 33.6497 149.363C34.7469 152.422 33.1843 155.78 30.1587 156.877C27.1332 157.974 23.7419 156.412 22.6448 153.386Z" fill="url(#paint2_linear)"/>
<path opacity="0.2" d="M263.405 355.67C265.99 354.757 267.324 351.99 266.379 349.491C265.434 346.992 262.571 345.702 259.986 346.616C257.401 347.529 256.067 350.297 257.012 352.796C257.957 355.294 260.82 356.584 263.405 355.67ZM259.486 352.043C259.027 350.807 259.68 349.45 260.945 349.007C262.224 348.564 263.627 349.195 264.086 350.418C264.544 351.654 263.891 353.011 262.627 353.454C261.362 353.911 259.958 353.279 259.486 352.043Z" fill="url(#paint3_linear)"/>
<path opacity="0.8" d="M37.4732 297.615L39.7673 297.748C42.6599 297.947 44.6547 294.921 43.3581 292.328L42.3274 290.267C41.0307 287.674 37.44 287.441 35.8441 289.868L34.5807 291.796C32.9848 294.19 34.5807 297.415 37.4732 297.615Z" fill="url(#paint4_linear)"/>
<path opacity="0.5" d="M178.809 121.302L190.712 122.266C194.369 122.565 196.962 118.775 195.4 115.484L190.279 104.678C188.717 101.353 184.129 100.988 182.067 104.013L175.285 113.855C173.19 116.88 175.152 121.003 178.809 121.302Z" fill="url(#paint5_linear)"/>
<defs>
<linearGradient id="paint0_linear" x1="206.468" y1="8.11405" x2="-218.669" y2="38.6198" gradientUnits="userSpaceOnUse">
<stop stop-color="#4C9988"/>
<stop offset="0.9967" stop-color="#65DF94"/>
</linearGradient>
<linearGradient id="paint1_linear" x1="310.468" y1="87.3046" x2="245.088" y2="130.298" gradientUnits="userSpaceOnUse">
<stop stop-color="#AEDFBD"/>
<stop offset="0.9901" stop-color="#46B184"/>
</linearGradient>
<linearGradient id="paint2_linear" x1="26.0786" y1="153.138" x2="40.6964" y2="137.464" gradientUnits="userSpaceOnUse">
<stop offset="0.00484664" stop-color="#C1E7E7"/>
<stop offset="1" stop-color="#49B59D"/>
</linearGradient>
<linearGradient id="paint3_linear" x1="263.38" y1="349.99" x2="256.248" y2="355.239" gradientUnits="userSpaceOnUse">
<stop offset="0.00484664" stop-color="#C1E7E7"/>
<stop offset="1" stop-color="#49B59D"/>
</linearGradient>
<linearGradient id="paint4_linear" x1="33.949" y1="301.604" x2="43.9233" y2="270.518" gradientUnits="userSpaceOnUse">
<stop stop-color="#75E3A1"/>
<stop offset="1" stop-color="#91C49F"/>
</linearGradient>
<linearGradient id="paint5_linear" x1="-2.08727" y1="67.3218" x2="198.207" y2="115.383" gradientUnits="userSpaceOnUse">
<stop offset="0.00484664" stop-color="#46B184"/>
<stop offset="1" stop-color="#AEDFBD"/>
</linearGradient>
</defs>
</svg>
