<svg width="32" height="32" viewBox="0 0 32 32" fill="none" xmlns="http://www.w3.org/2000/svg">
<path fill-rule="evenodd" clip-rule="evenodd" d="M16 0C7.168 0 0 7.168 0 16C0 24.832 7.168 32 16 32C24.832 32 32 24.832 32 16C32 7.168 24.832 0 16 0ZM15.376 22.88H12.8V17.632C12.8 16.592 12.752 15.936 12.656 15.648C12.56 15.36 12.384 15.152 12.144 14.976C11.904 14.816 11.584 14.72 11.216 14.72C10.784 14.72 10.4 14.832 10.08 15.04C9.744 15.248 9.488 15.568 9.344 16C9.184 16.432 9.104 17.056 9.104 17.888V22.864H6.528V8.784H9.104V14.224C9.936 13.232 10.928 12.736 12.08 12.736C12.672 12.736 13.2 12.848 13.68 13.072C14.16 13.296 14.512 13.584 14.752 13.936C14.992 14.288 15.152 14.672 15.248 15.104C15.344 15.52 15.376 16.176 15.376 17.072V22.88ZM25.52 22.88H22.944V17.632C22.944 16.592 22.896 15.936 22.8 15.648C22.704 15.36 22.528 15.152 22.288 14.976C22.048 14.816 21.728 14.72 21.36 14.72C20.928 14.72 20.544 14.832 20.224 15.04C19.888 15.248 19.648 15.568 19.488 16C19.328 16.432 19.248 17.056 19.248 17.888V22.88H16.672V8.784H19.248V14.224C20.08 13.232 21.072 12.736 22.224 12.736C22.816 12.736 23.344 12.848 23.824 13.072C24.304 13.296 24.656 13.584 24.896 13.936C25.136 14.288 25.296 14.672 25.392 15.104C25.488 15.52 25.52 16.176 25.52 17.072V22.88Z" fill="#BDBDBD"/>
</svg>
