<svg width="85" height="108" viewBox="0 0 85 108" fill="none" xmlns="http://www.w3.org/2000/svg">
<path d="M45.9619 90C45.7743 90 45.6 90 45.4124 89.9866C42.5176 89.8526 39.7835 88.6464 37.7062 86.5691C35.6289 84.4917 34.4227 81.7711 34.2887 78.8763C34.0475 73.7165 37.1701 69.0794 41.9681 67.3371V60.2206C41.9681 59.6979 42.3835 59.2825 42.9062 59.2825H48.5217C49.0444 59.2825 49.4598 59.6979 49.4598 60.2206C49.4598 60.7433 49.0444 61.1588 48.5217 61.1588H43.8444V68.0206C43.8444 68.4361 43.5763 68.7979 43.1743 68.9186C38.832 70.2052 35.9505 74.266 36.165 78.7959C36.3928 83.7948 40.4938 87.8959 45.4928 88.1237C48.2 88.2443 50.7732 87.2928 52.7299 85.4165C54.6866 83.5402 55.7588 81.034 55.7588 78.3268C55.7588 77.7505 55.7052 77.1742 55.6114 76.6247L51.5773 80.6454C49.7011 82.5216 46.6186 82.5485 44.7155 80.7124C43.7773 79.8144 43.2547 78.5814 43.2413 77.2546C43.2279 75.9144 43.7639 74.5876 44.7021 73.6495L47.1011 71.2505C47.3825 70.9691 47.5433 70.6206 47.5701 70.2454V60.3815C47.5701 59.8588 47.9856 59.4433 48.5083 59.4433C49.031 59.4433 49.4464 59.8588 49.4464 60.3815V70.2722C49.4464 70.2856 49.4464 70.3124 49.4464 70.3258C49.3928 71.1835 49.0444 71.9608 48.4279 72.5773L46.0289 74.9763C45.4392 75.566 45.1042 76.3969 45.1042 77.2412C45.1176 78.0588 45.4258 78.8093 46.0021 79.3588C47.1815 80.4979 49.0846 80.4711 50.2371 79.3186L55.4371 74.1186C55.665 73.8907 56 73.7969 56.3083 73.8639C56.6299 73.9309 56.8712 74.1588 56.9784 74.467C57.4072 75.7 57.6217 76.9866 57.6217 78.3C57.6217 81.5165 56.3351 84.5186 54.0031 86.7433C51.832 88.8608 48.9908 90 45.9619 90Z" fill="#40C8B2"/>
<path d="M55.437 36.9814H35.9772C35.4545 36.9814 35.0391 36.566 35.0391 36.0433V25.9381C35.0391 25.4155 35.4545 25 35.9772 25C36.4999 25 36.9154 25.4155 36.9154 25.9381V35.1052H54.4989V25.9381C54.4989 25.4155 54.9143 25 55.437 25C55.9597 25 56.3751 25.4155 56.3751 25.9381V36.0433C56.3751 36.566 55.9597 36.9814 55.437 36.9814Z" fill="#1B3954"/>
<path d="M56.7639 61.1588H34.6505C34.1278 61.1588 33.7124 60.7434 33.7124 60.2207V53.3454C33.7124 52.8228 34.1278 52.4073 34.6505 52.4073C35.1732 52.4073 35.5887 52.8228 35.5887 53.3454V59.2825H55.8258V54.2836H34.6505C34.1278 54.2836 33.7124 53.8681 33.7124 53.3454C33.7124 52.8228 34.1278 52.4073 34.6505 52.4073H56.7639C57.2866 52.4073 57.7021 52.8228 57.7021 53.3454V60.2207C57.7021 60.73 57.2732 61.1588 56.7639 61.1588Z" fill="#1B3954"/>
<rect x="31.0001" y="36" width="29" height="17" fill="#E9F6EE"/>
<path d="M52.8773 54.2702C52.636 54.2702 52.3948 54.1764 52.2072 53.9888C51.8453 53.6269 51.8453 53.0238 52.2072 52.662L59.8062 45.063C60.168 44.7012 60.7711 44.7012 61.133 45.063C61.4948 45.4249 61.4948 46.028 61.133 46.3898L53.534 53.9888C53.3598 54.1898 53.1185 54.2702 52.8773 54.2702Z" fill="#40C8B2"/>
<path d="M42.6701 54.1083C42.4289 54.1083 42.1876 54.0145 42 53.8269C41.6381 53.465 41.6381 52.8619 42 52.5001L59.203 35.3733C59.5649 35.0114 60.168 35.0114 60.5298 35.3733C60.8917 35.7351 60.8917 36.3382 60.5298 36.7001L43.3268 53.8269C43.1392 54.0145 42.9113 54.1083 42.6701 54.1083Z" fill="#40C8B2"/>
<path d="M30.9415 54.2065C30.7003 54.2065 30.4591 54.1126 30.2714 53.925C29.9096 53.5632 29.9096 52.9601 30.2714 52.5982L47.4745 35.4714C47.8363 35.1095 48.4394 35.1095 48.8013 35.4714C49.1631 35.8333 49.1631 36.4364 48.8013 36.7982L31.5982 53.925C31.4106 54.1126 31.1828 54.2065 30.9415 54.2065Z" fill="#40C8B2"/>
<path d="M30.9415 44.6786C30.7003 44.6786 30.459 44.5848 30.2714 44.3972C29.9095 44.0353 29.9095 43.4322 30.2714 43.0704L37.8704 35.4714C38.2322 35.1095 38.8353 35.1095 39.1972 35.4714C39.559 35.8333 39.559 36.4364 39.1972 36.7982L31.5982 44.3972C31.424 44.5982 31.1827 44.6786 30.9415 44.6786Z" fill="#40C8B2"/>
<path d="M60.4763 54.2702H30.9381C30.4155 54.2702 30 53.8547 30 53.332V36.0434C30 35.5207 30.4155 35.1052 30.9381 35.1052H60.4763C60.999 35.1052 61.4144 35.5207 61.4144 36.0434V53.332C61.4144 53.8547 60.9856 54.2702 60.4763 54.2702ZM31.8763 52.3939H59.5381V36.9815H31.8763V52.3939Z" fill="#40C8B2"/>
<g opacity="0.5">
<path d="M18.4157 9.26369e-05C23.6244 9.30923e-05 27.8314 4.20711 27.8314 9.41579C27.8314 14.6245 23.6244 18.8315 18.4157 18.8315C13.207 18.8315 8.99998 14.6245 8.99998 9.41579C8.99998 4.20711 13.207 9.21816e-05 18.4157 9.26369e-05ZM18.4157 16.8281C22.5225 16.8281 25.828 13.5226 25.828 9.41579C25.828 5.30894 22.5225 2.00343 18.4157 2.00343C14.3088 2.00343 11.0033 5.30894 11.0033 9.41579C11.0033 13.5226 14.3088 16.8281 18.4157 16.8281Z" fill="#9FE3D8"/>
</g>
<path opacity="0.5" d="M84.9999 100.289L77.3873 107.2L76.0851 105.698L82.0951 100.289L75.2837 94.0783L82.0951 87.9681L75.2837 81.7578L82.0951 75.5474L76.0851 70.1384L77.3873 68.6359L84.9999 75.5474L78.2888 81.7578L84.9999 87.9681L78.2888 94.0783L84.9999 100.289Z" fill="#D2AEDF"/>
<path d="M-2.16468e-05 87.0002L14.1 87.0002L14.1 101.2L-2.28882e-05 101.2L-2.16468e-05 87.0002ZM11.9 89.2002L2.09998 89.2002L2.09998 99.0002L11.9 99.0002L11.9 89.2002Z" fill="#FFF3D5"/>
</svg>
