<svg width="28" height="29" viewBox="0 0 28 29" fill="none" xmlns="http://www.w3.org/2000/svg">
<path d="M4.51339 23.8214V11.4286H8.63839V23.8214H4.51339ZM8.90625 7.60714C8.90625 8.78571 8.01339 9.75 6.56696 9.75H6.54911C5.15625 9.75 4.26339 8.78571 4.26339 7.60714C4.26339 6.39286 5.19196 5.46428 6.60268 5.46428C8.01339 5.46428 8.88839 6.39286 8.90625 7.60714ZM19.3527 23.8214V17.1964C19.3527 15.5179 18.7634 14.3929 17.2812 14.3929C16.1384 14.3929 15.4598 15.1607 15.1563 15.8929C15.0491 16.1607 15.0313 16.5357 15.0313 16.8929V23.8214H10.9062C10.9598 12.5893 10.9062 11.4286 10.9062 11.4286H15.0313V13.2321H14.9955C15.5313 12.375 16.5134 11.1429 18.7277 11.1429C21.442 11.1429 23.4777 12.9107 23.4777 16.7143V23.8214H19.3527ZM27.7098 6C27.7098 3.16071 25.4063 0.857141 22.567 0.857141H5.42411C2.58482 0.857141 0.28125 3.16071 0.28125 6V23.1429C0.28125 25.9821 2.58482 28.2857 5.42411 28.2857H22.567C25.4063 28.2857 27.7098 25.9821 27.7098 23.1429V6Z" fill="#BDBDBD"/>
</svg>
