<?xml version="1.0" encoding="utf-8"?>
<!-- Generator: Adobe Illustrator 18.0.0, SVG Export Plug-In . SVG Version: 6.00 Build 0)  -->
<!DOCTYPE svg PUBLIC "-//W3C//DTD SVG 1.1//EN" "http://www.w3.org/Graphics/SVG/1.1/DTD/svg11.dtd">
<svg version="1.1" id="Layer_1" xmlns="http://www.w3.org/2000/svg" xmlns:xlink="http://www.w3.org/1999/xlink" x="0px" y="0px"
	 width="79.1px" height="15.8px" viewBox="0 0 79.1 15.8" enable-background="new 0 0 79.1 15.8" xml:space="preserve">
<g>
	<path fill="#4D4D4D" d="M8.4,0v15.8H7.3L2.2,5c-0.4-0.9-1-2.3-1.3-3l0,0C1,3,1,4.3,1,5.3v10.5H0V0h1.1l5,10.8c0.4,0.9,1,2.3,1.3,3
		l0,0c0-0.9-0.1-2.3-0.1-3.3V0H8.4z"/>
	<path fill="#4D4D4D" d="M22.4,11.7h-5.3l-1,4H15L19.1,0h1.2l4.2,15.8h-1.1L22.4,11.7z M22.1,10.7l-1.7-6.5c-0.3-1.1-0.5-2.3-0.7-3
		c-0.2,0.7-0.5,1.9-0.7,3l-1.7,6.5H22.1z"/>
	<path fill="#4D4D4D" d="M36.9,1h-3.6v14.8h-1V1h-3.5V0h8.1V1z"/>
	<path fill="#4D4D4D" d="M50.5,14.8v1h-6.8V0h1v14.8H50.5z"/>
	<path fill="#4D4D4D" d="M64.4,14.8v0.9h-7.3V0h7.1v1h-6.1v6.3h5.7v0.9h-5.7v6.6H64.4z"/>
	<path fill="#4D4D4D" d="M78,15.8l-3.3-7.2l-3.3,7.2h-1.1l3.8-8.2L70.4,0h1.2l3.1,6.6L77.8,0h1.1l-3.6,7.6l3.8,8.2H78z"/>
</g>
</svg>
