<?xml version="1.0" encoding="utf-8"?>
<!-- Generator: Adobe Illustrator 18.0.0, SVG Export Plug-In . SVG Version: 6.00 Build 0)  -->
<!DOCTYPE svg PUBLIC "-//W3C//DTD SVG 1.1//EN" "http://www.w3.org/Graphics/SVG/1.1/DTD/svg11.dtd">
<svg version="1.1" id="Layer_1" xmlns="http://www.w3.org/2000/svg" xmlns:xlink="http://www.w3.org/1999/xlink" x="0px" y="0px"
	 width="48px" height="33.1px" viewBox="0 0 48 33.1" enable-background="new 0 0 48 33.1" xml:space="preserve">
<g>
	
		<radialGradient id="SVGID_1_" cx="-519.2978" cy="449.2131" r="1" gradientTransform="matrix(22.9 0 0 -22.9 11915.9189 10303.8281)" gradientUnits="userSpaceOnUse">
		<stop  offset="0" style="stop-color:#FFFFFF"/>
		<stop  offset="0.4" style="stop-color:#F5F5F5"/>
		<stop  offset="1" style="stop-color:#DDDDDD"/>
	</radialGradient>
	<path fill="url(#SVGID_1_)" d="M15.1,14.7L15.1,14.7c-0.7-0.2-4.1-2.8-5.8-6.3c0-0.1-0.1-0.1-0.1-0.2l0,0V7.8l0,0
		c-0.4-0.9-0.6-2-0.6-3c0-0.3,0-0.6,0.1-0.9c0.1-0.7,0.3-1.4,0.7-2L9.1,2.1C3.5,5.3,0,10.8,0,16.9s3.4,11.5,8.7,15
		c0.8,0.5,1.7,0.8,2.7,0.9c0.2,0,0.5,0,0.7,0c8.3,0,19.1-13.8,20.7-13.8c0.9,0.5,1.7,1.2,2.5,1.9l0.1,0.1l0.1,0.1
		c1.8,1.9,3.6,4.5,3.6,7.3c0,0.2,0,0.5,0,0.7v0.1v0.1v0.1c-0.1,0.7-0.3,1.3-0.7,1.9l0.1-0.1l0,0c0,0,0,0,0.1,0l0.3-0.2
		c5.3-3.6,8.6-9,8.6-15S44.1,4.7,38.7,1.1h-0.1C37.5,0.4,36.1,0,34.8,0c-8.7,0-18.6,14-20.2,14"/>
	<path fill="#4C9988" d="M8.9,1.9L8.9,1.9C3.4,5.5,0,10.9,0,17c0,6.1,3.3,11.4,8.6,15c0.1,0.1,0.4,0.3,0.5,0.3
		c-3.6-6.3,5.6-13,6.1-13c1.8,0,15.7,18,24.1,12.8c5.3-3.6,8.7-9,8.7-15S44.5,5.5,39.1,1.9c-0.1,0-0.2-0.1-0.3-0.2
		c3.9,5-5.3,13.1-6,13.1c-1.6,0-11.5-14-20.2-14C11.3,0.7,10,1.1,8.9,1.9z"/>
	<path fill="#FFFFFF" d="M38.8,32.2c-0.9,0.6-1.9,0.8-3,0.7c-5.7,0-12.8-6.7-17-10.7c-2.2-2.1-3.3-3.1-3.8-3.1
		c-0.4,0-3.7,2.3-5.6,5.6c-0.6,0.9-1,1.9-1.2,3S8,29.9,8.3,30.9c0.1,0.5,0.4,0.9,0.7,1.2l0.4,0.2l0.5,0.2c0.3,0.1,0.5,0.2,0.8,0.2
		c-0.3-0.1-0.6-0.2-0.9-0.4c-0.4-0.2-0.7-0.6-0.9-0.9c-0.3-0.9-0.5-1.8-0.5-2.7s0.3-1.8,0.7-2.7c1.4-2.7,3.4-5.1,6-6.7
		c0.4,0,1.9,1.4,3.5,3c4.2,4,11.3,10.8,17.1,10.8c1.2,0,2.3-0.3,3.3-1c5-3.3,8.4-8.4,8.8-14c-0.3,2.9-1.3,5.7-2.9,8.1
		C43.4,28.7,41.3,30.7,38.8,32.2z"/>
	<path fill="#FFFFFF" d="M8.7,1.9l0.2-0.1c1.1-0.6,2.5-0.9,3.8-0.9c6,0,12.8,6.8,16.8,10.9c2,2.1,3,3.1,3.5,3.1s3.5-2.4,5.4-5.6
		c1.5-2.6,2.1-5.8,0.8-7.4c1.5,1,2.9,2.2,4.1,3.5c-1-1.2-2.2-2.2-3.5-3.1c-0.6-0.5-1.4-0.9-2.2-1.2c1.4,0.8,1.7,1.5,1.8,2
		c0.3,1.8-0.1,3.7-1.1,5.3c-1.7,3.4-5.1,6-5.6,6.1c-0.4,0.1-1.7-1.4-3.3-2.9c-4-4.1-10.7-11-16.9-11c-1.4,0-2.8,0.4-3.9,1.1l0.1-0.1
		C4.8,4.1,1.9,8,0.6,12.4C2,8.1,4.8,4.4,8.7,1.9z"/>
</g>
</svg>
