<svg width="64" height="54" viewBox="0 0 64 54" fill="none" xmlns="http://www.w3.org/2000/svg">
<path fill-rule="evenodd" clip-rule="evenodd" d="M9.66637 43.5504V39.4548C9.66637 38.9166 10.0028 38.4844 10.56 38.4844H10.7142C11.2711 38.4844 11.606 38.9171 11.606 39.4548V48.0773C11.606 50.18 10.5673 51.8531 8.75699 52.9189C7.92774 53.4102 6.98117 53.6684 6.01731 53.6661H5.63258C3.52945 53.6661 1.85861 52.6265 0.79103 50.8175C0.29904 49.9884 0.0409152 49.0415 0.0440964 48.0773V47.6931C0.0440964 45.5897 1.0834 43.9176 2.89216 42.8498C3.72125 42.3575 4.66834 42.0993 5.63258 42.1026H6.01731C7.44059 42.1026 8.6481 42.6543 9.66637 43.5504ZM1.98352 47.8849C1.98352 49.4038 2.71969 50.5457 4.0506 51.2741C4.58878 51.5685 5.17301 51.7267 5.78702 51.7267C7.27789 51.7267 8.38377 51.0233 9.14647 49.76C9.50117 49.1722 9.66637 48.5292 9.66637 47.8456C9.66637 46.5289 9.0431 45.5014 7.98202 44.7382C7.33872 44.2756 6.61456 44.0436 5.82482 44.0436C4.19979 44.0436 3.03033 44.8646 2.32845 46.3229C2.09166 46.816 1.98352 47.3394 1.98352 47.8849ZM18.335 42.1026H18.6038C20.8511 42.1026 22.5602 43.1927 23.6433 45.1544C24.0764 45.9392 24.3082 46.7957 24.3082 47.6931V48.0773C24.3082 50.18 23.2714 51.8553 21.4584 52.9192C20.6191 53.4115 19.6919 53.6661 18.7192 53.6661H18.335C16.2318 53.6661 14.5605 52.6265 13.4934 50.8175C13.0012 49.9885 12.7428 49.0415 12.7457 48.0773V47.6931C12.7457 45.5895 13.7893 43.9229 15.5935 42.8503C16.4323 42.3519 17.3602 42.1026 18.335 42.1026ZM14.6854 47.8849C14.6854 49.3592 15.4088 50.4438 16.6541 51.2065C17.2388 51.5645 17.8829 51.7267 18.566 51.7267C20.0228 51.7267 21.0997 50.988 21.8491 49.7584C22.2066 49.1722 22.3683 48.5282 22.3683 47.8456C22.3683 46.4746 21.7079 45.4273 20.579 44.6683C19.9605 44.2521 19.2719 44.0436 18.527 44.0436C16.9019 44.0436 15.7325 44.8646 15.0308 46.3229C14.7935 46.816 14.6854 47.3394 14.6854 47.8849ZM32.3715 44.1985C32.0786 44.0613 31.5305 44.0158 31.2141 44.0038C29.5935 43.9427 28.4211 44.8553 27.7332 46.2849C27.4957 46.778 27.3873 47.2999 27.3873 47.8456C27.3873 49.5069 28.2596 50.6701 29.7425 51.3792C30.2841 51.638 30.9835 51.6871 31.5755 51.6871C32.0962 51.6871 32.8321 51.3682 33.2942 51.1487L33.3743 51.1106H33.733L33.7725 51.1186C34.2136 51.2105 34.5465 51.4901 34.5465 51.9647V52.1567C34.5465 53.3377 32.3883 53.608 31.5647 53.6656C28.6586 53.8666 26.4851 52.2706 25.6566 49.4986C25.5127 49.0173 25.4479 48.5392 25.4479 48.0375V47.6538C25.4479 45.5504 26.4917 43.8844 28.2957 42.8128C29.1345 42.3146 30.0621 42.0643 31.0366 42.0643H31.4211C32.4549 42.0643 33.4071 42.3579 34.2606 42.9409L34.3307 42.9895L34.375 43.0626C34.4671 43.2153 34.5465 43.392 34.5465 43.5737V43.7657C34.5465 44.2608 34.176 44.5272 33.729 44.6133L33.6919 44.6198H33.5773C33.2879 44.6198 32.6298 44.3201 32.3715 44.1985ZM38.6629 45.5119C39.4163 44.7575 40.1723 44.0045 40.937 43.2626C41.15 43.0556 41.9567 42.1795 42.2744 42.1795H42.6218L42.6614 42.1877C43.1039 42.2796 43.4353 42.5597 43.4353 43.0353V43.227C43.4353 43.5514 43.0554 43.9284 42.8458 44.1504C42.4003 44.6228 41.9312 45.0796 41.4751 45.5422L39.1317 47.9212C40.1407 48.9324 41.1487 49.9444 42.1495 50.9635C42.427 51.2447 42.7025 51.5281 42.9758 51.8135C43.0721 51.9149 43.2143 52.041 43.2952 52.1815C43.382 52.3131 43.4353 52.4616 43.4353 52.62V52.8203L43.4241 52.8666C43.3152 53.3091 43.0343 53.6661 42.544 53.6661H42.3895C42.0686 53.6661 41.7062 53.3031 41.4864 53.0956C41.0333 52.6686 40.596 52.2195 40.152 51.7832L38.6629 50.3214V52.6578C38.6629 53.196 38.326 53.6285 37.7695 53.6285H37.6168C37.0596 53.6285 36.7232 53.196 36.7232 52.6578V39.4924C36.7232 38.9542 37.0599 38.5237 37.6168 38.5237H37.7695C38.326 38.5237 38.6629 38.9542 38.6629 39.4924V45.5119ZM62.8373 42.1795H63.0301C63.6118 42.1795 64 42.5715 64 43.1499C64 43.9529 63.2323 44.1584 62.5683 44.1584C61.6972 44.1584 60.8654 44.6859 60.2649 45.2773C59.5162 46.0155 59.1885 46.961 59.1885 48.0003V52.6959C59.1885 53.234 58.8524 53.6661 58.2949 53.6661H58.1417C57.5843 53.6661 57.2484 53.2343 57.2484 52.6959V47.7307C57.2484 45.824 58.1765 44.2676 59.7239 43.176C60.6479 42.5239 61.7062 42.1797 62.8373 42.1797V42.1795ZM49.0516 51.4851C49.7575 51.7317 50.5622 51.6964 51.2864 51.5702C51.6569 51.4128 52.604 50.9995 52.9525 51.0601L53.0068 51.0693L53.0569 51.0939C53.2696 51.197 53.4726 51.3429 53.5813 51.5594C53.8351 52.0668 53.7132 52.577 53.2146 52.8651L53.0486 52.9609C51.2088 54.0228 49.2519 53.8756 47.4178 52.8839C46.541 52.4098 45.8701 51.7061 45.3753 50.8483L45.2596 50.6478C44.0784 48.6023 44.2378 46.4506 45.57 44.5054C46.0298 43.833 46.6308 43.3136 47.3335 42.9074L47.5993 42.7539C49.332 41.7537 51.189 41.8223 52.9685 42.7001C53.9254 43.1722 54.7007 43.8758 55.2348 44.8013L55.331 44.968C55.7189 45.6403 55.2163 46.226 54.6974 46.6265C54.0952 47.0911 53.4871 47.6503 52.9099 48.1484C51.6228 49.2596 50.3377 50.3732 49.0516 51.4851ZM47.3858 50.3151C48.8251 49.0811 50.2649 47.8458 51.7004 46.6065C52.191 46.1835 52.729 45.7444 53.2156 45.2996C52.8251 44.8075 52.1728 44.4528 51.6186 44.2413C50.4997 43.815 49.3965 43.9582 48.3705 44.5504C47.0276 45.3259 46.4556 46.5607 46.5057 48.0974C46.5257 48.7026 46.6884 49.2859 47.0096 49.8008C47.1227 49.9822 47.2491 50.1527 47.3858 50.3151ZM36.9182 11.4473H42.6418V17.2984H45.5357C46.8724 17.2984 48.2468 17.0603 49.5124 16.6315C50.1345 16.4205 50.8323 16.1272 51.4459 15.7579C50.6378 14.7031 50.2253 13.3712 50.1042 12.0583C49.939 10.2723 50.2994 7.94794 51.5079 6.55019L52.1097 5.85432L52.8266 6.43079C54.6316 7.88085 56.1497 9.90738 56.4173 12.2175C58.5908 11.5782 61.1427 11.7294 63.0584 12.835L63.8443 13.2886L63.4308 14.0961C61.8106 17.2581 58.4231 18.2378 55.1114 18.0643C50.156 30.407 39.3673 36.2503 26.2861 36.2503C19.5277 36.2503 13.3275 33.7239 9.79654 27.7279L9.73871 27.6303L9.22432 26.5835C8.03083 23.9442 7.63433 21.0528 7.90317 18.1637L7.98402 17.2984H12.8786V11.4473H18.602V5.72365H30.0496V0H36.9182V11.4473Z" fill="#364548"/>
<path fill-rule="evenodd" clip-rule="evenodd" d="M55.4618 13.6121C55.8456 10.6294 53.6135 8.28671 52.2293 7.17432C50.6341 9.01862 50.3862 13.8522 52.8889 15.8872C51.4921 17.1278 48.5492 18.2522 45.5357 18.2522H8.85358C8.56071 21.3978 9.1129 24.2947 10.3742 26.7741L10.7915 27.5375C11.0557 27.9856 11.3444 28.4188 11.6563 28.8351C13.1645 28.932 14.555 28.9653 15.827 28.9373H15.8275C18.3274 28.8822 20.3672 28.5868 21.9132 28.0512C22.0224 28.0172 22.1407 28.027 22.2428 28.0786C22.345 28.1302 22.4231 28.2196 22.4606 28.3277C22.4981 28.4358 22.492 28.5543 22.4437 28.6581C22.3954 28.7619 22.3086 28.8428 22.2018 28.8837C21.996 28.9553 21.7817 29.0219 21.5605 29.0852H21.5597C20.3424 29.4329 19.0371 29.6667 17.353 29.7706C17.4531 29.7723 17.2488 29.7856 17.2483 29.7856C17.191 29.7893 17.1189 29.7976 17.0613 29.8006C16.3985 29.8379 15.6831 29.8457 14.9517 29.8457C14.1517 29.8457 13.364 29.8306 12.4831 29.7856L12.4606 29.8006C15.5169 33.2359 20.2959 35.2962 26.2864 35.2962C38.9642 35.2962 49.7177 29.6762 54.4796 17.0592C57.8578 17.4059 61.1046 16.5443 62.5815 13.6612C60.2291 12.3037 57.2038 12.7365 55.4618 13.6121Z" fill="#22A0C8"/>
<path fill-rule="evenodd" clip-rule="evenodd" d="M55.4618 13.6121C55.8455 10.6294 53.6135 8.28671 52.2292 7.17432C50.634 9.01862 50.3862 13.8522 52.8888 15.8872C51.4921 17.1278 48.5491 18.2522 45.5356 18.2522H11.0257C10.876 23.0697 12.6638 26.7265 15.8267 28.9373H15.8275C18.3274 28.8822 20.3672 28.5868 21.9131 28.0512C22.0224 28.0172 22.1406 28.027 22.2428 28.0786C22.3449 28.1302 22.423 28.2196 22.4605 28.3277C22.498 28.4358 22.492 28.5543 22.4437 28.6581C22.3954 28.7619 22.3086 28.8428 22.2017 28.8837C21.9959 28.9553 21.7817 29.0219 21.5604 29.0852H21.5597C20.3424 29.4329 18.9249 29.6967 17.2408 29.8006C17.2403 29.8006 17.2 29.7618 17.1995 29.7618C21.5141 31.9751 27.7702 31.9671 34.9429 29.2119C42.9854 26.122 50.4695 20.2356 55.6913 13.503C55.6127 13.5385 55.5361 13.5748 55.4618 13.6121Z" fill="#37B1D9"/>
<path fill-rule="evenodd" clip-rule="evenodd" d="M8.92242 22.0742C9.15021 23.7593 9.64333 25.337 10.3742 26.7741L10.7915 27.5375C11.0557 27.9857 11.3444 28.4189 11.6563 28.8352C13.1647 28.932 14.5552 28.9653 15.8276 28.9373C18.3274 28.8822 20.3672 28.5869 21.9132 28.0512C22.0225 28.0172 22.1407 28.027 22.2428 28.0787C22.345 28.1303 22.4231 28.2196 22.4606 28.3277C22.4981 28.4359 22.492 28.5543 22.4437 28.6581C22.3954 28.7619 22.3087 28.8428 22.2018 28.8837C21.996 28.9553 21.7817 29.0219 21.5605 29.0852H21.5597C20.3424 29.4329 18.9324 29.6817 17.2483 29.7859C17.1905 29.7894 17.0896 29.7901 17.0313 29.7934C16.369 29.8304 15.6608 29.8532 14.9292 29.8532C14.1294 29.8532 13.3114 29.8379 12.4311 29.7931C15.4874 33.2284 20.2959 35.2962 26.2864 35.2962C37.1399 35.2962 46.5827 31.1766 52.0634 22.0742H8.92242Z" fill="#1B81A5"/>
<path fill-rule="evenodd" clip-rule="evenodd" d="M11.356 22.0742C12.0048 25.0329 13.564 27.3556 15.8275 28.9373C18.3274 28.8822 20.3672 28.5869 21.9132 28.0512C22.0224 28.0172 22.1407 28.027 22.2428 28.0787C22.345 28.1303 22.4231 28.2196 22.4606 28.3277C22.4981 28.4359 22.492 28.5543 22.4437 28.6581C22.3954 28.7619 22.3086 28.8428 22.2018 28.8837C21.996 28.9553 21.7817 29.0219 21.5605 29.0852H21.5597C20.3424 29.4329 18.9026 29.6817 17.2183 29.7859C21.5327 31.9986 27.7707 31.9668 34.9429 29.2119C39.2819 27.5448 43.4578 25.0632 47.2043 22.0742H11.356Z" fill="#1D91B4"/>
<path fill-rule="evenodd" clip-rule="evenodd" d="M13.8323 12.4014H18.793V17.3621H13.8323V12.4014ZM14.2455 12.8149H14.637V16.9488H14.2455V12.8149ZM14.9815 12.8149H15.3887V16.9488H14.9817V12.8149H14.9815ZM15.7329 12.8149H16.1402V16.9488H15.7329V12.8149ZM16.4848 12.8149H16.8919V16.9488H16.4848V12.8149ZM17.2365 12.8149H17.6435V16.9488H17.2365V12.8149ZM17.988 12.8149H18.3797V16.9488H17.988V12.8149ZM19.5559 6.67773H24.5169V11.6382H19.5557V6.67773H19.5559ZM19.9694 7.09125H20.3607V11.2249H19.9694V7.09125ZM20.7054 7.09125H21.1124V11.2249H20.7056V7.09125H20.7054ZM21.4568 7.09125H21.8638V11.2249H21.4568V7.09125ZM22.2085 7.09125H22.6155V11.2249H22.2085V7.09125ZM22.9602 7.09125H23.3674V11.2249H22.9602V7.09125ZM23.7116 7.09125H24.1036V11.2249H23.7116V7.09125Z" fill="#23A3C2"/>
<path fill-rule="evenodd" clip-rule="evenodd" d="M19.5559 12.4014H24.5169V17.3621H19.5557V12.4014H19.5559ZM19.9694 12.8149H20.3607V16.9488H19.9694V12.8149ZM20.7054 12.8149H21.1124V16.9488H20.7056V12.8149H20.7054ZM21.4568 12.8149H21.8638V16.9488H21.4568V12.8149ZM22.2085 12.8149H22.6155V16.9488H22.2085V12.8149ZM22.9602 12.8149H23.3674V16.9488H22.9602V12.8149ZM23.7116 12.8149H24.1036V16.9488H23.7116V12.8149Z" fill="#34BBDE"/>
<path fill-rule="evenodd" clip-rule="evenodd" d="M25.2798 12.4014H30.2405V17.3621H25.2798V12.4014ZM25.6931 12.8149H26.0844V16.9488H25.6931V12.8149ZM26.429 12.8149H26.836V16.9488H26.429V12.8149ZM27.1807 12.8149H27.5877V16.9488H27.1807V12.8149ZM27.9324 12.8149H28.3394V16.9488H27.9324V12.8149ZM28.6839 12.8149H29.0914V16.9488H28.6839V12.8149ZM29.4355 12.8149H29.827V16.9488H29.4355V12.8149Z" fill="#23A3C2"/>
<path fill-rule="evenodd" clip-rule="evenodd" d="M25.2798 6.67773H30.2405V11.6382H25.2798V6.67773ZM25.6931 7.09125H26.0844V11.2249H25.6931V7.09125ZM26.429 7.09125H26.836V11.2249H26.429V7.09125ZM27.1807 7.09125H27.5877V11.2249H27.1807V7.09125ZM27.9324 7.09125H28.3394V11.2249H27.9324V7.09125ZM28.6839 7.09125H29.0914V11.2249H28.6839V7.09125ZM29.4355 7.09125H29.827V11.2249H29.4355V7.09125ZM31.0035 12.4014H35.9642V17.3621H31.0035V12.4014ZM31.417 12.8149H31.8083V16.9488H31.417V12.8149ZM32.1529 12.8149H32.5599V16.9488H32.1529V12.8149ZM32.9044 12.8149H33.3114V16.9488H32.9044V12.8149ZM33.6561 12.8149H34.0633V16.9488H33.6561V12.8149ZM34.4078 12.8149H34.815V16.9488H34.4078V12.8149ZM35.1594 12.8149H35.5509V16.9488H35.1594V12.8149Z" fill="#34BBDE"/>
<path fill-rule="evenodd" clip-rule="evenodd" d="M31.0035 6.67773H35.9642V11.6382H31.0035V6.67773ZM31.4171 7.09125H31.8083V11.2249H31.4171V7.09125ZM32.153 7.09125H32.56V11.2249H32.153V7.09125ZM32.9044 7.09125H33.3114V11.2249H32.9044V7.09125ZM33.6561 7.09125H34.0634V11.2249H33.6561V7.09125ZM34.4078 7.09125H34.8151V11.2249H34.4078V7.09125ZM35.1595 7.09125H35.551V11.2249H35.1595V7.09125Z" fill="#23A3C2"/>
<path fill-rule="evenodd" clip-rule="evenodd" d="M31.0035 0.953613H35.9642V5.91482H31.0035V0.953613ZM31.4171 1.36688H31.8083V5.50105H31.4171V1.36663V1.36688ZM32.153 1.36688H32.56V5.50105H32.153V1.36663V1.36688ZM32.9044 1.36688H33.3114V5.50105H32.9044V1.36663V1.36688ZM33.6561 1.36688H34.0634V5.50105H33.6561V1.36663V1.36688ZM34.4078 1.36688H34.8151V5.50105H34.4078V1.36663V1.36688ZM35.1595 1.36688H35.551V5.50105H35.1595V1.36663V1.36688Z" fill="#34BBDE"/>
<path fill-rule="evenodd" clip-rule="evenodd" d="M36.7272 12.4014H41.6879V17.3621H36.7272V12.4014ZM37.1402 12.8149H37.5319V16.9488H37.1404V12.8149H37.1402ZM37.8761 12.8149H38.2834V16.9488H37.8764V12.8149H37.8761ZM38.628 12.8149H39.0353V16.9488H38.628V12.8149ZM39.3795 12.8149H39.7867V16.9488H39.3795V12.8149ZM40.1314 12.8149H40.5384V16.9488H40.1314V12.8149ZM40.8829 12.8149H41.2744V16.9488H40.8829V12.8149Z" fill="#23A3C2"/>
<path fill-rule="evenodd" clip-rule="evenodd" d="M24.2063 25.4049C24.3876 25.4025 24.5675 25.4361 24.7357 25.5038C24.9039 25.5715 25.0569 25.672 25.186 25.7993C25.315 25.9267 25.4175 26.0784 25.4874 26.2457C25.5573 26.4129 25.5933 26.5924 25.5933 26.7737C25.5932 26.955 25.5572 27.1345 25.4872 27.3018C25.4172 27.469 25.3147 27.6207 25.1856 27.748C25.0565 27.8753 24.9035 27.9757 24.7352 28.0434C24.567 28.111 24.3871 28.1446 24.2058 28.1421C23.846 28.1371 23.5027 27.9908 23.25 27.7346C22.9974 27.4784 22.8558 27.133 22.8558 26.7732C22.8559 26.4134 22.9976 26.0681 23.2504 25.8121C23.5031 25.556 23.8465 25.4097 24.2063 25.4049Z" fill="#D3ECEC"/>
<path fill-rule="evenodd" clip-rule="evenodd" d="M24.2063 25.7929C24.3314 25.7929 24.4508 25.8164 24.561 25.8592C24.485 25.9033 24.4256 25.9713 24.3921 26.0525C24.3585 26.1337 24.3527 26.2237 24.3754 26.3086C24.3981 26.3935 24.4482 26.4685 24.5178 26.5221C24.5875 26.5757 24.6728 26.6049 24.7607 26.6051C24.9121 26.6051 25.0436 26.5213 25.1116 26.3971C25.1923 26.5913 25.2083 26.8063 25.1573 27.0103C25.1064 27.2143 24.9912 27.3965 24.8287 27.53C24.6663 27.6635 24.4652 27.7412 24.2552 27.7516C24.0452 27.7621 23.8374 27.7047 23.6625 27.588C23.4877 27.4712 23.3549 27.3014 23.284 27.1034C23.2131 26.9055 23.2077 26.69 23.2687 26.4888C23.3296 26.2875 23.4537 26.1113 23.6225 25.9859C23.7913 25.8606 23.996 25.7929 24.2063 25.7929ZM0 22.5686H63.6613C62.2754 22.2172 59.2759 21.7421 59.7705 19.9253C57.2498 22.8419 51.1715 21.9716 49.6373 20.5336C47.9292 23.0112 37.9842 22.0692 37.2906 20.1391C35.1489 22.6525 28.5129 22.6525 26.3712 20.1391C25.6771 22.0692 15.7324 23.0112 14.024 20.5333C12.4901 21.9716 6.41202 22.8419 3.89136 19.9255C4.38598 21.7421 1.38648 22.2172 0 22.5688" fill="#364548"/>
<path fill-rule="evenodd" clip-rule="evenodd" d="M27.8441 35.2667C24.4548 33.6584 22.5947 31.4719 21.5597 29.0854C20.3006 29.4446 18.7875 29.6744 17.029 29.7731C16.3667 29.8101 15.6698 29.8291 14.9389 29.8291C14.0959 29.8291 13.2075 29.8041 12.2748 29.7548C15.383 32.8612 19.2065 35.2527 26.2864 35.2962C26.809 35.2962 27.3277 35.2862 27.8441 35.2667Z" fill="#BDD9D7"/>
<path fill-rule="evenodd" clip-rule="evenodd" d="M22.8185 31.2877C22.3497 30.6512 21.8949 29.8512 21.5605 29.085C20.3014 29.4447 18.7878 29.6744 17.0291 29.7733C18.2371 30.4289 19.9645 31.0364 22.8188 31.2877" fill="#D3ECEC"/>
</svg>
