<svg width="66" height="64" viewBox="0 0 66 64" fill="none" xmlns="http://www.w3.org/2000/svg">
<path d="M20.984 62.9801C19.4541 62.9801 18.0093 62.3003 17.0318 61.0678L2.15838 42.5818C1.18088 41.3493 0.798524 39.7772 1.18088 38.247L6.49292 15.1714C6.83282 13.6415 7.85277 12.409 9.25533 11.7292L30.7585 1.44478C31.4385 1.10514 32.2035 0.935059 32.9685 0.935059C33.7334 0.935059 34.4981 1.10488 35.1782 1.44504L56.6816 11.6868C58.0839 12.3666 59.1039 13.599 59.4438 15.129L64.7558 38.2045C65.096 39.7344 64.7558 41.3068 63.7786 42.5393L48.9046 61.0253C47.9271 62.2151 46.4823 62.9376 44.9524 62.9376L20.9845 62.9801H20.984Z" fill="#326DE6"/>
<path d="M32.9255 1.99745C33.5206 1.99745 34.1155 2.12482 34.6679 2.3798L56.1714 12.6215C57.2762 13.174 58.1261 14.1939 58.3811 15.3839L63.6931 38.4595C63.9906 39.692 63.6931 40.9669 62.8857 41.9442L48.012 60.4304C47.247 61.4077 46.057 61.9601 44.8248 61.9601H20.984C19.7515 61.9601 18.5617 61.4077 17.7968 60.4304L2.92306 41.9442C2.1581 40.9669 1.8604 39.692 2.11564 38.4595L7.42768 15.3839C7.72513 14.1515 8.53255 13.1315 9.63741 12.6215L31.1411 2.33761C31.6935 2.12507 32.3309 1.99771 32.9257 1.99771L32.9255 1.99745ZM32.9255 0C32.0331 0 31.1408 0.212533 30.2907 0.594887L8.78754 10.8793C7.08753 11.6867 5.89775 13.174 5.47269 15.0013L0.160647 38.0771C-0.264162 39.9045 0.160647 41.7743 1.35068 43.2618L16.2244 61.7478C17.372 63.1926 19.1142 64 20.9415 64H44.7821C46.6094 64 48.3519 63.1926 49.4992 61.7478L64.3732 43.2616C65.563 41.8168 65.988 39.9045 65.563 38.0769L60.2509 15.0013C59.8261 13.174 58.6361 11.6867 56.9363 10.8793L35.5178 0.59463C34.7104 0.212533 33.8181 0 32.9255 0Z" fill="white"/>
<path d="M54.4714 36.6321C54.4289 36.6321 54.4289 36.6321 54.4714 36.6321H54.4289C54.3865 36.6321 54.344 36.6321 54.344 36.5896C54.2591 36.5896 54.1742 36.5472 54.089 36.5472C53.7916 36.5047 53.5366 36.4623 53.2816 36.4623C53.154 36.4623 53.0266 36.4623 52.8565 36.4196H52.8141C51.9217 36.3346 51.1992 36.2497 50.5192 36.0372C50.2217 35.9096 50.1368 35.7398 50.0517 35.5697C50.0517 35.5272 50.0092 35.5272 50.0092 35.4848L49.4568 35.315C49.7178 33.3158 49.617 31.2861 49.1593 29.3226C48.6953 27.3428 47.89 25.459 46.7795 23.7556L47.2046 23.3732V23.2883C47.2046 23.0758 47.2471 22.8632 47.4169 22.6507C47.9268 22.1832 48.5644 21.8008 49.3294 21.3333C49.4568 21.2484 49.5841 21.2059 49.7118 21.1208C49.9668 20.9934 50.1793 20.866 50.4343 20.696C50.4767 20.6535 50.5616 20.6111 50.6468 20.5261C50.6893 20.4834 50.7317 20.4834 50.7317 20.441C51.3266 19.931 51.4542 19.0811 51.0292 18.5284C50.8166 18.231 50.4343 18.0612 50.0517 18.0612C49.712 18.0612 49.4143 18.1885 49.1169 18.4011L49.032 18.486C48.9471 18.5284 48.9043 18.6136 48.8194 18.6561C48.6069 18.8686 48.4368 19.0384 48.267 19.2509C48.1821 19.3359 48.0972 19.4635 47.9696 19.5484C47.3744 20.186 46.822 20.696 46.2696 21.0783C46.1422 21.1632 46.0148 21.2059 45.8872 21.2059C45.8023 21.2059 45.7171 21.2059 45.6322 21.1632H45.5473L45.0371 21.5034C44.4846 20.9085 43.8897 20.3985 43.2949 19.8885C40.7332 17.8862 37.6504 16.6619 34.413 16.3612L34.3705 15.8087L34.2856 15.7238C34.158 15.5962 33.9882 15.4688 33.9455 15.1714C33.903 14.4913 33.9882 13.7264 34.0731 12.8765V12.834C34.0731 12.7064 34.1155 12.5366 34.158 12.409C34.2005 12.1542 34.2429 11.899 34.2856 11.6016V11.2192C34.2856 10.4542 33.6905 9.81689 32.9682 9.81689C32.6281 9.81689 32.2882 9.98672 32.0332 10.2417C31.7785 10.4967 31.6508 10.8366 31.6508 11.2192V11.5591C31.6508 11.8565 31.6933 12.1115 31.7782 12.3665C31.8206 12.4941 31.8206 12.6215 31.8631 12.7916V12.834C31.948 13.6839 32.0756 14.4489 31.9907 15.1289C31.9483 15.4264 31.7782 15.5537 31.6508 15.6814L31.5659 15.7663L31.5232 16.3187C30.7582 16.4036 29.9933 16.4885 29.2283 16.6586C25.9562 17.3811 23.0664 19.0387 20.8142 21.4182L20.3891 21.1208H20.3042C20.2193 21.1208 20.1342 21.1632 20.0492 21.1632C19.9216 21.1632 19.7943 21.1208 19.6666 21.0359C19.1142 20.6535 18.5618 20.1008 17.9669 19.4635C17.882 19.3786 17.7971 19.2509 17.6694 19.166C17.4994 18.9535 17.3293 18.7834 17.1168 18.5712C17.0743 18.5284 16.9894 18.4862 16.9045 18.4011C16.862 18.3586 16.8196 18.3586 16.8196 18.3162C16.5563 18.0986 16.226 17.9785 15.8845 17.976C15.5019 17.976 15.1196 18.1461 14.907 18.4435C14.482 18.996 14.6096 19.8458 15.2045 20.3558C15.2469 20.3558 15.2469 20.3985 15.2894 20.3985C15.3743 20.441 15.417 20.5259 15.5019 20.5683C15.7569 20.7382 15.9694 20.8658 16.2244 20.9934C16.352 21.0359 16.4794 21.1208 16.607 21.2059C17.3717 21.6732 18.0093 22.0558 18.5193 22.5233C18.7318 22.7356 18.7318 22.9481 18.7318 23.1607V23.2456L19.1567 23.6282C19.0717 23.7556 18.9868 23.8407 18.9441 23.9681C16.8193 27.3254 16.0119 31.2776 16.5643 35.1873L16.0119 35.3571C16.0119 35.3999 15.9694 35.3999 15.9694 35.4421C15.8845 35.6121 15.7569 35.7822 15.5019 35.9096C14.8646 36.1221 14.0996 36.2073 13.2073 36.2922H13.1646C13.0372 36.2922 12.8671 36.2922 12.7398 36.3347C12.4848 36.3347 12.2298 36.3771 11.9323 36.4196C11.8474 36.4196 11.7625 36.4623 11.6773 36.4623C11.6349 36.4623 11.5924 36.4623 11.5497 36.5047C10.7848 36.6745 10.3172 37.3971 10.4449 38.0769C10.5725 38.672 11.1249 39.0546 11.8047 39.0546C11.9323 39.0546 12.0172 39.0546 12.1449 39.0119C12.1873 39.0119 12.2298 39.0119 12.2298 38.9694C12.3147 38.9694 12.3996 38.927 12.4845 38.927C12.7822 38.8421 12.9947 38.7572 13.2497 38.6295C13.3771 38.5871 13.5045 38.5019 13.6321 38.4597H13.6745C14.482 38.162 15.2045 37.907 15.8845 37.8221H15.9694C16.2244 37.8221 16.3945 37.9495 16.5219 38.0347C16.5643 38.0347 16.5643 38.0771 16.6068 38.0771L17.2019 37.9922C18.2219 41.1367 20.1766 43.9416 22.7689 45.9815C23.3638 46.4488 23.9587 46.8314 24.5963 47.214L24.3413 47.7662C24.3413 47.8089 24.3838 47.8089 24.3838 47.8511C24.4687 48.0211 24.5536 48.2337 24.4687 48.5311C24.214 49.1687 23.8314 49.8061 23.3638 50.5286V50.571C23.2789 50.6987 23.194 50.7836 23.1091 50.9109C22.939 51.1235 22.8114 51.336 22.6413 51.591C22.5989 51.6334 22.5564 51.7183 22.514 51.8035C22.514 51.846 22.4715 51.8884 22.4715 51.8884C22.1316 52.6109 22.3866 53.4184 23.0239 53.7158C23.1938 53.8007 23.3638 53.8434 23.5339 53.8434C24.0439 53.8434 24.5539 53.5033 24.8089 53.0357C24.8089 52.9933 24.8513 52.9508 24.8513 52.9508C24.8938 52.8659 24.9362 52.781 24.9787 52.7383C25.1063 52.4409 25.1488 52.2283 25.2337 51.9733L25.3613 51.591C25.6587 50.7411 25.8713 50.061 26.2536 49.4662C26.4234 49.2112 26.6362 49.1687 26.806 49.0835C26.8485 49.0835 26.8485 49.0835 26.891 49.0411L27.1887 48.4887C29.0585 49.2112 31.0984 49.5935 33.138 49.5935C34.3705 49.5935 35.6455 49.4662 36.8355 49.1687C37.5843 49.0013 38.3223 48.7883 39.0452 48.5311L39.3 48.9986C39.3427 48.9986 39.3427 48.9986 39.3851 49.0411C39.5977 49.0835 39.7675 49.1687 39.9376 49.4237C40.2775 50.0186 40.5324 50.7411 40.8299 51.5485V51.591L40.9575 51.9733C41.0424 52.2283 41.0849 52.4833 41.2122 52.7383C41.255 52.8232 41.2974 52.8659 41.3399 52.9508C41.3399 52.9933 41.3826 53.0357 41.3826 53.0357C41.6373 53.5457 42.1473 53.8434 42.6573 53.8434C42.8273 53.8434 42.9974 53.8007 43.1672 53.7158C43.4647 53.546 43.7197 53.2907 43.8048 52.9508C43.8897 52.6109 43.8897 52.2283 43.7199 51.8884C43.7199 51.846 43.6772 51.846 43.6772 51.8035C43.6348 51.7186 43.5923 51.6337 43.5498 51.591C43.4222 51.336 43.2524 51.1235 43.0823 50.9109C42.9974 50.7836 42.9125 50.6986 42.8276 50.5713V50.5286C42.3598 49.8061 41.9348 49.1687 41.7225 48.5311C41.6376 48.2337 41.7225 48.0639 41.7649 47.8513C41.7649 47.8089 41.8074 47.8089 41.8074 47.7664L41.5949 47.2564C43.8473 45.939 45.7596 44.069 47.2046 41.7743C47.9696 40.5843 48.5644 39.2669 48.9893 37.9495L49.4992 38.0344C49.5419 38.0344 49.5419 37.9919 49.5841 37.9919C49.7542 37.907 49.8818 37.7797 50.1368 37.7797H50.2217C50.9018 37.8646 51.624 38.1193 52.4317 38.417H52.4742C52.6015 38.4595 52.7289 38.5444 52.8565 38.5868C53.1115 38.7145 53.3241 38.7994 53.6215 38.8845C53.7064 38.8845 53.7913 38.927 53.8765 38.927C53.9189 38.927 53.9614 38.927 54.0039 38.9694C54.1315 39.0119 54.2164 39.0119 54.344 39.0119C54.9813 39.0119 55.5338 38.5871 55.7039 38.0347C55.7039 37.5247 55.2363 36.8446 54.4714 36.6324V36.6321ZM34.7953 34.5497L32.9255 35.4423L31.0557 34.5497L30.5884 32.5525L31.8631 30.9377H33.9455L35.2204 32.5525L34.7956 34.5497H34.7953ZM45.8872 30.1303C46.2169 31.5355 46.3173 32.9848 46.1846 34.4221L39.6826 32.5525C39.0877 32.3827 38.7478 31.7876 38.8752 31.1927C38.9176 31.0226 39.0028 30.8525 39.1301 30.7252L44.2724 26.0929C44.9946 27.2829 45.547 28.6428 45.8872 30.13V30.1303ZM42.2325 23.5433L36.6654 27.4955C36.1979 27.7929 35.5603 27.7078 35.1779 27.2405C35.0506 27.1129 35.0081 26.9428 34.9654 26.773L34.5831 19.8458C37.4772 20.1791 40.1734 21.4823 42.2325 23.5433ZM29.9084 20.0581C30.3759 19.9732 30.8007 19.8883 31.2682 19.8034L30.8859 26.6026C30.8434 27.1975 30.3759 27.7075 29.7383 27.7075C29.5685 27.7075 29.3559 27.665 29.2283 27.5801L23.5764 23.5433C25.3188 21.8008 27.4861 20.6108 29.9084 20.0584V20.0581ZM21.5365 26.0927L26.5935 30.5973C27.061 30.9799 27.1035 31.7021 26.7211 32.1697C26.5935 32.3395 26.4237 32.4671 26.2112 32.5098L19.6242 34.4221C19.3692 31.5323 20.0065 28.6001 21.5365 26.0927ZM20.3889 37.6093L27.1462 36.4618C27.6986 36.4193 28.2086 36.8019 28.336 37.3543C28.3784 37.6091 28.3784 37.8219 28.2935 38.0344L25.7012 44.2812C23.3214 42.7513 21.4091 40.4139 20.3891 37.6093H20.3889ZM35.9005 46.0661C34.923 46.2787 33.9455 46.406 32.9255 46.406C31.4383 46.406 29.9933 46.1513 28.6337 45.7262L31.9907 39.6492C32.3306 39.2666 32.8831 39.0968 33.3506 39.3518C33.549 39.4734 33.7222 39.632 33.8606 39.8191L37.1327 45.7262C36.7503 45.8536 36.3253 45.9388 35.9002 46.0661H35.9005ZM44.1872 40.1592C43.1248 41.859 41.7222 43.2188 40.1076 44.2812L37.4304 37.8641C37.3028 37.3543 37.5153 36.8019 38.0253 36.5467C38.1951 36.4618 38.4076 36.4193 38.6202 36.4193L45.4197 37.5669C45.1647 38.5017 44.7396 39.3518 44.1872 40.1592Z" fill="white"/>
</svg>
