<svg width="288" height="462" viewBox="0 0 288 462" fill="none" xmlns="http://www.w3.org/2000/svg">
<path opacity="0.63" d="M58.4511 15.2277C60.6114 9.33609 57.5674 2.85535 51.6758 0.695106C45.7842 -1.46514 39.3035 1.57884 37.1432 7.47043C34.983 13.362 38.027 19.8428 43.9186 22.003C49.8101 24.1632 56.2909 21.1193 58.4511 15.2277ZM45.686 16.7988C42.7893 15.7186 41.3164 12.5274 42.3475 9.63067C43.4276 6.73398 46.6189 5.26108 49.5156 6.29211C52.4123 7.37223 53.8852 10.5635 52.8541 13.4602C51.8231 16.3569 48.5827 17.8298 45.686 16.7988Z" fill="url(#paint0_linear)"/>
<path opacity="0.63" d="M286.998 109.41C288.324 105.826 286.458 101.898 282.923 100.572C279.339 99.2466 275.411 101.112 274.135 104.647C272.809 108.231 274.675 112.159 278.21 113.485C281.745 114.81 285.722 112.994 286.998 109.41ZM279.241 110.342C277.473 109.704 276.59 107.74 277.228 106.022C277.866 104.304 279.83 103.371 281.548 104.009C283.267 104.647 284.2 106.611 283.561 108.33C282.972 110.097 281.008 110.981 279.241 110.342Z" fill="url(#paint1_linear)"/>
<path opacity="0.63" d="M31.1489 421.811C29.3369 414.819 22.1183 410.63 15.1541 412.482C8.16185 414.294 4.01242 421.484 5.82443 428.477C7.63645 435.469 14.855 439.659 21.8192 437.806C28.8238 435.926 33.0012 428.776 31.1489 421.811ZM20.0649 431.671C16.6231 432.569 13.1101 430.527 12.212 427.085C11.3139 423.643 13.3562 420.13 16.7979 419.232C20.2397 418.334 23.7527 420.376 24.6508 423.818C25.5489 427.26 23.5067 430.773 20.0649 431.671Z" fill="url(#paint2_linear)"/>
<path opacity="0.4" d="M223.916 459.428L203.566 441.518C197.627 436.286 199.585 426.592 207.064 424.088L232.775 415.422C240.254 412.886 247.668 419.434 246.127 427.17L240.767 453.747C239.226 461.483 229.854 464.66 223.916 459.428Z" fill="url(#paint3_linear)"/>
<path opacity="0.63" d="M196.103 154.316L194.384 148.08C193.844 146.166 195.612 144.398 197.526 144.889L203.811 146.558C205.726 147.049 206.413 149.455 204.989 150.879L200.423 155.494C198.999 156.869 196.594 156.23 196.103 154.316Z" fill="url(#paint4_linear)"/>
<defs>
<linearGradient id="paint0_linear" x1="61.7712" y1="-9.8881" x2="-5.33369" y2="92.1588" gradientUnits="userSpaceOnUse">
<stop stop-color="#B3FFCA"/>
<stop offset="0.9901" stop-color="#9EF9D3"/>
</linearGradient>
<linearGradient id="paint1_linear" x1="282.581" y1="103.099" x2="277.321" y2="113.35" gradientUnits="userSpaceOnUse">
<stop stop-color="#C1F7D1"/>
<stop offset="0.9901" stop-color="#75D5A3"/>
</linearGradient>
<linearGradient id="paint2_linear" x1="18.5576" y1="419.695" x2="18.3049" y2="443.243" gradientUnits="userSpaceOnUse">
<stop offset="0.00484664" stop-color="#C1E7E7"/>
<stop offset="1" stop-color="#49B59D"/>
</linearGradient>
<linearGradient id="paint3_linear" x1="224.25" y1="435.709" x2="242.005" y2="402.067" gradientUnits="userSpaceOnUse">
<stop stop-color="#AEDFBD"/>
<stop offset="0.9901" stop-color="#88F1C5"/>
</linearGradient>
<linearGradient id="paint4_linear" x1="243.039" y1="245.403" x2="197.302" y2="143.402" gradientUnits="userSpaceOnUse">
<stop offset="0.00484664" stop-color="#46B184"/>
<stop offset="1" stop-color="#AEDFBD"/>
</linearGradient>
</defs>
</svg>