<svg width="20" height="33" viewBox="0 0 20 33" fill="none" xmlns="http://www.w3.org/2000/svg">
<path d="M19 10C19 14.9706 14.9706 19 10 19C5.02942 19 1 14.9706 1 10C1 5.02942 5.02942 1 10 1C14.9706 1 19 5.02942 19 10Z" fill="white"/>
<path d="M16.6676 10.0005C16.6676 13.6826 13.6826 16.6676 10.0005 16.6676C6.31841 16.6676 3.3335 13.6826 3.3335 10.0005C3.3335 6.31841 6.31841 3.3335 10.0005 3.3335C13.6826 3.3335 16.6676 6.31841 16.6676 10.0005Z" fill="#E9F6EE"/>
<path d="M10.0005 0C4.48646 0 0 4.48646 0 10.0005V10.0727C0 12.744 1.0401 15.2553 2.92903 17.1448L3.789 18.005C6.73973 20.9555 8.63491 24.6948 9.26944 28.8194C9.32559 29.1826 9.63268 29.4466 10 29.4466C10.3673 29.4466 10.6749 29.1826 10.7306 28.8194C11.3656 24.6948 13.2608 20.9555 16.211 18.005L17.071 17.1448C18.9599 15.2558 20 12.744 20 10.0727V10.0005C20.0011 4.48646 15.5146 0 10.0005 0ZM10.0005 17.7787C5.7113 17.7787 2.22234 14.2898 2.22234 10.0005C2.22234 5.7113 5.7113 2.22234 10.0005 2.22234C14.2898 2.22234 17.7787 5.7113 17.7787 10.0005C17.7787 14.2898 14.2898 17.7787 10.0005 17.7787Z" fill="#4C9988"/>
<path d="M12.6019 25.8621C12.4828 26.2134 12.3789 26.5701 12.2812 26.9296C13.8747 27.3194 15.0008 28.1045 15.0008 28.8907C15.0008 29.9419 12.9475 31.113 10.0005 31.113C7.0536 31.113 5.00027 29.9419 5.00027 28.8907C5.00027 28.1045 6.12636 27.3188 7.72042 26.9301C7.62275 26.5706 7.51885 26.2139 7.39922 25.8621C5.26586 26.3921 3.8891 27.5505 3.8891 28.8907C3.8891 30.7595 6.57371 32.2242 10.0005 32.2242C13.4274 32.2242 16.112 30.7595 16.112 28.8907C16.112 27.5511 14.7352 26.3927 12.6019 25.8621Z" fill="#4C9988"/>
</svg>
