<svg width="74" height="118" viewBox="0 0 74 118" fill="none" xmlns="http://www.w3.org/2000/svg">
<g opacity="0.5">
<path d="M9.6 117.1C4.3 117.1 0 112.8 0 107.6C0 102.4 4.3 98 9.6 98C14.9 98 19.2 102.3 19.2 107.6C19.2 112.9 14.8 117.1 9.6 117.1ZM9.6 100C5.4 100 2 103.4 2 107.6C2 111.8 5.4 115.1 9.5 115.1C13.7 115.1 17 111.7 17 107.6C17 103.5 13.7 100 9.6 100Z" fill="#D2AEDF"/>
<path d="M73.1 14.2H59V0H73.1V14.2ZM61.2 12H71V2.2H61.2V12Z" fill="#9FE3D8"/>
</g>
<path d="M61.95 107.15L61.95 88.0499L71.15 88.0499L71.15 107.15L61.95 107.15ZM64.15 90.2499L64.15 105.05L68.95 105.05L68.95 90.2499L64.15 90.2499Z" fill="#FFF3D5"/>
<path d="M51.8366 79.4348C56.033 79.4348 59.4348 76.033 59.4348 71.8366C59.4348 67.6402 56.033 64.2384 51.8366 64.2384C47.6402 64.2384 44.2384 67.6402 44.2384 71.8366C44.2384 76.033 47.6402 79.4348 51.8366 79.4348Z" fill="#E6E9ED"/>
<path d="M51.8366 43.9765C56.033 43.9765 59.4348 40.5747 59.4348 36.3783C59.4348 32.182 56.033 28.7802 51.8366 28.7802C47.6402 28.7802 44.2384 32.182 44.2384 36.3783C44.2384 40.5747 47.6402 43.9765 51.8366 43.9765Z" fill="#E6E9ED"/>
<path d="M16.3784 79.4348C20.5748 79.4348 23.9766 76.033 23.9766 71.8366C23.9766 67.6402 20.5748 64.2384 16.3784 64.2384C12.182 64.2384 8.78021 67.6402 8.78021 71.8366C8.78021 76.033 12.182 79.4348 16.3784 79.4348Z" fill="#E6E9ED"/>
<path d="M16.3784 43.9765C20.5748 43.9765 23.9766 40.5747 23.9766 36.3783C23.9766 32.182 20.5748 28.7802 16.3784 28.7802C12.182 28.7802 8.78021 32.182 8.78021 36.3783C8.78021 40.5747 12.182 43.9765 16.3784 43.9765Z" fill="#E6E9ED"/>
<path d="M19.882 74.0823C20.7853 74.9519 21.3763 76.1592 21.4354 77.5015C20.093 78.7003 18.3201 79.4348 16.3784 79.4348C14.4366 79.4348 12.6637 78.7003 11.3214 77.5015C11.4058 75.6695 12.4695 74.0908 13.9976 73.2719L14.2762 74.42C14.521 75.3825 15.3822 76.0579 16.3784 76.0579C17.3746 76.0579 18.2357 75.3825 18.4805 74.42L18.7591 73.2719C19.1728 73.4914 19.5443 73.7615 19.882 74.0823Z" fill="#56CCF2"/>
<path d="M55.3402 38.6241C56.2436 39.4936 56.8345 40.7009 56.8936 42.0433C55.5513 43.2421 53.7784 43.9766 51.8366 43.9766C49.8949 43.9766 48.1219 43.2421 46.7796 42.0433C46.864 40.2113 47.9278 38.6325 49.4559 37.8136L49.7345 38.9618C49.9793 39.9242 50.8404 40.5996 51.8366 40.5996C52.8328 40.5996 53.694 39.9242 53.9388 38.9618L54.2174 37.8136C54.6311 38.0331 55.0025 38.3033 55.3402 38.6241Z" fill="#56CCF2"/>
<path d="M19.882 38.6241C20.7853 39.4936 21.3763 40.7009 21.4354 42.0433C20.093 43.2421 18.3201 43.9766 16.3784 43.9766C14.4366 43.9766 12.6637 43.2421 11.3214 42.0433C11.4058 40.2113 12.4695 38.6325 13.9976 37.8136L14.2762 38.9618C14.521 39.9242 15.3822 40.5996 16.3784 40.5996C17.3746 40.5996 18.2357 39.9242 18.4805 38.9618L18.7591 37.8136C19.1728 38.0331 19.5443 38.3033 19.882 38.6241Z" fill="#40C8B2"/>
<path d="M55.3402 74.0823C56.2436 74.9519 56.8345 76.1592 56.8936 77.5015C55.5513 78.7003 53.7784 79.4348 51.8366 79.4348C49.8949 79.4348 48.1219 78.7003 46.7796 77.5015C46.864 75.6695 47.9278 74.0908 49.4559 73.2719L49.7345 74.42C49.9793 75.3825 50.8404 76.0579 51.8366 76.0579C52.8328 76.0579 53.694 75.3825 53.9388 74.42L54.2174 73.2719C54.6311 73.4914 55.0025 73.7615 55.3402 74.0823Z" fill="#40C8B2"/>
<path d="M54.2174 37.8136L53.9388 38.9618C53.694 39.9242 52.8328 40.5996 51.8366 40.5996C50.8404 40.5996 49.9793 39.9242 49.7345 38.9618L49.4559 37.8136C50.165 37.4337 50.9755 37.2227 51.8366 37.2227C52.6978 37.2227 53.5082 37.4337 54.2174 37.8136Z" fill="#F0D0B4"/>
<path d="M51.8367 37.2228C53.2355 37.2228 54.3694 36.0889 54.3694 34.6901C54.3694 33.2913 53.2355 32.1573 51.8367 32.1573C50.4379 32.1573 49.304 33.2913 49.304 34.6901C49.304 36.0889 50.4379 37.2228 51.8367 37.2228Z" fill="#F0D0B4"/>
<path d="M18.7591 37.8136L18.4805 38.9618C18.2357 39.9242 17.3745 40.5996 16.3783 40.5996C15.3821 40.5996 14.521 39.9242 14.2762 38.9618L13.9976 37.8136C14.7067 37.4337 15.5172 37.2227 16.3783 37.2227C17.2395 37.2227 18.0499 37.4337 18.7591 37.8136Z" fill="#F0D0B4"/>
<path d="M16.3784 37.2228C17.7772 37.2228 18.9111 36.0889 18.9111 34.6901C18.9111 33.2913 17.7772 32.1573 16.3784 32.1573C14.9796 32.1573 13.8456 33.2913 13.8456 34.6901C13.8456 36.0889 14.9796 37.2228 16.3784 37.2228Z" fill="#F0D0B4"/>
<path d="M18.7591 73.272L18.4805 74.4202C18.2357 75.3826 17.3745 76.058 16.3783 76.058C15.3821 76.058 14.521 75.3826 14.2762 74.4202L13.9976 73.272C14.7067 72.8921 15.5172 72.681 16.3783 72.681C17.2395 72.681 18.0499 72.8921 18.7591 73.272Z" fill="#F0D0B4"/>
<path d="M16.3784 72.6809C17.7772 72.6809 18.9111 71.547 18.9111 70.1482C18.9111 68.7494 17.7772 67.6155 16.3784 67.6155C14.9796 67.6155 13.8456 68.7494 13.8456 70.1482C13.8456 71.547 14.9796 72.6809 16.3784 72.6809Z" fill="#F0D0B4"/>
<path d="M54.2174 73.272L53.9388 74.4202C53.694 75.3826 52.8328 76.058 51.8366 76.058C50.8404 76.058 49.9793 75.3826 49.7345 74.4202L49.4559 73.272C50.165 72.8921 50.9755 72.681 51.8366 72.681C52.6978 72.681 53.5082 72.8921 54.2174 73.272Z" fill="#F0D0B4"/>
<path d="M51.8367 72.6809C53.2355 72.6809 54.3694 71.547 54.3694 70.1482C54.3694 68.7494 53.2355 67.6155 51.8367 67.6155C50.4379 67.6155 49.304 68.7494 49.304 70.1482C49.304 71.547 50.4379 72.6809 51.8367 72.6809Z" fill="#F0D0B4"/>
<path d="M4.32864 57.4847C6.19369 57.4847 7.70561 55.9727 7.70561 54.1077C7.70561 52.2426 6.19369 50.7307 4.32864 50.7307C2.46358 50.7307 0.95166 52.2426 0.95166 54.1077C0.95166 55.9727 2.46358 57.4847 4.32864 57.4847Z" fill="#E9F6EE"/>
<path d="M34.1074 27.7057C35.9725 27.7057 37.4844 26.1938 37.4844 24.3288C37.4844 22.4637 35.9725 20.9518 34.1074 20.9518C32.2424 20.9518 30.7305 22.4637 30.7305 24.3288C30.7305 26.1938 32.2424 27.7057 34.1074 27.7057Z" fill="#E9F6EE"/>
<path d="M34.1074 87.2632C35.9725 87.2632 37.4844 85.7513 37.4844 83.8863C37.4844 82.0212 35.9725 80.5093 34.1074 80.5093C32.2424 80.5093 30.7305 82.0212 30.7305 83.8863C30.7305 85.7513 32.2424 87.2632 34.1074 87.2632Z" fill="#E9F6EE"/>
<path d="M63.8863 57.4847C65.7513 57.4847 67.2632 55.9727 67.2632 54.1077C67.2632 52.2426 65.7513 50.7307 63.8863 50.7307C62.0212 50.7307 60.5093 52.2426 60.5093 54.1077C60.5093 55.9727 62.0212 57.4847 63.8863 57.4847Z" fill="#E9F6EE"/>
<path d="M51.7291 63.2875C49.7046 63.2875 47.8456 64.0051 46.3901 65.1972C42.8714 61.7674 39.3772 58.3189 35.9034 54.8451H59.6428C60.0354 56.7691 61.7399 58.2221 63.7788 58.2221C66.1064 58.2221 68 56.3284 68 54.0008C68 51.6733 66.1064 49.7796 63.7788 49.7796C61.7408 49.7796 60.0354 51.2326 59.6428 53.1566H35.9034C39.5531 49.8767 42.9217 46.2729 46.3901 42.8045C47.8464 43.9966 49.7046 44.7142 51.7291 44.7142C56.3843 44.7142 60.1716 40.9269 60.1716 36.2717C60.1716 31.6166 56.3843 27.8293 51.7291 27.8293C47.074 27.8293 43.2867 31.6166 43.2867 36.2717C43.2867 38.2962 44.0043 40.1552 45.1964 41.6107C41.7322 45.0749 38.0831 48.4179 34.8442 52.0975V28.3572C36.7683 27.9646 38.2212 26.2601 38.2212 24.2212C38.2212 21.8936 36.3276 20 34 20C31.6724 20 29.7788 21.8936 29.7788 24.2212C29.7788 26.2592 31.2317 27.9646 33.1558 28.3572C33.1558 32.7811 33.1558 47.6736 33.1558 52.0975C29.8196 48.4953 26.2751 45.0822 22.8036 41.6107C23.9957 40.1552 24.7133 38.2962 24.7133 36.2717C24.7133 31.6166 20.926 27.8293 16.2709 27.8293C11.6157 27.8293 7.82844 31.6166 7.82844 36.2717C7.82844 40.9269 11.6157 44.7142 16.2709 44.7142C18.2954 44.7142 20.1536 43.9966 21.6099 42.8045L31.962 53.1566C27.266 53.1566 13.0531 53.1566 8.35717 53.1566C7.9646 51.2326 6.26007 49.7796 4.22122 49.7796C1.89364 49.7796 0 51.6733 0 54.0008C0 56.3284 1.89364 58.2221 4.22122 58.2221C6.25922 58.2221 7.9646 56.7691 8.35717 54.8451H31.962C30.1932 56.6139 23.2893 63.5169 21.6099 65.1964C20.1536 64.0051 18.2954 63.2875 16.2709 63.2875C11.6157 63.2875 7.82844 67.0748 7.82844 71.73C7.82844 76.3851 11.6157 80.1724 16.2709 80.1724C20.926 80.1724 24.7133 76.3851 24.7133 71.73C24.7133 69.7055 23.9957 67.8464 22.8036 66.391L33.1558 56.0397C33.1558 60.7354 33.1558 74.948 33.1558 79.6437C31.2317 80.0363 29.7788 81.7408 29.7788 83.7796C29.7788 86.1072 31.6724 88.0008 34 88.0008C36.3276 88.0008 38.2212 86.1072 38.2212 83.7796C38.2212 81.7416 36.7683 80.0363 34.8442 79.6437V55.9042C38.2299 59.464 41.7228 62.9174 45.1964 66.391C44.0043 67.8473 43.2867 69.7063 43.2867 71.73C43.2867 76.3851 47.074 80.1724 51.7291 80.1724C56.3843 80.1724 60.1716 76.3851 60.1716 71.73C60.1716 67.0748 56.3843 63.2875 51.7291 63.2875ZM63.7788 51.4681C65.1752 51.4681 66.3115 52.6045 66.3115 54.0008C66.3115 55.3972 65.1752 56.5336 63.7788 56.5336C62.3824 56.5336 61.246 55.3972 61.246 54.0008C61.246 52.6045 62.3824 51.4681 63.7788 51.4681ZM47.5704 41.582C47.7088 40.612 48.1554 39.7483 48.83 39.1109C49.1829 40.4237 50.3648 41.3372 51.7291 41.3372C53.0934 41.3372 54.2754 40.4237 54.6283 39.1118C55.3028 39.7492 55.7494 40.6128 55.8879 41.5829C54.7397 42.4837 53.2977 43.0257 51.7291 43.0257C50.1605 43.0257 48.7185 42.4837 47.5704 41.582ZM50.0406 34.5832C50.0406 33.652 50.7979 32.8947 51.7291 32.8947C52.6603 32.8947 53.4176 33.652 53.4176 34.5832C53.4176 35.5144 52.6603 36.2717 51.7291 36.2717C50.7979 36.2717 50.0406 35.5144 50.0406 34.5832ZM51.7291 37.9602C52.2179 37.9602 52.6814 38.0565 53.1179 38.2093L53.0073 38.6508C52.8612 39.2384 52.3353 39.6487 51.7291 39.6487C51.123 39.6487 50.597 39.2384 50.4501 38.6491L50.3403 38.2084C50.7768 38.0565 51.2403 37.9602 51.7291 37.9602ZM51.7291 29.5178C55.4531 29.5178 58.4831 32.5478 58.4831 36.2717C58.4831 37.7036 58.0322 39.0307 57.269 40.124C56.7279 38.6618 55.6278 37.4832 54.2306 36.8306C54.7692 36.232 55.1061 35.4494 55.1061 34.5832C55.1061 32.7208 53.5915 31.2063 51.7291 31.2063C49.8667 31.2063 48.3521 32.7208 48.3521 34.5832C48.3521 35.4494 48.689 36.232 49.2276 36.8306C47.8304 37.4832 46.7304 38.6618 46.1892 40.124C45.426 39.0307 44.9752 37.7036 44.9752 36.2717C44.9752 32.5478 48.0052 29.5178 51.7291 29.5178ZM9.51693 36.2717C9.51693 32.5478 12.5469 29.5178 16.2709 29.5178C19.9948 29.5178 23.0248 32.5478 23.0248 36.2717C23.0248 37.7036 22.574 39.0307 21.8108 40.124C21.2696 38.6618 20.1696 37.4832 18.7724 36.8306C19.311 36.232 19.6479 35.4494 19.6479 34.5832C19.6479 32.7208 18.1333 31.2063 16.2709 31.2063C14.4085 31.2063 12.8939 32.7208 12.8939 34.5832C12.8939 35.4494 13.2308 36.232 13.7694 36.8306C12.3722 37.4832 11.2721 38.6618 10.731 40.124C9.96776 39.0307 9.51693 37.7036 9.51693 36.2717ZM14.5824 34.5832C14.5824 33.652 15.3397 32.8947 16.2709 32.8947C17.2021 32.8947 17.9594 33.652 17.9594 34.5832C17.9594 35.5144 17.2021 36.2717 16.2709 36.2717C15.3397 36.2717 14.5824 35.5144 14.5824 34.5832ZM16.2709 37.9602C16.7597 37.9602 17.2232 38.0565 17.6597 38.2093L17.5491 38.6508C17.403 39.2384 16.877 39.6487 16.2709 39.6487C15.6647 39.6487 15.1387 39.2384 14.9918 38.6491L14.8821 38.2084C15.3186 38.0565 15.7821 37.9602 16.2709 37.9602ZM12.1121 41.582C12.2506 40.612 12.6972 39.7483 13.3717 39.1109C13.7246 40.4237 14.9066 41.3372 16.2709 41.3372C17.6352 41.3372 18.8171 40.4237 19.17 39.1118C19.8446 39.7492 20.2912 40.6128 20.4296 41.5829C19.2815 42.4837 17.8395 43.0257 16.2709 43.0257C14.7023 43.0257 13.2603 42.4837 12.1121 41.582ZM4.22122 56.5336C2.82484 56.5336 1.68849 55.3972 1.68849 54.0008C1.68849 52.6045 2.82484 51.4681 4.22122 51.4681C5.6176 51.4681 6.75395 52.6045 6.75395 54.0008C6.75395 55.3972 5.6176 56.5336 4.22122 56.5336ZM12.1121 77.0403C12.2506 76.0702 12.6972 75.2066 13.3717 74.5692C13.7246 75.882 14.9066 76.7954 16.2709 76.7954C17.6352 76.7954 18.8171 75.882 19.17 74.57C19.8446 75.2074 20.2912 76.0711 20.4296 77.0411C19.2815 77.9419 17.8395 78.4839 16.2709 78.4839C14.7023 78.4839 13.2603 77.9419 12.1121 77.0403ZM14.5824 70.0415C14.5824 69.1103 15.3397 68.353 16.2709 68.353C17.2021 68.353 17.9594 69.1103 17.9594 70.0415C17.9594 70.9727 17.2021 71.73 16.2709 71.73C15.3397 71.73 14.5824 70.9727 14.5824 70.0415ZM16.2709 73.4185C16.7597 73.4185 17.2232 73.5147 17.6597 73.6675L17.5491 74.109C17.403 74.6966 16.877 75.1069 16.2709 75.1069C15.6647 75.1069 15.1387 74.6966 14.9918 74.1074L14.8821 73.6667C15.3186 73.5147 15.7821 73.4185 16.2709 73.4185ZM21.8108 75.5822C21.2696 74.12 20.1696 72.9415 18.7724 72.2889C19.311 71.6903 19.6479 70.9077 19.6479 70.0415C19.6479 68.1791 18.1333 66.6645 16.2709 66.6645C14.4085 66.6645 12.8939 68.1791 12.8939 70.0415C12.8939 70.9077 13.2308 71.6903 13.7694 72.2889C12.3722 72.9415 11.2721 74.12 10.731 75.5822C9.96776 74.489 9.51693 73.1618 9.51693 71.73C9.51693 68.006 12.5469 64.976 16.2709 64.976C19.9948 64.976 23.0248 68.006 23.0248 71.73C23.0248 73.1618 22.574 74.489 21.8108 75.5822ZM31.4673 24.2221C31.4673 22.8257 32.6036 21.6893 34 21.6893C35.3964 21.6893 36.5327 22.8257 36.5327 24.2221C36.5327 25.6184 35.3964 26.7548 34 26.7548C32.6036 26.7548 31.4673 25.6184 31.4673 24.2221ZM36.5327 83.7796C36.5327 85.176 35.3964 86.3124 34 86.3124C32.6036 86.3124 31.4673 85.176 31.4673 83.7796C31.4673 82.3832 32.6036 81.2469 34 81.2469C35.3964 81.2469 36.5327 82.3832 36.5327 83.7796ZM47.5704 77.0403C47.7088 76.0702 48.1554 75.2066 48.83 74.5692C49.1829 75.882 50.3648 76.7954 51.7291 76.7954C53.0934 76.7954 54.2754 75.882 54.6283 74.57C55.3028 75.2074 55.7494 76.0711 55.8879 77.0411C54.7397 77.9419 53.2977 78.4839 51.7291 78.4839C50.1605 78.4839 48.7185 77.9419 47.5704 77.0403ZM50.0406 70.0415C50.0406 69.1103 50.7979 68.353 51.7291 68.353C52.6603 68.353 53.4176 69.1103 53.4176 70.0415C53.4176 70.9727 52.6603 71.73 51.7291 71.73C50.7979 71.73 50.0406 70.9727 50.0406 70.0415ZM51.7291 73.4185C52.2179 73.4185 52.6814 73.5147 53.1179 73.6675L53.0073 74.109C52.8612 74.6966 52.3353 75.1069 51.7291 75.1069C51.123 75.1069 50.597 74.6966 50.4501 74.1074L50.3403 73.6667C50.7768 73.5147 51.2403 73.4185 51.7291 73.4185ZM57.269 75.5822C56.7279 74.12 55.6278 72.9415 54.2306 72.2889C54.7692 71.6903 55.1061 70.9077 55.1061 70.0415C55.1061 68.1791 53.5915 66.6645 51.7291 66.6645C49.8667 66.6645 48.3521 68.1791 48.3521 70.0415C48.3521 70.9077 48.689 71.6903 49.2276 72.2889C47.8304 72.9415 46.7304 74.12 46.1892 75.5822C45.426 74.489 44.9752 73.1618 44.9752 71.73C44.9752 68.006 48.0052 64.976 51.7291 64.976C55.4531 64.976 58.4831 68.006 58.4831 71.73C58.4831 73.1618 58.0322 74.489 57.269 75.5822Z" fill="#3C3C3B"/>
<circle cx="34" cy="54" r="7.25" fill="#F2C94C" stroke="#3C3C3B" stroke-width="1.5"/>
</svg>
