<svg width="384" height="260" viewBox="0 0 384 260" fill="none" xmlns="http://www.w3.org/2000/svg">
<g filter="url(#filter0_d)">
<path d="M342.875 228H41.1246C36.1061 228 32 223.776 32 218.613V41.387C32 36.2241 36.1061 32 41.1246 32H342.875C347.894 32 352 36.2241 352 41.387V218.613C352 223.776 347.894 228 342.875 228Z" fill="white"/>
</g>
<path fill-rule="evenodd" clip-rule="evenodd" d="M147.487 162.664C147.487 162.581 147.445 162.539 147.362 162.539H146.635V158.468C146.635 158.375 146.614 158.313 146.51 158.313H145.066C144.983 158.313 144.941 158.354 144.941 158.437V158.819C144.941 158.902 144.983 158.943 145.066 158.943H145.866V162.539H145.139C145.056 162.539 145.014 162.581 145.014 162.664V163.046C145.014 163.128 145.056 163.17 145.139 163.17H147.363C147.446 163.17 147.487 163.128 147.487 163.046V162.664H147.487ZM146.812 156.536C146.812 156.195 146.542 155.917 146.188 155.917C145.845 155.917 145.575 156.185 145.575 156.536C145.575 156.877 145.845 157.146 146.188 157.146C146.542 157.146 146.812 156.867 146.812 156.536Z" fill="#828282"/>
<path d="M153.753 162.664C153.753 162.581 153.711 162.54 153.628 162.54H153.057V159.688C153.057 158.965 152.984 158.169 151.851 158.169C151.083 158.169 150.542 158.592 150.21 158.861C150.168 158.706 150.116 158.313 149.898 158.313H148.88C148.797 158.313 148.755 158.355 148.755 158.438V158.82C148.755 158.902 148.797 158.944 148.88 158.944H149.462C149.503 159.161 149.524 159.202 149.524 159.574V162.54H148.942C148.859 162.54 148.817 162.581 148.817 162.664V163.046C148.817 163.128 148.859 163.17 148.942 163.17H150.874C150.957 163.17 150.999 163.129 150.999 163.046V162.664C150.999 162.581 150.957 162.54 150.874 162.54H150.293V159.471C150.542 159.244 150.968 158.851 151.623 158.851C152.173 158.851 152.288 159.233 152.288 159.667V163.046C152.288 163.128 152.329 163.17 152.412 163.17H153.628C153.711 163.17 153.753 163.129 153.753 163.046V162.664Z" fill="#828282"/>
<path d="M160.195 162.664C160.195 162.581 160.153 162.54 160.07 162.54H159.499V159.688C159.499 158.965 159.426 158.169 158.293 158.169C157.514 158.169 156.984 158.592 156.652 158.861C156.61 158.706 156.558 158.313 156.34 158.313H155.322C155.239 158.313 155.197 158.355 155.197 158.438V158.82C155.197 158.902 155.239 158.944 155.322 158.944H155.904C155.945 159.161 155.966 159.202 155.966 159.574V162.54H155.384C155.301 162.54 155.26 162.581 155.26 162.664V163.046C155.26 163.128 155.301 163.17 155.384 163.17H157.317C157.4 163.17 157.442 163.129 157.442 163.046V162.664C157.442 162.581 157.4 162.54 157.317 162.54H156.735V159.471C156.985 159.244 157.411 158.851 158.065 158.851C158.616 158.851 158.73 159.233 158.73 159.667V163.046C158.73 163.128 158.772 163.17 158.855 163.17H160.071C160.154 163.17 160.195 163.129 160.195 163.046V162.664H160.195Z" fill="#828282"/>
<path fill-rule="evenodd" clip-rule="evenodd" d="M165.671 160.711C165.671 159.285 165.078 158.169 163.686 158.169C162.211 158.169 161.618 159.368 161.618 160.763C161.618 162.209 162.211 163.315 163.582 163.315C165.068 163.315 165.671 162.126 165.671 160.711ZM163.655 162.685C162.72 162.685 162.45 161.827 162.45 160.67C162.45 159.668 162.73 158.8 163.644 158.8C164.558 158.8 164.839 159.709 164.839 160.701C164.839 161.869 164.559 162.685 163.655 162.685Z" fill="#828282"/>
<path fill-rule="evenodd" clip-rule="evenodd" d="M171.23 158.944H171.52C171.603 158.944 171.645 158.903 171.645 158.82V158.438C171.645 158.355 171.603 158.314 171.52 158.314H169.827C169.744 158.314 169.712 158.355 169.712 158.438V158.789C169.712 158.872 169.743 158.903 169.827 158.903H170.429L169.442 161.62C169.359 161.868 169.318 162.013 169.266 162.251H169.245C169.193 162.054 169.13 161.827 169.058 161.61L168.164 158.903H168.736C168.808 158.903 168.85 158.872 168.85 158.789V158.438C168.85 158.355 168.808 158.314 168.736 158.314H167C166.917 158.314 166.876 158.355 166.876 158.438V158.82C166.876 158.903 166.917 158.944 167 158.944H167.343L168.892 163.222C168.913 163.274 168.923 163.315 169.016 163.315H169.411C169.504 163.315 169.515 163.295 169.546 163.222L171.23 158.944Z" fill="#828282"/>
<path fill-rule="evenodd" clip-rule="evenodd" d="M173.141 159.12C173.151 159.151 173.183 159.172 173.214 159.172C173.307 159.172 173.775 158.852 174.45 158.852C175.178 158.852 175.365 159.172 175.365 159.761V160.123C174.731 160.144 172.694 160.175 172.694 161.89C172.694 162.788 173.214 163.316 174.014 163.316C174.856 163.316 175.365 162.747 175.479 162.634C175.531 162.799 175.614 163.171 175.863 163.171H176.736C176.819 163.171 176.851 163.13 176.851 163.047V162.665C176.851 162.582 176.819 162.541 176.736 162.541H176.258C176.165 162.262 176.133 162.169 176.133 161.528V159.586C176.133 158.738 175.739 158.17 174.565 158.17C173.91 158.17 172.975 158.47 172.975 158.635C172.975 158.687 172.985 158.717 173.006 158.769L173.141 159.12ZM175.365 162.065C175.199 162.199 174.731 162.684 174.201 162.684C173.692 162.684 173.463 162.23 173.463 161.827C173.463 160.763 174.907 160.763 175.364 160.752V162.065H175.365Z" fill="#828282"/>
<path d="M181.038 162.427C181.038 162.396 181.007 162.365 180.966 162.365C180.872 162.365 180.467 162.633 179.989 162.633C179.376 162.633 179.376 162.22 179.376 161.817V158.945H180.726C180.778 158.945 180.831 158.904 180.851 158.852L180.986 158.459C180.986 158.428 180.997 158.407 180.997 158.386C180.997 158.324 180.945 158.314 180.882 158.314H179.376V156.754C179.376 156.692 179.376 156.64 179.324 156.64C179.303 156.64 179.293 156.651 179.261 156.651L178.721 156.806C178.648 156.827 178.607 156.868 178.607 156.93V158.314H177.837C177.775 158.314 177.775 158.366 177.775 158.439V158.821C177.775 158.873 177.775 158.945 177.837 158.945H178.607V161.817C178.607 162.189 178.607 162.644 178.897 162.964C179.053 163.15 179.417 163.315 179.853 163.315C180.404 163.315 181.173 163.037 181.173 162.902C181.173 162.871 181.163 162.84 181.152 162.799L181.038 162.427Z" fill="#828282"/>
<path fill-rule="evenodd" clip-rule="evenodd" d="M184.82 162.664C184.82 162.581 184.779 162.539 184.696 162.539H183.978V158.468C183.978 158.375 183.957 158.313 183.843 158.313H182.399C182.316 158.313 182.275 158.354 182.275 158.437V158.819C182.275 158.902 182.316 158.943 182.399 158.943H183.199V162.539H182.472C182.389 162.539 182.347 162.581 182.347 162.664V163.046C182.347 163.128 182.389 163.17 182.472 163.17H184.696C184.779 163.17 184.82 163.128 184.82 163.046V162.664ZM184.155 156.536C184.155 156.195 183.874 155.917 183.532 155.917C183.189 155.917 182.908 156.185 182.908 156.536C182.908 156.877 183.189 157.146 183.532 157.146C183.874 157.146 184.155 156.867 184.155 156.536Z" fill="#828282"/>
<path fill-rule="evenodd" clip-rule="evenodd" d="M190.307 160.711C190.307 159.285 189.714 158.169 188.322 158.169C186.847 158.169 186.255 159.368 186.255 160.763C186.255 162.209 186.847 163.315 188.218 163.315C189.704 163.315 190.307 162.126 190.307 160.711ZM188.291 162.685C187.356 162.685 187.096 161.827 187.096 160.67C187.096 159.668 187.366 158.8 188.28 158.8C189.195 158.8 189.475 159.709 189.475 160.701C189.475 161.869 189.195 162.685 188.291 162.685Z" fill="#828282"/>
<path d="M196.759 162.664C196.759 162.581 196.717 162.54 196.634 162.54H196.063V159.688C196.063 158.965 195.99 158.169 194.857 158.169C194.088 158.169 193.558 158.592 193.216 158.861C193.174 158.706 193.122 158.313 192.904 158.313H191.886C191.803 158.313 191.761 158.355 191.761 158.438V158.82C191.761 158.902 191.803 158.944 191.886 158.944H192.468C192.509 159.161 192.53 159.202 192.53 159.574V162.54H191.949C191.866 162.54 191.824 162.581 191.824 162.664V163.046C191.824 163.128 191.866 163.17 191.949 163.17H193.881C193.964 163.17 194.006 163.129 194.006 163.046V162.664C194.006 162.581 193.964 162.54 193.881 162.54H193.299V159.471C193.559 159.244 193.974 158.851 194.629 158.851C195.18 158.851 195.294 159.233 195.294 159.667V163.046C195.294 163.128 195.335 163.17 195.419 163.17H196.634C196.717 163.17 196.759 163.129 196.759 163.046V162.664H196.759Z" fill="#828282"/>
<path d="M198.64 160.443C198.64 160.15 198.875 159.916 199.169 159.916C199.464 159.916 199.699 160.15 199.699 160.443C199.699 160.736 199.464 160.97 199.169 160.97C198.875 160.97 198.64 160.736 198.64 160.443Z" fill="#828282"/>
<path d="M205.102 162.427C205.102 162.396 205.071 162.365 205.03 162.365C204.947 162.365 204.531 162.633 204.053 162.633C203.451 162.633 203.451 162.22 203.451 161.817V158.945H204.791C204.853 158.945 204.905 158.904 204.926 158.852L205.051 158.459C205.051 158.428 205.061 158.407 205.061 158.386C205.061 158.324 205.009 158.314 204.947 158.314H203.451V156.754C203.451 156.692 203.451 156.64 203.399 156.64C203.378 156.64 203.357 156.651 203.326 156.651L202.785 156.806C202.713 156.827 202.671 156.868 202.671 156.93V158.314H201.913C201.84 158.314 201.84 158.366 201.84 158.439V158.821C201.84 158.873 201.84 158.945 201.913 158.945H202.671V161.817C202.671 162.189 202.671 162.644 202.962 162.964C203.118 163.15 203.482 163.315 203.918 163.315C204.479 163.315 205.238 163.037 205.238 162.902C205.238 162.871 205.227 162.84 205.217 162.799L205.102 162.427Z" fill="#828282"/>
<path fill-rule="evenodd" clip-rule="evenodd" d="M207.451 160.277C207.451 159.771 207.658 158.799 208.594 158.799C209.477 158.799 209.654 159.75 209.654 160.277H207.451ZM210.173 162.282C210.152 162.251 210.142 162.22 210.111 162.22C210.048 162.22 209.519 162.633 208.854 162.633C207.701 162.633 207.451 161.527 207.451 160.907H210.37C210.484 160.907 210.484 160.825 210.484 160.68C210.484 159.812 210.328 158.169 208.635 158.169C207.367 158.169 206.62 159.254 206.62 160.742C206.62 162.281 207.409 163.304 208.77 163.315C209.519 163.315 210.37 162.902 210.37 162.788C210.37 162.757 210.349 162.736 210.349 162.706L210.173 162.282Z" fill="#828282"/>
<path d="M215.483 162.282C215.462 162.251 215.451 162.22 215.42 162.22C215.358 162.22 214.828 162.633 214.173 162.633C213.186 162.633 212.999 161.661 212.999 160.742C212.999 159.595 213.301 158.851 214.288 158.851C214.516 158.851 214.797 158.933 214.984 159.037V159.625C214.984 159.718 215.025 159.749 215.098 159.749H215.534C215.617 159.749 215.649 159.708 215.649 159.625V158.757C215.649 158.675 215.649 158.633 215.617 158.613C215.316 158.365 214.651 158.168 214.236 158.168C212.979 158.168 212.168 159.202 212.168 160.896C212.168 162.373 212.864 163.314 214.08 163.314C214.828 163.314 215.69 162.901 215.69 162.787C215.69 162.756 215.669 162.735 215.659 162.705L215.483 162.282Z" fill="#828282"/>
<path d="M222.153 162.664C222.153 162.581 222.112 162.54 222.039 162.54H221.468V159.688C221.468 158.965 221.385 158.169 220.252 158.169C219.514 158.169 218.995 158.572 218.662 158.83V156.071C218.662 155.978 218.641 155.916 218.527 155.916H217.28C217.197 155.916 217.155 155.958 217.155 156.04V156.422C217.155 156.505 217.197 156.547 217.28 156.547H217.893V162.539H217.311C217.228 162.539 217.187 162.581 217.187 162.664V163.046C217.187 163.128 217.228 163.17 217.311 163.17H219.234C219.317 163.17 219.358 163.129 219.358 163.046V162.664C219.358 162.581 219.317 162.539 219.234 162.539H218.662V159.471C218.922 159.243 219.369 158.851 220.034 158.851C220.585 158.851 220.688 159.233 220.688 159.667V163.046C220.688 163.128 220.73 163.17 220.813 163.17H222.039C222.112 163.17 222.154 163.129 222.154 163.046V162.664H222.153Z" fill="#828282"/>
<path d="M228.595 162.664C228.595 162.581 228.554 162.54 228.481 162.54H227.91V159.688C227.91 158.965 227.827 158.169 226.694 158.169C225.925 158.169 225.395 158.592 225.053 158.861C225.021 158.706 224.97 158.313 224.741 158.313H223.723C223.64 158.313 223.598 158.355 223.598 158.438V158.82C223.598 158.902 223.639 158.944 223.723 158.944H224.304C224.346 159.161 224.367 159.202 224.367 159.574V162.54H223.785C223.702 162.54 223.66 162.581 223.66 162.664V163.046C223.66 163.128 223.702 163.17 223.785 163.17H225.718C225.801 163.17 225.843 163.129 225.843 163.046V162.664C225.843 162.581 225.801 162.54 225.718 162.54H225.136V159.471C225.396 159.244 225.811 158.851 226.476 158.851C227.027 158.851 227.131 159.233 227.131 159.667V163.046C227.131 163.128 227.173 163.17 227.256 163.17H228.482C228.554 163.17 228.596 163.129 228.596 163.046V162.664H228.595Z" fill="#828282"/>
<path fill-rule="evenodd" clip-rule="evenodd" d="M234.05 160.711C234.05 159.285 233.458 158.169 232.066 158.169C230.59 158.169 229.998 159.368 229.998 160.763C229.998 162.209 230.59 163.315 231.972 163.315C233.458 163.315 234.05 162.126 234.05 160.711ZM232.035 162.685C231.1 162.685 230.84 161.827 230.84 160.67C230.84 159.668 231.11 158.8 232.024 158.8C232.939 158.8 233.219 159.709 233.219 160.701C233.219 161.869 232.939 162.685 232.035 162.685Z" fill="#828282"/>
<path d="M237.999 162.612C237.999 162.581 237.999 162.55 237.926 162.55C237.864 162.55 237.667 162.684 237.407 162.684C237.105 162.684 237.012 162.447 236.991 162.333C236.97 162.209 236.97 161.692 236.97 161.383V156.071C236.97 155.978 236.939 155.917 236.825 155.917H235.578C235.495 155.917 235.464 155.958 235.464 156.04V156.423C235.464 156.505 235.495 156.547 235.578 156.547H236.191V161.362C236.191 161.682 236.191 162.519 236.336 162.829C236.451 163.108 236.793 163.315 237.292 163.315C237.667 163.315 238.155 163.17 238.155 163.056C238.155 163.035 238.145 163.004 238.134 162.994L237.999 162.612Z" fill="#828282"/>
<path fill-rule="evenodd" clip-rule="evenodd" d="M243.35 160.711C243.35 159.285 242.768 158.169 241.365 158.169C239.9 158.169 239.308 159.368 239.308 160.763C239.308 162.209 239.9 163.315 241.272 163.315C242.757 163.315 243.35 162.126 243.35 160.711ZM241.334 162.685C240.399 162.685 240.139 161.827 240.139 160.67C240.139 159.668 240.41 158.8 241.334 158.8C242.248 158.8 242.518 159.709 242.518 160.701C242.518 161.869 242.249 162.685 241.334 162.685Z" fill="#828282"/>
<path fill-rule="evenodd" clip-rule="evenodd" d="M248.764 159.657C248.764 159.295 248.805 159.161 248.888 158.913C248.982 158.665 249.075 158.614 249.075 158.531C249.075 158.521 249.075 158.51 249.034 158.479L248.577 158.19C248.556 158.18 248.524 158.169 248.483 158.169C248.389 158.169 248.285 158.355 248.192 158.614C248.057 158.51 247.662 158.169 246.987 158.169C245.698 158.169 245.075 159.213 245.075 160.804C245.075 162.23 245.719 163.036 246.644 163.036C247.33 163.036 247.797 162.674 248.026 162.488C248.026 162.602 248.057 163.015 248.057 163.521C248.057 164.079 247.943 164.617 246.997 164.617C246.301 164.617 245.688 164.224 245.605 164.224C245.563 164.224 245.542 164.255 245.532 164.286L245.366 164.627C245.334 164.689 245.334 164.71 245.334 164.761C245.334 164.947 246.28 165.299 247.039 165.299C248.41 165.299 248.836 164.441 248.836 163.521C248.836 162.974 248.764 161.786 248.764 161.217V159.657ZM247.984 161.858C247.755 162.023 247.329 162.364 246.8 162.364C246.104 162.364 245.906 161.682 245.906 160.607C245.906 159.533 246.28 158.851 247.049 158.851C247.454 158.851 247.818 159.037 247.984 159.12V161.858Z" fill="#828282"/>
<path fill-rule="evenodd" clip-rule="evenodd" d="M254.967 158.944H255.351C255.424 158.944 255.465 158.903 255.465 158.82V158.438C255.465 158.355 255.424 158.314 255.351 158.314H253.564C253.481 158.314 253.449 158.355 253.449 158.438V158.789C253.449 158.872 253.481 158.903 253.564 158.903H254.177L253.314 162.168C253.252 162.416 253.21 162.633 253.169 162.881H253.148C253.096 162.664 253.044 162.447 252.94 162.147L251.839 158.903H252.483C252.566 158.903 252.608 158.872 252.608 158.789V158.438C252.608 158.355 252.566 158.314 252.483 158.314H250.623C250.54 158.314 250.498 158.355 250.498 158.438V158.82C250.498 158.903 250.54 158.944 250.623 158.944H251.029L252.493 163.078C252.525 163.15 252.535 163.171 252.629 163.171H252.992L252.785 163.811C252.629 164.297 252.379 164.669 252.005 164.669C251.507 164.669 251.143 164.276 251.029 164.276C250.997 164.276 250.966 164.297 250.956 164.328L250.758 164.731C250.748 164.752 250.737 164.772 250.737 164.793C250.737 164.948 251.434 165.299 252.015 165.299C252.576 165.299 253.013 164.979 253.221 164.555C253.511 163.925 253.761 163.098 253.917 162.551L254.967 158.944Z" fill="#828282"/>
<path d="M256.879 160.443C256.879 160.15 257.119 159.916 257.419 159.916C257.719 159.916 257.959 160.15 257.959 160.443C257.959 160.736 257.719 160.97 257.419 160.97C257.119 160.97 256.879 160.736 256.879 160.443Z" fill="#828282"/>
<path d="M263.695 162.282C263.674 162.251 263.663 162.22 263.632 162.22C263.57 162.22 263.04 162.633 262.375 162.633C261.388 162.633 261.211 161.661 261.211 160.742C261.211 159.595 261.502 158.851 262.5 158.851C262.728 158.851 263.009 158.933 263.196 159.037V159.625C263.196 159.718 263.237 159.749 263.3 159.749H263.746C263.819 159.749 263.85 159.708 263.85 159.625V158.757C263.85 158.675 263.85 158.633 263.819 158.613C263.528 158.365 262.853 158.168 262.437 158.168C261.19 158.168 260.369 159.202 260.369 160.896C260.369 162.373 261.076 163.314 262.292 163.314C263.04 163.314 263.891 162.901 263.891 162.787C263.891 162.756 263.87 162.735 263.86 162.705L263.695 162.282Z" fill="#828282"/>
<path fill-rule="evenodd" clip-rule="evenodd" d="M269.586 160.711C269.586 159.285 268.994 158.169 267.602 158.169C266.126 158.169 265.534 159.368 265.534 160.763C265.534 162.209 266.126 163.315 267.498 163.315C268.983 163.315 269.586 162.126 269.586 160.711ZM267.57 162.685C266.635 162.685 266.365 161.827 266.365 160.67C266.365 159.668 266.645 158.8 267.56 158.8C268.474 158.8 268.744 159.709 268.744 160.701C268.744 161.869 268.474 162.685 267.57 162.685Z" fill="#828282"/>
<path d="M276.236 162.664C276.236 162.581 276.195 162.54 276.111 162.54H275.55V159.688C275.55 158.965 275.467 158.169 274.334 158.169C273.566 158.169 273.035 158.592 272.693 158.861C272.661 158.706 272.61 158.313 272.381 158.313H271.363C271.28 158.313 271.238 158.355 271.238 158.438V158.82C271.238 158.902 271.28 158.944 271.363 158.944H271.945C271.986 159.161 272.007 159.202 272.007 159.574V162.54H271.425C271.342 162.54 271.301 162.581 271.301 162.664V163.046C271.301 163.128 271.342 163.17 271.425 163.17H273.358C273.441 163.17 273.483 163.129 273.483 163.046V162.664C273.483 162.581 273.442 162.54 273.358 162.54H272.776V159.471C273.036 159.244 273.452 158.851 274.117 158.851C274.657 158.851 274.771 159.233 274.771 159.667V163.046C274.771 163.128 274.813 163.17 274.896 163.17H276.112C276.195 163.17 276.237 163.129 276.237 163.046V162.664H276.236Z" fill="#828282"/>
<path d="M279.904 159.523C279.904 159.595 279.945 159.636 280.029 159.636H280.444C280.527 159.636 280.558 159.595 280.558 159.523V158.634C280.558 158.583 280.558 158.541 280.454 158.479C280.184 158.335 279.592 158.169 279.249 158.169C278.355 158.169 277.711 158.758 277.711 159.585C277.711 161.104 279.976 160.876 279.976 161.931C279.976 162.416 279.592 162.654 279.156 162.654C278.74 162.654 278.366 162.509 278.231 162.468V161.869C278.231 161.796 278.199 161.755 278.116 161.755H277.68C277.597 161.755 277.576 161.796 277.576 161.869V162.809C277.576 163.026 278.511 163.315 279.114 163.315C279.997 163.315 280.745 162.83 280.745 161.879C280.745 160.298 278.49 160.608 278.49 159.502C278.49 159.038 278.833 158.831 279.239 158.831C279.519 158.831 279.82 158.924 279.903 158.965V159.523H279.904Z" fill="#828282"/>
<path d="M287.146 162.664C287.146 162.582 287.105 162.54 287.021 162.54H286.45C286.408 162.302 286.387 162.168 286.387 161.91V158.438C286.387 158.355 286.346 158.313 286.262 158.313H285.026C284.943 158.313 284.912 158.355 284.912 158.438V158.82C284.912 158.903 284.943 158.944 285.026 158.944H285.608V162.116C285.306 162.375 284.818 162.633 284.455 162.633C283.79 162.633 283.613 162.251 283.613 161.816V158.438C283.613 158.355 283.572 158.313 283.488 158.313H282.273C282.19 158.313 282.148 158.355 282.148 158.438V158.82C282.148 158.903 282.189 158.944 282.273 158.944H282.844V161.796C282.844 162.53 282.948 163.315 284.33 163.315C284.912 163.315 285.463 162.953 285.743 162.715C285.826 162.85 285.868 163.17 286.169 163.17H287.021C287.104 163.17 287.146 163.129 287.146 163.046V162.664Z" fill="#828282"/>
<path d="M290.783 162.612C290.772 162.581 290.772 162.55 290.71 162.55C290.637 162.55 290.44 162.684 290.18 162.684C289.889 162.684 289.796 162.447 289.775 162.333C289.754 162.209 289.744 161.692 289.744 161.383V156.071C289.744 155.978 289.723 155.917 289.598 155.917H288.362C288.279 155.917 288.237 155.958 288.237 156.04V156.423C288.237 156.505 288.278 156.547 288.362 156.547H288.964V161.362C288.964 161.682 288.964 162.519 289.109 162.829C289.234 163.108 289.567 163.315 290.066 163.315C290.44 163.315 290.928 163.17 290.928 163.056C290.928 163.035 290.918 163.004 290.907 162.994L290.783 162.612Z" fill="#828282"/>
<path d="M295.209 162.427C295.209 162.396 295.178 162.365 295.136 162.365C295.043 162.365 294.638 162.633 294.16 162.633C293.546 162.633 293.546 162.22 293.546 161.817V158.945H294.887C294.95 158.945 295.001 158.904 295.022 158.852L295.157 158.459C295.157 158.428 295.168 158.407 295.168 158.386C295.168 158.324 295.116 158.314 295.053 158.314H293.547V156.754C293.547 156.692 293.547 156.64 293.495 156.64C293.474 156.64 293.453 156.651 293.422 156.651L292.882 156.806C292.809 156.827 292.767 156.868 292.767 156.93V158.314H292.009C291.936 158.314 291.936 158.366 291.936 158.439V158.821C291.936 158.873 291.936 158.945 292.009 158.945H292.767V161.817C292.767 162.189 292.767 162.644 293.069 162.964C293.225 163.15 293.588 163.315 294.025 163.315C294.575 163.315 295.334 163.037 295.334 162.902C295.334 162.871 295.324 162.84 295.313 162.799L295.209 162.427Z" fill="#828282"/>
<path fill-rule="evenodd" clip-rule="evenodd" d="M298.991 162.664C298.991 162.581 298.95 162.539 298.866 162.539H298.139V158.468C298.139 158.375 298.118 158.313 298.014 158.313H296.57C296.487 158.313 296.445 158.354 296.445 158.437V158.819C296.445 158.902 296.486 158.943 296.57 158.943H297.37V162.539H296.632C296.559 162.539 296.518 162.581 296.518 162.664V163.046C296.518 163.128 296.559 163.17 296.632 163.17H298.866C298.949 163.17 298.991 163.128 298.991 163.046V162.664H298.991ZM298.316 156.536C298.316 156.195 298.045 155.917 297.692 155.917C297.349 155.917 297.079 156.185 297.079 156.536C297.079 156.877 297.349 157.146 297.692 157.146C298.045 157.146 298.316 156.867 298.316 156.536Z" fill="#828282"/>
<path d="M305.257 162.664C305.257 162.581 305.215 162.54 305.132 162.54H304.56V159.688C304.56 158.965 304.488 158.169 303.355 158.169C302.576 158.169 302.046 158.592 301.713 158.861C301.672 158.706 301.62 158.313 301.402 158.313H300.384C300.301 158.313 300.259 158.355 300.259 158.438V158.82C300.259 158.902 300.3 158.944 300.384 158.944H300.966C301.007 159.161 301.028 159.202 301.028 159.574V162.54H300.446C300.363 162.54 300.321 162.581 300.321 162.664V163.046C300.321 163.128 300.363 163.17 300.446 163.17H302.379C302.462 163.17 302.504 163.129 302.504 163.046V162.664C302.504 162.581 302.462 162.54 302.379 162.54H301.797V159.471C302.046 159.244 302.472 158.851 303.127 158.851C303.678 158.851 303.792 159.233 303.792 159.667V163.046C303.792 163.128 303.833 163.17 303.916 163.17H305.132C305.215 163.17 305.257 163.129 305.257 163.046V162.664H305.257Z" fill="#828282"/>
<path fill-rule="evenodd" clip-rule="evenodd" d="M310.036 159.657C310.036 159.295 310.078 159.161 310.172 158.913C310.265 158.665 310.358 158.614 310.358 158.531C310.358 158.521 310.358 158.51 310.317 158.479L309.86 158.19C309.839 158.18 309.808 158.169 309.766 158.169C309.672 158.169 309.558 158.355 309.465 158.614C309.34 158.51 308.945 158.169 308.27 158.169C306.982 158.169 306.358 159.213 306.358 160.804C306.358 162.23 307.002 163.036 307.917 163.036C308.603 163.036 309.07 162.674 309.309 162.488C309.309 162.602 309.34 163.015 309.34 163.521C309.34 164.079 309.226 164.617 308.28 164.617C307.574 164.617 306.971 164.224 306.888 164.224C306.846 164.224 306.825 164.255 306.815 164.286L306.649 164.627C306.618 164.689 306.607 164.71 306.607 164.761C306.607 164.947 307.553 165.299 308.322 165.299C309.693 165.299 310.109 164.441 310.109 163.521C310.109 162.974 310.036 161.786 310.036 161.217V159.657ZM309.267 161.858C309.028 162.023 308.602 162.364 308.072 162.364C307.386 162.364 307.189 161.682 307.189 160.607C307.189 159.533 307.553 158.851 308.332 158.851C308.737 158.851 309.09 159.037 309.267 159.12V161.858Z" fill="#828282"/>
<path fill-rule="evenodd" clip-rule="evenodd" d="M80.7594 139.808C80.7594 139.529 80.6244 139.385 80.3437 139.385H77.8501V125.353C77.8501 125.033 77.7774 124.826 77.393 124.826H72.4261C72.1354 124.826 72 124.971 72 125.239V126.561C72 126.84 72.135 126.985 72.4261 126.985H75.1901V139.384H72.6651C72.3844 139.384 72.2494 139.529 72.2494 139.808V141.13C72.2494 141.409 72.3844 141.544 72.6651 141.544H80.3437C80.6241 141.544 80.7594 141.409 80.7594 141.13V139.808ZM78.4421 118.688C78.4421 117.541 77.4967 116.57 76.3122 116.57C75.1174 116.57 74.172 117.51 74.172 118.688C74.172 119.876 75.1174 120.816 76.3122 120.816C77.4967 120.816 78.4421 119.845 78.4421 118.688Z" fill="#828282"/>
<path d="M93.124 138.971C93.124 138.867 93.02 138.765 92.8746 138.765C92.5629 138.765 91.1604 139.705 89.5082 139.705C87.4093 139.705 87.4093 138.279 87.4093 136.884V126.985H92.0328C92.2405 126.985 92.4172 126.841 92.4899 126.675L92.9473 125.311C92.9473 125.208 92.9783 125.136 92.9783 125.063C92.9783 124.857 92.8016 124.826 92.5939 124.826H87.4093V119.463C87.4093 119.256 87.4093 119.081 87.2326 119.081C87.1702 119.081 87.0976 119.112 86.9936 119.112L85.1337 119.639C84.8843 119.701 84.7489 119.845 84.7489 120.052V124.826H82.1203C81.8709 124.826 81.8709 125.001 81.8709 125.239V126.572C81.8709 126.737 81.8709 126.985 82.1203 126.985H84.7489V136.884C84.7489 138.165 84.7489 139.736 85.767 140.821C86.2864 141.482 87.5543 142.04 89.0611 142.04C90.952 142.04 93.581 141.058 93.581 140.604C93.581 140.5 93.5397 140.397 93.5084 140.263L93.124 138.971Z" fill="#828282"/>
<path d="M106.601 138.486C106.538 138.382 106.497 138.279 106.393 138.279C106.185 138.279 104.356 139.705 102.081 139.705C98.6833 139.705 98.0599 136.357 98.0599 133.185C98.0599 129.217 99.0681 126.676 102.507 126.676C103.276 126.676 104.253 126.954 104.886 127.337V129.352C104.886 129.672 105.032 129.775 105.271 129.775H106.778C107.058 129.775 107.162 129.631 107.162 129.352V126.355C107.162 126.076 107.162 125.942 107.058 125.838C106.04 125.001 103.733 124.34 102.288 124.34C97.9866 124.34 95.1812 127.895 95.1812 133.712C95.1812 138.796 97.6022 142.04 101.769 142.04C104.356 142.04 107.307 140.604 107.307 140.221C107.307 140.118 107.234 140.046 107.203 139.942L106.601 138.486Z" fill="#828282"/>
<path fill-rule="evenodd" clip-rule="evenodd" d="M146.001 131.583C146.001 129.847 146.698 126.499 149.929 126.499C152.973 126.499 153.565 129.774 153.565 131.583H146.001ZM155.353 138.485C155.29 138.382 155.249 138.279 155.145 138.279C154.937 138.279 153.119 139.704 150.843 139.704C146.843 139.704 146.001 135.871 146.001 133.743H156.059C156.444 133.743 156.444 133.464 156.444 132.978C156.444 129.982 155.914 124.34 150.064 124.34C145.721 124.34 143.133 128.07 143.133 133.185C143.133 138.486 145.866 141.999 150.521 142.04C153.119 142.04 156.059 140.604 156.059 140.221C156.059 140.118 155.986 140.046 155.955 139.942L155.353 138.485Z" fill="#828282"/>
<path d="M176.3 139.808C176.3 139.529 176.165 139.385 175.885 139.385H173.921V129.568C173.921 127.057 173.64 124.34 169.754 124.34C167.094 124.34 165.265 125.797 164.112 126.706C163.977 126.179 163.8 124.826 163.032 124.826H159.53C159.249 124.826 159.104 124.97 159.104 125.239V126.561C159.104 126.84 159.249 126.985 159.53 126.985H161.525C161.66 127.749 161.732 127.894 161.732 129.175V139.384H159.737C159.457 139.384 159.311 139.528 159.311 139.807V141.13C159.311 141.409 159.457 141.543 159.737 141.543H166.387C166.668 141.543 166.813 141.409 166.813 141.13V139.807C166.813 139.528 166.668 139.384 166.387 139.384H164.392V128.793C165.265 128.029 166.709 126.675 168.985 126.675C170.876 126.675 171.261 127.997 171.261 129.496V141.13C171.261 141.409 171.396 141.543 171.676 141.543H175.885C176.165 141.543 176.3 141.409 176.3 141.13V139.808Z" fill="#828282"/>
<path fill-rule="evenodd" clip-rule="evenodd" d="M191.19 129.455C191.19 128.205 191.335 127.75 191.647 126.882C191.959 126.045 192.281 125.869 192.281 125.59C192.281 125.518 192.281 125.487 192.135 125.384L190.566 124.402C190.494 124.371 190.39 124.34 190.244 124.34C189.933 124.34 189.548 124.96 189.226 125.839C188.779 125.487 187.407 124.34 185.09 124.34C180.643 124.34 178.503 127.925 178.503 133.392C178.503 138.31 180.716 141.1 183.905 141.1C186.254 141.1 187.864 139.839 188.675 139.178C188.675 139.601 188.779 141.027 188.779 142.763C188.779 144.644 188.384 146.535 185.132 146.535C182.711 146.535 180.612 145.17 180.331 145.17C180.186 145.17 180.124 145.274 180.082 145.377L179.521 146.566C179.417 146.772 179.386 146.844 179.386 147.02C179.386 147.681 182.649 148.869 185.267 148.869C190.005 148.869 191.439 145.904 191.439 142.732C191.439 140.851 191.19 136.77 191.19 134.827V129.455ZM188.53 137.018C187.719 137.576 186.254 138.765 184.426 138.765C182.046 138.765 181.381 136.429 181.381 132.73C181.381 129.011 182.649 126.676 185.309 126.676C186.712 126.676 187.937 127.337 188.53 127.616V137.018Z" fill="#828282"/>
<path fill-rule="evenodd" clip-rule="evenodd" d="M203.523 139.808C203.523 139.529 203.388 139.385 203.108 139.385H200.614V125.353C200.614 125.033 200.552 124.826 200.167 124.826H195.19C194.91 124.826 194.764 124.971 194.764 125.239V126.561C194.764 126.84 194.91 126.985 195.19 126.985H197.954V139.384H195.429C195.149 139.384 195.013 139.529 195.013 139.808V141.13C195.013 141.409 195.149 141.544 195.429 141.544H203.108C203.388 141.544 203.523 141.409 203.523 141.13V139.808ZM201.216 118.688C201.216 117.541 200.271 116.57 199.076 116.57C197.881 116.57 196.935 117.51 196.935 118.688C196.935 119.876 197.881 120.816 199.076 120.816C200.271 120.816 201.216 119.845 201.216 118.688Z" fill="#828282"/>
<path d="M222.403 139.808C222.403 139.529 222.268 139.385 221.987 139.385H220.023V129.568C220.023 127.057 219.743 124.34 215.857 124.34C213.186 124.34 211.368 125.797 210.215 126.706C210.069 126.179 209.893 124.826 209.124 124.826H205.622C205.342 124.826 205.207 124.97 205.207 125.239V126.561C205.207 126.84 205.342 126.985 205.622 126.985H207.617C207.763 127.749 207.825 127.894 207.825 129.175V139.384H205.83C205.55 139.384 205.415 139.528 205.415 139.807V141.13C205.415 141.409 205.55 141.543 205.83 141.543H212.49C212.771 141.543 212.906 141.409 212.906 141.13V139.807C212.906 139.528 212.771 139.384 212.49 139.384H210.495V128.793C211.368 128.029 212.802 126.675 215.077 126.675C216.969 126.675 217.363 127.997 217.363 129.496V141.13C217.363 141.409 217.498 141.543 217.779 141.543H221.987C222.267 141.543 222.403 141.409 222.403 141.13V139.808H222.403Z" fill="#828282"/>
<path fill-rule="evenodd" clip-rule="evenodd" d="M226.746 131.583C226.746 129.847 227.442 126.499 230.663 126.499C233.718 126.499 234.31 129.774 234.31 131.583H226.746ZM236.097 138.485C236.025 138.382 235.994 138.279 235.89 138.279C235.682 138.279 233.853 139.704 231.578 139.704C227.588 139.704 226.746 135.871 226.746 133.743H236.794C237.188 133.743 237.188 133.464 237.188 132.978C237.188 129.982 236.659 124.34 230.809 124.34C226.466 124.34 223.868 128.07 223.868 133.185C223.868 138.486 226.601 141.999 231.266 142.04C233.854 142.04 236.794 140.604 236.794 140.221C236.794 140.118 236.732 140.046 236.69 139.942L236.097 138.485Z" fill="#828282"/>
<path fill-rule="evenodd" clip-rule="evenodd" d="M242.965 131.583C242.965 129.847 243.662 126.499 246.883 126.499C249.937 126.499 250.529 129.774 250.529 131.583H242.965ZM252.317 138.485C252.244 138.382 252.213 138.279 252.109 138.279C251.901 138.279 250.072 139.704 247.797 139.704C243.807 139.704 242.966 135.871 242.966 133.743H253.024C253.408 133.743 253.408 133.464 253.408 132.978C253.408 129.982 252.878 124.34 247.028 124.34C242.685 124.34 240.087 128.07 240.087 133.185C240.087 138.486 242.82 141.999 247.486 142.04C250.073 142.04 253.024 140.604 253.024 140.221C253.024 140.118 252.951 140.046 252.91 139.942L252.317 138.485Z" fill="#828282"/>
<path d="M263.985 139.808C263.985 139.529 263.84 139.385 263.559 139.385H261.356V129.63C262.198 128.731 263.424 126.913 264.65 126.913C265.315 126.913 265.627 127.233 265.804 127.233C265.939 127.233 265.98 127.057 266.011 126.985L266.78 125.208C266.822 125.105 266.884 125.001 266.884 124.929C266.884 124.619 265.98 124.34 265.17 124.34C263.144 124.34 261.876 126.293 260.972 127.264C260.827 126.603 260.546 124.826 259.569 124.826H256.411C256.13 124.826 255.995 124.97 255.995 125.239V126.561C255.995 126.84 256.13 126.985 256.411 126.985H258.302C258.52 127.615 258.686 128.452 258.686 129.175V139.384H256.691C256.411 139.384 256.275 139.528 256.275 139.807V141.13C256.275 141.409 256.411 141.543 256.691 141.543H263.559C263.84 141.543 263.985 141.409 263.985 141.13V139.808H263.985Z" fill="#828282"/>
<path fill-rule="evenodd" clip-rule="evenodd" d="M277.15 139.808C277.15 139.529 277.005 139.385 276.724 139.385H274.241V125.353C274.241 125.033 274.168 124.826 273.784 124.826H268.807C268.526 124.826 268.391 124.971 268.391 125.239V126.561C268.391 126.84 268.526 126.985 268.807 126.985H271.57V139.384H269.056C268.775 139.384 268.63 139.529 268.63 139.808V141.13C268.63 141.409 268.775 141.544 269.056 141.544H276.724C277.004 141.544 277.15 141.409 277.15 141.13V139.808H277.15ZM274.833 118.688C274.833 117.541 273.888 116.57 272.692 116.57C271.508 116.57 270.562 117.51 270.562 118.688C270.562 119.876 271.508 120.816 272.692 120.816C273.888 120.816 274.833 119.845 274.833 118.688Z" fill="#828282"/>
<path d="M296.019 139.808C296.019 139.529 295.884 139.385 295.604 139.385H293.64V129.568C293.64 127.057 293.359 124.34 289.473 124.34C286.813 124.34 284.985 125.797 283.831 126.706C283.696 126.179 283.519 124.826 282.751 124.826H279.239C278.958 124.826 278.823 124.97 278.823 125.239V126.561C278.823 126.84 278.958 126.985 279.239 126.985H281.244C281.38 127.749 281.452 127.894 281.452 129.175V139.384H279.457C279.177 139.384 279.031 139.528 279.031 139.807V141.13C279.031 141.409 279.177 141.543 279.457 141.543H286.107C286.388 141.543 286.533 141.409 286.533 141.13V139.807C286.533 139.528 286.388 139.384 286.107 139.384H284.112V128.793C284.985 128.029 286.429 126.675 288.704 126.675C290.596 126.675 290.98 127.997 290.98 129.496V141.13C290.98 141.409 291.115 141.543 291.396 141.543H295.604C295.884 141.543 296.019 141.409 296.019 141.13V139.808Z" fill="#828282"/>
<path fill-rule="evenodd" clip-rule="evenodd" d="M310.909 129.455C310.909 128.205 311.055 127.75 311.366 126.882C311.678 126.045 312 125.869 312 125.59C312 125.518 312 125.487 311.854 125.384L310.275 124.402C310.212 124.371 310.098 124.34 309.963 124.34C309.652 124.34 309.267 124.96 308.945 125.839C308.488 125.487 307.127 124.34 304.81 124.34C300.363 124.34 298.233 127.925 298.233 133.392C298.233 138.31 300.436 141.1 303.625 141.1C305.974 141.1 307.584 139.839 308.384 139.178C308.384 139.601 308.488 141.027 308.488 142.763C308.488 144.644 308.104 146.535 304.851 146.535C302.43 146.535 300.331 145.17 300.051 145.17C299.906 145.17 299.843 145.274 299.802 145.377L299.24 146.566C299.136 146.772 299.105 146.844 299.105 147.02C299.105 147.681 302.357 148.869 304.986 148.869C309.714 148.869 311.158 145.904 311.158 142.732C311.158 140.851 310.909 136.77 310.909 134.827V129.455ZM308.249 137.018C307.439 137.576 305.973 138.765 304.145 138.765C301.765 138.765 301.1 136.429 301.1 132.73C301.1 129.011 302.357 126.676 305.027 126.676C306.43 126.676 307.646 127.337 308.249 127.616V137.018H308.249Z" fill="#828282"/>
<path d="M103.068 109.658C100.699 106.744 101.156 102.476 104.097 100.12C107.027 97.7646 111.328 98.2192 113.697 101.144C116.066 104.057 115.599 108.324 112.669 110.68C109.738 113.036 105.437 112.581 103.068 109.658Z" fill="#EB5757"/>
<path d="M124.327 135.861C121.968 132.947 122.426 128.669 125.356 126.324C128.296 123.969 132.588 124.423 134.957 127.337C137.326 130.261 136.868 134.529 133.928 136.885C130.997 139.24 126.696 138.775 124.327 135.861Z" fill="#EB5757"/>
<path d="M113.697 122.759C111.328 119.845 111.796 115.578 114.726 113.222C117.656 110.866 121.958 111.321 124.327 114.235C126.696 117.159 126.239 121.426 123.298 123.782C120.368 126.138 116.067 125.683 113.697 122.759Z" fill="#EB5757"/>
<path d="M113.708 162.293C111.36 165.227 107.058 165.702 104.117 163.367C101.166 161.022 100.689 156.755 103.037 153.83C105.385 150.896 109.687 150.421 112.627 152.756C115.578 155.091 116.056 159.368 113.708 162.293Z" fill="#EB5757"/>
<path d="M124.264 149.138C121.916 152.062 117.625 152.548 114.674 150.202C111.734 147.867 111.245 143.6 113.604 140.665C115.952 137.741 120.243 137.256 123.194 139.601C126.135 141.936 126.623 146.204 124.264 149.138Z" fill="#EB5757"/>
<defs>
<filter id="filter0_d" x="0" y="0" width="384" height="260" filterUnits="userSpaceOnUse" color-interpolation-filters="sRGB">
<feFlood flood-opacity="0" result="BackgroundImageFix"/>
<feColorMatrix in="SourceAlpha" type="matrix" values="0 0 0 0 0 0 0 0 0 0 0 0 0 0 0 0 0 0 127 0"/>
<feOffset/>
<feGaussianBlur stdDeviation="16"/>
<feColorMatrix type="matrix" values="0 0 0 0 0.266667 0 0 0 0 0.431373 0 0 0 0 0.360784 0 0 0 0.2 0"/>
<feBlend mode="normal" in2="BackgroundImageFix" result="effect1_dropShadow"/>
<feBlend mode="normal" in="SourceGraphic" in2="effect1_dropShadow" result="shape"/>
</filter>
</defs>
</svg>
