<svg width="144" height="34" viewBox="0 0 144 34" fill="none" xmlns="http://www.w3.org/2000/svg">
<path d="M72.6 8.80016V24.5702H71.54L66.47 13.8002C66.09 12.9402 65.47 11.5402 65.21 10.8502H65.16C65.21 11.7902 65.23 13.1202 65.23 14.1202V24.5902H64.23V8.80016H65.29L70.29 19.5502C70.72 20.4502 71.29 21.8002 71.62 22.5502H71.67C71.62 21.6802 71.55 20.2602 71.55 19.2402V8.80016H72.6Z" fill="#4D4D4D"/>
<path d="M86.59 20.5402H81.34L80.34 24.5402H79.26L83.39 8.80016H84.54L88.71 24.5702H87.63L86.59 20.5402ZM86.35 19.5402L84.7 13.0802C84.43 11.9902 84.16 10.8002 83.98 10.0802C83.8 10.8002 83.53 11.9902 83.26 13.0802L81.61 19.5402H86.35Z" fill="#4D4D4D"/>
<path d="M101.15 9.80016H97.59V24.6002H96.59V9.80016H93.07V8.80016H101.16L101.15 9.80016Z" fill="#4D4D4D"/>
<path d="M114.78 23.6002V24.6002H108V8.80016H109V23.6002H114.78Z" fill="#4D4D4D"/>
<path d="M128.66 23.6302V24.5702H121.36V8.80016H128.5V9.80016H122.38V16.1302H128.08V17.0702H122.38V23.6802L128.66 23.6302Z" fill="#4D4D4D"/>
<path d="M142.23 24.5702L138.94 17.3902L135.65 24.5702H134.52L138.35 16.3902L134.7 8.80016H135.85L138.94 15.4202L142 8.80016H143.13L139.5 16.3902L143.33 24.5702H142.23Z" fill="#4D4D4D"/>
<path d="M15.11 14.6502H15.05C14.39 14.4602 11.05 11.8002 9.33 8.40016C9.29927 8.3455 9.27253 8.28869 9.25 8.23016V8.16016V7.80016V7.75016C8.8441 6.80073 8.62347 5.78245 8.6 4.75016C8.59972 4.46244 8.61978 4.17506 8.66 3.89016C8.76522 3.18677 8.99912 2.50879 9.35 1.89016L9.09 2.06017C3.45 5.33017 0 10.8002 0 16.9002C0 23.0002 3.39 28.3702 8.71 31.9502C9.52578 32.4635 10.4505 32.7786 11.41 32.8702C11.6531 32.885 11.8969 32.885 12.14 32.8702C20.44 32.8702 31.21 19.1202 32.8 19.1202C33.7015 19.6404 34.5289 20.2794 35.26 21.0202L35.32 21.0802L35.44 21.2002C37.23 23.0602 39.08 25.7102 39.08 28.5202C39.08 28.7502 39.08 28.9802 39.08 29.2202V29.3702V29.4202C39.08 29.4202 39.08 29.5102 39.08 29.5502C38.9602 30.2263 38.7305 30.8783 38.4 31.4802L38.5 31.3902C38.5124 31.3723 38.5288 31.3576 38.5479 31.3472C38.567 31.3368 38.5883 31.3309 38.61 31.3302L38.87 31.1602C44.13 27.5802 47.47 22.1602 47.47 16.1602C47.47 10.1602 44.05 4.65017 38.7 1.06017H38.61C37.4528 0.35815 36.1234 -0.00881581 34.77 0.000160826C26.05 0.000160826 16.17 14.0002 14.58 14.0002" fill="url(#paint0_radial)"/>
<path d="M8.86 1.80016H8.77C3.42 5.39016 0 10.8002 0 16.9002C0 23.0002 3.34 28.3002 8.6 31.9002C8.69 31.9602 9.02 32.1602 9.09 32.2202C5.53 25.8802 14.68 19.2202 15.18 19.2202C17 19.2202 30.86 37.2202 39.27 32.0102C44.59 28.4302 47.98 23.0102 47.98 16.9602C47.98 10.9102 44.53 5.39017 39.12 1.81017C39.0275 1.76297 38.9403 1.70597 38.86 1.64016C42.74 6.64016 33.6 14.7102 32.86 14.7102C31.27 14.7102 21.39 0.710167 12.67 0.710167C11.3239 0.715761 10.0054 1.09295 8.86 1.80016Z" fill="#4C9988"/>
<path d="M38.76 32.1802C37.8621 32.7339 36.812 32.9894 35.76 32.9102C30.06 32.9102 22.98 26.1702 18.76 22.1902C16.58 20.1002 15.5 19.1002 14.97 19.1002C14.59 19.1002 11.31 21.4402 9.37 24.7402C8.76375 25.6375 8.35411 26.6529 8.16798 27.7197C7.98185 28.7865 8.02343 29.8806 8.29 30.9302C8.42334 31.3947 8.66691 31.82 9 32.1702L9.42 32.4002L9.92 32.5702C10.1756 32.6557 10.436 32.7258 10.7 32.7802C10.3755 32.6706 10.0611 32.5334 9.76 32.3702C9.40462 32.1271 9.09911 31.8182 8.86 31.4602C8.5157 30.5947 8.3582 29.6662 8.39784 28.7356C8.43748 27.805 8.67335 26.8932 9.08999 26.0602C10.4493 23.3213 12.5221 20.9998 15.09 19.3402C15.51 19.3402 16.96 20.7202 18.64 22.3402C22.85 26.3402 29.9 33.1002 35.75 33.1002C36.9246 33.1215 38.0759 32.7715 39.04 32.1002C44.04 28.7702 47.45 23.7402 47.85 18.1002C47.5361 20.9929 46.5508 23.7723 44.9726 26.2168C43.3945 28.6613 41.2671 30.7034 38.76 32.1802Z" fill="white"/>
<path d="M8.71 1.86016L8.94 1.74016C10.0886 1.10757 11.3903 0.806376 12.7 0.870162C18.7 0.870162 25.54 7.66016 29.51 11.7402C31.51 13.8002 32.51 14.8002 33.04 14.8002C33.57 14.8002 36.54 12.4302 38.43 9.20016C39.93 6.63016 40.52 3.42016 39.25 1.82016C40.7353 2.83613 42.1036 4.01329 43.33 5.33016C42.2978 4.17496 41.137 3.14158 39.87 2.25016C39.2393 1.71959 38.508 1.32166 37.72 1.08016C39.17 1.90016 39.38 2.57016 39.52 3.08016C39.7898 4.91304 39.4152 6.78276 38.46 8.37016C36.72 11.7602 33.32 14.3702 32.89 14.4302C32.46 14.4902 31.15 13.0702 29.61 11.4902C25.61 7.37016 18.89 0.490164 12.7 0.490164C11.3117 0.486321 9.94893 0.863326 8.76 1.58016L8.67 1.64016C4.75481 4.13528 1.88245 7.97102 0.589996 12.4302C1.95159 8.05229 4.83098 4.30411 8.71 1.86016Z" fill="white"/>
<defs>
<radialGradient id="paint0_radial" cx="0" cy="0" r="1" gradientUnits="userSpaceOnUse" gradientTransform="translate(24 16.8002) scale(22.9)">
<stop stop-color="white"/>
<stop offset="0.4" stop-color="#F5F5F5"/>
<stop offset="1" stop-color="#DDDDDD"/>
</radialGradient>
</defs>
</svg>
