<svg width="110" height="76" viewBox="0 0 110 76" fill="none" xmlns="http://www.w3.org/2000/svg">
<path d="M79.81 1.00001H80.53C83.0619 1.10575 85.5398 1.76469 87.79 2.93018C88.4217 3.23855 89.03 3.5929 89.61 3.99024C90.71 4.75024 91.79 5.56016 92.83 6.41016C93.87 7.26016 95.12 8.41016 96.22 9.41016C97.32 10.4102 98.22 11.5299 99.22 12.6299C100.22 13.7299 100.99 14.85 101.81 16C103.241 18.0266 104.467 20.1906 105.47 22.46C106.549 24.8363 107.374 27.3203 107.93 29.8701C108.715 33.3146 108.995 36.8548 108.76 40.3799C108.437 44.5192 107.422 48.5753 105.76 52.3799C104.041 56.3001 101.735 59.9355 98.92 63.1602C97.4501 64.8533 95.8593 66.4372 94.16 67.8999C93.29 68.6599 92.39 69.3901 91.47 70.0801C90.536 70.812 89.5538 71.4802 88.53 72.0801C86.3826 73.265 83.9819 73.9165 81.53 73.98H81.07C79.036 73.9559 77.0158 73.6426 75.07 73.0498C70.3863 71.5357 65.9742 69.2841 62 66.3799C59.84 64.8799 57.75 63.2801 55.71 61.6201L54.92 60.9702L54.19 61.5698C53.68 61.9898 50.58 64.4202 49.51 65.2002C45.5284 68.2404 41.1343 70.6982 36.46 72.5C34.3864 73.2965 32.2124 73.8014 30 74C29.57 74 29.14 74 28.71 74C27.8891 74.0034 27.0695 73.9363 26.26 73.7998C24.9859 73.584 23.7476 73.194 22.58 72.6401C20.6374 71.5764 18.7787 70.3661 17.02 69.02C14.8984 67.3016 12.9279 65.4047 11.13 63.3501C7.62888 59.3849 4.91396 54.7898 3.12999 49.8101C1.43444 45.0462 0.733351 39.9853 1.07 34.9399C1.4016 30.8019 2.41527 26.7472 4.07 22.9399C5.78635 19.0246 8.09318 15.396 10.91 12.1802C13.8548 8.80465 17.2499 5.85001 21 3.39991C22.044 2.7453 23.1661 2.22474 24.34 1.85011C25.5137 1.44745 26.7273 1.17221 27.96 1.02979C28.6244 0.959611 29.2919 0.923035 29.96 0.91993C31.6037 0.931216 33.2409 1.12899 34.84 1.50977C39.613 2.77942 44.1068 4.92998 48.09 7.85011C50.26 9.34011 52.33 10.9501 54.34 12.6401C54.47 12.7501 54.78 13.0601 54.91 13.0601L55.82 12.2998C56.32 11.8798 56.82 11.4598 57.35 11.0498C58.35 10.2298 59.42 9.43993 60.49 8.66993C64.4583 5.64477 68.9211 3.33065 73.68 1.83009C75.6487 1.25171 77.6881 0.948933 79.74 0.930184L79.81 1.00001ZM74.52 31.71C75.2154 31.2784 75.8833 30.8042 76.52 30.29C77.7484 29.2751 78.917 28.19 80.02 27.04C82.4357 24.6043 84.4869 21.8323 86.11 18.8101C86.27 18.5101 86.89 17.1902 87.11 16.7002C87.23 16.4102 87.65 15.2099 87.74 14.8999C88.4792 12.5382 88.5794 10.0228 88.03 7.60987C87.8894 7.03797 87.7089 6.47691 87.49 5.93018C87.3405 5.50503 87.1354 5.10134 86.88 4.72999L86.46 4.50977C85.3005 3.95277 84.0784 3.53673 82.82 3.27003C81.7964 3.06251 80.7545 2.9586 79.71 2.95997C76.0545 3.08646 72.4736 4.02977 69.23 5.72022C64.6033 8.08334 60.2928 11.0195 56.4 14.46C59.59 17.27 62.62 20.2498 65.6 23.2798C67.37 25.0798 69.12 26.9099 70.91 28.6899C71.66 29.4299 72.43 30.1801 73.24 30.8701C73.6259 31.2153 74.0606 31.5018 74.53 31.7202L74.52 31.71ZM28.77 71.9902C32.84 71.9902 36.86 70.4201 40.42 68.5601C45.009 66.0625 49.3226 63.0894 53.29 59.6899C53.21 59.75 53.2 59.77 53.22 59.77C53.24 59.77 53.33 59.7199 53.29 59.6899C52.69 59.1699 52.03 58.5402 51.41 57.9702C48.68 55.5002 45.94 53.03 43.27 50.5C41.5 48.83 39.77 47.13 37.94 45.5C37.3125 44.9286 36.6441 44.404 35.94 43.9302C35.8323 43.8572 35.7186 43.7937 35.6 43.7402H35.52C35.487 43.7338 35.453 43.7338 35.42 43.7402L35.02 43.9902C34.0565 44.632 33.1316 45.3297 32.25 46.0801C30.9103 47.2147 29.6381 48.4267 28.44 49.71C25.4167 52.7582 23.1465 56.4698 21.81 60.5498C20.863 63.5563 21.0407 66.8047 22.31 69.6899C22.4188 69.9901 22.5704 70.2729 22.76 70.5298C23.03 70.6698 23.3 70.7902 23.58 70.9102C24.7476 71.4316 25.989 71.7689 27.26 71.9102C27.7519 71.9582 28.2458 71.9814 28.74 71.98L28.77 71.9902ZM79.81 8.39295e-06C77.6636 0.0213188 75.5302 0.337555 73.47 0.93995C68.5961 2.4679 64.0272 4.83696 59.97 7.93995C58.97 8.67995 57.87 9.49011 56.79 10.3501C56.27 10.7601 55.79 11.1799 55.25 11.6099L54.92 11.8799C52.75 10.0599 50.72 8.49987 48.7 7.10987C43.7 3.68987 39.41 1.62989 35.11 0.629891C33.4364 0.224967 31.7218 0.013699 30 8.39295e-06C29.2816 -0.000667779 28.5638 0.0395137 27.85 0.120126C26.5462 0.268873 25.2622 0.557056 24.02 0.979989C22.7667 1.38547 21.5678 1.94311 20.45 2.64015C16.6221 5.15616 13.1566 8.18426 10.15 11.6401C7.2702 14.929 4.90965 18.6385 3.14998 22.6401C-0.689453 31.3761 -1.02597 41.253 2.20998 50.23C4.02437 55.3332 6.80506 60.0388 10.4 64.0899C12.2241 66.1973 14.232 68.1385 16.4 69.8901C18.2195 71.288 20.1454 72.5418 22.16 73.6401C24.2104 74.609 26.4523 75.1042 28.72 75.0899C29.16 75.0899 29.62 75.0899 30.08 75.0899C32.3746 74.9045 34.6326 74.4033 36.79 73.6001C41.5586 71.7738 46.0382 69.2679 50.09 66.1602C51.19 65.3602 54.32 62.91 54.82 62.5L54.91 62.4302L55.07 62.5498C57.3 64.3798 59.38 65.9499 61.42 67.3599C65.4756 70.3376 69.9877 72.6375 74.78 74.1699C76.8158 74.7974 78.93 75.1341 81.06 75.1699H81.55C84.1716 75.1185 86.7417 74.4322 89.04 73.1699C90.0856 72.5522 91.0879 71.8639 92.04 71.1099C93.04 70.3699 93.94 69.6199 94.82 68.8599C96.5504 67.3578 98.1743 65.7371 99.68 64.0098C102.564 60.724 104.925 57.0139 106.68 53.0098C108.762 48.1435 109.807 42.8967 109.749 37.604C109.69 32.3113 108.529 27.089 106.34 22.27C105.309 19.9445 104.049 17.7269 102.58 15.6499C101.77 14.5099 100.89 13.31 99.93 12.21L99.7 11.9502C98.81 10.9502 97.89 9.8702 96.87 8.9502C95.85 8.0302 94.62 6.82987 93.43 5.85987C92.24 4.88987 91.22 4.14015 90.15 3.39015C87.287 1.49755 83.9678 0.409667 80.54 0.240243C80.28 0.240243 80.03 0.240243 79.78 0.240243L79.81 8.39295e-06ZM58 14.54C61.5753 11.4521 65.5145 8.81269 69.73 6.68018C72.823 5.05837 76.2399 4.14933 79.73 4.02003C80.704 4.01837 81.6756 4.11557 82.63 4.31007C83.8089 4.5593 84.9537 4.94889 86.04 5.47022L86.22 5.56007C86.32 5.76007 86.48 6.10013 86.58 6.37013C86.7855 6.87001 86.9527 7.38488 87.08 7.91016C87.582 10.1523 87.4854 12.4871 86.8 14.6802C86.72 14.9502 86.31 16.1201 86.2 16.3901C86.02 16.8401 85.42 18.1301 85.27 18.3901C83.6978 21.3315 81.7033 24.0268 79.35 26.3901C78.2684 27.5081 77.1267 28.5663 75.93 29.5601C75.64 29.8001 74.93 30.2999 74.52 30.6099C74.3 30.4599 74.04 30.2699 73.9 30.1499C73.13 29.4899 72.42 28.79 71.63 28.02C70.47 26.86 69.31 25.6698 68.18 24.5098L66.34 22.6201C63.09 19.3201 60.46 16.78 57.95 14.52L58 14.54ZM23.53 69.8399C23.53 69.7598 23.44 69.6302 23.35 69.4302V69.3799C23.1231 68.8604 22.9327 68.3257 22.78 67.7798C22.1827 65.5234 22.2207 63.1462 22.89 60.9102C23.89 57.4802 25.97 54.06 29.3 50.48C30.4657 49.2243 31.7081 48.042 33.02 46.9399C33.8536 46.2184 34.732 45.5504 35.65 44.9399C36.2226 45.3425 36.7672 45.7833 37.28 46.2598L37.37 46.3301C38.72 47.5201 40.05 48.79 41.37 50.02L42.7 51.29C45.17 53.63 47.7 55.9499 50.21 58.1899L50.85 58.7798L51.5 59.3701L51.88 59.71C48.2245 62.7698 44.2675 65.4502 40.07 67.71C35.81 69.94 32.15 71.02 28.89 71.02C28.4291 71.0222 27.9684 70.999 27.51 70.9502C26.3438 70.8319 25.2033 70.5315 24.13 70.0601L23.58 69.8101L23.53 69.8399Z" fill="#4C9988"/>
</svg>
