<svg width="54" height="52" viewBox="0 0 54 52" fill="none" xmlns="http://www.w3.org/2000/svg">
<path d="M3.52042 33.1204C0.752547 18.4046 8.06755 4.21205 24.8568 2.32402C22.5415 -0.149876 19.3787 -0.168465 17.9234 0.132471C15.354 0.951349 15.4346 2.61406 12.5201 4.76178C9.6226 6.4167 8.16738 5.14935 6.05667 6.86496C3.95048 8.56777 5.42013 12.4768 4.53679 13.2368C3.65993 14.7567 0.939931 16.1106 0.4448 18.0304C0.0356016 20.4854 1.55548 22.2391 1.49703 24.3436C1.6724 26.0973 -0.24885 27.089 0.0271838 28.5103C0.853999 30.8323 2.44765 32.2299 3.19894 32.8741C3.37123 32.9955 3.55318 33.2946 3.52042 33.1204Z" fill="#FF0090"/>
<path d="M33.395 12.7495C32.7816 12.7495 32.2843 12.2522 32.2843 11.6388C32.2843 11.0255 32.7816 10.5281 33.395 10.5281C34.0084 10.5281 34.5057 11.0255 34.5057 11.6388C34.5057 12.2522 34.0084 12.7495 33.395 12.7495ZM4.16847 34.7253C1.50856 21.9358 9.73945 11.2491 25.6787 16.5103C35.0314 21.9817 46.7968 21.6255 47.3273 18.0886C48.6368 13.8486 41.3647 5.11116 30.4917 2.83134C8.92105 -1.37756 -2.70785 21.9358 4.16847 34.7253Z" fill="url(#paint0_radial)"/>
<path d="M39.5524 36.1517C42.7554 36.4987 45.7958 35.73 48.6133 33.4335C44.3567 38.1813 39.0343 40.5685 32.9274 41.2181C35.8432 43.697 38.6551 44.8136 41.3452 44.3357C33.8704 46.3983 27.608 44.128 19.99 36.5415C19.591 38.5838 21.748 41.7657 23.9713 43.7969C11.0717 38.2044 9.94077 20.7832 25.6705 16.4979C9.36478 8.66383 0.144784 23.8855 4.6747 36.3612C9.10692 45.97 20.9179 53.3671 33.8627 51.7403C40.1505 50.9702 49.5399 46.6351 53.3757 36.3612C50.6723 38.7871 45.8399 40.9 43.6835 41.0621C50.982 37.4146 54.9218 31.2167 53.8159 22.7457C52.3041 26.3449 50.3095 29.1091 47.8144 31.0075C53.1145 22.7457 52.205 18.4754 48.2821 13.7822C51.088 21.4985 47.4583 30.0626 39.5524 36.1517Z" fill="url(#paint1_radial)"/>
<path d="M35.807 45.0413C35.2532 44.9379 37.0624 45.7742 33.5646 44.8482C30.0669 43.9223 26.5055 43.03 19.99 36.5415C19.591 38.5838 21.748 41.7657 23.9713 43.7968C29.9729 47.9825 25.8913 46.0248 35.0358 49.1861C35.7696 47.7254 35.807 46.4275 35.807 45.0413Z" fill="url(#paint2_linear)"/>
<path d="M24.1801 12.174C24.1801 12.174 24.9751 11.0005 25.2846 10.4713C25.6638 9.82271 26.2462 8.6406 26.2462 8.6406C26.2462 8.6406 20.1265 6.64401 18.6247 6.40039C13.9561 7.61227 13.9391 9.5682 16.5492 12.562C16.8397 12.8952 24.1801 12.174 24.1801 12.174Z" fill="url(#paint3_linear)"/>
<defs>
<radialGradient id="paint0_radial" cx="0" cy="0" r="1" gradientUnits="userSpaceOnUse" gradientTransform="translate(37.8623 14.5909) scale(40.6998 29.1144)">
<stop stop-color="#F80090"/>
<stop offset="1" stop-color="#4D008E"/>
</radialGradient>
<radialGradient id="paint1_radial" cx="0" cy="0" r="1" gradientUnits="userSpaceOnUse" gradientTransform="translate(38.2206 15.4617) scale(41.2535 31.2066)">
<stop stop-color="#57008E"/>
<stop offset="0.291746" stop-color="#5C008E"/>
<stop offset="1" stop-color="#F80090"/>
</radialGradient>
<linearGradient id="paint2_linear" x1="22.8356" y1="36.5415" x2="30.1278" y2="48.8052" gradientUnits="userSpaceOnUse">
<stop stop-color="#F70090"/>
<stop offset="0.669713" stop-color="#E50090"/>
<stop offset="0.827148" stop-color="#D6008F" stop-opacity="0.2"/>
<stop offset="1" stop-color="#C10090" stop-opacity="0"/>
</linearGradient>
<linearGradient id="paint3_linear" x1="22.2294" y1="10.8725" x2="21.1711" y2="8.84563" gradientUnits="userSpaceOnUse">
<stop stop-color="#B2008F" stop-opacity="0.15134"/>
<stop offset="0.400351" stop-color="#F70090" stop-opacity="0.4"/>
<stop offset="0.648996" stop-color="#F60090" stop-opacity="0.891668"/>
<stop offset="1" stop-color="#FF0090"/>
</linearGradient>
</defs>
</svg>
