<svg width="54" height="54" viewBox="0 0 54 54" fill="none" xmlns="http://www.w3.org/2000/svg">
<path d="M11.9977 0H41.897C43.3519 0 44.7646 0.232031 46.1352 0.717188C48.1172 1.43438 49.9095 2.7 51.2589 4.34531C52.6295 5.99062 53.5362 8.01562 53.8525 10.125C53.979 10.9055 54.0001 11.6859 54.0001 12.4664V41.6391C54.0001 42.5672 53.9579 43.5164 53.7681 44.4234C53.3464 46.5117 52.3554 48.4734 50.9216 50.0555C49.5088 51.6375 47.6533 52.8187 45.6502 53.4516C44.4272 53.8312 43.1621 54 41.8759 54C41.3066 54 11.9134 54 11.4706 53.9789C9.31986 53.8734 7.19022 53.1773 5.39795 51.975C3.64786 50.7937 2.21404 49.1484 1.28628 47.25C0.485028 45.6258 0.0844033 43.8117 0.0844033 41.9977V12.0023C0.0422322 10.2094 0.421771 8.4375 1.20194 6.83438C2.10861 4.93594 3.52134 3.26953 5.27144 2.08828C7.06371 0.864844 9.17226 0.147656 11.323 0.0421875C11.5338 0 11.7658 0 11.9977 0Z" fill="url(#paint0_linear)"/>
<path d="M45.5447 44.1703C45.3549 43.875 45.1441 43.5797 44.9121 43.3055C44.385 42.6727 43.7735 42.1242 43.0988 41.6602C42.2554 41.0906 41.2644 40.732 40.2522 40.6898C39.5353 40.6477 38.8184 40.7742 38.1437 41.0273C37.469 41.2594 36.8153 41.5969 36.1827 41.9344C35.4448 42.3141 34.7068 42.6937 33.9266 43.0102C32.9988 43.3898 32.0289 43.6852 31.0379 43.8961C29.7938 44.1281 28.5287 44.2125 27.2847 44.1914C25.0285 44.1492 22.7724 43.8117 20.6216 43.1789C18.7239 42.6094 16.9106 41.8289 15.2027 40.8375C13.7056 39.9727 12.3139 38.9812 11.0066 37.8633C9.93128 36.9352 8.94026 35.9437 8.0125 34.8891C7.37993 34.1508 6.76845 33.3703 6.19914 32.5687C5.9672 32.2523 5.75635 31.9148 5.56658 31.5773L0 25.5656V11.9602C0 5.35781 5.33463 0 11.9344 0H22.5826L30.4686 8.01562C48.2647 20.1234 42.5084 33.4758 42.5084 33.4758C42.5084 33.4758 47.5689 39.1711 45.5447 44.1703Z" fill="url(#paint1_linear)"/>
<path d="M30.5107 8.01562C48.3069 20.1234 42.5506 33.4758 42.5506 33.4758C42.5506 33.4758 47.6111 39.1922 45.5658 44.1914C45.5658 44.1914 43.4783 40.6898 39.9781 40.6898C36.6045 40.6898 34.6224 44.1914 27.8329 44.1914C12.7146 44.1914 5.56659 31.5563 5.56659 31.5563C19.1878 40.5211 28.4865 34.1719 28.4865 34.1719C22.3507 30.607 9.29872 13.5633 9.29872 13.5633C20.6638 23.2453 25.5767 25.7977 25.5767 25.7977C22.6459 23.3719 14.4225 11.5172 14.4225 11.5172C21.0012 18.1828 34.0742 27.4852 34.0742 27.4852C37.7853 17.1914 30.5107 8.01562 30.5107 8.01562Z" fill="white"/>
<defs>
<linearGradient id="paint0_linear" x1="32.1114" y1="-1.92691" x2="21.9052" y2="55.9321" gradientUnits="userSpaceOnUse">
<stop stop-color="#FAAE42"/>
<stop offset="1" stop-color="#EF3E31"/>
</linearGradient>
<linearGradient id="paint1_linear" x1="27.5402" y1="0.872438" x2="20.0705" y2="43.2186" gradientUnits="userSpaceOnUse">
<stop stop-color="#E39F3A"/>
<stop offset="1" stop-color="#D33929"/>
</linearGradient>
</defs>
</svg>
