<svg width="48" height="64" viewBox="0 0 48 64" fill="none" xmlns="http://www.w3.org/2000/svg">
<path d="M15.2017 49.4948C15.2017 49.4948 12.7561 50.917 16.9423 51.3983C22.0138 51.9768 24.6056 51.8939 30.1945 50.836C30.1945 50.836 31.664 51.7574 33.7158 52.5555C21.1874 57.925 5.36102 52.2443 15.2017 49.4948ZM13.6707 42.4878C13.6707 42.4878 10.9277 44.5183 15.117 44.9516C20.5345 45.5105 24.8128 45.5562 32.216 44.1307C32.216 44.1307 33.24 45.1688 34.8501 45.7365C19.7022 50.166 2.83016 46.0858 13.6707 42.4878Z" fill="#5382A1"/>
<path d="M26.5771 30.6016C29.6642 34.1557 25.766 37.354 25.766 37.354C25.766 37.354 33.6045 33.3076 30.0046 28.2403C26.6425 23.5151 24.064 21.1669 38.0223 13.0718C38.0223 13.0718 16.1125 18.5438 26.5771 30.6014" fill="#E76F00"/>
<path d="M43.1472 54.6774C43.1472 54.6774 44.9571 56.1685 41.1539 57.3222C33.9223 59.5131 11.0548 60.1746 4.70228 57.4095C2.41879 56.4163 6.70114 55.0376 8.0481 54.7482C9.45288 54.4436 10.2558 54.5004 10.2558 54.5004C7.71623 52.7113 -6.15887 58.0132 3.208 59.5314C28.7525 63.674 49.7731 57.6662 43.1472 54.6774ZM16.3776 35.2277C16.3776 35.2277 4.74601 37.9905 12.2587 38.9936C15.4307 39.4183 21.7542 39.3223 27.6444 38.8287C32.4582 38.4228 37.2918 37.5593 37.2918 37.5593C37.2918 37.5593 35.5945 38.2863 34.3665 39.1248C22.5545 42.2314 -0.264019 40.7862 6.30515 37.6084C11.8607 34.923 16.3778 35.2277 16.3778 35.2277H16.3776ZM37.2438 46.891C49.2514 40.6515 43.6996 34.6555 39.8245 35.4634C38.8747 35.6609 38.4513 35.8321 38.4513 35.8321C38.4513 35.8321 38.8039 35.2799 39.4773 35.0409C47.1433 32.3457 53.039 42.9898 37.0026 47.2055C37.0026 47.2056 37.1884 47.0396 37.2438 46.891Z" fill="#5382A1"/>
<path d="M30.0046 0.0001853C30.0046 0.0001853 36.6546 6.65255 23.6975 16.8814C13.3074 25.087 21.3282 29.7655 23.6932 35.111C17.6283 29.639 13.1773 24.8218 16.1634 20.3386C20.546 13.7572 32.6876 10.5665 30.0046 0" fill="#E76F00"/>
<path d="M17.5577 63.799C29.0833 64.5369 46.7821 63.3897 47.2013 57.936C47.2013 57.936 46.3956 60.0036 37.676 61.6454C27.8386 63.4966 15.7057 63.2805 8.50952 62.094C8.50971 62.094 9.98268 63.3133 17.5578 63.799" fill="#5382A1"/>
</svg>
