<svg width="63" height="64" viewBox="0 0 63 64" fill="none" xmlns="http://www.w3.org/2000/svg">
<path d="M61.9126 38.3374C61.5395 37.2074 60.5621 36.4203 59.2981 36.2314C58.7021 36.1425 58.0196 36.1804 57.2118 36.3469C55.804 36.6374 54.7595 36.748 53.9972 36.7693C56.8745 31.9116 59.214 26.372 60.5609 21.1574C62.7388 12.7256 61.5749 8.88434 60.215 7.14688C56.6158 2.54799 51.3648 0.077425 45.0299 0.00183024C41.6505 -0.0394917 38.6838 0.627736 37.1362 1.10756C35.6953 0.853305 34.1459 0.711352 32.5203 0.6851C29.4729 0.636486 26.7804 1.3008 24.4798 2.66612C23.2061 2.2354 21.1619 1.62821 18.8012 1.24076C13.249 0.329246 8.77404 1.0395 5.50086 3.35182C1.53736 6.1515 -0.30001 11.0158 0.0398024 17.8096C0.147726 19.9666 1.35433 26.5295 3.25416 32.7536C4.34603 36.3311 5.51034 39.3019 6.71475 41.5843C8.4228 44.8208 10.2504 46.7267 12.3022 47.4112C13.4522 47.7943 15.5416 48.0626 17.7392 46.2323C18.0178 46.5697 18.3894 46.9049 18.8826 47.2163C19.509 47.6112 20.2749 47.934 21.0398 48.1253C23.7965 48.8144 26.3786 48.6421 28.5816 47.6761C28.5952 48.068 28.6056 48.4423 28.6144 48.7656C28.629 49.2899 28.6436 49.804 28.6628 50.2848C28.7933 53.5356 29.0145 56.0633 29.6698 57.8319C29.7058 57.9291 29.7542 58.0774 29.8052 58.2346C30.1321 59.2356 30.6788 60.9113 32.0696 62.2236C33.5098 63.5831 35.2519 64 36.8474 64C37.6476 64 38.4111 63.895 39.0807 63.7516C41.4677 63.2399 44.1787 62.4606 46.1397 59.6682C47.9939 57.0285 48.8952 53.0526 49.0583 46.788C49.0794 46.6108 49.0989 46.4416 49.1176 46.2804L49.1565 45.9494L49.5933 45.9878L49.7058 45.9953C52.137 46.1062 55.1098 45.5906 56.9355 44.7425C58.3781 44.0731 63.001 41.6324 61.9126 38.3374Z" fill="black"/>
<path d="M57.7556 38.9782C50.5267 40.4694 50.0296 38.022 50.0296 38.022C57.662 26.6966 60.8528 12.3207 58.0995 8.80226C50.5877 -0.795363 37.5846 3.74373 37.3676 3.86137L37.2978 3.87401C35.8695 3.57747 34.2713 3.401 32.4748 3.37159C29.2041 3.31811 26.7228 4.22914 24.84 5.65693C24.84 5.65693 1.6438 -3.89913 2.72279 17.6753C2.95225 22.2649 9.30124 52.4034 16.8738 43.3002C19.6417 39.9714 22.3162 37.1569 22.3162 37.1569C23.6443 38.0392 25.2345 38.4894 26.9015 38.3277L27.031 38.2179C26.9907 38.6311 27.0091 39.0353 27.0828 39.5139C25.1319 41.6935 25.7053 42.0761 21.8055 42.879C17.8592 43.6923 20.1774 45.14 21.691 45.5187C23.5259 45.9774 27.7709 46.6274 30.6391 42.6121L30.5249 43.0703C31.2891 43.6826 31.8258 47.0525 31.7359 50.1076C31.6459 53.1626 31.5859 55.26 32.188 56.8983C32.7906 58.5366 33.3907 62.2227 38.5175 61.1243C42.8012 60.2062 45.0211 57.8273 45.3301 53.8589C45.5491 51.0379 46.0452 51.455 46.0763 48.9326L46.4742 47.7387C46.9329 43.9145 46.5471 42.6806 49.1861 43.2545L49.8278 43.3109C51.77 43.3992 54.3125 42.9983 55.8047 42.3049C59.0176 40.8139 60.9233 38.3241 57.7551 38.9782H57.7556Z" fill="#336791"/>
<path d="M26.1978 19.7276C25.5463 19.6369 24.9564 19.7207 24.6579 19.9468C24.4902 20.0739 24.4382 20.2212 24.4241 20.3226C24.3867 20.5912 24.5748 20.8882 24.6905 21.0413C25.0177 21.475 25.4955 21.773 25.9686 21.8386C26.0371 21.8483 26.1054 21.8527 26.1732 21.8527C26.962 21.8527 27.6793 21.2385 27.7425 20.7852C27.8215 20.2173 26.9972 19.8389 26.1978 19.7278V19.7276ZM47.7785 19.7455C47.7163 19.3005 46.9244 19.1736 46.1728 19.2781C45.4222 19.3826 44.6944 19.7215 44.7552 20.1675C44.8038 20.5144 45.4302 21.1065 46.1716 21.1065C46.2343 21.1065 46.2975 21.1024 46.3612 21.0934C46.8561 21.0248 47.2192 20.7105 47.3918 20.5294C47.6543 20.2533 47.8065 19.9456 47.7785 19.7455Z" fill="white"/>
<path d="M60.161 38.8087C59.8854 37.9752 58.9981 37.7071 57.5242 38.0114C53.1477 38.9147 51.5804 38.289 51.0658 37.9101C54.4676 32.7278 57.266 26.4634 58.7757 20.6188C59.4908 17.8502 59.8858 15.279 59.9182 13.1833C59.9539 10.8831 59.5621 9.19281 58.7541 8.16025C55.4965 3.99767 50.7153 1.76483 44.9278 1.70358C40.949 1.65885 37.5873 2.67707 36.9356 2.96341C35.5633 2.62214 34.0672 2.41261 32.4384 2.38587C29.4515 2.3375 26.8696 3.05262 24.7321 4.51031C23.8035 4.16466 21.4039 3.3409 18.4694 2.86813C13.396 2.05141 9.36444 2.67027 6.48747 4.70841C3.05459 7.14057 1.46977 11.4881 1.77677 17.63C1.88007 19.6964 3.0575 26.0531 4.91553 32.1408C7.3613 40.1534 10.02 44.6893 12.8173 45.6225C13.1447 45.7316 13.5222 45.8079 13.9385 45.8079C14.9589 45.8079 16.21 45.348 17.5117 43.7831C19.0993 41.8786 20.7416 40.0203 22.4365 38.2105C23.5362 38.8007 24.7442 39.1303 25.9797 39.1633C25.9822 39.1957 25.9853 39.228 25.9883 39.2601C25.7756 39.5137 25.5673 39.771 25.3636 40.0318C24.5075 41.1186 24.3293 41.3449 21.5736 41.9122C20.7897 42.0741 18.7078 42.5031 18.6772 43.9625C18.6441 45.5571 21.1383 46.2267 21.4224 46.2977C22.4127 46.5456 23.3667 46.6679 24.2766 46.6679C26.4892 46.6679 28.4365 45.9406 29.9926 44.5335C29.9447 50.2179 30.1817 55.8192 30.8642 57.5258C31.4233 58.923 32.7889 62.3374 37.1024 62.3372C37.7353 62.3372 38.432 62.2635 39.1984 62.0992C43.7003 61.1342 45.6553 59.1444 46.4115 54.7578C46.8162 52.4133 47.5107 46.8152 47.8373 43.8123C48.5267 44.0274 49.4141 44.1259 50.3735 44.1256C52.3745 44.1256 54.6834 43.7005 56.1314 43.0284C57.758 42.2729 60.6933 40.4193 60.161 38.8087ZM49.4401 18.5172C49.4253 19.4037 49.3033 20.2085 49.174 21.0486C49.0347 21.952 48.8908 22.8862 48.8546 24.0201C48.8189 25.1236 48.9567 26.2709 49.0899 27.3805C49.3592 29.6216 49.6356 31.9289 48.5658 34.2055C48.3881 33.8906 48.2298 33.5652 48.0918 33.231C47.9589 32.9087 47.6701 32.3909 47.2703 31.6744C45.7148 28.8849 42.0724 22.3526 43.937 19.6871C44.4925 18.8937 45.902 18.078 49.4401 18.5172ZM45.1514 3.49865C50.3371 3.61314 54.4391 5.55308 57.3433 9.26427C59.5708 12.1109 57.118 25.0633 50.0172 36.2375C49.9458 36.1467 49.874 36.0562 49.8018 35.966L49.7119 35.8537C51.5468 32.8234 51.1881 29.8251 50.8687 27.1669C50.7374 26.076 50.6134 25.0456 50.645 24.0777C50.6776 23.0519 50.8132 22.172 50.9445 21.3213C51.1057 20.2729 51.2697 19.1881 51.2245 17.9093C51.2583 17.7751 51.2719 17.6166 51.2542 17.4285C51.1387 16.2022 49.7386 12.5321 46.885 9.21031C45.324 7.39336 43.0476 5.36008 39.9395 3.98868C41.2764 3.71158 43.1045 3.4532 45.1514 3.49865ZM16.1342 42.6378C14.7001 44.3621 13.7098 44.0316 13.3841 43.9231C11.2621 43.2153 8.79979 38.7302 6.62893 31.618C4.75049 25.4639 3.65278 19.2756 3.56576 17.5403C3.29158 12.0523 4.6219 8.22758 7.52003 6.17218C12.2366 2.82753 19.991 4.82946 23.1069 5.84476C23.0622 5.889 23.0155 5.93032 22.9713 5.97529C17.858 11.1391 17.9793 19.9615 17.992 20.5009C17.9915 20.709 18.009 21.0036 18.0328 21.4088C18.1208 22.8927 18.2846 25.6545 17.8471 28.7821C17.4407 31.6885 18.3366 34.5331 20.3048 36.5868C20.5068 36.7972 20.7191 36.9974 20.9409 37.1867C20.0649 38.125 18.1609 40.1998 16.1342 42.6378ZM21.5982 35.3474C20.0119 33.6921 19.2914 31.3897 19.6213 29.03C20.0831 25.7262 19.9127 22.8487 19.8211 21.3028C19.8082 21.0865 19.7968 20.8969 19.7902 20.7474C20.5372 20.085 23.9987 18.2304 26.4673 18.796C27.5937 19.0539 28.2802 19.821 28.5655 21.1404C30.0424 27.9714 28.761 30.8185 27.7313 33.1065C27.5191 33.5778 27.3186 34.0234 27.1475 34.4842L27.0147 34.8406C26.6788 35.7414 26.3662 36.579 26.1725 37.3744C24.4861 37.3695 22.8456 36.649 21.5982 35.3471V35.3474ZM21.857 44.5597C21.3646 44.4368 20.9217 44.2231 20.6619 44.0459C20.8789 43.9438 21.2652 43.8048 21.9351 43.6667C25.1769 42.9995 25.6776 42.5284 26.7709 41.1402C27.0215 40.8218 27.3057 40.4611 27.6992 40.0216L27.6997 40.0211C28.2857 39.3649 28.5539 39.4762 29.04 39.6779C29.434 39.8408 29.8178 40.3347 29.9734 40.8782C30.047 41.1349 30.1297 41.622 29.8591 42.0012C27.5753 45.199 24.2471 45.1579 21.857 44.5597ZM38.8231 60.3476C34.8572 61.1974 33.4529 59.1739 32.5276 56.8606C31.9303 55.3671 31.6367 48.6326 31.845 41.1954C31.8477 41.0965 31.8336 41.001 31.8064 40.911C31.782 40.7334 31.745 40.5578 31.6955 40.3855C31.3859 39.3034 30.6311 38.3982 29.7257 38.0229C29.366 37.8739 28.7058 37.6004 27.9124 37.8034C28.0816 37.1063 28.375 36.3189 28.6931 35.4665L28.8266 35.108C28.9768 34.7037 29.1654 34.2849 29.3647 33.8416C30.4423 31.4478 31.9179 28.169 30.3164 20.762C29.7165 17.9876 27.7131 16.6327 24.6762 16.9475C22.8556 17.1359 21.1898 17.8704 20.359 18.2917C20.1803 18.3821 20.017 18.4696 19.8643 18.5547C20.0962 15.7593 20.9723 10.5353 24.2493 7.23002C26.3127 5.14934 29.0607 4.12164 32.4087 4.17706C39.0056 4.28498 43.236 7.67046 45.6235 10.4918C47.6808 12.9227 48.7948 15.3717 49.2394 16.6925C45.8959 16.3524 43.622 17.0124 42.4694 18.6604C39.9616 22.2452 43.8413 29.2028 45.7059 32.5467C46.0479 33.1595 46.3429 33.6892 46.4358 33.9143C47.043 35.3858 47.8291 36.3683 48.403 37.0853C48.5789 37.3051 48.7496 37.5183 48.8794 37.7044C47.8668 37.9964 46.0479 38.6709 46.2136 42.0425C46.0799 43.7343 45.1293 51.655 44.6463 54.4534C44.0087 58.1505 42.6483 59.5275 38.8231 60.3479V60.3476ZM55.3771 41.4037C54.3417 41.8843 52.6088 42.2448 50.9627 42.3223C49.1446 42.4074 48.219 42.1186 48.0012 41.9409C47.8991 39.8398 48.681 39.6203 49.5087 39.388C49.6387 39.3515 49.7656 39.3158 49.8881 39.273C49.9642 39.335 50.0476 39.3965 50.139 39.4567C51.6003 40.4212 54.2067 40.5253 57.8866 39.7657L57.9269 39.7577C57.4306 40.2217 56.5813 40.8444 55.3771 41.4037Z" fill="white"/>
</svg>
