<svg width="54" height="54" viewBox="0 0 54 54" fill="none" xmlns="http://www.w3.org/2000/svg">
<rect width="54" height="54" fill="#2196F3"/>
<path d="M6.11133 32.6875V24.1562H8.32031C8.88672 24.1562 9.39844 24.2539 9.85547 24.4492C10.3164 24.6406 10.709 24.9102 11.0332 25.2578C11.3613 25.6016 11.6133 26.0137 11.7891 26.4941C11.9688 26.9746 12.0586 27.502 12.0586 28.0762V28.7793C12.0586 29.3535 11.9688 29.8809 11.7891 30.3613C11.6133 30.8379 11.3652 31.25 11.0449 31.5977C10.7246 31.9414 10.3398 32.209 9.89062 32.4004C9.44141 32.5918 8.94531 32.6875 8.40234 32.6875H6.11133ZM7.76953 25.4922V31.3633H8.40234C8.71094 31.3633 8.98633 31.3047 9.22852 31.1875C9.47461 31.0703 9.68164 30.9004 9.84961 30.6777C10.0215 30.4551 10.1523 30.1855 10.2422 29.8691C10.332 29.5488 10.377 29.1855 10.377 28.7793V28.0645C10.377 27.6816 10.332 27.334 10.2422 27.0215C10.1562 26.7051 10.0254 26.4336 9.84961 26.207C9.67773 25.9805 9.46289 25.8047 9.20508 25.6797C8.95117 25.5547 8.65625 25.4922 8.32031 25.4922H7.76953ZM17.373 32.6875C17.334 32.6094 17.3008 32.5195 17.2734 32.418C17.2461 32.3164 17.2227 32.209 17.2031 32.0957C17.1133 32.1934 17.0098 32.2852 16.8926 32.3711C16.7754 32.457 16.6445 32.5332 16.5 32.5996C16.3594 32.6621 16.2031 32.7109 16.0312 32.7461C15.8594 32.7852 15.6738 32.8047 15.4746 32.8047C15.1504 32.8047 14.8516 32.7578 14.5781 32.6641C14.3086 32.5703 14.0762 32.4395 13.8809 32.2715C13.6855 32.1035 13.5332 31.9043 13.4238 31.6738C13.3145 31.4395 13.2598 31.1855 13.2598 30.9121C13.2598 30.2441 13.5078 29.7285 14.0039 29.3652C14.5039 28.998 15.248 28.8145 16.2363 28.8145H17.1445V28.4395C17.1445 28.1348 17.0449 27.8945 16.8457 27.7188C16.6465 27.5391 16.3594 27.4492 15.9844 27.4492C15.6523 27.4492 15.4102 27.5215 15.2578 27.666C15.1055 27.8066 15.0293 27.9961 15.0293 28.2344H13.4004C13.4004 27.9648 13.459 27.709 13.5762 27.4668C13.6973 27.2246 13.8711 27.0117 14.0977 26.8281C14.3281 26.6445 14.6074 26.5 14.9355 26.3945C15.2676 26.2852 15.6465 26.2305 16.0723 26.2305C16.4551 26.2305 16.8105 26.2773 17.1387 26.3711C17.4707 26.4648 17.7578 26.6035 18 26.7871C18.2422 26.9707 18.4316 27.2031 18.5684 27.4844C18.7051 27.7617 18.7734 28.084 18.7734 28.4512V31.1699C18.7734 31.5098 18.7949 31.791 18.8379 32.0137C18.8809 32.2363 18.9434 32.4277 19.0254 32.5879V32.6875H17.373ZM15.8203 31.5449C15.9844 31.5449 16.1367 31.5254 16.2773 31.4863C16.418 31.4473 16.5449 31.3965 16.6582 31.334C16.7715 31.2715 16.8691 31.2012 16.9512 31.123C17.0332 31.041 17.0977 30.959 17.1445 30.877V29.7871H16.3125C16.0586 29.7871 15.8418 29.8125 15.6621 29.8633C15.4824 29.9102 15.3359 29.9785 15.2227 30.0684C15.1094 30.1543 15.0254 30.2598 14.9707 30.3848C14.916 30.5059 14.8887 30.6387 14.8887 30.7832C14.8887 31.002 14.9648 31.1836 15.1172 31.3281C15.2734 31.4727 15.5078 31.5449 15.8203 31.5449ZM20.4551 29.4707C20.4551 28.9902 20.5137 28.5508 20.6309 28.1523C20.752 27.7539 20.9238 27.4121 21.1465 27.127C21.3691 26.8418 21.6387 26.6211 21.9551 26.4648C22.2715 26.3086 22.6289 26.2305 23.0273 26.2305C23.3984 26.2305 23.7168 26.293 23.9824 26.418C24.248 26.543 24.4746 26.7207 24.6621 26.9512L24.7266 26.3477H26.209V32.4824C26.209 32.9121 26.1348 33.2949 25.9863 33.6309C25.8418 33.9668 25.6367 34.25 25.3711 34.4805C25.1094 34.7109 24.793 34.8848 24.4219 35.002C24.0547 35.123 23.6484 35.1836 23.2031 35.1836C23.0117 35.1836 22.8066 35.1641 22.5879 35.125C22.3691 35.0859 22.1523 35.0254 21.9375 34.9434C21.7227 34.8613 21.5195 34.7559 21.3281 34.627C21.1367 34.502 20.9727 34.3516 20.8359 34.1758L21.5684 33.1855C21.7754 33.4199 22.0098 33.5977 22.2715 33.7188C22.5332 33.8438 22.8164 33.9062 23.1211 33.9062C23.5781 33.9062 23.9336 33.7832 24.1875 33.5371C24.4453 33.2949 24.5742 32.9492 24.5742 32.5V32.1367C24.3828 32.3477 24.1582 32.5117 23.9004 32.6289C23.6465 32.7461 23.3516 32.8047 23.0156 32.8047C22.6211 32.8047 22.2656 32.7246 21.9492 32.5645C21.6367 32.4004 21.3691 32.1758 21.1465 31.8906C20.9238 31.6055 20.752 31.2676 20.6309 30.877C20.5137 30.4824 20.4551 30.0547 20.4551 29.5938V29.4707ZM22.0898 29.5938C22.0898 29.8594 22.1152 30.1074 22.166 30.3379C22.2207 30.5645 22.3027 30.7637 22.4121 30.9355C22.5215 31.1035 22.6602 31.2363 22.8281 31.334C22.9961 31.4316 23.1953 31.4805 23.4258 31.4805C23.7109 31.4805 23.9453 31.4258 24.1289 31.3164C24.3164 31.207 24.4648 31.0547 24.5742 30.8594V28.1758C24.4648 27.9766 24.3164 27.8242 24.1289 27.7188C23.9453 27.6094 23.7148 27.5547 23.4375 27.5547C23.207 27.5547 23.0078 27.6055 22.8398 27.707C22.6719 27.8047 22.5312 27.9414 22.418 28.1172C22.3086 28.2891 22.2266 28.4922 22.1719 28.7266C22.1172 28.957 22.0898 29.2051 22.0898 29.4707V29.5938ZM27.6621 29.4707C27.6621 28.9902 27.7207 28.5508 27.8379 28.1523C27.959 27.7539 28.1309 27.4121 28.3535 27.127C28.5762 26.8418 28.8457 26.6211 29.1621 26.4648C29.4785 26.3086 29.8359 26.2305 30.2344 26.2305C30.6055 26.2305 30.9238 26.293 31.1895 26.418C31.4551 26.543 31.6816 26.7207 31.8691 26.9512L31.9336 26.3477H33.416V32.4824C33.416 32.9121 33.3418 33.2949 33.1934 33.6309C33.0488 33.9668 32.8438 34.25 32.5781 34.4805C32.3164 34.7109 32 34.8848 31.6289 35.002C31.2617 35.123 30.8555 35.1836 30.4102 35.1836C30.2188 35.1836 30.0137 35.1641 29.7949 35.125C29.5762 35.0859 29.3594 35.0254 29.1445 34.9434C28.9297 34.8613 28.7266 34.7559 28.5352 34.627C28.3438 34.502 28.1797 34.3516 28.043 34.1758L28.7754 33.1855C28.9824 33.4199 29.2168 33.5977 29.4785 33.7188C29.7402 33.8438 30.0234 33.9062 30.3281 33.9062C30.7852 33.9062 31.1406 33.7832 31.3945 33.5371C31.6523 33.2949 31.7812 32.9492 31.7812 32.5V32.1367C31.5898 32.3477 31.3652 32.5117 31.1074 32.6289C30.8535 32.7461 30.5586 32.8047 30.2227 32.8047C29.8281 32.8047 29.4727 32.7246 29.1562 32.5645C28.8438 32.4004 28.5762 32.1758 28.3535 31.8906C28.1309 31.6055 27.959 31.2676 27.8379 30.877C27.7207 30.4824 27.6621 30.0547 27.6621 29.5938V29.4707ZM29.2969 29.5938C29.2969 29.8594 29.3223 30.1074 29.373 30.3379C29.4277 30.5645 29.5098 30.7637 29.6191 30.9355C29.7285 31.1035 29.8672 31.2363 30.0352 31.334C30.2031 31.4316 30.4023 31.4805 30.6328 31.4805C30.918 31.4805 31.1523 31.4258 31.3359 31.3164C31.5234 31.207 31.6719 31.0547 31.7812 30.8594V28.1758C31.6719 27.9766 31.5234 27.8242 31.3359 27.7188C31.1523 27.6094 30.9219 27.5547 30.6445 27.5547C30.4141 27.5547 30.2148 27.6055 30.0469 27.707C29.8789 27.8047 29.7383 27.9414 29.625 28.1172C29.5156 28.2891 29.4336 28.4922 29.3789 28.7266C29.3242 28.957 29.2969 29.2051 29.2969 29.4707V29.5938ZM38.1094 32.8047C37.6211 32.8047 37.1777 32.7246 36.7793 32.5645C36.3809 32.4043 36.0391 32.1875 35.7539 31.9141C35.4688 31.6367 35.248 31.3125 35.0918 30.9414C34.9395 30.5664 34.8633 30.166 34.8633 29.7402V29.5059C34.8633 29.0215 34.9395 28.5801 35.0918 28.1816C35.2441 27.7793 35.457 27.4336 35.7305 27.1445C36.0039 26.8555 36.3281 26.6309 36.7031 26.4707C37.0781 26.3105 37.4863 26.2305 37.9277 26.2305C38.3848 26.2305 38.791 26.3066 39.1465 26.459C39.5059 26.6074 39.8086 26.8184 40.0547 27.0918C40.3047 27.3652 40.4941 27.6953 40.623 28.082C40.752 28.4648 40.8164 28.8887 40.8164 29.3535V30.0449H36.5156C36.5469 30.2598 36.6094 30.457 36.7031 30.6367C36.8008 30.8125 36.9238 30.9648 37.0723 31.0938C37.2207 31.2227 37.3906 31.3223 37.582 31.3926C37.7734 31.4629 37.9824 31.498 38.209 31.498C38.3691 31.498 38.5273 31.4824 38.6836 31.4512C38.8438 31.4199 38.9961 31.375 39.1406 31.3164C39.2852 31.2539 39.4199 31.1777 39.5449 31.0879C39.6699 30.998 39.7793 30.8926 39.873 30.7715L40.6875 31.6504C40.5859 31.7949 40.4531 31.9375 40.2891 32.0781C40.1289 32.2148 39.9375 32.3379 39.7148 32.4473C39.4961 32.5527 39.252 32.6387 38.9824 32.7051C38.7129 32.7715 38.4219 32.8047 38.1094 32.8047ZM37.916 27.5488C37.7324 27.5488 37.5645 27.582 37.4121 27.6484C37.2598 27.7109 37.125 27.8027 37.0078 27.9238C36.8945 28.0449 36.7988 28.1895 36.7207 28.3574C36.6426 28.5254 36.584 28.7129 36.5449 28.9199H39.2168V28.791C39.209 28.6191 39.1758 28.457 39.1172 28.3047C39.0586 28.1523 38.9746 28.0215 38.8652 27.9121C38.7559 27.7988 38.6211 27.7109 38.4609 27.6484C38.3047 27.582 38.123 27.5488 37.916 27.5488ZM46.793 26.2305C47.0391 26.2305 47.2656 26.248 47.4727 26.2832C47.6836 26.3145 47.8535 26.3496 47.9824 26.3887L47.7422 28.0117C47.5273 27.9609 47.3066 27.9238 47.0801 27.9004C46.8574 27.873 46.6445 27.8594 46.4414 27.8594C45.9844 27.8594 45.6172 27.9473 45.3398 28.123C45.0664 28.2988 44.8613 28.5508 44.7246 28.8789V32.6875H43.0957V26.3477H44.6133L44.6895 27.3848C44.9473 27.0254 45.2559 26.7441 45.6152 26.541C45.9746 26.334 46.3672 26.2305 46.793 26.2305Z" fill="white"/>
</svg>
