<svg width="46" height="64" viewBox="0 0 46 64" fill="none" xmlns="http://www.w3.org/2000/svg">
<path d="M45.3418 12.5776L41.2111 58.8525L22.6432 64.0001L4.12646 58.8596L0 12.5776H45.3418Z" fill="#E44D26"/>
<path d="M22.6709 60.0654L37.6747 55.9059L41.2045 16.3618H22.6709V60.0654Z" fill="#F16529"/>
<path d="M14.6409 27.7144H22.6709V22.0381H8.43741L8.5732 23.5609L9.96841 39.2033H22.6709V33.527H15.1597L14.6409 27.7144ZM15.9202 42.0416H10.222L11.0172 50.9542L22.6448 54.1819L22.6709 54.1748V48.269L22.646 48.2756L16.3244 46.5686L15.9202 42.0416Z" fill="#EBEBEB"/>
<path d="M4.21854 0H7.10316V2.84997H9.74199V0H12.6268V8.63042H9.74216V5.74046H7.10334V8.63042H4.21871V0H4.21854ZM16.42 2.86206H13.8809V0H21.8459V2.86206H19.3052V8.63042H16.4205V2.86206H16.4204H16.42ZM23.1099 0H26.1177L27.9679 3.0325L29.8164 0H32.8254V8.63042H29.9525V4.35271L27.9679 7.4213H27.9182L25.9323 4.35271V8.63042H23.1099V0ZM34.261 0H37.1465V5.77779H41.2031V8.63042H34.2608V0H34.261Z" fill="black"/>
<path d="M22.6514 39.2033H29.6411L28.9821 46.5651L22.6512 48.2738V54.1792L34.288 50.9542L34.3733 49.9952L35.7074 35.0513L35.8458 33.527H22.6514V39.2033ZM22.6514 27.7005V27.7144H36.3623L36.4761 26.4386L36.7348 23.5609L36.8705 22.0381H22.6514V27.7007V27.7005Z" fill="white"/>
</svg>
