<svg width="62" height="64" viewBox="0 0 62 64" fill="none" xmlns="http://www.w3.org/2000/svg">
<path fill-rule="evenodd" clip-rule="evenodd" d="M43.2462 47.9183C44.281 47.1936 46.6448 48.7838 48.5258 51.4701C50.4068 54.1564 51.0926 56.9215 50.0577 57.6462C49.0228 58.3709 46.659 56.7806 44.7781 54.0944C42.8971 51.408 42.2112 48.6429 43.2462 47.9183ZM18.4891 47.9183C17.4543 47.1936 15.0905 48.7838 13.2095 51.4701C11.3286 54.1564 10.6427 56.9215 11.6777 57.6462C12.7125 58.3709 15.0763 56.7806 16.9573 54.0944C18.8382 51.408 19.5242 48.6429 18.4891 47.9183ZM30.8551 52.1243C29.5918 52.1243 28.5676 54.7827 28.5676 58.0621C28.5676 61.3415 29.5918 63.9999 30.8551 63.9999C32.1186 63.9999 33.1427 61.3415 33.1427 58.0621C33.1427 54.7827 32.1186 52.1243 30.8551 52.1243Z" fill="#277A9F"/>
<path fill-rule="evenodd" clip-rule="evenodd" d="M43.2462 16.0816C44.281 16.8063 46.6448 15.2161 48.5258 12.5298C50.4068 9.84349 51.0926 7.07838 50.0577 6.3537C49.0228 5.62907 46.659 7.2193 44.7781 9.90554C42.8971 12.5919 42.2112 15.357 43.2462 16.0816ZM18.4891 16.0816C17.4543 16.8063 15.0905 15.2161 13.2095 12.5298C11.3286 9.84349 10.6427 7.07838 11.6777 6.3537C12.7125 5.62907 15.0763 7.2193 16.9573 9.90554C18.8382 12.5919 19.5242 15.357 18.4891 16.0816ZM30.8551 11.8756C29.5918 11.8756 28.5676 9.21721 28.5676 5.9378C28.5676 2.65839 29.5918 0 30.8551 0C32.1186 0 33.1427 2.65839 33.1427 5.9378C33.1427 9.21721 32.1186 11.8756 30.8551 11.8756Z" fill="#277A9F"/>
<path d="M48.5039 21.35C44.8148 15.2762 38.1297 11.2178 30.4951 11.2178C23.0694 11.2178 16.542 15.0572 12.7959 20.856M13.1967 44.1987C16.9971 49.6622 23.3277 53.2392 30.4952 53.2392C37.6757 53.2392 44.0163 49.6492 47.8143 44.1689" stroke="#277A9F" stroke-width="3.5"/>
<path fill-rule="evenodd" clip-rule="evenodd" d="M0 24.1772H4.40681V30.3775H9.37724V24.1772H13.7841V40.8308H9.37719V34.2205H4.40686V40.8308H0V24.1772ZM17.4735 24.1772H28.2342V27.8666H21.8802V30.48H27.3118V34.1693H21.8802V37.1414H28.4904V40.8307H17.4735V24.1773V24.1772ZM31.7187 24.1772H36.1254V37.1414H42.4281V40.8307H31.7187V24.1773V24.1772ZM45.2977 24.1772H49.8582L52.4716 31.0949L53.3939 33.8107H53.4963L54.4186 31.0949L56.9295 24.1773H61.49V40.8308H57.3906V35.9116C57.3906 35.4846 57.412 35.0149 57.4547 34.5024C57.4974 33.9901 57.5444 33.4648 57.5956 32.9268C57.6469 32.3887 57.7066 31.8635 57.775 31.3511C57.8433 30.8387 57.903 30.3775 57.9543 29.9676H57.8518L56.4683 33.862L54.1624 39.4729H52.5227L50.2168 33.8619L48.8845 29.9675H48.782C48.8333 30.3775 48.893 30.8386 48.9614 31.3511C49.0297 31.8635 49.0895 32.3886 49.1407 32.9268C49.192 33.4648 49.2389 33.99 49.2817 34.5024C49.3243 35.0148 49.3457 35.4846 49.3457 35.9116V40.8307H45.2976V24.1773L45.2977 24.1772Z" fill="#277A9F"/>
</svg>
