<svg width="64" height="48" viewBox="0 0 64 48" fill="none" xmlns="http://www.w3.org/2000/svg">
<path d="M55.0943 27.5473C52.8566 27.56 50.9189 28.0974 49.2938 28.8976C48.6937 27.71 48.0937 26.6723 47.9938 25.8973C47.8813 24.9972 47.7438 24.4471 47.8813 23.3721C48.0187 22.2969 48.6437 20.7717 48.6437 20.6467C48.6311 20.5342 48.5061 19.9842 47.2186 19.9717C45.9311 19.9592 44.8184 20.2217 44.6934 20.5592C44.5684 20.8967 44.3183 21.6718 44.1558 22.4719C43.9308 23.647 41.5806 27.8098 40.243 29.9975C39.8054 29.1475 39.4304 28.3974 39.3553 27.7972C39.2429 26.8973 39.1052 26.3471 39.2429 25.2721C39.3804 24.1969 40.0055 22.6719 40.0055 22.5469C39.993 22.4344 39.8679 21.8843 38.5805 21.8718C37.2927 21.8593 36.1802 22.1219 36.0552 22.4594C35.9302 22.7969 35.7927 23.597 35.5177 24.372C35.255 25.1471 32.1298 32.0977 31.3172 33.9104C30.9047 34.8355 30.5423 35.573 30.2796 36.0731C30.0171 36.5731 30.2671 36.1106 30.2421 36.1606C30.0171 36.5856 29.8921 36.8231 29.8921 36.8231V36.8358C29.7171 37.1483 29.5295 37.4482 29.4419 37.4482C29.3794 37.4482 29.2544 36.6106 29.4669 35.4606C29.9294 33.0478 31.0545 29.2851 31.0422 29.1476C31.0422 29.0851 31.2546 28.4224 30.317 28.085C29.4044 27.7475 29.0795 28.31 29.0044 28.31C28.9294 28.31 28.8669 28.51 28.8669 28.51C28.8669 28.51 29.8794 24.2723 26.9292 24.2723C25.079 24.2723 22.5288 26.285 21.2662 28.1226C20.4661 28.5602 18.766 29.4851 16.9658 30.4728C16.2783 30.8479 15.5657 31.2479 14.8906 31.6104L14.7532 31.4602C11.1779 27.6473 4.56486 24.9471 4.83988 19.8217C4.93989 17.959 5.58995 13.0461 17.5411 7.09554C27.3295 2.22012 35.1677 3.55773 36.5302 6.53299C38.4678 10.7834 32.3423 18.6841 22.1665 19.8217C18.2912 20.2592 16.2534 18.7591 15.741 18.1965C15.2034 17.609 15.1284 17.584 14.9284 17.6965C14.6034 17.8715 14.8034 18.3965 14.9284 18.7091C15.2284 19.4966 16.4785 20.8967 18.6037 21.5968C20.4662 22.2094 25.0168 22.5469 30.5173 20.4217C36.6803 18.034 41.4932 11.4084 40.0806 5.87044C38.643 0.232445 29.2921 -1.61772 20.4539 1.52006C15.1908 3.39522 9.49029 6.32048 5.38993 10.1583C0.514503 14.7087 -0.260565 18.6841 0.0644637 20.3342C1.20219 26.2222 9.31527 30.06 12.5656 32.8978C12.403 32.9852 12.253 33.0727 12.1155 33.1478C10.4904 33.9478 4.30233 37.1857 2.7522 40.6108C1.00205 44.4862 3.02722 47.274 4.37734 47.6491C8.55271 48.8117 12.8281 46.724 15.1408 43.2862C17.4409 39.8484 17.166 35.3855 16.1034 33.3478L16.0657 33.2728L17.3408 32.5228C18.166 32.0352 18.9786 31.5852 19.6911 31.1975C19.2911 32.2851 19.0035 33.5727 18.8536 35.4479C18.6786 37.6482 19.5787 40.4983 20.7663 41.6234C21.2913 42.1109 21.9164 42.1235 22.3039 42.1235C23.679 42.1235 24.3041 40.9858 24.9916 39.6233C25.8417 37.9606 26.5918 36.0354 26.5918 36.0354C26.5918 36.0354 25.6542 41.2484 28.2169 41.2484C29.1545 41.2484 30.0921 40.0358 30.5171 39.4107V39.4232C30.5171 39.4232 30.5421 39.3857 30.5921 39.2982C30.6446 39.2207 30.6946 39.1415 30.7421 39.0608V39.0358C31.1172 38.3858 31.9548 36.8981 33.2049 34.4354C34.8174 31.2602 36.3676 27.2848 36.3676 27.2848C36.3676 27.2848 36.5177 28.2599 36.9802 29.86C37.2551 30.8102 37.8551 31.8477 38.3177 32.8603C37.9426 33.3853 37.7176 33.6855 37.7176 33.6855L37.7301 33.698C37.4302 34.098 37.0926 34.5232 36.7427 34.9481C35.4676 36.4732 33.9424 38.211 33.7424 38.7111C33.5049 39.2985 33.5549 39.736 34.0174 40.0862C34.355 40.3362 34.955 40.3861 35.5926 40.3362C36.7427 40.2611 37.5427 39.9737 37.9428 39.7985C38.5678 39.5735 39.2804 39.236 39.9679 38.7359C41.2181 37.811 41.9806 36.4984 41.9056 34.7482C41.8681 33.7856 41.5556 32.8355 41.1681 31.9355C41.2806 31.7729 41.3932 31.6103 41.5056 31.4354C43.4808 28.5475 45.0059 25.3724 45.0059 25.3724C45.0059 25.3724 45.1559 26.3475 45.6184 27.9476C45.8558 28.7602 46.331 29.6479 46.756 30.523C44.9059 32.0356 43.7433 33.7857 43.3432 34.9358C42.6057 37.061 43.1807 38.0236 44.2683 38.2486C44.7557 38.3486 45.4559 38.1236 45.9809 37.8986C46.6309 37.6861 47.4185 37.3234 48.1437 36.786C49.3938 35.8609 50.5939 34.5733 50.5314 32.8357C50.4939 32.0356 50.2813 31.248 49.9938 30.498C51.569 29.8479 53.6065 29.4729 56.1944 29.7854C61.7574 30.4355 62.8575 33.9108 62.6451 35.3609C62.4325 36.8111 61.2699 37.6111 60.8823 37.8611C60.4947 38.0986 60.3697 38.1863 60.4072 38.3611C60.4572 38.6238 60.6323 38.6112 60.9698 38.5613C61.4323 38.4862 63.895 37.3737 63.995 34.6986C64.1451 31.2603 60.8823 27.5099 55.0943 27.5473ZM12.1905 42.0111C10.3529 44.0238 7.76514 44.7863 6.66504 44.1363C5.47744 43.4487 5.93985 40.486 8.20267 38.3483C9.57779 37.0482 11.3655 35.8481 12.5406 35.1105C12.8031 34.948 13.2031 34.7106 13.6782 34.4229C13.7532 34.3731 13.8032 34.3479 13.8032 34.3479C13.8907 34.2979 13.9907 34.2354 14.0907 34.1729C14.9283 37.2232 14.1282 39.8984 12.1905 42.0111ZM25.6292 32.8728C24.9916 34.4354 23.6415 38.4483 22.829 38.2233C22.1288 38.0357 21.7039 34.998 22.6913 31.9977C23.1914 30.485 24.254 28.6849 24.879 27.9847C25.8917 26.8596 26.9917 26.4846 27.2668 26.9471C27.5919 27.5473 26.0292 31.8977 25.6292 32.8728ZM36.7177 38.1733C36.4426 38.3109 36.1926 38.4108 36.0801 38.3359C35.9926 38.2859 36.1925 38.0984 36.1925 38.0984C36.1925 38.0984 37.5801 36.6107 38.1302 35.9232C38.4427 35.5233 38.8177 35.0607 39.2178 34.5356V34.6856C39.2179 36.4856 37.4927 37.6857 36.7177 38.1733ZM45.2683 36.2231C45.0683 36.0731 45.0934 35.6105 45.7683 34.1604C46.031 33.5854 46.6309 32.6228 47.6685 31.7102C47.7935 32.0852 47.8686 32.4476 47.856 32.7853C47.8436 35.0355 46.2435 35.8731 45.2683 36.2231Z" fill="#CF649A"/>
</svg>
