<svg width="64" height="55" viewBox="0 0 64 55" fill="none" xmlns="http://www.w3.org/2000/svg">
<path d="M61.4925 42.0897C58.077 43.8699 40.384 51.1447 36.6172 53.1084C32.8505 55.0724 30.758 55.0534 27.7822 53.6309C24.8067 52.2084 5.97825 44.6029 2.5865 42.9817C0.8915 42.1717 0 41.4877 0 40.8417V34.3727C0 34.3727 24.5125 29.0364 28.4697 27.6167C32.4268 26.1969 33.7998 26.1457 37.1673 27.3792C40.5353 28.6132 60.6717 32.2462 64 33.4652L63.9985 39.8427C63.999 40.4822 63.231 41.1837 61.4925 42.0897Z" fill="#912626"/>
<path d="M61.4913 35.6592C58.076 37.4387 40.3835 44.7137 36.6168 46.6772C32.8503 48.6414 30.7578 48.6222 27.7823 47.1997C24.8065 45.7782 5.97876 38.1714 2.58726 36.5512C-0.804245 34.9299 -0.875245 33.8142 2.45626 32.5097C5.78776 31.2047 24.5123 23.8584 28.47 22.4387C32.427 21.0194 33.7998 20.9677 37.1673 22.2017C40.535 23.4352 58.122 30.4354 61.4498 31.6542C64.7788 32.8744 64.9065 33.8792 61.4913 35.6592Z" fill="#C6302B"/>
<path d="M61.4925 31.6227C58.077 33.4032 40.384 40.6777 36.6172 42.6422C32.8505 44.6055 30.758 44.5865 27.7822 43.164C24.8065 41.7422 5.97825 34.136 2.5865 32.5147C0.8915 31.7047 0 31.0217 0 30.3755V23.9057C0 23.9057 24.5125 18.5697 28.4697 17.15C32.4268 15.7302 33.7998 15.6787 37.1673 16.9125C40.5355 18.1462 60.672 21.7785 64 22.9977L63.9985 29.376C63.999 30.0152 63.231 30.7167 61.4925 31.6227Z" fill="#912626"/>
<path d="M61.4913 25.1918C58.076 26.9718 40.3835 34.2463 36.6168 36.2105C32.8503 38.174 30.7578 38.1548 27.7823 36.7323C24.8065 35.3108 5.97876 27.7043 2.58726 26.0838C-0.804245 24.463 -0.875245 23.347 2.45626 22.042C5.78776 20.7378 24.5125 13.391 28.47 11.9715C32.427 10.552 33.7998 10.5005 37.1673 11.7343C40.535 12.9678 58.122 19.9675 61.4498 21.1868C64.7788 22.4068 64.9065 23.4118 61.4913 25.1918Z" fill="#C6302B"/>
<path d="M61.4925 20.7672C58.077 22.5472 40.384 29.8222 36.6172 31.7867C32.8505 33.7502 30.758 33.731 27.7822 32.3085C24.8065 30.8867 5.97825 23.2802 2.5865 21.6597C0.8915 20.849 0 20.1657 0 19.5202V13.0502C0 13.0502 24.5125 7.71448 28.4697 6.29498C32.4268 4.87498 33.7998 4.82398 37.1673 6.05748C40.5355 7.29123 60.672 10.9235 64 12.1427L63.9985 18.5207C63.999 19.1595 63.231 19.861 61.4925 20.7672Z" fill="#912626"/>
<path d="M61.4912 14.3365C58.076 16.1165 40.3835 23.3915 36.6167 25.355C32.8503 27.3185 30.7577 27.2992 27.7822 25.8775C24.8067 24.455 5.97875 16.849 2.5875 15.2282C-0.804248 13.6077 -0.874998 12.4915 2.45625 11.1867C5.78775 9.88225 24.5125 2.53649 28.47 1.11649C32.427 -0.303255 33.7998 -0.354255 37.1673 0.879495C40.535 2.11324 58.122 9.11299 61.4497 10.3322C64.7787 11.5512 64.9065 12.5565 61.4912 14.3365Z" fill="#C6302B"/>
<path d="M39.8208 8.04322L34.3183 8.61447L33.0865 11.5785L31.097 8.27097L24.7433 7.69997L29.4843 5.99022L28.0618 3.36572L32.5005 5.10172L36.685 3.73172L35.554 6.44547L39.8208 8.04322ZM32.758 22.4227L22.4888 18.1635L37.2038 15.9047L32.758 22.4227ZM18.5205 9.69072C22.8643 9.69072 26.3855 11.0557 26.3855 12.7392C26.3855 14.4232 22.8643 15.788 18.5205 15.788C14.1768 15.788 10.6555 14.423 10.6555 12.7392C10.6555 11.0557 14.1768 9.69072 18.5205 9.69072Z" fill="white"/>
<path d="M46.3237 8.85328L55.0327 12.2948L46.3312 15.733L46.3237 8.85303" fill="#621B1C"/>
<path d="M36.6887 12.6648L46.3237 8.85352L46.3312 15.7333L45.3865 16.1028L36.6887 12.6648Z" fill="#9A2928"/>
</svg>
