<svg width="64" height="64" viewBox="0 0 64 64" fill="none" xmlns="http://www.w3.org/2000/svg">
<path d="M62.7942 29.149L34.8506 1.20696C33.2424 -0.40232 30.6323 -0.40232 29.022 1.20696L23.2194 7.00957L30.5803 14.3705C32.2908 13.7924 34.2524 14.1802 35.6159 15.5437C36.9859 16.916 37.3709 18.8943 36.7789 20.6103L43.8728 27.7045C45.5891 27.1132 47.5694 27.4957 48.9402 28.8687C50.8559 30.7838 50.8559 33.8876 48.9402 35.8039C47.0239 37.7204 43.9201 37.7204 42.0028 35.8039C40.5617 34.3613 40.2057 32.245 40.9353 30.4698L34.3196 23.8541L34.3189 41.2637C34.7985 41.5008 35.2365 41.8141 35.6159 42.1912C37.5317 44.1063 37.5317 47.2103 35.6159 49.1281C33.6996 51.0436 30.5943 51.0436 28.6808 49.1281C26.765 47.2103 26.765 44.1065 28.6808 42.1915C29.1399 41.7321 29.6855 41.3684 30.2861 41.1212V23.5494C29.6846 23.3039 29.1387 22.9399 28.6808 22.4791C27.2293 21.0296 26.8802 18.8998 27.624 17.1175L20.3679 9.86062L1.20752 29.0197C-0.402507 30.6305 -0.402507 33.2408 1.20752 34.8503L29.1515 62.7929C30.7603 64.4024 33.3699 64.4024 34.9806 62.7929L62.7939 34.9801C64.4034 33.3701 64.4034 30.7583 62.7939 29.149" fill="#DE4C36"/>
</svg>
