<svg width="64" height="55" viewBox="0 0 64 55" fill="none" xmlns="http://www.w3.org/2000/svg">
<path fill-rule="evenodd" clip-rule="evenodd" d="M58.7165 41.2711C58.6168 41.2711 58.6168 41.4704 58.6168 41.4704C58.6168 42.0686 58.6168 43.4642 58.6168 44.4611C58.6168 44.4611 58.6168 44.5608 58.7165 44.5608C58.9159 44.5608 59.4143 44.5608 59.8131 44.5608C60.4112 44.5608 60.7103 44.4611 60.9097 44.3614C61.4081 44.162 61.6075 43.5639 61.6075 42.9658C61.6075 41.6698 60.7103 41.1714 59.3147 41.1714C59.215 41.2711 58.9159 41.2711 58.7165 41.2711ZM62.3053 47.4517C62.3053 46.0561 61.3084 45.3583 59.514 45.3583C59.4143 45.3583 58.8162 45.3583 58.7165 45.3583C58.7165 45.3583 58.6168 45.3583 58.6168 45.458C58.6168 46.4549 58.6168 47.9502 58.6168 48.5483C58.6168 48.8474 58.8162 49.1465 59.1153 49.2461C59.3147 49.3458 59.9128 49.4455 60.3115 49.4455C61.3084 49.4455 62.3053 48.8474 62.3053 47.4517ZM55.9253 40.5732C56.0249 40.5732 56.5234 40.5732 57.5203 40.5732C58.5172 40.5732 59.3147 40.5732 60.3115 40.5732C61.5078 40.5732 63.2025 40.972 63.2025 42.7664C63.2025 43.6636 62.6044 44.3614 61.8069 44.6605C61.8069 44.6605 61.8069 44.6605 61.8069 44.7602C63.0031 45.0592 64 45.757 64 47.1527C64 48.4486 63.2025 49.3458 62.0062 49.8443C61.3084 50.1433 60.4112 50.243 59.4143 50.243C58.7165 50.243 56.8224 50.1433 55.8256 50.1433C55.7259 50.1433 55.9253 49.6449 56.0249 49.5452C56.2243 49.5452 56.4237 49.5452 56.7228 49.4455C57.1215 49.3458 57.1215 49.2461 57.2212 48.648C57.2212 48.1496 57.2212 46.4549 57.2212 45.2586C57.2212 43.5639 57.2212 42.4673 57.2212 41.9689C57.2212 41.5701 57.0218 41.3707 56.7228 41.3707C56.5234 41.3707 56.1246 41.2711 55.8256 41.2711C55.6262 41.0717 55.8256 40.5732 55.9253 40.5732ZM48.0499 49.1465C48.3489 49.4455 49.0467 49.5452 49.6449 49.5452C50.3427 49.5452 51.1402 49.4455 51.838 48.7477C52.5358 48.0499 53.0343 47.053 53.0343 45.458C53.0343 43.863 52.4362 42.6667 51.2399 41.8692C50.5421 41.4704 49.6449 41.2711 48.648 41.2711C48.3489 41.2711 48.0499 41.2711 47.8505 41.3707L47.7508 41.5701C47.7508 41.8692 47.7508 43.9626 47.7508 45.1589C47.7508 46.4549 47.7508 48.2493 47.7508 48.4486C47.7508 48.648 47.8505 48.9471 48.0499 49.1465ZM44.8598 40.5732C45.1589 40.5732 46.1558 40.5732 46.5545 40.5732C47.4517 40.5732 48.0499 40.5732 49.6449 40.5732C51.0405 40.5732 52.1371 40.972 53.0343 41.6698C54.0312 42.567 54.5296 43.7633 54.5296 45.1589C54.5296 47.2524 53.5327 48.4486 52.6355 49.1465C51.6386 49.8443 50.4424 50.243 48.648 50.243C47.7508 50.243 46.1558 50.243 44.7601 50.243C44.6605 50.1433 44.8598 49.6449 44.9595 49.6449C45.3583 49.6449 45.458 49.5452 45.5576 49.5452C45.8567 49.4455 45.8567 49.2461 45.9564 48.7477C45.9564 47.7508 45.9564 46.6542 45.9564 45.3583C45.9564 44.4611 45.9564 42.6667 45.9564 42.0686C45.9564 41.5701 45.757 41.4704 45.2586 41.3707C45.0592 41.3707 44.7601 41.2711 44.3614 41.2711C44.5608 41.0717 44.8598 40.6729 44.8598 40.5732Z" fill="#8E714E"/>
<path fill-rule="evenodd" clip-rule="evenodd" d="M28.3115 49.6448C28.0125 49.6448 27.7134 49.5451 27.4143 49.4454L27.3146 49.246C27.3146 48.7476 27.3146 47.352 27.3146 46.4548C27.3146 45.757 27.215 45.0591 26.9159 44.6604C26.5171 44.1619 26.0187 43.8629 25.3209 43.8629C24.7227 43.8629 23.9252 44.2616 23.2274 44.8598C23.2274 44.8598 23.1277 44.9594 23.1277 44.8598C23.1277 44.6604 23.1277 44.3613 23.1277 44.1619C23.1277 43.9626 23.028 43.8629 23.028 43.8629C22.6293 44.0622 21.3333 44.3613 20.9346 44.461C20.6355 44.5607 20.5358 44.8598 20.8349 44.9594C21.2336 45.0591 21.433 45.1588 21.6324 45.3582C21.7321 45.4579 21.7321 45.6573 21.7321 45.757C21.7321 46.7538 21.7321 48.3489 21.7321 49.246C21.7321 49.5451 21.6324 49.7445 21.3333 49.7445C21.134 49.7445 21.0343 49.8442 20.7352 49.8442C20.6355 49.9439 20.6355 50.3426 20.7352 50.4423C20.9346 50.4423 21.7321 50.4423 22.3302 50.4423C23.2274 50.4423 23.7259 50.4423 23.9252 50.4423C24.0249 50.3426 24.0249 49.9439 24.0249 49.8442C23.7259 49.8442 23.5265 49.8442 23.4268 49.7445C23.2274 49.6448 23.1277 49.5451 23.1277 49.246C23.1277 48.5482 23.1277 46.9532 23.1277 45.9563C23.1277 45.6573 23.2274 45.5576 23.3271 45.4579C23.6262 45.1588 24.1246 44.9594 24.6231 44.9594C25.0218 44.9594 25.3209 45.0591 25.6199 45.2585C25.919 45.4579 26.0187 45.8566 26.0187 46.1557C26.1184 46.7538 26.0187 47.9501 26.0187 48.947C26.0187 49.5451 26.0187 49.6448 25.8193 49.7445C25.7196 49.7445 25.5203 49.8442 25.2212 49.8442C25.1215 49.9439 25.1215 50.3426 25.2212 50.4423C25.6199 50.4423 26.1184 50.4423 26.8162 50.4423C27.7134 50.4423 28.2118 50.4423 28.4112 50.4423C28.3115 50.1432 28.3115 49.7445 28.3115 49.6448ZM32.0997 44.3613C31.4019 44.3613 30.9034 44.9594 30.9034 45.757C30.9034 46.6541 31.3022 47.651 32.3988 47.651C32.5981 47.651 32.9969 47.5513 33.0966 47.352C33.3956 47.1526 33.4953 46.6541 33.4953 46.056C33.595 45.0591 32.9969 44.3613 32.0997 44.3613ZM32 50.4423C31.7009 50.4423 31.5016 50.542 31.4019 50.6417C30.8037 51.0404 30.6044 51.3395 30.6044 51.8379C30.6044 52.2367 30.8037 52.5358 31.1028 52.8348C31.5016 53.1339 32.0997 53.3333 32.7975 53.3333C34.1931 53.3333 34.7913 52.5358 34.7913 51.8379C34.7913 51.3395 34.4922 50.9408 33.9938 50.7414C33.4953 50.542 32.7975 50.4423 32 50.4423ZM32.0997 54.0311C31.3022 54.0311 30.7041 53.8317 30.1059 53.433C29.6075 53.0342 29.4081 52.4361 29.4081 52.0373C29.4081 51.9376 29.4081 51.6386 29.7072 51.3395C29.9065 51.1401 30.2056 50.8411 31.0031 50.3426C31.0031 50.3426 31.0031 50.3426 31.0031 50.2429C31.0031 50.2429 31.0031 50.1432 30.9034 50.1432C30.3053 49.9439 30.1059 49.5451 30.0062 49.246C30.0062 49.1464 30.0062 49.0467 30.1059 49.0467C30.2056 48.947 30.3053 48.8473 30.5047 48.8473C30.7041 48.7476 31.0031 48.5482 31.1028 48.4485V48.3489C31.1028 48.3489 31.1028 48.2492 31.0031 48.2492C30.0062 47.9501 29.6075 47.2523 29.6075 46.1557C29.6075 45.4579 29.9065 44.8598 30.5047 44.461C30.9034 44.1619 31.9003 43.7632 32.4984 43.7632C33.0966 43.7632 33.4953 43.9626 33.9938 44.0622C34.2928 44.1619 34.4922 44.1619 34.891 44.1619C35.3894 44.1619 35.6885 43.9626 35.8879 43.7632C35.8879 43.7632 35.8879 43.8629 35.9875 44.0622C35.9875 44.2616 35.9875 44.461 35.7882 44.6604C35.6885 44.8598 35.3894 44.9594 35.19 44.9594H35.0903C34.891 44.9594 34.6916 44.8598 34.6916 44.8598H34.5919V44.9594C34.5919 45.0591 34.6916 45.4579 34.6916 45.5576C34.6916 46.6541 34.1931 47.1526 33.7944 47.5513C33.296 47.8504 32.7975 48.1495 32.1994 48.1495C32.1994 48.1495 32.0997 48.1495 32 48.1495C31.9003 48.1495 31.8006 48.1495 31.8006 48.1495C31.7009 48.1495 31.4019 48.3489 31.4019 48.5482C31.4019 48.7476 31.5016 49.0467 32.0997 49.0467C32.1994 49.0467 32.2991 49.0467 32.4984 49.0467C33.296 49.1464 34.2928 49.1464 34.6916 49.3457C35.2897 49.5451 35.6885 50.1432 35.6885 50.8411C35.6885 51.8379 34.9907 52.8348 33.7944 53.433C33.296 53.9314 32.6978 54.0311 32.0997 54.0311ZM39.8754 44.461C39.5763 44.461 39.2773 44.5607 39.1776 44.6604C38.6791 44.9594 38.3801 45.6573 38.3801 46.6541C38.3801 48.4485 39.2773 49.7445 40.5732 49.7445C40.972 49.7445 41.271 49.6448 41.5701 49.4454C41.9688 49.1464 42.1682 48.4485 42.1682 47.5513C42.0685 45.6573 41.1713 44.461 39.8754 44.461ZM40.1745 50.3426C37.8816 50.3426 36.9844 48.6479 36.9844 47.0529C36.9844 45.9563 37.4829 45.0591 38.3801 44.461C38.9782 44.0622 39.7757 43.8629 40.4735 43.8629C42.2679 43.8629 43.4642 45.1588 43.4642 46.9532C43.4642 48.2492 42.9657 49.1464 42.0685 49.8442C41.5701 50.0436 40.7726 50.3426 40.1745 50.3426ZM15.6511 44.461C15.352 44.461 15.053 44.5607 14.9533 44.6604C14.4548 44.9594 14.1558 45.6573 14.1558 46.6541C14.1558 48.4485 15.053 49.7445 16.3489 49.7445C16.7477 49.7445 17.0467 49.6448 17.3458 49.4454C17.7445 49.1464 17.9439 48.4485 17.9439 47.5513C17.8442 45.6573 17.0467 44.461 15.6511 44.461ZM15.9502 50.3426C13.6573 50.3426 12.7601 48.6479 12.7601 47.0529C12.7601 45.9563 13.2586 45.0591 14.1558 44.461C14.7539 44.0622 15.5514 43.8629 16.2492 43.8629C18.0436 43.8629 19.2399 45.1588 19.2399 46.9532C19.2399 48.2492 18.7414 49.1464 17.8442 49.8442C17.3458 50.0436 16.5483 50.3426 15.9502 50.3426ZM0.199377 50.2429C0.199377 50.2429 0.0996885 50.0436 0.199377 49.9439C0.199377 49.8442 0.199377 49.7445 0.199377 49.7445C0.498442 49.7445 0.598131 49.6448 0.797508 49.6448C1.09657 49.5451 1.19626 49.4454 1.19626 49.0467C1.19626 48.2492 1.19626 46.6541 1.19626 45.5576C1.19626 45.4579 1.19626 45.2585 0.996885 45.1588C0.797508 45.0591 0.498442 44.8598 0.199377 44.7601C0.0996885 44.7601 0 44.6604 0 44.5607C0 44.461 0.0996885 44.3613 0.299065 44.3613C0.797508 44.3613 1.89408 44.0622 2.39252 43.8629C2.39252 43.8629 2.49221 43.9626 2.49221 44.0622V44.2616C2.49221 44.461 2.49221 44.5607 2.49221 44.7601C2.49221 44.8598 2.5919 44.8598 2.5919 44.8598H2.69159C3.58879 44.1619 4.38629 43.9626 4.78505 43.9626C5.48287 43.9626 5.98131 44.2616 6.38006 44.9594L6.47975 45.0591H6.57944C7.37695 44.461 8.17446 44.0622 8.77259 44.0622C10.0685 44.0622 10.7664 45.0591 10.7664 46.6541C10.7664 47.1526 10.7664 47.651 10.7664 48.2492C10.7664 48.7476 10.7664 49.1464 10.7664 49.4454C10.7664 49.5451 10.866 49.7445 10.9657 49.7445C11.1651 49.8442 11.4642 49.8442 11.7632 49.9439C11.7632 50.0436 11.7632 50.4423 11.6636 50.4423C11.5639 50.4423 11.4642 50.4423 11.3645 50.4423C11.0654 50.4423 10.6667 50.4423 10.3676 50.4423C9.47041 50.4423 9.07165 50.4423 8.6729 50.4423C8.6729 50.3426 8.6729 50.0436 8.6729 49.9439C8.87228 49.9439 9.07165 49.8442 9.17134 49.8442C9.47041 49.7445 9.47041 49.6448 9.5701 49.246C9.5701 48.947 9.66978 46.7538 9.5701 46.2554C9.47041 45.6573 9.07165 45.0591 8.17446 45.0591C7.87539 45.0591 7.27726 45.1588 6.77882 45.5576L6.67913 45.6573C6.77882 45.9563 6.77882 46.2554 6.77882 46.7538V47.651C6.77882 48.2492 6.77882 48.8473 6.77882 49.246C6.77882 49.5451 6.97819 49.6448 7.07788 49.6448C7.17757 49.6448 7.17757 49.6448 7.27726 49.6448C7.37695 49.6448 7.47664 49.7445 7.67601 49.7445C7.67601 49.8442 7.67601 49.9439 7.67601 50.1432C7.67601 50.2429 7.67601 50.2429 7.57632 50.2429C7.07788 50.2429 6.57944 50.2429 5.88162 50.2429C5.68224 50.2429 5.28349 50.2429 4.98442 50.2429C4.78505 50.2429 4.48598 50.2429 4.38629 50.2429C4.38629 50.2429 4.38629 50.1432 4.38629 49.9439C4.38629 49.8442 4.38629 49.7445 4.48598 49.7445C4.58567 49.7445 4.58567 49.7445 4.68536 49.7445C4.88474 49.7445 4.98442 49.6448 5.08411 49.6448C5.28349 49.5451 5.38318 49.4454 5.38318 49.1464C5.38318 48.4485 5.48287 46.4548 5.38318 45.9563C5.1838 45.1588 4.78505 44.7601 3.98754 44.7601C3.58879 44.7601 2.99065 44.9594 2.5919 45.2585C2.49221 45.3582 2.49221 45.4579 2.49221 45.5576V46.3551C2.49221 47.352 2.49221 48.5482 2.49221 49.1464C2.49221 49.3457 2.5919 49.5451 2.89097 49.5451C2.99065 49.5451 3.09034 49.5451 3.19003 49.6448H3.38941C3.38941 49.7445 3.38941 50.0436 3.38941 50.1432C3.28972 50.1432 3.09034 50.1432 2.89097 50.1432C2.5919 50.1432 2.19315 50.1432 1.79439 50.1432C1.29595 50.1432 0.996885 50.1432 0.697819 50.1432C0.598131 50.2429 0.398754 50.2429 0.199377 50.2429Z" fill="#442D22"/>
<path fill-rule="evenodd" clip-rule="evenodd" d="M32.8971 37.8815L31.9002 37.5824C31.9002 37.5824 31.9999 32.3986 30.2055 32.0995C29.0093 30.7039 30.4049 -28.511 34.7912 31.9002C34.7912 31.9002 33.2959 32.6977 32.9968 33.9936C32.6977 35.1899 32.8971 37.8815 32.8971 37.8815Z" fill="white"/>
<path fill-rule="evenodd" clip-rule="evenodd" d="M32.8971 37.8815L31.9002 37.5824C31.9002 37.5824 31.9999 32.3986 30.2055 32.0995C29.0093 30.7039 30.4049 -28.511 34.7912 31.9002C34.7912 31.9002 33.2959 32.6977 32.9968 33.9936C32.6977 35.1899 32.8971 37.8815 32.8971 37.8815Z" fill="#A6A385"/>
<path fill-rule="evenodd" clip-rule="evenodd" d="M33.3956 32.9968C33.3956 32.9968 42.2679 27.2149 40.1744 15.0529C38.1806 6.28029 33.4953 3.38933 32.9968 2.29276C32.3987 1.49525 31.9003 0.0996094 31.9003 0.0996094L32.299 24.5233C32.1993 24.623 31.5015 31.9999 33.3956 32.9968Z" fill="white"/>
<path fill-rule="evenodd" clip-rule="evenodd" d="M33.3956 32.9968C33.3956 32.9968 42.2679 27.2149 40.1744 15.0529C38.1806 6.28029 33.4953 3.38933 32.9968 2.29276C32.3987 1.49525 31.9003 0.0996094 31.9003 0.0996094L32.299 24.5233C32.1993 24.623 31.5015 31.9999 33.3956 32.9968Z" fill="#499D4A"/>
<path fill-rule="evenodd" clip-rule="evenodd" d="M31.3022 33.296C31.3022 33.296 23.028 27.6137 23.5265 17.6449C24.0249 7.67601 29.9065 2.79128 31.0031 1.89408C31.7009 1.09657 31.8006 0.797508 31.8006 0C32.2991 1.09657 32.1994 16.5483 32.2991 18.4424C32.4984 25.4206 31.9003 31.9003 31.3022 33.296Z" fill="white"/>
<path fill-rule="evenodd" clip-rule="evenodd" d="M31.3022 33.296C31.3022 33.296 23.028 27.6137 23.5265 17.6449C24.0249 7.67601 29.9065 2.79128 31.0031 1.89408C31.7009 1.09657 31.8006 0.797508 31.8006 0C32.2991 1.09657 32.1994 16.5483 32.2991 18.4424C32.4984 25.4206 31.9003 31.9003 31.3022 33.296Z" fill="#58AA50"/>
</svg>
