<svg width="205" height="321" viewBox="0 0 205 321" fill="none" xmlns="http://www.w3.org/2000/svg">
<path fill-rule="evenodd" clip-rule="evenodd" d="M33.5299 11.2056C33.5299 1.28557 40.59 -2.73443 49.23 2.20557L156.48 64.6553C165.11 69.6553 172.1 81.7453 172.07 91.6553L171.7 141.445C171.7 151.365 164.63 155.375 156 150.385L48.8 88.0054C40.16 83.0054 33.18 70.9154 33.21 61.0054L33.5299 11.2056Z" fill="white"/>
<path fill-rule="evenodd" clip-rule="evenodd" d="M33.19 11.2355C33.19 1.28547 40.26 -2.88439 48.93 2.12561L156.46 64.6857C165.46 69.6857 172.1 81.9957 172.07 91.9357V101.356L33.19 20.7755V11.2355Z" fill="url(#paint0_linear)"/>
<path fill-rule="evenodd" clip-rule="evenodd" d="M46.52 12.0651C47.5558 12.4555 48.4589 13.1335 49.1231 14.0192C49.7873 14.9048 50.1851 15.9613 50.27 17.0651C50.47 19.3151 49.1 20.735 47.27 20.235C46.2336 19.844 45.3298 19.1662 44.664 18.2809C43.9982 17.3956 43.598 16.3392 43.51 15.235C43.27 12.985 44.63 11.5651 46.52 12.0651Z" fill="white"/>
<path fill-rule="evenodd" clip-rule="evenodd" d="M57.05 18.4649C58.087 18.8549 58.9915 19.5325 59.6574 20.4181C60.3233 21.3036 60.7231 22.3604 60.81 23.4649C61 25.7149 59.64 27.1349 57.81 26.6349C56.7729 26.2449 55.8685 25.5678 55.2026 24.6822C54.5366 23.7967 54.1368 22.7394 54.05 21.6349C53.8 19.3549 55.17 17.9649 57.05 18.4649Z" fill="white"/>
<path fill-rule="evenodd" clip-rule="evenodd" d="M67.5901 24.8556C68.6252 25.2487 69.5277 25.9267 70.1931 26.8117C70.8586 27.6966 71.2598 28.7521 71.3501 29.8556C71.5401 32.0956 70.1701 33.5155 68.2901 33.0255C67.255 32.6324 66.3525 31.9544 65.687 31.0695C65.0216 30.1846 64.6204 29.129 64.5301 28.0255C64.3401 25.7855 65.7101 24.3556 67.5901 24.8556Z" fill="white"/>
<path opacity="0.2" fill-rule="evenodd" clip-rule="evenodd" d="M43.29 40.7054C43.29 36.7054 46.11 35.1752 49.57 37.2352L154.3 96.6351C156.115 97.8416 157.624 99.4557 158.705 101.348C159.787 103.24 160.412 105.359 160.53 107.536V115.355C160.53 119.355 157.71 120.885 154.26 118.835L49.53 59.4252C47.7128 58.2198 46.2024 56.6066 45.1191 54.7142C44.0357 52.8218 43.4094 50.7026 43.29 48.5253V40.7054Z" fill="#FF92B0"/>
<path opacity="0.2" fill-rule="evenodd" clip-rule="evenodd" d="M43.29 69.5759C43.29 67.2259 44.9599 66.3056 46.9999 67.5256L108.84 102.596C109.911 103.31 110.802 104.263 111.44 105.381C112.079 106.499 112.449 107.75 112.52 109.036V113.676C112.52 116.016 110.86 116.936 108.82 115.726L46.97 80.6458C45.8976 79.9329 45.0064 78.9796 44.3675 77.8616C43.7286 76.7435 43.3596 75.4916 43.29 74.2058V69.5759Z" fill="#FF92B0"/>
<path opacity="0.2" fill-rule="evenodd" clip-rule="evenodd" d="M142.04 70.086C142.04 69.086 142.74 68.6958 143.6 69.1958L158.51 77.1958C158.96 77.4897 159.335 77.8855 159.605 78.3511C159.874 78.8166 160.03 79.339 160.06 79.876V83.5459C160.06 84.5459 159.36 84.9261 158.5 84.4361L143.59 76.4361C143.138 76.1439 142.762 75.7486 142.492 75.2827C142.223 74.8168 142.068 74.2934 142.04 73.7559V70.086Z" fill="white"/>
<path fill-rule="evenodd" clip-rule="evenodd" d="M90.9601 109.875C90.9601 100.525 97.61 96.7453 105.75 101.445L189.84 149.675C197.98 154.375 204.57 165.785 204.54 175.146V229.895C204.54 239.245 197.88 243.026 189.74 238.336L105.65 190.105C97.5 185.395 90.9201 173.985 90.9501 164.635L90.9601 109.875Z" fill="white"/>
<path fill-rule="evenodd" clip-rule="evenodd" d="M90.96 109.875C90.96 100.525 97.6099 96.7453 105.75 101.445L189.84 149.675C197.98 154.375 204.57 165.785 204.54 175.146V183.995L90.96 118.846V109.875Z" fill="url(#paint1_linear)"/>
<path fill-rule="evenodd" clip-rule="evenodd" d="M103.55 110.695C104.522 111.061 105.371 111.695 105.998 112.523C106.624 113.352 107.003 114.341 107.09 115.376C107.28 117.496 105.99 118.836 104.22 118.376C103.247 118.01 102.397 117.376 101.769 116.548C101.141 115.72 100.76 114.731 100.67 113.695C100.49 111.565 101.8 110.225 103.55 110.695Z" fill="white"/>
<path fill-rule="evenodd" clip-rule="evenodd" d="M113.48 116.726C114.454 117.091 115.304 117.724 115.932 118.552C116.56 119.38 116.941 120.37 117.03 121.405C117.21 123.525 115.92 124.865 114.15 124.405C113.178 124.04 112.329 123.407 111.702 122.578C111.076 121.75 110.697 120.761 110.61 119.726C110.42 117.596 111.71 116.256 113.48 116.726Z" fill="white"/>
<path fill-rule="evenodd" clip-rule="evenodd" d="M123.42 122.756C124.392 123.122 125.24 123.756 125.866 124.585C126.493 125.413 126.872 126.401 126.96 127.436C127.15 129.556 125.86 130.896 124.08 130.436C123.108 130.071 122.259 129.437 121.632 128.609C121.006 127.78 120.627 126.791 120.54 125.756C120.36 123.626 121.64 122.286 123.42 122.756Z" fill="white"/>
<path opacity="0.2" fill-rule="evenodd" clip-rule="evenodd" d="M97.0701 138.525C97.0701 135.045 99.5501 133.675 102.58 135.475L194.58 187.655C196.175 188.714 197.501 190.13 198.453 191.792C199.404 193.453 199.954 195.314 200.06 197.225V204.125C200.06 207.605 197.58 208.975 194.55 207.125L102.55 154.945C100.955 153.886 99.6287 152.47 98.6774 150.809C97.726 149.147 97.1757 147.287 97.0701 145.375V138.525Z" fill="#955CF1"/>
<path opacity="0.2" fill-rule="evenodd" clip-rule="evenodd" d="M97.0701 163.886C97.0701 161.826 98.5301 161.016 100.32 162.086L154.64 192.896C155.582 193.52 156.365 194.356 156.926 195.337C157.487 196.318 157.81 197.418 157.87 198.546V202.616C157.87 204.676 156.41 205.485 154.62 204.415L100.3 173.606C99.3581 172.981 98.5753 172.145 98.0144 171.164C97.4535 170.183 97.1301 169.084 97.0701 167.955V163.886Z" fill="#955CF1"/>
<path fill-rule="evenodd" clip-rule="evenodd" d="M0.23999 140.695C0.23999 134.365 4.73999 131.795 10.24 134.985L78.77 174.886C84.29 178.066 88.77 185.806 88.77 192.136L88.54 223.955C88.54 230.295 84.02 232.855 78.54 229.665L10.01 189.775C4.49001 186.585 0.0100098 178.855 0.0100098 172.515L0.23999 140.695Z" fill="white"/>
<path fill-rule="evenodd" clip-rule="evenodd" d="M0.0199585 140.715C0.0199585 134.365 4.53996 131.716 10.02 134.896L78.73 174.896C84.5 178.086 88.73 185.896 88.73 192.306V198.306L0 146.816L0.0199585 140.715Z" fill="url(#paint2_linear)"/>
<path fill-rule="evenodd" clip-rule="evenodd" d="M8.52994 141.246C9.19033 141.494 9.76662 141.924 10.1916 142.487C10.6165 143.05 10.8726 143.722 10.93 144.425C11.06 145.865 10.18 146.765 8.92997 146.425C8.27091 146.175 7.6959 145.744 7.27128 145.182C6.84665 144.619 6.58966 143.948 6.52994 143.246C6.45994 141.836 7.32994 140.936 8.52994 141.246Z" fill="white"/>
<path fill-rule="evenodd" clip-rule="evenodd" d="M15.2599 145.355C15.921 145.602 16.4979 146.033 16.923 146.596C17.3481 147.159 17.6037 147.832 17.6599 148.536C17.7899 149.966 16.92 150.876 15.71 150.536C15.0517 150.287 14.477 149.858 14.0524 149.297C13.6277 148.736 13.3703 148.066 13.31 147.365C13.19 145.925 14.0599 145.015 15.2599 145.355Z" fill="white"/>
<path fill-rule="evenodd" clip-rule="evenodd" d="M21.9899 149.425C22.6515 149.673 23.2293 150.103 23.6559 150.666C24.0826 151.229 24.3405 151.902 24.3999 152.606C24.5199 154.036 23.65 154.946 22.45 154.606C21.7884 154.358 21.2106 153.928 20.784 153.365C20.3573 152.802 20.0993 152.129 20.0399 151.425C19.9199 150.015 20.7999 149.105 21.9899 149.425Z" fill="white"/>
<path opacity="0.2" fill-rule="evenodd" clip-rule="evenodd" d="M5.06 159.166C5.06 156.716 6.78998 155.756 8.91998 157.026L73.47 193.636C74.5882 194.382 75.5179 195.376 76.186 196.542C76.8541 197.708 77.2423 199.014 77.32 200.356V205.196C77.32 207.646 75.58 208.606 73.45 207.336L8.89996 170.726C7.78179 169.98 6.85206 168.985 6.18396 167.819C5.51586 166.653 5.12767 165.347 5.04999 164.006L5.06 159.166Z" fill="#FF92B0"/>
<path opacity="0.2" fill-rule="evenodd" clip-rule="evenodd" d="M5.04999 176.955C5.04999 175.515 6.04997 174.956 7.33997 175.696L45.46 197.316C46.1236 197.76 46.6743 198.353 47.0684 199.047C47.4625 199.742 47.6891 200.518 47.73 201.316V204.165C47.73 205.615 46.73 206.166 45.44 205.436L7.32001 183.816C6.65754 183.37 6.10763 182.777 5.71368 182.083C5.31974 181.389 5.09251 180.613 5.04999 179.816V176.955Z" fill="#FF92B0"/>
<path opacity="0.2" fill-rule="evenodd" clip-rule="evenodd" d="M69.5701 178.355C69.5701 177.725 70.0201 177.476 70.5701 177.796L80.1001 182.915C80.3911 183.099 80.6337 183.352 80.8076 183.649C80.9816 183.947 81.0819 184.281 81.1001 184.625V186.966C81.1001 187.596 80.6501 187.855 80.1001 187.535L70.5801 182.415C70.29 182.227 70.0483 181.973 69.8745 181.675C69.7008 181.376 69.5999 181.04 69.5801 180.695L69.5701 178.355Z" fill="white"/>
<path opacity="0.35" fill-rule="evenodd" clip-rule="evenodd" d="M18.54 281.155L71.04 251.256C76.77 248.646 85.23 246.086 90.79 249.596L130.86 274.895C133.72 276.705 143.25 282.495 136.86 285.955C118.17 296.125 100.42 307.745 81.43 318.065C77.84 320.065 72.59 320.726 67.08 320.266C61.57 319.806 55.85 318.396 51.53 315.636L20.08 295.546C16.08 292.986 13.78 290.315 13.57 287.695C13.36 285.075 15.03 282.765 18.54 281.155Z" fill="#448F7D"/>
<path fill-rule="evenodd" clip-rule="evenodd" d="M95.9601 219.875C89.8201 222.145 78.2601 230.616 70.6001 233.726C70.1001 233.846 69.6001 233.966 69.2201 234.096C68.4947 234.425 67.8367 234.885 67.28 235.455C64.45 237.345 62.9 237.896 60.38 239.516L57.3201 244.785L57.91 250.636C57.9744 251.248 58.1793 251.837 58.5089 252.357C58.8385 252.878 59.2838 253.316 59.8101 253.636C60.5801 253.906 61.1601 254.095 61.6101 254.205C62.0601 254.315 62.5201 254.425 62.6101 254.325C62.6913 254.307 62.7668 254.27 62.8301 254.216C63.0538 254.007 63.2074 253.735 63.27 253.436C64 251.936 63.91 249.595 65.05 247.315C67.16 246.315 69.7001 246.156 70.8501 244.256C71.5201 243.146 71.5901 242.075 72.0801 241.155C78.2901 237.575 98.0801 234.675 103.31 231.155C104.446 230.57 105.323 229.583 105.77 228.386C106.02 227.666 108.06 222.496 108.38 221.216C108.92 214.636 101.38 219.515 96.7001 213.995L95.9601 219.875Z" fill="url(#paint3_linear)"/>
<path fill-rule="evenodd" clip-rule="evenodd" d="M95.9599 219.875C89.8199 222.145 77.7799 229.215 70.1099 232.325C69.3099 235.085 72.2099 240.856 73.3999 241.516C79.6199 237.936 98.1099 234.726 103.4 231.186C104.536 230.6 105.413 229.612 105.86 228.415C106.11 227.695 108.15 222.525 108.47 221.245C109.01 214.665 101.47 219.545 96.7899 214.025L95.9599 219.875Z" fill="url(#paint4_linear)"/>
<g style="mix-blend-mode:multiply" opacity="0.35">
<path fill-rule="evenodd" clip-rule="evenodd" d="M95.96 219.875C91.76 221.435 84.7999 225.226 78.3699 228.466C79.7499 237.146 76.4599 235.466 73.3699 241.466C79.5899 237.886 98.0799 234.676 103.37 231.136C104.506 230.55 105.383 229.562 105.83 228.365C106.08 227.645 108.12 222.475 108.44 221.195C108.98 214.615 101.44 219.496 96.7599 213.976L95.96 219.875Z" fill="#3469C0"/>
</g>
<path fill-rule="evenodd" clip-rule="evenodd" d="M117.13 207.356C114.78 206.356 109.52 202.726 104.32 200.356C97.8899 197.446 91.32 195.866 88.6 196.466C83.39 197.666 79.6 200.246 77.47 205.466C74.97 211.526 78.4699 219.575 80.0499 230.165C80.6965 233.48 81.6094 236.738 82.7799 239.905C85.6319 248.382 86.7009 257.357 85.9199 266.266C88.7199 273.476 101.15 281.156 112.1 282.446L113.02 282.506C115.168 282.712 117.334 282.601 119.45 282.176C121.211 281.891 122.884 281.207 124.34 280.176L124.78 279.796L125.16 279.495C125.5 279.091 125.767 278.632 125.95 278.136C126.271 277.501 126.512 276.83 126.67 276.136C128.93 265.776 129.05 243.195 128.09 227.455C127.42 217.175 128.08 212.356 117.13 207.356Z" fill="url(#paint5_linear)"/>
<g style="mix-blend-mode:multiply" opacity="0.35">
<path fill-rule="evenodd" clip-rule="evenodd" d="M84.8 246.525C86.46 253.355 86.5901 259.076 85.9701 266.296C89.9701 276.466 121.12 290.225 125.97 278.205C126.291 277.57 126.533 276.899 126.69 276.205C127.14 274.135 128.42 267.336 117.07 264.336C121.79 264.246 122.85 263.916 128.23 262.396C128.866 250.78 128.826 239.137 128.11 227.525C127.65 220.145 127.86 215.586 124 211.766C110.42 211.906 109 221.206 115.36 245.396C109.674 248.237 103.704 250.473 97.55 252.065C95.91 252.455 89.46 249.175 84.8 246.525Z" fill="#3469C0"/>
</g>
<path fill-rule="evenodd" clip-rule="evenodd" d="M67.6499 286.446C72.1299 285.976 74.97 282.966 78.43 285.896C79.18 286.959 79.5913 288.224 79.61 289.526C82.04 293.446 78.79 296.456 75.11 298.466C71.69 300.336 70.7699 299.876 69.2399 301.156C68.6154 301.785 68.0774 302.495 67.6399 303.266C65.8399 305.976 61.7899 307.146 59.4999 307.486C55.9799 308.006 51.14 305.845 49.05 302.955C48.27 301.875 50.29 300.026 51.81 298.886C60.23 292.526 59.6999 292.136 62.5199 287.756C63.2699 286.596 66.2699 286.586 67.6499 286.446Z" fill="#99B6D8"/>
<path fill-rule="evenodd" clip-rule="evenodd" d="M80.14 293.625C79.4 295.625 77.34 297.246 75.14 298.466C71.72 300.346 70.8 299.875 69.27 301.155C68.6455 301.785 68.1075 302.495 67.67 303.266C65.87 305.976 61.82 307.146 59.53 307.486C57.76 307.746 53.72 307.856 51.41 306.756C49.1 305.656 46.7 302.136 50.92 300.546C54.74 299.096 61.33 298.855 64.27 296.745C65.69 295.745 66.53 294.586 67.74 293.586C69.733 291.79 72.183 290.579 74.8201 290.086C77.3201 289.716 80.13 291.025 80.14 293.625Z" fill="#6B91BE"/>
<path fill-rule="evenodd" clip-rule="evenodd" d="M71.2301 293.665C91.1001 288.665 102.37 265.505 87.66 253.935C79.35 248.435 58.01 245.745 46.06 244.555C30.98 243.055 31.31 256.715 39.53 264.885C50.57 275.855 59.8001 282.905 71.2301 293.665Z" fill="url(#paint6_linear)"/>
<path fill-rule="evenodd" clip-rule="evenodd" d="M32.4899 293.146C29.7599 293.366 25.4899 287.726 29.1599 283.146C28.4141 283.484 27.7095 283.906 27.06 284.405C25.82 285.405 25.1499 289.176 25.8899 291.296C27.1999 295.066 30.9599 295.805 33.8899 295.655C37.6399 295.455 41.8899 292.655 44.8899 290.945C46.1299 290.235 47.45 289.045 49.36 288.695L49.72 287.056C42.02 288.246 41.7999 292.356 32.4899 293.146Z" fill="#6B91BE"/>
<path fill-rule="evenodd" clip-rule="evenodd" d="M49.45 278.035C44.92 277.175 41.45 278.926 37.6 280.096C34.01 281.196 31.35 281.395 28.82 283.375C27.57 284.375 26.8999 288.146 27.6399 290.256C28.9599 294.026 32.7199 294.775 35.6399 294.615C39.3899 294.415 43.72 291.896 46.71 290.186C48.1024 289.386 49.6262 288.84 51.21 288.575L51.7699 282.665L49.45 278.035Z" fill="#99B6D8"/>
<path fill-rule="evenodd" clip-rule="evenodd" d="M47.9701 277.356C54.1401 276.886 69.37 277.206 74.69 277.356C78.69 277.476 82.5 279.056 84.44 279.486C89 276.876 93.5701 274.806 94.2301 271.596C100.29 268.776 110.43 264.686 117.1 266.136C123.34 267.496 128.21 273.086 125.16 282.136C121.27 287.136 114.16 292.086 109.04 294.526C106.57 295.706 103.46 297.416 100.43 298.596C98.5132 299.533 96.4438 300.119 94.32 300.326C85.52 300.446 56.53 291.675 49.55 290.495C49.082 290.39 48.6711 290.112 48.4 289.716C44.95 288.356 45.0601 278.226 47.9701 277.356Z" fill="url(#paint7_linear)"/>
<path fill-rule="evenodd" clip-rule="evenodd" d="M113.14 269.276L84.7 285.426C84.23 285.746 84.01 285.425 83.7 284.615L44.52 261.796C44.21 261.146 44.15 260.436 46.01 259.476L71.77 245.146C73.45 244.496 74.55 244.325 75.9 245.035L114.57 266.266V267.535C114.7 268.095 114.1 268.756 113.14 269.276Z" fill="#1F2873"/>
<path fill-rule="evenodd" clip-rule="evenodd" d="M113.14 267.865L84.7 284.006C84.23 284.336 84.01 284.006 83.7 283.196L44.54 260.356C44.23 259.696 44.17 258.985 46.03 258.035L71.79 243.696C73.47 243.056 74.57 242.876 75.92 243.586L114.26 265.586C115.03 266.266 114.39 267.175 113.14 267.865Z" fill="#3E4794"/>
<path fill-rule="evenodd" clip-rule="evenodd" d="M103.8 270.636L82.1599 282.926C81.7999 283.166 81.6399 282.926 81.4099 282.306L46.4099 261.926C46.1699 261.426 46.1199 260.925 47.5299 260.155L67.1499 249.245C67.628 248.98 68.1633 248.834 68.7101 248.82C69.2569 248.807 69.7989 248.924 70.29 249.165L104.67 268.945C105.24 269.415 104.8 270.116 103.8 270.636Z" fill="#1F2873"/>
<path fill-rule="evenodd" clip-rule="evenodd" d="M115.54 250.216C115.32 250.276 98.1099 255.926 97.7899 256.086C97.1499 256.396 96.3899 256.805 95.8899 256.985C91.6799 258.495 87.59 258.846 86.72 259.386C85.22 260.316 80.72 263.545 79.84 264.655C79.11 265.595 78.4699 266.326 76.2799 269.306C75.2199 270.746 77.3799 271.096 77.6499 270.976C78.9199 270.426 79.7599 268.136 81.3799 266.846C82.549 265.972 83.8098 265.226 85.1399 264.625C83.9656 265.533 82.8686 266.536 81.86 267.625C80.9527 268.96 80.2041 270.397 79.6299 271.905C79.0899 273.255 80.34 273.905 80.81 273.485C81.91 272.405 82.9399 270.285 83.9199 269.025C85.5599 268.185 86.3099 267.535 88.1499 266.615L85.07 269.726L82.7899 273.785C82.0599 275.255 83.38 275.856 84.2 275.056C85.1818 273.86 86.0741 272.593 86.8699 271.266C87.8699 270.606 89.2499 269.346 90.6399 268.266L88.8699 270.985C88.0573 271.911 87.3405 272.916 86.73 273.985C86.37 274.745 87.04 275.595 88.19 274.565C89.07 273.785 90.3399 272.416 90.7399 272.006C92.8199 269.656 93.9899 269.575 95.5199 268.455C97.2899 267.155 99.52 264.865 101.36 263.745C101.52 263.645 120.92 260.445 121.07 260.365L115.54 250.216Z" fill="url(#paint8_linear)"/>
<path fill-rule="evenodd" clip-rule="evenodd" d="M101.06 264.046C99.0601 262.356 97.18 258.606 97.51 256.046C101.06 254.046 118.78 247.365 122.81 247.645C120.5 242.115 118.37 239.465 115.43 232.315C112.32 224.725 110.29 218.206 117.16 212.926C122.08 209.136 126.93 211.925 129.1 217.155C130.363 220.314 131.465 223.535 132.4 226.806C134.07 232.516 136.4 241.665 137.62 248.375C137.9 249.935 138.43 251.205 138.52 252.445C138.83 256.825 136.52 257.686 131.45 259.766C125.58 262.166 104.48 263.576 101.06 264.046Z" fill="url(#paint9_linear)"/>
<path fill-rule="evenodd" clip-rule="evenodd" d="M27.1 226.725C27.52 226.485 27.85 226.135 28.27 225.905C28.49 225.675 29.36 226.155 30.46 226.815L66.36 248.415C68.85 249.905 68.52 249.416 69.82 252.046C74.86 262.106 79.89 272.172 84.91 282.245C85.57 283.725 85.91 284.515 85.71 284.685L84.48 285.555L27.1 226.725Z" fill="#3E4794"/>
<path fill-rule="evenodd" clip-rule="evenodd" d="M68.6199 252.886L83.71 283.086C84.96 285.886 85.0399 286.196 82.6199 284.636L46.1399 262.726C43.8799 261.386 44.27 261.506 43.08 259.146L27.6399 228.426C26.2099 225.926 27.4099 226.555 29.2599 227.665L65.1699 249.266C67.6599 250.746 67.3299 250.296 68.6199 252.886Z" fill="#1F2873"/>
<path fill-rule="evenodd" clip-rule="evenodd" d="M49.97 242.096C50.28 241.996 50.8599 242.335 51.2699 242.855C51.6799 243.375 51.76 243.856 51.46 244.016C51.16 244.176 50.5699 243.786 50.1599 243.256C49.7499 242.726 49.66 242.206 49.97 242.096Z" fill="#CDDFF2"/>
<path fill-rule="evenodd" clip-rule="evenodd" d="M50.29 242.516C50.47 242.456 50.79 242.646 51.03 242.946C51.27 243.246 51.31 243.536 51.13 243.596C50.95 243.656 50.63 243.465 50.4 243.165C50.17 242.865 50.12 242.576 50.29 242.516Z" fill="#9CB3CB"/>
<path fill-rule="evenodd" clip-rule="evenodd" d="M50.43 242.695C50.55 242.695 50.77 242.775 50.93 242.985C51.09 243.195 51.1199 243.376 50.9999 243.426C50.8799 243.476 50.6599 243.336 50.4999 243.136C50.3399 242.936 50.31 242.735 50.43 242.695Z" fill="white"/>
<path fill-rule="evenodd" clip-rule="evenodd" d="M50.56 242.855C50.62 242.855 50.7401 242.856 50.8301 243.016C50.9201 243.176 50.9401 243.236 50.8301 243.256C50.7201 243.276 50.64 243.256 50.56 243.096C50.48 242.936 50.49 242.875 50.56 242.855Z" fill="#9CB3CB"/>
<path fill-rule="evenodd" clip-rule="evenodd" d="M89.92 203.355C89.83 202.865 89.7101 202.355 89.6101 201.855C89.3101 200.355 89.7 197.455 89.3 194.025L102.3 188.546C102.52 195.826 103.71 197.336 105.06 203.266C104.93 208.336 93.7701 212.266 90.7001 208.426C90.2301 207.836 90.1501 205.765 90.1101 204.855C90.087 204.351 90.0234 203.85 89.92 203.355Z" fill="#FFA698"/>
<path fill-rule="evenodd" clip-rule="evenodd" d="M89.92 203.355C89.83 202.865 89.7101 202.355 89.6101 201.855C89.3101 200.355 89.7 197.455 89.3 194.025L102.3 188.546C102.3 190.196 102.45 191.545 102.59 192.745C103.06 197.575 98.4301 205.975 90.1101 204.855C90.087 204.351 90.0234 203.85 89.92 203.355Z" fill="url(#paint10_linear)"/>
<path fill-rule="evenodd" clip-rule="evenodd" d="M91.5 209.226C91.22 208.506 91.08 207.046 90.77 205.766C90.46 204.486 89.4801 201.766 89.4701 201.086C88.3101 201.386 87.58 207.986 86.25 210.766C87.7282 209.58 89.6153 209.026 91.5 209.226Z" fill="#6D6AFD"/>
<path fill-rule="evenodd" clip-rule="evenodd" d="M104.07 199.205C103.89 204.125 96.77 207.766 91.24 208.976C92.59 210.586 94.32 212.625 94.24 214.235C98.09 213.235 103.46 211.125 106.1 206.235C106.481 205.654 106.733 204.998 106.836 204.311C106.94 203.623 106.894 202.922 106.701 202.254C106.508 201.586 106.173 200.968 105.719 200.441C105.265 199.915 104.702 199.493 104.07 199.205Z" fill="#6D6AFD"/>
<path fill-rule="evenodd" clip-rule="evenodd" d="M89.1799 202.985C90.7699 201.925 95.1199 199.285 96.5499 198.245C99.6699 195.955 99.2899 193.035 100.19 188.455C103.11 186.375 104.09 184.716 104.35 182.846C104.97 178.406 102.44 173.626 99.0499 171.016C97.6246 169.907 95.963 169.142 94.1941 168.779C92.4251 168.417 90.5964 168.467 88.8499 168.926C81.3999 170.556 78.3299 176.196 77.9399 182.636C77.9109 183.177 77.9821 183.719 78.1499 184.235C78.4267 185.018 78.6572 185.815 78.8399 186.625C79.2299 188.535 77.9399 189.225 78.4599 191.625C79.1599 194.855 81.8299 201.155 82.9299 202.205C83.7999 202.985 87.5299 203.245 89.1799 202.985Z" fill="#FFA698"/>
<path fill-rule="evenodd" clip-rule="evenodd" d="M78.2999 179.825C78.1178 180.753 77.9976 181.692 77.9399 182.636C77.9109 183.177 77.9821 183.719 78.1499 184.235C78.4267 185.018 78.6572 185.815 78.8399 186.625C79.2299 188.535 77.9399 189.225 78.4599 191.625C78.9614 193.654 79.6303 195.638 80.4599 197.556C85.2499 201.206 89.4599 196.756 90.0899 195.926C93.0899 192.056 93.3199 186.256 91.0899 180.846C86.842 182.049 82.3034 181.686 78.2999 179.825Z" fill="url(#paint11_linear)"/>
<path fill-rule="evenodd" clip-rule="evenodd" d="M106.43 180.745C105.834 184.621 104.626 188.378 102.85 191.875C101.34 194.305 102 191.335 101.2 189.665C100.59 188.395 98.61 188.246 98.01 186.926C97.71 188.046 97.3201 189.135 96.6001 189.525C96.1401 189.775 95.21 190.125 95.17 188.805C95.05 184.235 92.88 183.916 93.57 181.176C94.08 179.176 93.95 178.246 93.45 177.506C91.96 177.716 91 179.235 89.25 179.995C85.7795 180.886 82.1063 180.533 78.87 178.995C75.19 176.995 74.87 172.505 77.94 169.625C79.66 168.015 81.59 167.625 84.29 165.805C86.5836 164.244 89.357 163.546 92.1165 163.837C94.8761 164.128 97.4429 165.389 99.3601 167.395C106.14 168.775 106.88 175.245 106.43 180.745Z" fill="#562E65"/>
<path fill-rule="evenodd" clip-rule="evenodd" d="M99.2301 184.596C102.04 183.326 102.39 186.676 102.13 188.756C101.96 190.186 100.8 190.196 100.49 191.336C100.391 191.879 100.125 192.377 99.729 192.761C99.3326 193.145 98.8259 193.395 98.2801 193.476C96.5101 193.596 97.3501 190.866 97.4501 189.806C97.0801 188.116 97.4501 185.406 99.2301 184.596Z" fill="#FFA698"/>
<path fill-rule="evenodd" clip-rule="evenodd" d="M91.5301 175.296C91.8001 177.206 89.3501 179.446 85.9001 179.636C82.6901 179.806 78.36 179.055 76.75 175.165C76.5058 174.288 76.5369 173.358 76.8392 172.499C77.1414 171.64 77.7004 170.896 78.4401 170.365C79.0276 170.045 79.686 169.877 80.3551 169.877C81.0243 169.877 81.6826 170.045 82.2701 170.365C84.6401 171.365 86.6101 174.045 88.2701 174.695C89.9301 175.345 91.5001 175.096 91.5301 175.296Z" fill="url(#paint12_linear)"/>
<defs>
<linearGradient id="paint0_linear" x1="113.04" y1="40.1256" x2="98.07" y2="59.7056" gradientUnits="userSpaceOnUse">
<stop stop-color="#FF66BC"/>
<stop offset="1" stop-color="#FFBBA8"/>
</linearGradient>
<linearGradient id="paint1_linear" x1="145.4" y1="146.995" x2="159.38" y2="131.225" gradientUnits="userSpaceOnUse">
<stop stop-color="#965CF2"/>
<stop offset="1" stop-color="#FF8ADC"/>
</linearGradient>
<linearGradient id="paint2_linear" x1="49.03" y1="162.376" x2="42.8" y2="169.606" gradientUnits="userSpaceOnUse">
<stop stop-color="#FF66BC"/>
<stop offset="0.56" stop-color="#FF8ADC"/>
<stop offset="1" stop-color="#FFBBA8"/>
</linearGradient>
<linearGradient id="paint3_linear" x1="84.42" y1="232.255" x2="72.13" y2="249.615" gradientUnits="userSpaceOnUse">
<stop stop-color="#FF8A78"/>
<stop offset="1" stop-color="#FFA799"/>
</linearGradient>
<linearGradient id="paint4_linear" x1="87.3999" y1="223.155" x2="91.73" y2="233.456" gradientUnits="userSpaceOnUse">
<stop stop-color="#6D6AFE"/>
<stop offset="1" stop-color="#3FB0F7"/>
</linearGradient>
<linearGradient id="paint5_linear" x1="57958.9" y1="710580" x2="59596.1" y2="716033" gradientUnits="userSpaceOnUse">
<stop stop-color="#6D6AFE"/>
<stop offset="1" stop-color="#3FB0F7"/>
</linearGradient>
<linearGradient id="paint6_linear" x1="44.97" y1="246.035" x2="63.4998" y2="260.965" gradientUnits="userSpaceOnUse">
<stop stop-color="#235DA3"/>
<stop offset="1" stop-color="#123A76"/>
</linearGradient>
<linearGradient id="paint7_linear" x1="90844.3" y1="286576" x2="86992.9" y2="289176" gradientUnits="userSpaceOnUse">
<stop stop-color="#235DA3"/>
<stop offset="1" stop-color="#123A76"/>
</linearGradient>
<linearGradient id="paint8_linear" x1="50424.8" y1="208985" x2="49863" y2="209625" gradientUnits="userSpaceOnUse">
<stop stop-color="#FF8A78"/>
<stop offset="1" stop-color="#FFA799"/>
</linearGradient>
<linearGradient id="paint9_linear" x1="46793.6" y1="436307" x2="46184" y2="438338" gradientUnits="userSpaceOnUse">
<stop stop-color="#6D6AFE"/>
<stop offset="1" stop-color="#3FB0F7"/>
</linearGradient>
<linearGradient id="paint10_linear" x1="14829.2" y1="135108" x2="14884.5" y2="135159" gradientUnits="userSpaceOnUse">
<stop stop-color="#FF8A78"/>
<stop offset="1" stop-color="#FFA799"/>
</linearGradient>
<linearGradient id="paint11_linear" x1="83.8399" y1="184.425" x2="88.0201" y2="194.736" gradientUnits="userSpaceOnUse">
<stop stop-color="#FFB89E"/>
<stop offset="1" stop-color="#FFA799"/>
</linearGradient>
<linearGradient id="paint12_linear" x1="81.7601" y1="176.616" x2="84.8402" y2="173.656" gradientUnits="userSpaceOnUse">
<stop stop-color="#8A4791"/>
<stop offset="1" stop-color="#562E65"/>
</linearGradient>
</defs>
</svg>
