<svg width="304" height="333" viewBox="0 0 304 333" fill="none" xmlns="http://www.w3.org/2000/svg">
<path d="M160.425 261.106C163.814 281.005 183.442 298.653 207.355 303.535C223.215 306.773 235.832 291.727 260.131 300.245C279.317 306.958 304 294.673 304 294.673V0H88.7173C88.7173 0 82.0856 26.0464 89.5424 49.8844C96.9233 73.4799 125.294 96.2932 112.58 127.9C101.79 154.726 104.259 187.019 120.534 202.731C144.96 226.311 153.828 222.364 160.425 261.106Z" fill="url(#paint0_linear)"/>
<path opacity="0.63" d="M55.8439 93.6956C59.6204 95.0804 63.7747 93.1291 65.1594 89.3526C66.5441 85.576 64.5929 81.4218 60.8164 80.0371C57.0398 78.6523 52.8856 80.6035 51.5008 84.3801C50.1161 88.1567 52.0673 92.3109 55.8439 93.6956ZM54.8368 85.5131C55.5292 83.6563 57.5748 82.7121 59.4316 83.373C61.2884 84.0654 62.2326 86.111 61.5717 87.9678C60.8793 89.8247 58.8337 90.7688 56.9768 90.1079C55.12 89.447 54.1759 87.3699 54.8368 85.5131Z" fill="url(#paint1_linear)"/>
<path opacity="0.63" d="M164.263 152.385C166.56 153.234 169.078 152.038 169.928 149.773C170.777 147.475 169.581 144.957 167.315 144.139C165.018 143.289 162.5 144.485 161.651 146.751C160.801 149.017 161.965 151.566 164.263 152.385ZM163.665 147.412C164.074 146.279 165.333 145.713 166.434 146.122C167.536 146.531 168.134 147.79 167.725 148.891C167.315 149.993 166.057 150.591 164.955 150.182C163.822 149.804 163.256 148.545 163.665 147.412Z" fill="url(#paint2_linear)"/>
<path opacity="0.63" d="M269.786 85.0045C268.181 89.3475 270.447 94.1941 274.79 95.7677C279.133 97.3727 283.948 95.1068 285.553 90.7637C287.158 86.4207 284.892 81.5741 280.549 80.0005C276.175 78.427 271.36 80.6614 269.786 85.0045ZM279.228 83.8715C281.368 84.6583 282.469 87.0187 281.682 89.1587C280.896 91.2988 278.535 92.4002 276.395 91.6135C274.255 90.8267 273.154 88.4663 273.94 86.3263C274.727 84.1862 277.088 83.0847 279.228 83.8715Z" fill="url(#paint3_linear)"/>
<path opacity="0.4" d="M253.623 162.436L266.668 173.917C270.474 177.271 269.219 183.484 264.425 185.089L247.944 190.644C243.15 192.27 238.398 188.073 239.385 183.114L242.821 166.078C243.809 161.119 249.817 159.082 253.623 162.436Z" fill="url(#paint4_linear)"/>
<defs>
<linearGradient id="paint0_linear" x1="246.178" y1="4.27499" x2="-81.6816" y2="38.9162" gradientUnits="userSpaceOnUse">
<stop stop-color="#4C9988"/>
<stop offset="0.9967" stop-color="#65DF94"/>
</linearGradient>
<linearGradient id="paint1_linear" x1="71.9433" y1="95.8238" x2="6.53026" y2="52.8089" gradientUnits="userSpaceOnUse">
<stop stop-color="#AEDFBD"/>
<stop offset="0.9901" stop-color="#46B184"/>
</linearGradient>
<linearGradient id="paint2_linear" x1="168.308" y1="149.553" x2="161.737" y2="146.182" gradientUnits="userSpaceOnUse">
<stop stop-color="#C1F7D1"/>
<stop offset="0.9901" stop-color="#75D5A3"/>
</linearGradient>
<linearGradient id="paint3_linear" x1="275.638" y1="90.7261" x2="284.388" y2="78.4253" gradientUnits="userSpaceOnUse">
<stop offset="0.00484664" stop-color="#C1E7E7"/>
<stop offset="1" stop-color="#49B59D"/>
</linearGradient>
<linearGradient id="paint4_linear" x1="253.409" y1="177.64" x2="242.028" y2="199.205" gradientUnits="userSpaceOnUse">
<stop stop-color="#AEDFBD"/>
<stop offset="0.9901" stop-color="#46B184"/>
</linearGradient>
</defs>
</svg>
