<svg width="14" height="21" viewBox="0 0 14 21" fill="none" xmlns="http://www.w3.org/2000/svg">
<path d="M13.3 6.99995C13.3 10.4794 10.4794 13.3 7.00001 13.3C3.52061 13.3 0.700012 10.4794 0.700012 6.99995C0.700012 3.52054 3.52061 0.699951 7.00001 0.699951C10.4794 0.699951 13.3 3.52054 13.3 6.99995Z" fill="white"/>
<path d="M11.6673 7.00042C11.6673 9.57789 9.57783 11.6673 7.00036 11.6673C4.42288 11.6673 2.33344 9.57789 2.33344 7.00042C2.33344 4.42294 4.42288 2.3335 7.00036 2.3335C9.57783 2.3335 11.6673 4.42294 11.6673 7.00042Z" fill="#56CCF2"/>
<path d="M7.00038 0C3.14052 0 0 3.14052 0 7.00038V7.05089C0 8.92081 0.728067 10.6787 2.05032 12.0013L2.6523 12.6035C4.71781 14.6688 6.04444 17.2864 6.48861 20.1736C6.52792 20.4278 6.74288 20.6126 7 20.6126C7.25712 20.6126 7.47247 20.4278 7.51139 20.1736C7.95594 17.2864 9.28257 14.6688 11.3477 12.6035L11.9497 12.0013C13.2719 10.6791 14 8.92081 14 7.05089V7.00038C14.0008 3.14052 10.8602 0 7.00038 0ZM7.00038 12.4451C3.99791 12.4451 1.55564 10.0028 1.55564 7.00038C1.55564 3.99791 3.99791 1.55564 7.00038 1.55564C10.0028 1.55564 12.4451 3.99791 12.4451 7.00038C12.4451 10.0028 10.0028 12.4451 7.00038 12.4451Z" fill="#2D9CDB"/>
</svg>
