<svg width="367" height="385" viewBox="0 0 367 385" fill="none" xmlns="http://www.w3.org/2000/svg">
<path opacity="0.5" fill-rule="evenodd" clip-rule="evenodd" d="M139.23 359.849C96.03 356.789 45.05 341.229 34.89 321.189C23.42 298.559 23.76 251.459 22.3 234.319C19.42 200.729 -7.7 166.809 3.44 136.999C15.55 104.569 71.83 110.179 98.81 72.5791C111.29 55.1791 124.4 41.3991 146.12 24.0091C199.7 -18.9209 267.21 2.43914 284.86 46.8991C295.56 73.8491 289.86 97.1491 306.35 120.239C322.84 143.329 351.35 168.429 362.21 210.579C377.21 268.959 348.79 265.879 299.73 345.689C252.32 422.829 173.12 362.249 139.23 359.849Z" fill="url(#paint0_linear)"/>
<path opacity="0.5" d="M91.16 139.489C91.3941 139.373 91.6016 139.21 91.7698 139.01C91.9379 138.81 92.0629 138.577 92.1371 138.327C92.2112 138.076 92.2329 137.813 92.2007 137.553C92.1685 137.294 92.0832 137.044 91.95 136.819C91.03 134.369 88.21 133.989 85.95 134.449C85.8605 133.028 85.4839 131.639 84.8428 130.367C84.2017 129.095 83.3095 127.967 82.22 127.049C74.5 120.609 65.03 125.349 64.91 129.209C62.25 126.859 56.63 127.989 57.15 133.849C55.15 133.619 52.65 134.159 51.84 136.129C50.84 138.489 53.37 139.489 54.13 139.489H91.16Z" fill="#E9FBFF"/>
<path d="M44.51 148.729C46.01 147.609 49.9 146.729 51.98 148.729C57.64 141.339 69.24 140.289 76.25 146.329C78.19 138.959 84.74 132.509 92.69 132.579C100.15 132.649 106.93 139.159 106.9 146.579C110.13 144.339 114.11 143.159 118.07 144.379C126.6 147.009 123.99 155.229 120.16 155.229H44.36C42.71 155.259 40.27 151.939 44.51 148.729Z" fill="#EBFFFF"/>
<path d="M153.07 133.889C150.8 129.739 145.8 130.769 144.69 133.029C145.8 125.029 133.43 122.709 131.69 129.629C129.69 128.419 126.91 127.969 125.41 130.119C125.099 130.563 124.892 131.072 124.805 131.607C124.719 132.142 124.755 132.69 124.91 133.209C122.2 131.899 119.91 132.069 118.78 134.639C118.09 136.169 118.86 137.369 120.32 137.369H151.8C153.3 137.369 154 135.579 153.07 133.889Z" fill="white"/>
<path opacity="0.5" d="M262.59 264.829C262.594 264.803 262.594 264.776 262.59 264.749C262.79 261.559 259.59 260.749 256.97 261.509C257.173 260.584 257.062 259.618 256.654 258.763C256.247 257.909 255.566 257.214 254.72 256.789C251.79 255.399 249.22 257.789 248.43 260.459C247.83 259.913 247.051 259.604 246.24 259.589C240.67 259.519 240.38 264.829 241.19 264.829H262.59Z" fill="url(#paint1_linear)"/>
<path opacity="0.5" d="M342.61 211.089C340.96 208.089 337.32 208.809 336.51 210.459C337.32 204.669 328.3 202.939 327.07 207.979C325.62 207.099 323.59 206.769 322.49 208.339C322.264 208.663 322.114 209.033 322.051 209.423C321.989 209.812 322.016 210.211 322.13 210.589C320.13 209.589 318.52 209.759 317.67 211.589C317.16 212.709 317.72 213.589 318.79 213.589H341.69C342.78 213.619 343.29 212.319 342.61 211.089Z" fill="#DEF6FF"/>
<path opacity="0.5" d="M143 259.399C140.73 255.249 135.73 256.279 134.62 258.539C135.73 250.539 123.36 248.219 121.62 255.139C119.62 253.929 116.84 253.479 115.34 255.629C115.029 256.073 114.822 256.582 114.735 257.117C114.649 257.652 114.685 258.2 114.84 258.719C112.13 257.409 109.84 257.579 108.71 260.149C108.02 261.679 108.79 262.879 110.25 262.879H141.69C143.18 262.879 143.87 261.089 143 259.399Z" fill="url(#paint2_linear)"/>
<path d="M168.77 282.219C170.065 281.235 170.954 279.81 171.269 278.214C171.584 276.618 171.303 274.962 170.48 273.559C167.42 268.389 161 268.559 155.92 270.159C156.712 268.492 157.113 266.667 157.094 264.822C157.075 262.976 156.636 261.16 155.81 259.509C154.796 257.464 153.257 255.723 151.351 254.465C149.445 253.208 147.24 252.478 144.96 252.349C134.42 251.489 127.33 260.429 125.73 269.949C124.971 268.583 123.772 267.513 122.329 266.913C120.886 266.312 119.282 266.216 117.778 266.641C116.274 267.066 114.957 267.986 114.041 269.252C113.124 270.519 112.663 272.058 112.73 273.619C109.73 269.769 104.59 266.779 99.85 269.149C96.5 270.819 94.45 274.919 95.58 278.389C94.6571 277.406 93.4671 276.714 92.1563 276.398C90.8455 276.083 89.471 276.156 88.2016 276.611C86.9322 277.066 85.8233 277.881 85.0111 278.958C84.1989 280.034 83.7189 281.324 83.63 282.669C81.85 281.509 80.38 281.259 78.9 282.379C78.5629 282.679 78.3249 283.074 78.2177 283.512C78.1105 283.949 78.1391 284.409 78.2998 284.831C78.4604 285.252 78.7455 285.614 79.1171 285.869C79.4887 286.125 79.9292 286.261 80.38 286.259H173.47C175 286.259 174.79 282.129 168.77 282.219Z" fill="url(#paint3_linear)"/>
<path d="M341.36 222.569C338.45 219.799 334.94 220.209 331.02 222.209C331.62 217.809 333.17 203.459 319.6 201.209C312.95 200.129 307.11 206.319 305.76 212.649C305.165 211.913 304.397 211.336 303.525 210.969C302.652 210.603 301.702 210.458 300.76 210.549C297.5 210.899 295.7 213.809 295.05 216.819C292.49 213.749 285.05 212.959 281.86 214.059C277.86 215.429 273.54 217.149 273.11 221.549C272.67 226.169 278.43 226.839 279.3 226.839H341C343.5 226.869 343.49 224.579 341.36 222.569Z" fill="url(#paint4_linear)"/>
<path d="M52.55 298.659C53.0759 298.275 53.6731 297.999 54.3066 297.848C54.9401 297.697 55.5973 297.674 56.24 297.779C55.3 294.869 56.05 292.429 58.74 291.019C62.53 289.019 68.67 291.709 68.74 296.249C71.74 294.569 75.92 294.499 77.84 297.559C79.09 299.559 78.43 301.759 76.78 301.759H53.05C51.24 301.769 51.5 299.489 52.55 298.659Z" fill="white"/>
<path d="M238.86 169.329C238.864 169.309 238.864 169.289 238.86 169.269C239 166.969 236.68 166.389 234.79 166.929C234.938 166.262 234.86 165.564 234.566 164.946C234.273 164.328 233.781 163.826 233.17 163.519C231.05 162.519 229.17 164.219 228.62 166.179C228.19 165.779 227.627 165.551 227.04 165.539C223.04 165.539 222.8 169.329 223.39 169.329H238.86Z" fill="white"/>
<path d="M147 225.559C147.116 223.223 147.881 220.965 149.21 219.039C151.39 216.039 154.99 208.039 159.27 204.789C162.48 202.369 171.04 198.509 174.68 196.579C178.32 194.649 177.99 193.739 178.28 192.039C178.42 191.209 178.28 190.469 178.75 190.539C179.22 190.609 179.75 191.539 179.62 193.479C179.62 194.089 184.7 191.929 185.62 193.779C186.45 195.379 183.51 197.469 181.72 197.779C179.93 198.089 177.72 198.919 174.82 201.519C172.14 203.929 166.22 206.739 163.75 208.619C161.28 210.499 158.64 218.349 157.2 220.669C155.76 222.989 147 225.559 147 225.559Z" fill="#FFA08D"/>
<path d="M95.86 245.869C95.86 245.869 95.52 244.279 95.21 243.019C94.96 242.019 94.26 238.339 93.75 236.089C93.6389 236.259 93.4878 236.4 93.31 236.499C91.05 237.759 87 237.939 85.64 238.579C84.28 239.219 81.41 240.029 81.39 242.299C82.23 241.899 83.06 241.439 83.83 241.109C86.01 240.159 88.14 239.689 88.59 240.659C89.04 241.629 89.59 247.499 89.59 247.499L95.86 245.869Z" fill="#FFC5B3"/>
<path d="M140.67 244.229L134.04 242.619C134.04 242.619 131.5 242.269 126.95 244.699C123.52 246.539 122.53 248.819 120.64 251.259C119.64 252.489 115.31 253.559 109.98 256.079C106.212 257.988 102.644 260.269 99.33 262.889C99.33 262.889 98.46 259.459 96.59 249.579C95.93 246.089 95.44 243.769 94.97 241.939C92.84 243.809 91.31 244.549 89.16 243.599C89.29 246.389 89.42 252.599 89.63 255.039C90.07 260.409 90.36 265.159 91.07 269.399C91.3269 271.733 92.4949 273.871 94.32 275.349C95.38 276.269 98.14 276.489 101.67 275.639C106.629 274.166 111.464 272.303 116.13 270.069C122.872 266.912 129.385 263.286 135.62 259.219C139.7 256.489 149.77 246.449 149.77 246.449L140.67 244.229Z" fill="#31193B"/>
<path d="M108.08 258.909C108.08 258.909 107.73 257.319 107.42 256.059C107.17 255.059 106.47 251.379 105.97 249.129C105.852 249.297 105.699 249.437 105.52 249.539C103.26 250.799 99.21 250.979 97.85 251.619C96.49 252.259 93.62 253.069 93.6 255.339C94.44 254.939 95.27 254.479 96.04 254.149C98.22 253.149 100.35 252.729 100.8 253.699C101.25 254.669 101.8 260.539 101.8 260.539L108.08 258.909Z" fill="#FFC5B3"/>
<path d="M105.67 247.899C105.546 247.118 105.369 246.346 105.14 245.589C105.24 246.049 104.14 247.179 102.01 247.689C99.88 248.199 97.01 248.939 95.77 249.369C94.53 249.799 91.95 251.899 90.1 254.369C89.5125 255.275 88.6991 256.013 87.74 256.509C88.0006 256.598 88.2682 256.665 88.54 256.709C89.97 256.959 92.05 256.039 93.6 255.299C93.6 253.029 96.49 252.229 97.85 251.579C99.21 250.929 103.26 250.759 105.52 249.499C105.699 249.397 105.852 249.257 105.97 249.089C105.86 248.639 105.76 248.219 105.67 247.899Z" fill="#E85D8F"/>
<path d="M90.1 254.409C91.95 251.899 94.54 249.789 95.77 249.409C97 249.029 99.89 248.239 102.01 247.729C104.13 247.219 105.24 246.089 105.14 245.629C105.004 245.403 104.812 245.217 104.582 245.087C104.353 244.957 104.094 244.889 103.83 244.889C102.05 244.649 100.63 246.029 99.34 246.559C98.05 247.089 96.62 246.939 93.41 247.859C91.9843 248.186 90.6424 248.807 89.4699 249.682C88.2974 250.556 87.32 251.666 86.6 252.939C85.36 255.099 86.48 256.139 87.74 256.589C88.704 256.082 89.5178 255.33 90.1 254.409Z" fill="url(#paint5_linear)"/>
<path d="M90.1 254.409C91.95 251.899 94.5 250.809 95.6 250.119C97.62 249.03 99.7754 248.213 102.01 247.689C104.1 247.179 105.24 246.049 105.14 245.589C105.004 245.363 104.812 245.177 104.582 245.047C104.353 244.917 104.094 244.849 103.83 244.849C102.05 244.609 100.63 245.989 99.34 246.519C98.05 247.049 96.62 246.899 93.41 247.819C91.9843 248.146 90.6424 248.767 89.4699 249.642C88.2974 250.516 87.32 251.626 86.6 252.899C85.36 255.059 86.48 256.099 87.74 256.549C88.6991 256.053 89.5124 255.315 90.1 254.409Z" fill="#DB4574"/>
<path d="M147.22 244.279C141.35 241.429 139.54 240.469 139.54 240.469C139.54 240.469 135.35 241.999 130.17 247.249C128.05 249.389 126.62 254.609 126.37 256.179C125.82 259.819 122.26 261.909 117.58 266.869C114.826 269.758 112.503 273.028 110.68 276.579C110.648 272.791 110.236 269.015 109.45 265.309C108.857 261.736 108.083 258.194 107.13 254.699C105.484 255.975 103.429 256.608 101.35 256.479C101.26 259.279 101.41 265.479 101.35 270.339C101.25 276.999 101.61 280.389 102.77 284.339C103.08 285.152 103.561 285.889 104.18 286.5C104.799 287.11 105.543 287.581 106.36 287.879C107.818 288.372 109.386 288.438 110.88 288.069C115.76 287.289 127.11 279.309 133.64 272.799C140.17 266.289 148.39 256.369 148.39 256.369C148.39 256.369 153.08 247.129 147.22 244.279Z" fill="#3B2B5A"/>
<path d="M163 224.339L168.27 224.929C168.377 227.228 167.848 229.512 166.74 231.529C166.212 232.287 165.947 233.197 165.985 234.12C166.023 235.042 166.362 235.927 166.95 236.639C166.95 236.639 165.41 241.399 163.29 242.639C162 243.369 159.24 243.959 157.66 244.919C154.66 246.749 154.47 247.919 152.43 250.429C150.82 252.429 148.33 256.429 148.33 256.429C148.33 256.429 145.39 250.049 139.57 246.579C135.07 243.899 128.57 244.029 128.57 244.029C128.57 244.029 132.93 241.579 136.35 239.109C138.842 237.038 140.977 234.572 142.67 231.809C146.74 225.099 146.75 224.169 150.67 221.709C154.59 219.249 163 224.339 163 224.339Z" fill="#E85D8F"/>
<path d="M164.76 209.119C167.01 210.169 168.45 211.449 168.76 216.309C169.07 221.169 167.88 222.109 166.93 222.619C166.338 222.874 165.726 223.082 165.1 223.239C165.1 223.239 164.96 228.039 164.28 229.239C163.86 229.959 161.7 230.239 159.28 229.509C156.86 228.779 156.84 227.939 156.84 227.939C157.343 225.886 157.512 223.766 157.34 221.659C156.83 218.349 155.75 216.579 156.14 213.349C156.61 209.809 160.82 207.279 164.76 209.119Z" fill="#FFC5B3"/>
<path d="M167.29 237.929C167.29 237.929 175.68 232.999 181.98 228.569C188.28 224.139 190.45 218.449 194.59 211.039C195.5 209.409 196.9 208.479 197.85 207.349C200.11 204.659 200.59 202.929 200.57 201.659C200.57 200.569 200.2 199.769 199.57 199.659C198.7 199.499 197.45 200.929 196.73 201.939C196.159 202.684 195.527 203.38 194.84 204.019C194.84 204.019 193.84 201.719 192.61 201.609C190.91 201.469 192.55 202.799 192.68 203.279C192.953 204.004 193.039 204.786 192.931 205.553C192.823 206.321 192.523 207.048 192.06 207.669C188.9 212.304 185.275 216.603 181.24 220.499C178.74 222.689 170.64 224.039 167.45 226.619C165.989 227.957 164.852 229.611 164.128 231.455C163.403 233.299 163.11 235.285 163.27 237.259C163.49 238.629 165.17 238.749 167.29 237.929Z" fill="#FFC5B3"/>
<path d="M168.26 210.809C168.34 212.559 166.26 214.019 166.51 215.329C166.684 215.953 166.725 216.607 166.631 217.248C166.536 217.889 166.307 218.503 165.96 219.049C163.96 221.959 165.8 224.249 166.67 224.639C167.181 224.846 167.729 224.944 168.279 224.928C168.83 224.913 169.372 224.784 169.87 224.549C169.87 224.549 169.14 226.469 167.48 226.629C166.65 226.748 165.805 226.708 164.99 226.509C164.99 226.509 166.99 228.699 166.33 230.299C165.67 231.899 162.75 232.389 162.07 233.239C161.646 233.696 161.374 234.274 161.294 234.892C161.213 235.511 161.327 236.139 161.62 236.689C160.604 236.09 159.733 235.274 159.07 234.299C158.71 233.37 158.71 232.339 159.07 231.409C159.07 231.409 157.55 233.129 156.28 233.069C154.41 232.989 154.05 232.409 154.05 232.409C154.05 232.409 156.61 231.999 157.05 230.099C157.17 229.569 156.26 228.909 155.23 229.429C152.44 230.849 152.29 229.679 151.51 230.279C150.88 230.759 150.82 232.279 150.82 232.279C150.267 231.607 149.969 230.76 149.98 229.889C150.05 227.969 153.06 226.439 153.06 226.439C153.06 226.439 151.06 227.319 150.14 226.149C149.32 225.149 149.81 224.319 149.32 223.539C148.04 221.539 145.41 224.739 145.41 224.739C145.397 223.857 145.665 222.994 146.176 222.275C146.686 221.556 147.413 221.018 148.25 220.739C149.25 220.309 150.61 220.799 151.53 220.149C154.53 218.009 151.82 213.619 153.34 210.419C153.839 209.4 154.633 208.553 155.619 207.99C156.605 207.426 157.738 207.172 158.87 207.259C159.857 206.434 161.077 205.937 162.36 205.839C166 205.799 168.13 208.079 168.26 210.809Z" fill="#31193B"/>
<path d="M93.46 234.859C93.3357 234.078 93.1586 233.306 92.93 232.549C93.03 233.009 91.93 234.139 89.8 234.649C87.67 235.159 84.8 235.899 83.56 236.329C82.32 236.759 79.74 238.859 77.89 241.329C77.3024 242.235 76.4891 242.973 75.53 243.469C75.7906 243.558 76.0582 243.625 76.33 243.669C77.76 243.919 79.84 242.999 81.39 242.259C81.39 239.989 84.28 239.189 85.64 238.539C87 237.889 91.05 237.719 93.31 236.459C93.4878 236.36 93.6389 236.22 93.75 236.049C93.65 235.599 93.55 235.179 93.46 234.859Z" fill="#E85D8F"/>
<path d="M77.89 241.369C79.74 238.859 82.33 236.749 83.56 236.369C84.79 235.989 87.68 235.199 89.8 234.689C91.92 234.179 93.03 233.049 92.93 232.589C92.7939 232.363 92.6018 232.177 92.3722 232.047C92.1427 231.917 91.8836 231.849 91.62 231.849C89.84 231.609 88.42 232.989 87.13 233.519C85.84 234.049 84.41 233.899 81.19 234.819C79.7663 235.148 78.4266 235.77 77.256 236.644C76.0854 237.519 75.1094 238.627 74.39 239.899C73.15 242.059 74.27 243.099 75.53 243.549C76.494 243.042 77.3078 242.29 77.89 241.369Z" fill="url(#paint6_linear)"/>
<path d="M77.89 241.369C79.74 238.859 82.29 237.769 83.39 237.079C85.4101 235.99 87.5654 235.173 89.8 234.649C91.89 234.139 93.03 233.009 92.93 232.549C92.7939 232.323 92.6018 232.136 92.3722 232.007C92.1427 231.877 91.8836 231.809 91.62 231.809C89.84 231.569 88.42 232.949 87.13 233.479C85.84 234.009 84.41 233.859 81.19 234.779C79.7663 235.108 78.4266 235.73 77.256 236.604C76.0854 237.479 75.1094 238.587 74.39 239.859C73.15 242.019 74.27 243.059 75.53 243.509C76.4891 243.013 77.3024 242.275 77.89 241.369Z" fill="#DB4574"/>
<path d="M143.05 242.579C143.05 242.579 145.89 244.759 147.85 246.379C148.833 247.274 149.99 247.955 151.25 248.379C150.527 247.189 149.592 246.141 148.49 245.289C145.26 242.749 143.05 242.579 143.05 242.579Z" fill="#DB4574"/>
<path d="M146.84 242.219C148.132 242.807 149.47 243.288 150.84 243.659C151.855 243.918 152.91 243.986 153.95 243.859C152.911 243.43 151.846 243.069 150.76 242.779C149.468 242.503 148.158 242.316 146.84 242.219Z" fill="#DB4574"/>
<path d="M171.75 152.649C177.9 152.999 182.94 155.759 185.62 156.649C188.42 157.49 191.127 158.613 193.7 159.999C195.752 161.231 197.434 162.993 198.57 165.099C200.174 167.906 201.591 170.816 202.81 173.809C203.672 175.87 204.098 178.086 204.06 180.319C204.22 184.219 202.3 186.319 200.19 185.759C197.62 185.039 198.25 177.479 197.88 174.919C197.51 172.359 192.02 168.419 190.42 166.379C186.79 165.379 177.05 165.099 172.89 163.119C168.69 160.079 171.75 152.649 171.75 152.649Z" fill="#FFA08D"/>
<path d="M118.64 109.999V104.999C118.64 104.999 117.98 103.339 115.45 103.339C114.508 103.383 113.612 103.758 112.92 104.399C111.65 104.173 110.368 104.023 109.08 103.949C107.85 103.949 104.42 105.129 103.63 106.229C103.469 106.402 103.363 106.618 103.326 106.851C103.288 107.084 103.321 107.323 103.42 107.537C103.518 107.752 103.678 107.932 103.88 108.055C104.081 108.178 104.314 108.239 104.55 108.229C106.64 108.449 111.64 110.999 111.55 111.029L118.64 109.999Z" fill="#31193B"/>
<path d="M142.59 147.429C142.59 147.429 140.46 142.269 136.73 140.179C133 138.089 131.13 138.299 129.67 136.999C128.21 135.699 122.55 131.619 122.55 131.619C122.55 131.619 121.49 123.009 121.13 118.039C120.77 113.069 120.33 110.669 120.33 110.669C118.841 109.522 117.037 108.855 115.16 108.759C112.29 108.649 109.94 111.559 109.94 111.559C110.141 114.579 110.525 117.585 111.09 120.559C111.93 125.559 112.77 132.709 113.17 134.619C113.57 136.529 115.34 137.519 117.58 139.919C119.17 141.619 130.12 149.489 130.12 149.489L142.59 147.429Z" fill="#4747B2"/>
<path d="M94.64 114.879C94.2568 113.14 93.7248 111.437 93.05 109.789C92.34 108.489 88 109.189 87.26 110.309C87.3843 110.756 87.4778 111.21 87.54 111.669C85.9279 111.971 84.3853 112.567 82.99 113.429C82.0428 114.012 81.2736 114.842 80.7658 115.832C80.258 116.821 80.0312 117.93 80.11 119.039C80.21 120.809 82.49 119.849 84.84 119.339C87.19 118.829 90.78 117.909 90.78 117.909L94.64 114.879Z" fill="#31193B"/>
<path d="M126.87 162.999C126.87 162.999 107.67 155.999 101.21 152.239C94.75 148.479 95.7 147.919 95.03 145.429C94.36 142.939 89.28 127.659 87.86 124.109C86.44 120.559 85.7 117.959 85.7 117.959C85.7 117.959 86.28 115.479 89.77 114.449C91.7207 113.821 93.8193 113.821 95.77 114.449C95.77 114.449 97.18 120.089 98.38 123.449C99.58 126.809 100.32 128.239 101.75 132.769C102.194 134.89 102.528 137.033 102.75 139.189C102.75 139.189 109.44 142.189 113.26 142.629C117.08 143.069 120.63 144.849 124.03 145.149C127.33 144.099 132.95 144.009 135.72 146.059C138.49 148.109 138.82 150.119 138.82 150.119L126.87 162.999Z" fill="#5C5BC3"/>
<path d="M172 151.999C175.14 154.289 176.12 156.859 174.63 160.539C172.85 164.929 168.36 168.539 165.53 170.959C162.38 173.679 156.06 175.269 150.63 174.729C145.2 174.189 142.37 170.659 136.63 167.729C132.713 165.817 128.545 164.47 124.25 163.729C124.25 163.729 121.68 155.499 127.18 150.539C132.68 145.579 139.84 146.059 141.67 145.539C143.96 146.959 146.42 149.339 149.53 150.539C152.97 151.859 157.04 151.939 158.53 152.089C161.27 152.249 168.82 149.669 172 151.999Z" fill="#FF6A4D"/>
<path d="M163.76 156.899C162.269 157.279 160.806 157.76 159.38 158.339C158.08 159.209 158.46 159.969 159.9 162.139C160.853 163.731 161.663 165.404 162.32 167.139C162.62 167.889 163.38 169.759 164.89 169.239C166.4 168.719 167.61 167.129 168.74 165.999C169.87 164.869 169.51 159.389 169.51 159.389C169.51 159.389 165.57 156.859 163.76 156.899Z" fill="#FFA08D"/>
<path d="M161.72 152.079C160.22 153.989 159.72 158.769 161.82 162.139C163.65 165.139 167.82 166.819 169.69 167.139C173 167.669 176.58 158.519 172.8 152.909C172.25 151.964 171.478 151.166 170.551 150.586C169.623 150.006 168.569 149.66 167.478 149.578C166.388 149.497 165.293 149.682 164.29 150.117C163.287 150.553 162.405 151.226 161.72 152.079Z" fill="#FFC5B3"/>
<path d="M165.15 147.999C167.291 147.631 169.494 148.05 171.35 149.179C172.564 150.037 173.553 151.176 174.23 152.499C175.17 154.369 175.9 155.729 175.9 155.729C175.9 155.729 171.12 156.949 167.75 155.729H167.62C166.97 158.729 164.04 160.199 163.62 160.069C163.29 158.789 162.73 158.479 162.1 159.069C161.47 159.659 161.5 162.069 161.5 162.069C160.661 161.266 159.991 160.302 159.531 159.236C159.071 158.169 158.829 157.021 158.82 155.859C158.91 153.339 160.71 148.549 165.15 147.999Z" fill="#31193B"/>
<path d="M139.07 150.369C139.07 150.369 135.69 152.459 133.26 153.929C131.735 154.871 130.307 155.963 129 157.189C129 157.189 129.37 155.189 132.19 152.829C134.194 151.355 136.586 150.5 139.07 150.369Z" fill="#F45540"/>
<path d="M141.38 153.779C139.922 154.392 138.526 155.142 137.21 156.019C135.552 157.083 134.129 158.474 133.03 160.109C133.068 159.195 133.296 158.299 133.699 157.478C134.102 156.657 134.671 155.928 135.37 155.339C137.82 153.069 141.38 153.779 141.38 153.779Z" fill="#F45540"/>
<path d="M147.5 166.359C145.89 172.079 148.4 176.109 149.97 181.819C150.97 185.499 150.63 187.159 152.84 188.729C157.01 191.729 169.43 194.829 172.47 196.409C175.51 197.989 177.47 194.989 181.82 196.359C186.17 197.729 188.32 195.919 187.82 194.609C187.07 192.709 183.27 188.259 179.96 189.399C176.65 190.539 174.45 190.989 172.72 190.349C171.15 189.769 163.05 185.249 159.77 183.349C158.86 181.099 159.77 169.669 158.1 166.449C155.4 161.259 149.07 160.799 147.5 166.359Z" fill="#FFC5B3"/>
<path d="M222 151.209C222 151.209 215.92 156.209 211.44 160.499C206.96 164.789 205.95 169.629 203.57 176.059C202.979 177.255 202.258 178.381 201.42 179.419C199.95 181.849 199.78 183.289 199.96 184.299C200.14 185.309 200.49 185.769 200.96 185.779C201.67 185.779 202.49 184.489 202.96 183.599C203.326 182.935 203.748 182.303 204.22 181.709C204.22 181.709 205.33 183.419 206.29 183.349C207.67 183.259 206.19 182.399 206.03 182.029C205.72 181.485 205.553 180.871 205.545 180.246C205.536 179.62 205.686 179.002 205.98 178.449C207.911 174.353 210.257 170.466 212.98 166.849C214.7 164.849 220.98 162.719 223.22 160.259C224.215 159.009 224.912 157.549 225.258 155.99C225.605 154.43 225.592 152.813 225.22 151.259C224.93 150.179 223.57 150.289 222 151.209Z" fill="#FFC5B3"/>
<path d="M279.64 176.219C279.64 176.219 280.64 173.019 281.22 170.629C281.64 168.879 282.87 168.729 284.3 168.629C286.13 168.559 286.44 169.479 286.44 169.479C286.44 169.479 287.89 167.899 291.58 167.089C295.27 166.279 296.73 166.989 296.34 168.729C295.95 170.469 291.34 172.589 288.76 175.729C286.18 178.869 285.55 179.069 285.55 179.069L279.64 176.219Z" fill="#5C5BC3"/>
<path d="M256.86 178.329C256.86 178.329 257.86 175.139 258.45 172.739C258.87 170.999 260.09 170.849 261.53 170.739C263.36 170.659 263.67 171.579 263.67 171.579C263.67 171.579 265.12 170.009 268.81 169.189C272.5 168.369 273.96 169.089 273.56 170.829C273.16 172.569 268.56 174.689 265.99 177.829C263.42 180.969 262.78 181.179 262.78 181.179L256.86 178.329Z" fill="#5C5BC3"/>
<path d="M252.34 183.639C249.55 187.109 249.27 189.639 249.27 189.639L248.16 184.409C248.63 182.219 249.4 181.599 249.27 180.979C249.14 180.359 248.27 176.059 247.33 171.519L244.17 170.029L233.17 172.359C233.17 172.359 233.68 176.549 234.12 178.869C235.181 183.821 236.705 188.662 238.67 193.329C240.88 198.209 242.78 198.899 245.82 200.709C246.369 201.087 247.011 201.306 247.677 201.341C248.342 201.377 249.004 201.227 249.59 200.909C250.779 200.197 251.928 199.419 253.03 198.579C254.48 197.509 265.22 182.389 266.03 179.919C265.34 176.979 261.37 174.619 258.41 174.709C256.66 177.419 254.22 181.299 252.34 183.639Z" fill="#31193B"/>
<path d="M233.38 142.549C232.73 147.839 226.12 144.769 226.12 144.769L228.42 136.999C228.42 136.999 234.09 136.839 233.38 142.549Z" fill="#3B2B5A"/>
<path d="M223 147.189C223.533 148.401 223.73 149.735 223.57 151.049C223.41 153.639 222.23 154.669 225.13 156.879C228.03 159.089 236.47 158.129 236.37 154.639C236.32 152.929 236.19 147.889 234.68 147.569C233.513 147.416 232.397 146.999 231.416 146.349C230.435 145.699 229.616 144.834 229.02 143.819C226.15 139.399 223 147.189 223 147.189Z" fill="#FFA08D"/>
<path d="M238.57 177.999C239.778 180.409 241.376 182.602 243.3 184.489C243.96 185.124 244.789 185.556 245.688 185.734C246.587 185.911 247.518 185.826 248.37 185.489C249.37 187.179 253.3 191.489 257.37 195.789C262.08 200.709 266.79 201.959 271.3 202.899C274.78 203.629 276.62 200.359 278.64 195.769C280.66 191.179 287.58 179.239 287.58 179.239C287.58 179.239 289.28 176.549 285.68 173.689C284.837 173.036 283.827 172.633 282.765 172.529C281.704 172.425 280.634 172.622 279.68 173.099C278.075 175.193 276.595 177.38 275.25 179.649C273.392 183.024 271.9 186.588 270.8 190.279C267.01 184.459 262.12 179.709 260.06 176.389C258.11 173.004 255.298 170.195 251.91 168.249C248.22 165.909 238.57 177.999 238.57 177.999Z" fill="#3B2B5A"/>
<path d="M232.16 146.749C229.31 150.889 229.62 155.209 226.69 155.519C224.05 155.789 224.75 149.889 224.75 149.889C224.75 149.889 222.95 146.139 222.99 147.189C223.11 151.329 222.21 155.929 222.13 159.269C222 164.269 225.03 164.999 226.46 165.559C229.85 166.869 230.05 167.819 231.72 170.559C232.988 173.206 233.809 176.044 234.15 178.959C237.44 183.149 251.06 179.499 253.65 169.399C251.72 167.231 249.184 165.691 246.37 164.979C243.88 164.249 242.73 161.509 242.23 158.359C241.18 151.799 240.02 150.359 238.31 149.229C236.358 148.178 234.295 147.347 232.16 146.749Z" fill="#5C5BC3"/>
<path d="M226.79 133.389C225.852 132.896 224.807 132.637 223.747 132.636C222.687 132.635 221.642 132.892 220.703 133.383C219.764 133.875 218.958 134.588 218.355 135.459C217.752 136.331 217.369 137.337 217.24 138.389C216.05 144.859 222.8 151.629 225.55 149.859C227.09 148.859 230.15 146.599 230.61 143.219C231.14 139.449 228.87 134.509 226.79 133.389Z" fill="#FFC5B3"/>
<path d="M227.59 141.559C227.92 141.169 228.66 140.919 229.12 142.029C229.31 142.426 229.364 142.874 229.273 143.304C229.183 143.734 228.953 144.122 228.62 144.409L226.9 142.719C227.076 142.303 227.309 141.913 227.59 141.559Z" fill="#FFC5B3"/>
<path d="M227.22 133.229C225.08 128.539 211.74 132.799 217.22 141.009C218.949 140.565 220.581 139.802 222.03 138.759C223.127 140.612 224.835 142.027 226.86 142.759C231.07 144.059 231.29 141.309 231.29 141.309C231.29 141.309 232.2 133.759 227.22 133.229Z" fill="#31193B"/>
<path d="M236.39 148.249C235.322 150.74 234.706 153.402 234.57 156.109C234.36 159.896 234.36 163.692 234.57 167.479C234.57 167.479 230 172.019 227.28 175.219C224.56 178.419 223.01 177.739 220.53 177.439C218.05 177.139 217.02 177.569 216.84 178.219C216.66 178.869 218.52 179.309 219.07 179.659C219.62 180.009 216.53 181.309 214.55 183.339C212.57 185.369 215.98 187.799 218.35 186.839C220.72 185.879 223.63 182.379 224.83 181.839C226.03 181.299 233.83 177.759 237.04 174.989C240.25 172.219 240.83 170.699 241.24 168.309C241.65 165.919 242.84 157.309 242.24 153.639C241.64 149.969 240.12 149.049 236.39 148.249Z" fill="#FFC5B3"/>
<path d="M293.24 262.079C294.29 263.079 292.91 264.969 290.62 267.489C288.33 270.009 286.96 270.299 285.95 269.489C284.94 268.679 284.74 265.879 286.84 263.489C288.94 261.099 291.66 260.629 293.24 262.079Z" fill="#31193B"/>
<path d="M280.28 275.439C281.33 276.439 279.95 278.329 277.66 280.859C275.37 283.389 274.01 283.659 272.99 282.859C271.97 282.059 271.78 279.239 273.88 276.859C275.98 274.479 278.7 273.999 280.28 275.439Z" fill="#31193B"/>
<path d="M289.2 261.999C290.28 261.479 292.28 263.359 294.26 264.899C295.62 265.949 295.35 267.229 294.87 268.469L294.52 269.369C295.834 270.669 296.931 272.171 297.77 273.819C298.95 276.289 299.2 277.949 298.22 279.899C297.55 281.209 295.62 281.239 294.22 279.629C292.29 277.469 286.09 268.429 286.09 268.429C286.09 268.429 283.35 264.789 289.2 261.999Z" fill="#31193B"/>
<path d="M276.77 275.799C277.85 275.279 279.85 277.169 281.83 278.699C283.19 279.759 282.92 281.039 282.44 282.269L282.09 283.179C283.398 284.478 284.491 285.977 285.33 287.619C286.51 290.099 286.77 291.759 285.78 293.699C285.12 295.019 283.18 295.049 281.78 293.439C279.85 291.279 273.64 282.239 273.64 282.239C273.64 282.239 270.91 278.629 276.77 275.799Z" fill="#31193B"/>
<path d="M241.17 193.919C241.17 193.919 234.71 195.559 233.38 195.369C232.05 195.179 227.55 189.889 223.6 186.129C219.65 182.369 215.82 181.319 213.6 181.949C211.6 182.529 210.7 183.369 213.31 185.029C215.45 186.399 216.7 186.889 215.83 187.029C214.21 187.329 213.31 188.559 214.34 188.649C215.849 188.7 217.36 188.637 218.86 188.459C220.45 188.299 222.45 191.459 224.86 194.929C226.421 197.292 228.181 199.516 230.12 201.579C231.76 203.199 235.44 202.329 238.38 202.509C241.32 202.689 241.17 193.919 241.17 193.919Z" fill="#FFC5B3"/>
<path d="M243 191.089C243 191.089 245.68 189.919 247.79 190.689C251.45 192.009 251.96 194.809 252.01 198.079C252.06 201.349 251.01 201.259 251.01 201.259L243.34 198.919L243 191.089Z" fill="#D6EAF5"/>
<path d="M259 220.209C260.881 222.08 262.575 224.13 264.06 226.329C265.78 228.819 267.32 233.989 270.34 238.329C272.65 241.669 274.34 244.989 277.34 247.159C280.946 249.953 284.335 253.015 287.48 256.319C291.22 260.039 293.33 262.049 293.33 262.049C293.33 262.049 289.5 262.559 287.94 264.279C286.2 266.199 286.04 269.489 286.04 269.489C286.04 269.489 277.04 262.619 273.09 259.289C271.16 257.639 267.67 254.689 265.65 252.869C263.352 250.83 261.313 248.516 259.58 245.979C255.72 240.319 250.58 231.599 250.58 231.599L259 220.209Z" fill="#31193B"/>
<path d="M257.42 226.679C257.42 226.679 259.49 228.269 260.42 232.589C260.918 235.127 260.777 237.749 260.01 240.219C260.01 240.219 260.48 249.079 262.5 254.109C265.81 257.359 266.76 256.999 271.5 263.209C275.92 268.959 280.23 275.439 280.23 275.439C280.23 275.439 276.61 276.609 275.29 277.779C273.956 279.14 273.094 280.892 272.83 282.779C272.83 282.779 259.35 269.099 256.57 265.649C250.72 258.369 249.19 257.829 246.9 251.209C243.31 240.809 239.81 233.679 239.05 230.409C238.29 227.139 257.42 226.679 257.42 226.679Z" fill="#3B2B5A"/>
<path d="M242.83 191.599C242.83 191.599 245.93 190.999 247.28 191.809C250.13 193.509 251.82 197.169 253.06 201.129C254.3 205.089 254.6 209.129 255.3 212.899C256 216.669 259.54 219.899 261.69 222.719C262.69 227.989 256.15 231.489 252.43 233.359C247.18 235.979 240.88 235.839 238.86 233.519C238.42 230.819 237.78 225.519 236.8 222.459C235.466 218.868 234.37 215.194 233.52 211.459C232.79 207.609 231.42 203.339 233.57 200.459C234.619 199.164 235.897 198.072 237.34 197.239C239.514 195.728 241.378 193.813 242.83 191.599Z" fill="white"/>
<path d="M242.75 186.779C242.75 186.779 243.34 192.079 244.53 193.039C245.72 193.999 244.95 195.269 242.6 196.099C239.9 197.099 237.95 197.849 236.49 197.269C236.72 196.369 236.12 190.699 236.12 190.699L242.75 186.779Z" fill="#FFA08D"/>
<path d="M243.83 179.549C243.218 178.718 242.414 178.048 241.485 177.597C240.556 177.146 239.532 176.928 238.5 176.961C237.469 176.995 236.461 177.279 235.563 177.789C234.666 178.299 233.906 179.02 233.35 179.889C229.56 185.029 232.97 193.309 236.46 193.279C237.843 193.101 239.172 192.63 240.359 191.897C241.545 191.164 242.562 190.187 243.34 189.029C245.42 185.939 245.17 181.409 243.83 179.549Z" fill="#FFC5B3"/>
<path d="M230.57 179.359C231.048 180.35 231.736 181.225 232.585 181.925C233.434 182.624 234.426 183.13 235.49 183.409C235.729 183.871 235.861 184.38 235.876 184.899C235.892 185.418 235.79 185.934 235.58 186.409C235.76 186.749 236.37 186.849 236.37 186.849C236.92 185.629 238.22 184.769 238.97 185.849C239.72 186.929 239.13 187.739 238.4 189.049C238.29 192.379 243.15 193.469 243.15 193.469C244.016 191.405 245.018 189.4 246.15 187.469C247.67 185.009 247.47 180.279 244.25 178.699C243.984 177.94 243.549 177.25 242.979 176.682C242.409 176.113 241.719 175.681 240.958 175.416C240.198 175.152 239.388 175.063 238.588 175.155C237.789 175.247 237.02 175.519 236.34 175.949C234.95 176.799 234.2 177.549 233.27 178.169C232.463 178.751 231.543 179.156 230.57 179.359Z" fill="#FF6A4D"/>
<path d="M228.92 204.329L220.18 210.579C218.18 209.219 213.12 206.429 212.55 206.089C210.33 204.779 207.12 202.839 206.26 201.749C206.04 201.279 205.6 200.229 205.36 199.849C204.74 198.849 203.29 195.769 202.85 196.699C202.731 197.09 202.7 197.503 202.759 197.907C202.818 198.312 202.965 198.698 203.19 199.039C203.58 199.749 203.14 200.189 202.3 200.279C201.46 200.369 194.65 198.559 194.25 200.469C193.85 202.379 197.12 203.269 198.82 203.859C200.52 204.449 202.76 204.659 203.82 204.999C204.48 205.739 209.39 209.769 211.06 211.349C212.913 213.179 214.962 214.799 217.17 216.179C220.02 217.739 221.64 217.669 222.3 217.179C223.46 216.349 227.12 214.699 228.69 213.179C229.88 212.026 231.002 210.804 232.05 209.519L228.92 204.329Z" fill="#FFC5B3"/>
<path d="M227.81 214.639C225.19 212.739 223.68 211.339 222.95 207.999C228.45 202.829 232.81 198.259 235.36 199.999C238.36 202.079 238.61 205.119 235.89 207.879C231.41 212.459 230.1 213.609 227.81 214.639Z" fill="#D6EAF5"/>
<path d="M240 226.369C241.754 226.567 243.527 226.527 245.27 226.249C246.767 225.907 248.245 225.49 249.7 224.999C249.23 225.705 248.613 226.302 247.892 226.749C247.17 227.195 246.362 227.482 245.52 227.589C243.596 227.796 241.657 227.368 240 226.369Z" fill="#D6EAF5"/>
<path d="M247.54 221.469C246.453 222.383 245.223 223.113 243.9 223.629C242.551 224.154 241.163 224.575 239.75 224.889C240.823 223.79 242.083 222.889 243.47 222.229C244.75 221.665 246.143 221.405 247.54 221.469Z" fill="#D6EAF5"/>
<path d="M243.85 191.999C244.624 192.434 245.248 193.093 245.64 193.889C246.21 195.149 244.37 197.179 241.9 197.889C239.64 198.403 237.348 198.767 235.04 198.979C235.05 198.277 235.296 197.6 235.739 197.055C236.182 196.511 236.795 196.132 237.48 195.979C240.03 195.169 242.43 194.779 243.33 193.839C243.581 193.612 243.763 193.319 243.854 192.994C243.946 192.668 243.945 192.324 243.85 191.999Z" fill="#D6EAF5"/>
<defs>
<linearGradient id="paint0_linear" x1="130.721" y1="325.107" x2="216.176" y2="28.7109" gradientUnits="userSpaceOnUse">
<stop stop-color="#2BE4FD" stop-opacity="0.5"/>
<stop offset="1" stop-color="#66B3FD" stop-opacity="0.5"/>
</linearGradient>
<linearGradient id="paint1_linear" x1="9520.47" y1="16607.3" x2="9520.47" y2="16678.6" gradientUnits="userSpaceOnUse">
<stop stop-color="#EBFFFF"/>
<stop offset="0.55" stop-color="#557DE6"/>
<stop offset="1" stop-color="#5377E4"/>
</linearGradient>
<linearGradient id="paint2_linear" x1="10618.3" y1="23098.2" x2="10618.3" y2="23238.1" gradientUnits="userSpaceOnUse">
<stop stop-color="#5C8CEA"/>
<stop offset="0.55" stop-color="#557DE6"/>
<stop offset="1" stop-color="#5377E4"/>
</linearGradient>
<linearGradient id="paint3_linear" x1="24412.1" y1="66430.1" x2="33647.9" y2="66430.1" gradientUnits="userSpaceOnUse">
<stop stop-color="#EBFFFF"/>
<stop offset="0.06" stop-color="#BBD6FE"/>
<stop offset="0.55" stop-color="#AECBF6"/>
<stop offset="1" stop-color="#A9C7F3"/>
</linearGradient>
<linearGradient id="paint4_linear" x1="31564.4" y1="48952.9" x2="36440.8" y2="48952.9" gradientUnits="userSpaceOnUse">
<stop stop-color="#EBFFFF"/>
<stop offset="0.06" stop-color="#BBD6FE"/>
<stop offset="0.55" stop-color="#AECBF6"/>
<stop offset="1" stop-color="#A9C7F3"/>
</linearGradient>
<linearGradient id="paint5_linear" x1="77.9946" y1="261.518" x2="98.3346" y2="259.687" gradientUnits="userSpaceOnUse">
<stop stop-color="#EA3AFE"/>
<stop offset="0.99" stop-color="#FB67FD"/>
</linearGradient>
<linearGradient id="paint6_linear" x1="5578.59" y1="22019.8" x2="5966.79" y2="22019.8" gradientUnits="userSpaceOnUse">
<stop stop-color="#EA3AFE"/>
<stop offset="0.99" stop-color="#FB67FD"/>
</linearGradient>
</defs>
</svg>
