<svg width="78" height="107" viewBox="0 0 78 107" fill="none" xmlns="http://www.w3.org/2000/svg">
<rect x="19.9129" y="78.1395" width="47" height="5" fill="#E9F6EE" stroke="#3C3C3B" stroke-width="1.5" stroke-linejoin="round"/>
<path d="M70.2557 78.1395V55.8824L54.5129 40.1395H32.2557L16.5129 55.8824V78.1395H70.2557Z" fill="#40C8B2" stroke="#3C3C3B" stroke-width="1.5" stroke-miterlimit="10" stroke-linecap="round" stroke-linejoin="round"/>
<path d="M8.9129 78.1395H76.9129" stroke="#3C3C3B" stroke-width="1.5" stroke-miterlimit="10" stroke-linecap="round" stroke-linejoin="round"/>
<path d="M63.1123 78.1395C64.2877 75.4576 64.9129 72.519 64.9129 69.3995C64.9129 57.3675 55.3011 47.6395 43.4129 47.6395C31.5247 47.6395 21.9129 57.3675 21.9129 69.3995C21.9129 72.5019 22.5313 75.5149 23.6942 78.1395C26.9129 78.1395 56.6626 78.1395 63.1123 78.1395Z" fill="white" stroke="#3C3C3B" stroke-width="1.5" stroke-miterlimit="10" stroke-linecap="round" stroke-linejoin="round"/>
<path d="M59.6558 77.7824C61.0672 75.1767 61.8272 72.2452 61.8272 69.0967C61.8272 58.891 53.5758 50.6395 43.37 50.6395C33.1643 50.6395 24.9129 58.891 24.9129 69.0967C24.9129 72.2452 25.6729 75.2852 27.0843 77.7824H59.6558Z" fill="#E9F6EE" stroke="#3C3C3B" stroke-width="1.5" stroke-miterlimit="10" stroke-linecap="round" stroke-linejoin="round"/>
<path d="M47.3031 71.4566C47.669 70.7249 47.9129 69.9932 47.9129 69.1395C47.9129 66.3346 45.7178 64.1395 42.9129 64.1395C40.108 64.1395 37.9129 66.3346 37.9129 69.1395C37.9129 69.9932 38.1568 70.8468 38.5227 71.4566H47.3031Z" fill="#3C3C3B"/>
<path d="M26.9129 77.5967L39.9415 70.5396" stroke="#3C3C3B" stroke-width="1.5" stroke-miterlimit="10" stroke-linecap="round" stroke-linejoin="round"/>
<path d="M58.9415 77.5967L45.9129 70.5396" stroke="#3C3C3B" stroke-width="1.5" stroke-miterlimit="10" stroke-linecap="round" stroke-linejoin="round"/>
<path d="M13.7341 36.1637L0.0869751 22.5166L18.8253 17.4961L13.7341 36.1637ZM3.97606 23.5772L12.6735 32.2746L15.9262 20.3952L3.97606 23.5772Z" fill="#FFF3D5"/>
<path opacity="0.5" d="M45 107L38 99.3L39.5 97.9L45 104L51.2 97.1L57.5 104L63.8 97.1L70 104L75.5 97.9L77 99.3L70 107L63.8 100.1L57.5 107L51.2 100.1L45 107Z" fill="#9FE3D8"/>
<path opacity="0.5" d="M57.1003 13.1003C53.7003 13.1003 50.9003 10.3003 50.9003 6.90032C50.9003 3.50032 53.7003 0.700317 57.1003 0.700317C60.5003 0.700317 63.3003 3.50032 63.3003 6.90032C63.3003 10.3003 60.5003 13.1003 57.1003 13.1003ZM57.1003 2.90032C54.9003 2.90032 53.1003 4.70032 53.1003 6.90032C53.1003 9.10032 54.9003 10.9003 57.1003 10.9003C59.3003 10.9003 61.1003 9.10032 61.1003 6.90032C61.2003 4.70032 59.3003 2.90032 57.1003 2.90032Z" fill="#D2AEDF"/>
</svg>
