<svg width="78" height="107" viewBox="0 0 78 107" fill="none" xmlns="http://www.w3.org/2000/svg">
<path d="M8.19994 106.4C4.79994 106.4 1.99994 103.6 1.99994 100.2C1.99994 96.8 4.79994 94 8.19994 94C11.5999 94 14.3999 96.8 14.3999 100.2C14.3999 103.6 11.5999 106.4 8.19994 106.4ZM8.19994 96.2C5.99994 96.2 4.19994 98 4.19994 100.2C4.19994 102.4 5.99994 104.2 8.19994 104.2C10.3999 104.2 12.1999 102.4 12.1999 100.2C12.2999 98 10.3999 96.2 8.19994 96.2Z" fill="#FFF3D5"/>
<g opacity="0.5">
<path d="M17.0999 17.2H-6.10352e-05V0H17.0999V17.2ZM2.19994 15H14.9999V2.2H2.19994V15Z" fill="#D2AEDF"/>
</g>
<g opacity="0.5">
<path d="M77.5999 100.9H56.9999L67.2999 83L77.5999 100.9ZM60.7999 98.8H73.8999L67.2999 87.4L60.7999 98.8Z" fill="#9FE3D8"/>
</g>
<circle cx="39.5" cy="54.5" r="5.5" fill="#40C8B2"/>
<circle cx="52.85" cy="54.5" r="2.5" fill="#E9F6EE"/>
<path d="M63.3393 37.0188L63.2214 36.9042C62.1714 35.8834 60.725 35.3 59.225 35.3H58.775C57.275 35.3 55.8393 35.8834 54.7786 36.9146L54.6607 37.0292C53.6 38.05 53 39.4563 53 40.9146C53 42.1334 53.4179 43.3209 54.1893 44.2896L59 50.3L63.8107 44.2896C64.5821 43.3209 65 42.1334 65 40.9146C65 39.4563 64.4 38.05 63.3393 37.0188ZM59 43.6334C57.575 43.6334 56.4286 42.5188 56.4286 41.1334C56.4286 39.748 57.575 38.6334 59 38.6334C60.425 38.6334 61.5714 39.748 61.5714 41.1334C61.5714 42.5188 60.425 43.6334 59 43.6334Z" fill="#56CCF2"/>
<path d="M25.1393 30.0188L25.0214 29.9042C23.9714 28.8834 22.525 28.3 21.025 28.3H20.575C19.075 28.3 17.6393 28.8834 16.5786 29.9146L16.4607 30.0292C15.4 31.05 14.8 32.4563 14.8 33.9146C14.8 35.1334 15.2178 36.3209 15.9893 37.2896L20.8 43.3L25.6107 37.2896C26.3821 36.3209 26.8 35.1334 26.8 33.9146C26.8 32.4563 26.2 31.05 25.1393 30.0188ZM20.8 36.6334C19.375 36.6334 18.2286 35.5188 18.2286 34.1334C18.2286 32.748 19.375 31.6334 20.8 31.6334C22.225 31.6334 23.3714 32.748 23.3714 34.1334C23.3714 35.5188 22.225 36.6334 20.8 36.6334Z" fill="#56CCF2"/>
<path d="M65.1038 44.4647C65.747 43.4113 66.1129 42.1915 66.1129 40.9607C66.1129 39.1643 65.4143 37.4677 64.1391 36.1925L64.0171 36.0706C62.7419 34.7954 61.0454 34.0968 59.249 34.0968H58.7833C58.5171 34.0968 58.251 34.119 57.9849 34.1522C52.9173 29.5393 46.375 27 39.5 27C35.0756 27 30.7177 28.0756 26.8256 30.1048C26.5817 29.75 26.3044 29.4062 25.994 29.0958L25.872 28.9738C24.5968 27.6986 22.9113 27 21.1038 27H20.6381C18.8417 27 17.1452 27.6986 15.87 28.9738L15.748 29.0958C14.4728 30.371 13.7742 32.0565 13.7742 33.8639C13.7742 35.3609 14.2732 36.8246 15.1935 38L16.4133 39.5746C13.5302 44.0212 12 49.1663 12 54.5C12 69.6694 24.3306 82 39.5 82C54.6694 82 67 69.6694 67 54.5C67 51.0292 66.3569 47.6583 65.1038 44.4647ZM59.249 35.871C60.5796 35.871 61.8216 36.3921 62.7641 37.3236L62.8861 37.4456C63.8286 38.3881 64.3387 39.63 64.3387 40.9607C64.3387 42.0585 63.9617 43.1452 63.2964 44.0101L59.0161 49.5101L54.7359 44.0101C54.0595 43.1452 53.6935 42.0585 53.6935 40.9607C53.6935 39.63 54.2147 38.3881 55.1462 37.4456L55.2681 37.3236C56.2107 36.381 57.4526 35.871 58.7833 35.871H59.249ZM20.1724 44.3982C20.3387 44.6089 20.5938 44.7419 20.871 44.7419C21.1482 44.7419 21.4032 44.62 21.5696 44.3982L26.5484 38C27.0696 37.3236 27.4466 36.5585 27.6794 35.7379C30.9617 33.6643 34.7208 32.5111 38.6129 32.3558V35.9153C29.0544 36.37 21.37 44.0544 20.9153 53.6129H17.3558C17.4889 50.2752 18.3649 47.0151 19.9284 44.0877L20.1724 44.3982ZM39.1341 55.3871L41.9395 58.1925C41.2409 58.6583 40.3982 58.9355 39.5 58.9355C37.3599 58.9355 35.5635 57.4052 35.1532 55.3871H39.1341ZM38.6129 53.6129H35.1532C35.5081 51.8831 36.872 50.5081 38.6129 50.1532V53.6129ZM33.3569 53.6129H28.0121C28.4446 47.9577 32.9577 43.4446 38.6129 43.0121V48.3569C35.8962 48.756 33.756 50.8962 33.3569 53.6129ZM38.6129 41.2379C31.9819 41.6815 26.6815 46.9819 26.2379 53.6129H22.6895C23.1442 45.0302 30.0302 38.1442 38.6129 37.6895V41.2379ZM26.2379 55.3871C26.6925 62.3064 32.4587 67.8064 39.5 67.8064C42.7601 67.8064 45.8316 66.6311 48.249 64.502L50.755 67.0081C47.6613 69.8135 43.7137 71.3548 39.5 71.3548C30.5071 71.3548 23.1552 64.2692 22.6895 55.3871H26.2379ZM39.5 66.0323C33.4456 66.0323 28.4667 61.3306 28.0121 55.3871H33.3569C33.7893 58.3921 36.373 60.7097 39.5 60.7097C40.8972 60.7097 42.1724 60.2439 43.2147 59.4677L47.0071 63.2601C44.9113 65.0454 42.2833 66.0323 39.5 66.0323ZM41.6401 55.3871H43.8468C43.7359 55.9526 43.503 56.4738 43.1925 56.9395L41.6401 55.3871ZM40.3871 53.6129V50.1532C42.1169 50.5081 43.4919 51.872 43.8468 53.6129H40.3871ZM20.9153 55.3871C21.381 65.245 29.5312 73.129 39.5 73.129C44.1905 73.129 48.5817 71.3992 52.0192 68.2722L54.5363 70.7893C50.5776 74.4375 45.2994 76.6774 39.5 76.6774C27.5685 76.6774 17.8105 67.2077 17.3448 55.3871H20.9153ZM55.7893 69.5363L44.4677 58.2147C45.0776 57.4052 45.4879 56.4405 45.6431 55.3871H49.3911C49.7903 56.9173 51.1653 58.0484 52.8175 58.0484C54.4698 58.0484 55.8448 56.9173 56.2439 55.3871H61.6663C61.4446 60.8317 59.249 65.7772 55.7893 69.5363ZM51.0323 54.5C51.0323 53.5242 51.8306 52.7258 52.8064 52.7258C53.7823 52.7258 54.5806 53.5242 54.5806 54.5C54.5806 55.4758 53.7823 56.2742 52.8064 56.2742C51.8306 56.2742 51.0323 55.4758 51.0323 54.5ZM56.2329 53.6129C55.8337 52.0827 54.4587 50.9516 52.8064 50.9516C51.1542 50.9516 49.7792 52.0827 49.38 53.6129H45.6321C45.2439 50.8962 43.0927 48.756 40.376 48.3569V32.3669C45.0222 32.5554 49.502 34.1966 53.1502 37.0685C52.3407 38.1996 51.9083 39.5524 51.9083 40.9718C51.9083 42.4688 52.4073 43.9325 53.3276 45.1079L58.3064 51.506C58.4728 51.7167 58.7278 51.8498 59.005 51.8498C59.2823 51.8498 59.5373 51.7278 59.7036 51.506L61.1341 49.6764C61.4224 50.9738 61.5776 52.2933 61.6331 53.624H56.2329V53.6129ZM39.5 28.7742C45.5544 28.7742 51.3316 30.881 55.9446 34.7288C55.379 34.995 54.8468 35.3387 54.3589 35.749C50.1452 32.4002 44.9113 30.5484 39.5 30.5484C35.4304 30.5484 31.4718 31.5685 27.9456 33.5091C27.9123 32.8881 27.8014 32.2782 27.6018 31.6905C31.2611 29.7944 35.3528 28.7742 39.5 28.7742ZM17.001 30.3488L17.123 30.2268C18.0544 29.2954 19.3075 28.7742 20.6381 28.7742H21.1038C22.4345 28.7742 23.6764 29.2954 24.619 30.2268L24.7409 30.3488C25.6835 31.2913 26.1935 32.5333 26.1935 33.8639C26.1935 34.9617 25.8165 36.0484 25.1512 36.9133L20.871 42.4133L16.5907 36.9133C15.9254 36.0484 15.5484 34.9617 15.5484 33.8639C15.5484 32.5333 16.0696 31.2802 17.001 30.3488ZM39.5 80.2258C25.3175 80.2258 13.7742 68.6825 13.7742 54.5C13.7742 49.7208 15.0938 45.1079 17.5776 41.0605L18.7419 42.5575C16.6573 46.1835 15.5484 50.2974 15.5484 54.5C15.5484 67.7067 26.2933 78.4516 39.5 78.4516C52.7067 78.4516 63.4516 67.7067 63.4516 54.5C63.4516 52.249 63.13 50.0423 62.5202 47.9022L63.8508 46.1946C64.7601 48.8669 65.2258 51.6502 65.2258 54.5111C65.2258 68.6825 53.6825 80.2258 39.5 80.2258Z" fill="#2F393F"/>
</svg>
