<svg width="65" height="64" viewBox="0 0 65 64" fill="none" xmlns="http://www.w3.org/2000/svg">
<path d="M32.0009 0C14.328 0 0 14.3263 0 31.9999C0 49.6727 14.328 64 32.0009 64C49.6737 64 64.0013 49.6727 64.0013 31.9999C64.0013 14.326 49.6732 0 32.0009 0ZM32.0009 59.8912C26.9728 59.8912 22.896 56.5324 22.896 52.39H41.1058C41.1058 56.5316 37.0292 59.8912 32.0009 59.8912ZM47.0394 49.906H16.9608V44.4516H47.0399V49.9057H47.0394V49.906ZM46.9314 41.6446H17.0466C16.9471 41.5301 16.8456 41.4171 16.7496 41.3008C13.6708 37.5622 12.9455 35.6107 12.2415 33.6217C12.2295 33.5562 15.9748 34.3867 18.6306 34.9842C18.6306 34.9842 19.9971 35.3004 21.9952 35.6647C20.0769 33.4162 18.9376 30.5576 18.9376 27.6355C18.9376 21.2209 23.8577 15.6156 22.0827 11.085C23.8102 11.2255 25.6578 14.7308 25.7828 20.2114C27.6193 17.6733 28.3878 13.0388 28.3878 10.1972C28.3878 7.25489 30.3266 3.83708 32.2659 3.72032C30.5371 6.56938 32.7134 9.01168 34.6484 15.0705C35.3739 17.3463 35.2814 21.1764 35.8415 23.6052C36.0275 18.5606 36.8947 11.2 40.095 8.65892C38.6833 11.859 40.304 15.8636 41.4126 17.7886C43.2011 20.8947 44.2851 23.2477 44.2851 27.6983C44.2851 30.6824 43.1833 33.4917 41.3251 35.688C43.4381 35.2914 44.8974 34.9339 44.8974 34.9339L51.76 33.5952C51.7605 33.5947 50.7632 37.6955 46.9314 41.6446Z" fill="#DA4E31"/>
</svg>
