<svg width="64" height="64" viewBox="0 0 64 64" fill="none" xmlns="http://www.w3.org/2000/svg">
<path d="M0 0H64V64H0V0Z" fill="#F7DF1E"/>
<path d="M16.828 53.4828L21.7255 50.5188C22.6705 52.1941 23.53 53.6116 25.5918 53.6116C27.568 53.6116 28.8143 52.8386 28.8143 49.8316V29.3821H34.8285V49.9166C34.8285 56.1458 31.177 58.9813 25.8495 58.9813C21.0383 58.9813 18.2455 56.4896 16.8278 53.4823L16.828 53.4828ZM38.0953 52.8383L42.9923 50.0031C44.2815 52.1083 45.957 53.6548 48.921 53.6548C51.4133 53.6548 53.0023 52.4088 53.0023 50.6903C53.0023 48.6283 51.3698 47.8978 48.6203 46.6953L47.117 46.0503C42.7778 44.2036 39.8995 41.8836 39.8995 36.9861C39.8995 32.4751 43.3363 29.0381 48.7065 29.0381C52.53 29.0381 55.2795 30.3701 57.2555 33.8498L52.5725 36.8573C51.5413 35.0101 50.4248 34.2798 48.7063 34.2798C46.9448 34.2798 45.8278 35.3968 45.8278 36.8573C45.8278 38.6616 46.9448 39.3923 49.5223 40.5093L51.0258 41.1536C56.1383 43.3448 59.0165 45.5786 59.0165 50.6046C59.0165 56.0181 54.7635 58.9821 49.0498 58.9821C43.465 58.9821 39.8563 56.3186 38.095 52.8386" fill="black"/>
</svg>
