<svg width="57" height="64" viewBox="0 0 57 64" fill="none" xmlns="http://www.w3.org/2000/svg">
<path d="M28.5 64C27.6 64 26.8 63.8 26 63.4L18.2 58.8C17 58.2 17.6 57.9 18 57.8C19.6 57.3 19.9 57.2 21.5 56.2C21.7 56.1 21.9 56.1 22.1 56.3L28.1 59.9C28.3 60 28.6 60 28.8 59.9L52.3 46.3C52.5 46.2 52.7 45.9 52.7 45.7V18.4C52.7 18.1 52.6 17.9 52.3 17.8L28.8 4.3C28.6 4.2 28.3 4.2 28.1 4.3L4.6 17.8C4.4 17.9 4.2 18.2 4.2 18.4V45.5C4.2 45.7 4.3 46 4.6 46.1L11 49.8C14.5 51.6 16.6 49.5 16.6 47.4V20.8C16.6 20.4 16.9 20.1 17.3 20.1H20.3C20.7 20.1 21 20.4 21 20.8V47.6C21 52.2 18.5 54.9 14.1 54.9C12.7 54.9 11.7 54.9 8.7 53.4L2.5 49.9C1 49 0 47.4 0 45.6V18.5C0 16.7 0.9 15.1 2.5 14.2L26 0.6C27.5 -0.2 29.5 -0.2 30.9 0.6L54.4 14.2C55.9 15.1 56.9 16.7 56.9 18.5V45.6C56.9 47.4 56 49 54.4 49.9L31 63.5C30.2 63.8 29.3 64 28.5 64ZM35.7 45.4C25.4 45.4 23.3 40.7 23.3 36.7C23.3 36.3 23.6 36 24 36H27.1C27.5 36 27.7 36.2 27.7 36.6C28.2 39.7 29.5 41.2 35.8 41.2C40.7 41.2 42.9 40.1 42.9 37.4C42.9 35.9 42.3 34.8 34.6 34C28.2 33.4 24.2 31.9 24.2 26.8C24.2 22 28.2 19.2 34.9 19.2C42.4 19.2 46.1 21.8 46.6 27.4C46.6 27.6 46.5 27.8 46.4 27.9C46.3 28 46.1 28.1 45.9 28.1H42.8C42.5 28.1 42.2 27.9 42.2 27.6C41.5 24.4 39.7 23.3 34.9 23.3C29.5 23.3 28.8 25.2 28.8 26.6C28.8 28.3 29.6 28.8 36.9 29.8C44.1 30.7 47.5 32.1 47.5 37.1C47.4 42.4 43.2 45.4 35.7 45.4Z" fill="#539E43"/>
</svg>
